<svg width="37" height="36" viewBox="0 0 37 36" fill="none" xmlns="http://www.w3.org/2000/svg">
<rect x="0.333008" width="36" height="36" rx="2" fill="#F4F5F7"/>
<path d="M24.5082 14.1753L20.4832 10.1503C20.1748 9.84199 19.7498 9.66699 19.3082 9.66699H13.3332C12.4165 9.66699 11.6748 10.417 11.6748 11.3337L11.6665 24.667C11.6665 25.5837 12.4082 26.3337 13.3248 26.3337H23.3332C24.2498 26.3337 24.9998 25.5837 24.9998 24.667V15.3587C24.9998 14.917 24.8248 14.492 24.5082 14.1753ZM16.8582 22.4087L15.0915 20.642C14.7665 20.317 14.7665 19.792 15.0915 19.467C15.4165 19.142 15.9415 19.142 16.2665 19.467L17.4415 20.642L20.3915 17.692C20.7165 17.367 21.2415 17.367 21.5665 17.692C21.8915 18.017 21.8915 18.542 21.5665 18.867L18.0332 22.4003C17.7165 22.7337 17.1832 22.7337 16.8582 22.4087ZM19.9998 15.5003C19.5415 15.5003 19.1665 15.1253 19.1665 14.667V10.917L23.7498 15.5003H19.9998Z" fill="#FB923C"/>
</svg>
