<svg width="37" height="36" viewBox="0 0 37 36" fill="none" xmlns="http://www.w3.org/2000/svg">
<rect x="0.666504" width="36" height="36" rx="2" fill="#F4F5F7"/>
<path d="M24.8417 14.1753L20.8167 10.1503C20.5083 9.84199 20.0833 9.66699 19.6417 9.66699H13.6667C12.75 9.66699 12.0083 10.417 12.0083 11.3337L12 24.667C12 25.5837 12.7417 26.3337 13.6583 26.3337H23.6667C24.5833 26.3337 25.3333 25.5837 25.3333 24.667V15.3587C25.3333 14.917 25.1583 14.492 24.8417 14.1753ZM17.1917 22.4087L15.425 20.642C15.1 20.317 15.1 19.792 15.425 19.467C15.75 19.142 16.275 19.142 16.6 19.467L17.775 20.642L20.725 17.692C21.05 17.367 21.575 17.367 21.9 17.692C22.225 18.017 22.225 18.542 21.9 18.867L18.3667 22.4003C18.05 22.7337 17.5167 22.7337 17.1917 22.4087ZM20.3333 15.5003C19.875 15.5003 19.5 15.1253 19.5 14.667V10.917L24.0833 15.5003H20.3333Z" fill="#33BFFF"/>
</svg>
