<svg width="36" height="36" viewBox="0 0 36 36" fill="none" xmlns="http://www.w3.org/2000/svg">
<rect width="36" height="36" rx="2" fill="#F4F5F7"/>
<path d="M24.1752 14.1753L20.1502 10.1503C19.8418 9.84199 19.4168 9.66699 18.9752 9.66699H13.0002C12.0835 9.66699 11.3418 10.417 11.3418 11.3337L11.3335 24.667C11.3335 25.5837 12.0752 26.3337 12.9918 26.3337H23.0002C23.9168 26.3337 24.6668 25.5837 24.6668 24.667V15.3587C24.6668 14.917 24.4918 14.492 24.1752 14.1753ZM16.5252 22.4087L14.7585 20.642C14.4335 20.317 14.4335 19.792 14.7585 19.467C15.0835 19.142 15.6085 19.142 15.9335 19.467L17.1085 20.642L20.0585 17.692C20.3835 17.367 20.9085 17.367 21.2335 17.692C21.5585 18.017 21.5585 18.542 21.2335 18.867L17.7002 22.4003C17.3835 22.7337 16.8502 22.7337 16.5252 22.4087ZM19.6668 15.5003C19.2085 15.5003 18.8335 15.1253 18.8335 14.667V10.917L23.4168 15.5003H19.6668Z" fill="#6366F1"/>
</svg>
