<svg width="16" height="16" viewBox="0 0 16 16" fill="none" xmlns="http://www.w3.org/2000/svg">
<path d="M10.8335 3.9987V4.4987H11.3335H14.1668V4.83203H13.3335H12.8335V5.33203V13.9987C12.8335 14.0908 12.7589 14.1654 12.6668 14.1654H3.3335C3.24145 14.1654 3.16683 14.0907 3.16683 13.9987V5.33203V4.83203H2.66683H1.8335V4.4987H4.66683H5.16683V3.9987V1.9987C5.16683 1.90665 5.24145 1.83203 5.3335 1.83203H10.6668C10.7589 1.83203 10.8335 1.90665 10.8335 1.9987V3.9987ZM12.5002 5.33203V4.83203H12.0002H4.00016H3.50016V5.33203V13.332V13.832H4.00016H12.0002H12.5002V13.332V5.33203ZM6.00016 2.16536H5.50016V2.66536V3.9987V4.4987H6.00016H10.0002H10.5002V3.9987V2.66536V2.16536H10.0002H6.00016ZM6.50016 7.83203H6.8335V10.832H6.50016V7.83203ZM9.16683 7.83203H9.50016V10.832H9.16683V7.83203Z" fill="black" stroke="#EF4444"/>
</svg>
