<svg width="16" height="16" viewBox="0 0 16 16" fill="none" xmlns="http://www.w3.org/2000/svg">
<mask id="path-1-inside-1_4167_20241" fill="white">
<path fill-rule="evenodd" clip-rule="evenodd" d="M8 1.5C8.13261 1.5 8.25979 1.55268 8.35355 1.64645C8.44732 1.74021 8.5 1.86739 8.5 2V9.79333L10.6467 7.64667C10.6924 7.59754 10.7476 7.55814 10.809 7.53081C10.8703 7.50348 10.9365 7.48879 11.0037 7.48761C11.0708 7.48642 11.1375 7.49877 11.1997 7.52392C11.262 7.54907 11.3185 7.5865 11.366 7.63398C11.4135 7.68145 11.4509 7.73801 11.4761 7.80027C11.5012 7.86253 11.5136 7.92921 11.5124 7.99635C11.5112 8.06348 11.4965 8.12969 11.4692 8.19103C11.4419 8.25236 11.4025 8.30756 11.3533 8.35333L8.35333 11.3533C8.25958 11.447 8.1325 11.4996 8 11.4996C7.8675 11.4996 7.74042 11.447 7.64667 11.3533L4.64667 8.35333C4.59754 8.30756 4.55814 8.25236 4.53081 8.19103C4.50348 8.12969 4.48879 8.06348 4.48761 7.99635C4.48642 7.92921 4.49877 7.86253 4.52392 7.80027C4.54907 7.73801 4.5865 7.68145 4.63397 7.63398C4.68145 7.5865 4.73801 7.54907 4.80027 7.52392C4.86253 7.49877 4.92921 7.48642 4.99635 7.48761C5.06348 7.48879 5.12969 7.50348 5.19103 7.53081C5.25236 7.55814 5.30756 7.59754 5.35333 7.64667L7.5 9.79333V2C7.5 1.86739 7.55268 1.74021 7.64645 1.64645C7.74022 1.55268 7.86739 1.5 8 1.5ZM2 10.5C2.13261 10.5 2.25979 10.5527 2.35355 10.6464C2.44732 10.7402 2.5 10.8674 2.5 11V12.5C2.5 12.7652 2.60536 13.0196 2.79289 13.2071C2.98043 13.3946 3.23478 13.5 3.5 13.5H12.5C12.7652 13.5 13.0196 13.3946 13.2071 13.2071C13.3946 13.0196 13.5 12.7652 13.5 12.5V11C13.5 10.8674 13.5527 10.7402 13.6464 10.6464C13.7402 10.5527 13.8674 10.5 14 10.5C14.1326 10.5 14.2598 10.5527 14.3536 10.6464C14.4473 10.7402 14.5 10.8674 14.5 11V12.5C14.5 13.0304 14.2893 13.5391 13.9142 13.9142C13.5391 14.2893 13.0304 14.5 12.5 14.5H3.5C2.96957 14.5 2.46086 14.2893 2.08579 13.9142C1.71071 13.5391 1.5 13.0304 1.5 12.5V11C1.5 10.8674 1.55268 10.7402 1.64645 10.6464C1.74021 10.5527 1.86739 10.5 2 10.5Z"/>
</mask>
<path fill-rule="evenodd" clip-rule="evenodd" d="M8 1.5C8.13261 1.5 8.25979 1.55268 8.35355 1.64645C8.44732 1.74021 8.5 1.86739 8.5 2V9.79333L10.6467 7.64667C10.6924 7.59754 10.7476 7.55814 10.809 7.53081C10.8703 7.50348 10.9365 7.48879 11.0037 7.48761C11.0708 7.48642 11.1375 7.49877 11.1997 7.52392C11.262 7.54907 11.3185 7.5865 11.366 7.63398C11.4135 7.68145 11.4509 7.73801 11.4761 7.80027C11.5012 7.86253 11.5136 7.92921 11.5124 7.99635C11.5112 8.06348 11.4965 8.12969 11.4692 8.19103C11.4419 8.25236 11.4025 8.30756 11.3533 8.35333L8.35333 11.3533C8.25958 11.447 8.1325 11.4996 8 11.4996C7.8675 11.4996 7.74042 11.447 7.64667 11.3533L4.64667 8.35333C4.59754 8.30756 4.55814 8.25236 4.53081 8.19103C4.50348 8.12969 4.48879 8.06348 4.48761 7.99635C4.48642 7.92921 4.49877 7.86253 4.52392 7.80027C4.54907 7.73801 4.5865 7.68145 4.63397 7.63398C4.68145 7.5865 4.73801 7.54907 4.80027 7.52392C4.86253 7.49877 4.92921 7.48642 4.99635 7.48761C5.06348 7.48879 5.12969 7.50348 5.19103 7.53081C5.25236 7.55814 5.30756 7.59754 5.35333 7.64667L7.5 9.79333V2C7.5 1.86739 7.55268 1.74021 7.64645 1.64645C7.74022 1.55268 7.86739 1.5 8 1.5ZM2 10.5C2.13261 10.5 2.25979 10.5527 2.35355 10.6464C2.44732 10.7402 2.5 10.8674 2.5 11V12.5C2.5 12.7652 2.60536 13.0196 2.79289 13.2071C2.98043 13.3946 3.23478 13.5 3.5 13.5H12.5C12.7652 13.5 13.0196 13.3946 13.2071 13.2071C13.3946 13.0196 13.5 12.7652 13.5 12.5V11C13.5 10.8674 13.5527 10.7402 13.6464 10.6464C13.7402 10.5527 13.8674 10.5 14 10.5C14.1326 10.5 14.2598 10.5527 14.3536 10.6464C14.4473 10.7402 14.5 10.8674 14.5 11V12.5C14.5 13.0304 14.2893 13.5391 13.9142 13.9142C13.5391 14.2893 13.0304 14.5 12.5 14.5H3.5C2.96957 14.5 2.46086 14.2893 2.08579 13.9142C1.71071 13.5391 1.5 13.0304 1.5 12.5V11C1.5 10.8674 1.55268 10.7402 1.64645 10.6464C1.74021 10.5527 1.86739 10.5 2 10.5Z" fill="#111827"/>
<path d="M8 1.5V0.5V1.5ZM8.5 9.79333H7.5V12.2075L9.20711 10.5004L8.5 9.79333ZM10.6467 7.64667L11.3538 8.35377L11.3663 8.3413L11.3783 8.32839L10.6467 7.64667ZM11.3533 8.35333L10.6716 7.62172L10.6587 7.63375L10.6462 7.64623L11.3533 8.35333ZM8.35333 11.3533L9.06 12.0609L9.06044 12.0604L8.35333 11.3533ZM7.64667 11.3533L6.93956 12.0604L6.94 12.0609L7.64667 11.3533ZM4.64667 8.35333L5.35377 7.64623L5.3413 7.63375L5.32839 7.62172L4.64667 8.35333ZM5.35333 7.64667L4.62172 8.32839L4.63375 8.3413L4.64623 8.35377L5.35333 7.64667ZM7.5 9.79333L6.79289 10.5004L8.5 12.2075V9.79333H7.5ZM7.5 2H8.5H7.5ZM14.5 12.5H15.5H14.5ZM12.5 14.5V15.5V14.5ZM3.5 14.5V15.5V14.5ZM1.5 12.5H0.5H1.5ZM8 2.5C7.86739 2.5 7.74021 2.44732 7.64645 2.35355L9.06066 0.93934C8.77936 0.658035 8.39783 0.5 8 0.5V2.5ZM7.64645 2.35355C7.55268 2.25979 7.5 2.13261 7.5 2H9.5C9.5 1.60217 9.34196 1.22064 9.06066 0.93934L7.64645 2.35355ZM7.5 2V9.79333H9.5V2H7.5ZM9.20711 10.5004L11.3538 8.35377L9.93956 6.93956L7.79289 9.08623L9.20711 10.5004ZM11.3783 8.32839C11.3325 8.37751 11.2773 8.41691 11.216 8.44424L10.402 6.61738C10.218 6.69937 10.0524 6.81758 9.91506 6.96494L11.3783 8.32839ZM11.216 8.44424C11.1546 8.47157 11.0884 8.48627 11.0213 8.48745L10.986 6.48776C10.7846 6.49131 10.586 6.5354 10.402 6.61738L11.216 8.44424ZM11.0213 8.48745C10.9542 8.48863 10.8875 8.47628 10.8252 8.45114L11.5743 6.5967C11.3875 6.52126 11.1874 6.48421 10.986 6.48776L11.0213 8.48745ZM10.8252 8.45114C10.763 8.42599 10.7064 8.38856 10.6589 8.34108L12.0731 6.92687C11.9307 6.78443 11.761 6.67214 11.5743 6.5967L10.8252 8.45114ZM10.6589 8.34108C10.6114 8.29361 10.574 8.23705 10.5489 8.17479L12.4033 7.42575C12.3279 7.23897 12.2156 7.0693 12.0731 6.92687L10.6589 8.34108ZM10.5489 8.17479C10.5237 8.11252 10.5114 8.04584 10.5125 7.97871L12.5122 8.01399C12.5158 7.81259 12.4787 7.61253 12.4033 7.42575L10.5489 8.17479ZM10.5125 7.97871C10.5137 7.91158 10.5284 7.84537 10.5558 7.78403L12.3826 8.59802C12.4646 8.41402 12.5087 8.21539 12.5122 8.01399L10.5125 7.97871ZM10.5558 7.78403C10.5831 7.7227 10.6225 7.6675 10.6716 7.62172L12.0351 9.08494C12.1824 8.94762 12.3006 8.78202 12.3826 8.59802L10.5558 7.78403ZM10.6462 7.64623L7.64623 10.6462L9.06044 12.0604L12.0604 9.06044L10.6462 7.64623ZM7.64667 10.6458C7.74042 10.5522 7.8675 10.4996 8 10.4996V12.4996C8.3975 12.4996 8.77875 12.3418 9.06 12.0609L7.64667 10.6458ZM8 10.4996C8.1325 10.4996 8.25958 10.5522 8.35333 10.6458L6.94 12.0609C7.22125 12.3418 7.6025 12.4996 8 12.4996V10.4996ZM8.35377 10.6462L5.35377 7.64623L3.93956 9.06044L6.93956 12.0604L8.35377 10.6462ZM5.32839 7.62172C5.37751 7.6675 5.41691 7.7227 5.44424 7.78403L3.61738 8.59802C3.69937 8.78202 3.81757 8.94762 3.96494 9.08494L5.32839 7.62172ZM5.44424 7.78403C5.47157 7.84537 5.48627 7.91157 5.48745 7.97871L3.48776 8.01399C3.49132 8.21539 3.5354 8.41402 3.61738 8.59802L5.44424 7.78403ZM5.48745 7.97871C5.48863 8.04584 5.47629 8.11253 5.45114 8.17479L3.5967 7.42575C3.52126 7.61253 3.48421 7.81258 3.48776 8.01399L5.48745 7.97871ZM5.45114 8.17479C5.42599 8.23705 5.38856 8.2936 5.34108 8.34108L3.92687 6.92687C3.78443 7.0693 3.67214 7.23897 3.5967 7.42575L5.45114 8.17479ZM5.34108 8.34108C5.2936 8.38856 5.23705 8.42599 5.17479 8.45114L4.42575 6.5967C4.23897 6.67214 4.0693 6.78443 3.92687 6.92687L5.34108 8.34108ZM5.17479 8.45114C5.11253 8.47628 5.04584 8.48863 4.97871 8.48745L5.01399 6.48776C4.81258 6.48421 4.61252 6.52126 4.42575 6.5967L5.17479 8.45114ZM4.97871 8.48745C4.91157 8.48627 4.84536 8.47157 4.78403 8.44424L5.59802 6.61738C5.41402 6.5354 5.2154 6.49131 5.01399 6.48776L4.97871 8.48745ZM4.78403 8.44424C4.72269 8.41691 4.66749 8.37751 4.62172 8.32839L6.08494 6.96494C5.94762 6.81757 5.78202 6.69937 5.59802 6.61738L4.78403 8.44424ZM4.64623 8.35377L6.79289 10.5004L8.20711 9.08623L6.06044 6.93956L4.64623 8.35377ZM8.5 9.79333V2H6.5V9.79333H8.5ZM8.5 2C8.5 2.13261 8.44732 2.25979 8.35355 2.35355L6.93934 0.93934C6.65804 1.22064 6.5 1.60217 6.5 2H8.5ZM8.35355 2.35355C8.25979 2.44732 8.13261 2.5 8 2.5V0.5C7.60218 0.5 7.22064 0.658035 6.93934 0.93934L8.35355 2.35355ZM2 11.5C1.86739 11.5 1.74021 11.4473 1.64645 11.3536L3.06066 9.93934C2.77936 9.65804 2.39783 9.5 2 9.5V11.5ZM1.64645 11.3536C1.55268 11.2598 1.5 11.1326 1.5 11H3.5C3.5 10.6022 3.34196 10.2206 3.06066 9.93934L1.64645 11.3536ZM1.5 11V12.5H3.5V11H1.5ZM1.5 12.5C1.5 13.0304 1.71071 13.5391 2.08579 13.9142L3.5 12.5H3.5H1.5ZM2.08579 13.9142C2.46086 14.2893 2.96957 14.5 3.5 14.5V12.5H3.5L2.08579 13.9142ZM3.5 14.5H12.5V12.5H3.5V14.5ZM12.5 14.5C13.0304 14.5 13.5391 14.2893 13.9142 13.9142L12.5 12.5V14.5ZM13.9142 13.9142C14.2893 13.5391 14.5 13.0304 14.5 12.5H12.5L13.9142 13.9142ZM14.5 12.5V11H12.5V12.5H14.5ZM14.5 11C14.5 11.1326 14.4473 11.2598 14.3536 11.3536L12.9393 9.93934C12.658 10.2206 12.5 10.6022 12.5 11H14.5ZM14.3536 11.3536C14.2598 11.4473 14.1326 11.5 14 11.5V9.5C13.6022 9.5 13.2206 9.65804 12.9393 9.93934L14.3536 11.3536ZM14 11.5C13.8674 11.5 13.7402 11.4473 13.6464 11.3536L15.0607 9.93934C14.7794 9.65804 14.3978 9.5 14 9.5V11.5ZM13.6464 11.3536C13.5527 11.2598 13.5 11.1326 13.5 11H15.5C15.5 10.6022 15.342 10.2206 15.0607 9.93934L13.6464 11.3536ZM13.5 11V12.5H15.5V11H13.5ZM13.5 12.5C13.5 12.7652 13.3946 13.0196 13.2071 13.2071L14.6213 14.6213C15.1839 14.0587 15.5 13.2956 15.5 12.5H13.5ZM13.2071 13.2071C13.0196 13.3946 12.7652 13.5 12.5 13.5V15.5C13.2956 15.5 14.0587 15.1839 14.6213 14.6213L13.2071 13.2071ZM12.5 13.5H3.5V15.5H12.5V13.5ZM3.5 13.5C3.23478 13.5 2.98043 13.3946 2.79289 13.2071L1.37868 14.6213C1.94129 15.1839 2.70435 15.5 3.5 15.5V13.5ZM2.79289 13.2071C2.60536 13.0196 2.5 12.7652 2.5 12.5H0.5C0.5 13.2956 0.816071 14.0587 1.37868 14.6213L2.79289 13.2071ZM2.5 12.5V11H0.5V12.5H2.5ZM2.5 11C2.5 11.1326 2.44732 11.2598 2.35355 11.3536L0.93934 9.93934C0.658035 10.2206 0.5 10.6022 0.5 11H2.5ZM2.35355 11.3536C2.25979 11.4473 2.13261 11.5 2 11.5V9.5C1.60217 9.5 1.22064 9.65804 0.93934 9.93934L2.35355 11.3536Z" fill="#71717A" mask="url(#path-1-inside-1_4167_20241)"/>
</svg>
