<svg width="23" height="26" viewBox="0 0 23 26" fill="none" xmlns="http://www.w3.org/2000/svg">
<path d="M0.564453 17.8496C0.271484 18.1426 0.125 18.5332 0.125 18.875C0.173828 19.7051 0.759766 20.4375 1.73633 20.4375H20.4375C21.4141 20.4375 22 19.7051 22 18.875C22.0488 18.5332 21.9023 18.1426 21.6094 17.8496C20.6816 16.8242 18.875 15.3105 18.875 10.2812C18.875 6.52148 16.2383 3.49414 12.625 2.71289V1.6875C12.625 0.857422 11.9414 0.125 11.0625 0.125C10.2324 0.125 9.54883 0.857422 9.54883 1.6875V2.71289C5.93555 3.49414 3.29883 6.52148 3.29883 10.2812C3.29883 15.3105 1.49219 16.8242 0.564453 17.8496ZM18.7285 18.0938H3.44531C4.4707 16.7754 5.59375 14.4805 5.64258 10.3301C5.64258 10.3301 5.59375 10.3301 5.59375 10.2812C5.59375 7.30273 8.08398 4.8125 11.0625 4.8125C14.0898 4.8125 16.5312 7.30273 16.5312 10.2812C16.5312 10.3301 16.5312 10.3301 16.5312 10.3301C16.5801 14.4805 17.7031 16.7754 18.7285 18.0938ZM11.0625 25.125C12.8203 25.125 14.1875 23.7578 14.1875 22H7.98633C7.98633 23.7578 9.35352 25.125 11.0625 25.125Z" fill="#C1C1C1"/>
</svg>
