<svg width="1366" height="303" viewBox="0 0 1366 303" fill="none" xmlns="http://www.w3.org/2000/svg">
<mask id="mask0_4459_22627" style="mask-type:luminance" maskUnits="userSpaceOnUse" x="0" y="0" width="1366" height="303">
<path d="M1366 0H0V303H1366V0Z" fill="white"/>
</mask>
<g mask="url(#mask0_4459_22627)">
<g filter="url(#filter0_d_4459_22627)">
<path d="M1366 0H0V303H1366V0Z" fill="url(#paint0_linear_4459_22627)"/>
</g>
<g opacity="0.191">
<path d="M168.979 -5V-22.065H189.79V-3.542H193.573L196.993 -0.509003V0.835999H175.323L168.979 -5ZM208.771 -22.06H213.595L214.631 -21.108L206.088 -13.246V0.835999H204.621L201.205 -2.31V-13.2L192.662 -21.116L193.639 -22.068H198.522L203.645 -17.352L208.771 -22.06ZM217.501 -22.06H232.817L239.233 -16.17V0.835999H217.501V-22.06ZM189.427 -27.841L192.843 -30.987H206.087V-26.555H189.427V-27.841ZM217.501 -39.86V-52.492L223.846 -58.328H239.233V-35.478H168.979V-36.773L172.279 -39.86H184.974V-46.2L192.05 -52.88H193.762L189.792 -49.18V-39.86H201.206V-46.427L204.622 -49.568H206.089V-39.86H217.501ZM222.565 -64.11L225.985 -67.251H239.233V-62.819H222.565V-64.11ZM198.579 -75L160.553 -40.027V36.82H92.1328L5.16281 116.808V246.923L-27.3672 276.845H-13.2672L92.1978 179.956L92.1388 116.807H160.619L247.653 36.819V-75H198.579Z" fill="white" fill-opacity="0.28"/>
</g>
<path d="M102.559 -14.4759V-43.5499H70.1462V-11.9759H64.2542L58.9313 -6.80988V-4.51688H92.6813L102.559 -14.4759ZM40.5843 -43.5499H33.0723L31.4593 -41.9259L44.7653 -28.5259V-4.51688H47.0502L52.3702 -9.87788V-28.4339L65.6752 -41.9259L64.1543 -43.5489H56.5543L48.5713 -35.5109L40.5843 -43.5499ZM26.9842 -43.5499H3.13125L-6.85675 -33.5029V-4.51688H26.9883L26.9842 -43.5499ZM70.7083 -53.4039L65.3883 -58.7649H44.7653V-51.2109H70.7122L70.7083 -53.4039ZM26.9883 -73.8809V-95.4129L17.1063 -105.36H-6.85375V-66.4119H102.559V-68.6199L97.4232 -73.8819H77.6523V-84.6899L66.6312 -96.0759H63.9632L70.1462 -89.7679V-73.8809H52.3692V-85.0759L47.0492 -90.4299H44.7653V-73.8809H26.9883ZM19.1003 -115.214L13.7733 -120.568H-6.85375V-113.014H19.1003V-115.214ZM56.4583 -133.776L115.681 -74.1659V56.8161H222.236L357.688 193.152V414.93L408.359 465.93H386.402L222.144 300.787L222.236 193.152H115.582L-19.9688 56.8161V-133.776H56.4583Z" stroke="white"/>
</g>
<defs>
<filter id="filter0_d_4459_22627" x="-30" y="-27" width="1426" height="363" filterUnits="userSpaceOnUse" color-interpolation-filters="sRGB">
<feFlood flood-opacity="0" result="BackgroundImageFix"/>
<feColorMatrix in="SourceAlpha" type="matrix" values="0 0 0 0 0 0 0 0 0 0 0 0 0 0 0 0 0 0 127 0" result="hardAlpha"/>
<feOffset dy="3"/>
<feGaussianBlur stdDeviation="15"/>
<feColorMatrix type="matrix" values="0 0 0 0 0.866667 0 0 0 0 0.866667 0 0 0 0 0.866667 0 0 0 0.161 0"/>
<feBlend mode="normal" in2="BackgroundImageFix" result="effect1_dropShadow_4459_22627"/>
<feBlend mode="normal" in="SourceGraphic" in2="effect1_dropShadow_4459_22627" result="shape"/>
</filter>
<linearGradient id="paint0_linear_4459_22627" x1="721.248" y1="63.933" x2="712.638" y2="1400.02" gradientUnits="userSpaceOnUse">
<stop stop-color="#0D0D0D"/>
<stop offset="1" stop-color="#326D6D"/>
</linearGradient>
</defs>
</svg>
