<svg width="153" height="91" viewBox="0 0 153 91" fill="none" xmlns="http://www.w3.org/2000/svg">
<g clip-path="url(#clip0_4459_22644)">
<mask id="mask0_4459_22644" style="mask-type:luminance" maskUnits="userSpaceOnUse" x="0" y="69" width="152" height="22">
<path d="M151.719 69.8398H0V90.8708H151.719V69.8398Z" fill="white"/>
</mask>
<g mask="url(#mask0_4459_22644)">
<path d="M4.69501 76.6557C4.75301 76.6557 4.78201 76.6817 4.78201 76.7337V77.1397C4.78201 77.1917 4.75301 77.2177 4.69501 77.2177C4.48918 77.2364 4.28172 77.2113 4.08628 77.1441C3.89083 77.0769 3.71182 76.969 3.56101 76.8277C3.06473 77.1075 2.51005 77.2678 1.94101 77.2957C1.6793 77.3047 1.41872 77.2571 1.1771 77.1562C0.93548 77.0552 0.718505 76.9033 0.54101 76.7107C0.177937 76.3136 -0.015811 75.7905 0.00101049 75.2527C-0.0112007 74.702 0.183636 74.1667 0.54701 73.7527C0.718235 73.5516 0.9323 73.3914 1.17351 73.2837C1.41472 73.1761 1.67697 73.1238 1.94101 73.1307C2.37279 73.1438 2.79906 73.2315 3.20101 73.3897V72.8267L3.72901 72.7267V75.5467C3.70111 75.849 3.78079 76.1514 3.95401 76.4007C4.05281 76.4939 4.17041 76.5649 4.29891 76.6089C4.42741 76.6528 4.56383 76.6688 4.69901 76.6557M1.94101 76.7507C2.41916 76.7398 2.88914 76.6244 3.31801 76.4127C3.23453 76.138 3.19504 75.8518 3.20101 75.5647V73.9187C2.80254 73.776 2.38559 73.6915 1.96301 73.6677C1.76543 73.6629 1.56924 73.7019 1.38854 73.7819C1.20785 73.862 1.04715 73.9811 0.91801 74.1307C0.643967 74.4345 0.494995 74.8307 0.50101 75.2397C0.485784 75.6391 0.629641 76.0283 0.90101 76.3217C1.033 76.4629 1.19363 76.5741 1.37213 76.6481C1.55063 76.7221 1.74289 76.7571 1.93601 76.7507M1.75001 71.6927L1.25701 72.1927L0.75701 71.6927L1.25101 71.1987L1.75001 71.6927ZM3.08401 71.6927L2.59101 72.1927L2.08001 71.6927L2.58001 71.1987L3.08401 71.6927Z" fill="white"/>
<path d="M6.37638 76.6558C6.43438 76.6558 6.46338 76.6818 6.46338 76.7338V77.1398C6.46338 77.1918 6.43438 77.2178 6.37638 77.2178H4.69637C4.63837 77.2178 4.60938 77.1918 4.60938 77.1398V76.7338C4.60938 76.6818 4.63837 76.6558 4.69637 76.6558H6.37638Z" fill="white"/>
<path d="M9.60216 76.6567C9.66016 76.6567 9.68916 76.6827 9.68916 76.7337V77.1397C9.68916 77.1917 9.66016 77.2177 9.60216 77.2177C9.02802 77.2122 8.47732 76.9892 8.06116 76.5937C7.85145 76.827 7.58807 77.0057 7.29379 77.1145C6.99952 77.2232 6.68319 77.2586 6.37216 77.2177C6.31416 77.2177 6.28516 77.1917 6.28516 77.1397V76.7337C6.28516 76.6827 6.31416 76.6567 6.37216 76.6567C6.75423 76.6892 7.13633 76.5946 7.45916 76.3877C7.57982 76.2781 7.67354 76.1421 7.73304 75.9903C7.79253 75.8385 7.81619 75.6751 7.80216 75.5127V73.9887L8.33016 73.8887V75.6087C8.33342 75.7981 8.31327 75.9872 8.27016 76.1717C8.64543 76.4812 9.11569 76.6525 9.60216 76.6567ZM6.78416 78.5097L7.27716 78.0157L7.77716 78.5097L7.28316 79.0097L6.78416 78.5097ZM8.10916 78.5097L8.60916 78.0157L9.10916 78.5097L8.61616 79.0097L8.10916 78.5097Z" fill="white"/>
<path d="M11.2876 76.6558C11.3456 76.6558 11.3746 76.6818 11.3746 76.7338V77.1398C11.3746 77.1918 11.3456 77.2178 11.2876 77.2178H9.60263C9.54463 77.2178 9.51562 77.1918 9.51562 77.1398V76.7338C9.51562 76.6818 9.54463 76.6558 9.60263 76.6558H11.2876Z" fill="white"/>
<path d="M11.2852 77.219C11.2282 77.219 11.1992 77.193 11.1992 77.141V76.734C11.1992 76.682 11.2282 76.656 11.2852 76.656C12.0932 76.656 12.4976 76.275 12.4982 75.513V73.04L13.0262 72.94V75.608C13.0399 75.8263 13.0077 76.0451 12.9318 76.2502C12.8558 76.4553 12.7378 76.6423 12.5852 76.799C12.2229 77.1025 11.7566 77.2532 11.2852 77.219ZM12.7492 72.152L12.2382 71.658L12.7382 71.165L13.2382 71.658L12.7492 72.152Z" fill="white"/>
<path d="M18.2923 76.6561C18.3493 76.6561 18.3783 76.6821 18.3783 76.7341V77.1401C18.3783 77.1921 18.3493 77.2181 18.2923 77.2181H17.7383C17.639 78.4587 16.6023 79.0797 14.6283 79.0811L14.5593 78.5951C15.2125 78.6282 15.8649 78.5159 16.4693 78.2661C16.6752 78.1736 16.8524 78.0275 16.9826 77.8432C17.1127 77.6589 17.191 77.443 17.2093 77.2181H16.0843C15.8154 77.2308 15.5466 77.1891 15.2942 77.0954C15.0418 77.0018 14.8109 76.8581 14.6153 76.6731C14.4271 76.4752 14.2813 76.2409 14.1867 75.9847C14.0922 75.7286 14.0509 75.4558 14.0653 75.1831C14.0548 74.9114 14.0979 74.6403 14.1923 74.3853C14.2867 74.1303 14.4304 73.8964 14.6153 73.6971C14.7964 73.5075 15.0153 73.3582 15.2579 73.259C15.5005 73.1597 15.7613 73.1127 16.0233 73.1211C16.2557 73.1134 16.487 73.1559 16.7015 73.2456C16.916 73.3353 17.1086 73.4702 17.2663 73.6411C17.5953 74.0122 17.7674 74.4965 17.7463 74.9921V76.6561H18.2923ZM14.5593 75.1561C14.5455 75.3636 14.5767 75.5716 14.6508 75.7659C14.7248 75.9603 14.8399 76.1363 14.9883 76.2821C15.3185 76.5575 15.7411 76.697 16.1703 76.6721C16.3663 76.6721 16.7183 76.6661 17.2263 76.6541V75.0401C17.2417 74.6782 17.1163 74.3244 16.8763 74.0531C16.7592 73.9268 16.6162 73.8274 16.457 73.7617C16.2979 73.6959 16.1264 73.6653 15.9543 73.6721C15.7685 73.6666 15.5836 73.7 15.4114 73.77C15.2392 73.8401 15.0835 73.9454 14.9543 74.0791C14.8191 74.2221 14.714 74.3909 14.6453 74.5754C14.5765 74.7599 14.5456 74.9564 14.5543 75.1531" fill="white"/>
<path d="M19.974 76.6558C20.033 76.6558 20.061 76.6818 20.061 76.7338V77.1398C20.061 77.1918 20.033 77.2178 19.974 77.2178H18.294C18.236 77.2178 18.207 77.1918 18.207 77.1398V76.7338C18.207 76.6818 18.236 76.6558 18.294 76.6558H19.974Z" fill="white"/>
<path d="M19.9727 77.219C19.9157 77.219 19.8867 77.193 19.8867 77.141V76.734C19.8867 76.682 19.9157 76.656 19.9727 76.656C20.7807 76.656 21.1851 76.275 21.1857 75.513V73.04L21.7137 72.94V75.608C21.7274 75.8263 21.6952 76.0451 21.6193 76.2502C21.5433 76.4553 21.4253 76.6423 21.2727 76.799C20.9104 77.1025 20.4442 77.2532 19.9727 77.219ZM21.4367 72.152L20.9257 71.658L21.4257 71.165L21.9257 71.658L21.4367 72.152Z" fill="white"/>
<path d="M24.8657 77.2189C24.6338 77.255 24.3966 77.2366 24.173 77.1652C23.9494 77.0938 23.7455 76.9713 23.5775 76.8074C23.4094 76.6435 23.2818 76.4428 23.2048 76.221C23.1278 75.9993 23.1034 75.7627 23.1337 75.5299V70.9999L23.6617 70.8999V75.4519C23.6391 75.6148 23.6546 75.7807 23.707 75.9365C23.7593 76.0924 23.847 76.2341 23.9633 76.3503C24.0796 76.4666 24.2212 76.5543 24.3771 76.6067C24.533 76.659 24.6988 76.6745 24.8617 76.6519C24.9197 76.6519 24.9487 76.6779 24.9487 76.7299V77.1399C24.9487 77.1919 24.9197 77.2179 24.8617 77.2179" fill="white"/>
<path d="M26.5483 76.6558C26.6063 76.6558 26.6353 76.6818 26.6353 76.7338V77.1398C26.6353 77.1918 26.6063 77.2178 26.5483 77.2178H24.8682C24.8102 77.2178 24.7812 77.1918 24.7812 77.1398V76.7338C24.7812 76.6818 24.8102 76.6558 24.8682 76.6558H26.5483Z" fill="white"/>
<path d="M31.4239 76.6568C31.4819 76.6568 31.5109 76.6828 31.5109 76.7338V77.1398C31.5109 77.1918 31.4819 77.2178 31.4239 77.2178C30.618 77.2319 29.8138 77.1356 29.0339 76.9318C28.223 77.1442 27.386 77.2405 26.5479 77.2178C26.4899 77.2178 26.4609 77.1918 26.4609 77.1398V76.7338C26.4609 76.6828 26.4899 76.6568 26.5479 76.6568C27.0858 76.6628 27.6236 76.6394 28.1589 76.5868C27.8528 76.4339 27.5964 76.1974 27.4194 75.9046C27.2424 75.6118 27.152 75.2748 27.1589 74.9328C27.1521 74.6913 27.1955 74.4511 27.2863 74.2273C27.3772 74.0035 27.5137 73.801 27.6869 73.6328C27.8606 73.4628 28.0667 73.3295 28.293 73.2409C28.5192 73.1522 28.761 73.11 29.0039 73.1168C29.2508 73.1094 29.4966 73.152 29.7265 73.242C29.9564 73.3321 30.1658 73.4677 30.3419 73.6408C30.5147 73.8067 30.6513 74.0067 30.743 74.228C30.8347 74.4493 30.8796 74.6872 30.8749 74.9268C30.8786 75.2689 30.7864 75.6053 30.6088 75.8978C30.4312 76.1903 30.1752 76.4272 29.8699 76.5818C30.3844 76.641 30.9021 76.6671 31.4199 76.6598M27.6819 74.9848C27.6795 75.33 27.8065 75.6636 28.0379 75.9198C28.2966 76.2053 28.6342 76.4075 29.0079 76.5008C29.3854 76.3943 29.7267 76.1868 29.9949 75.9008C30.2266 75.6484 30.3536 75.3173 30.3499 74.9748C30.3557 74.7978 30.3245 74.6217 30.2582 74.4576C30.1919 74.2935 30.092 74.145 29.9649 74.0218C29.8354 73.8979 29.6824 73.8011 29.515 73.737C29.3476 73.673 29.1691 73.643 28.9899 73.6488C28.8162 73.643 28.6431 73.6732 28.4815 73.7374C28.32 73.8015 28.1734 73.8984 28.0509 74.0218C27.9275 74.1486 27.8312 74.2992 27.7678 74.4644C27.7043 74.6296 27.6751 74.8059 27.6819 74.9828M28.8689 71.7958L28.3759 72.2958L27.8759 71.7958L28.3699 71.3018L28.8689 71.7958ZM30.2029 71.7958L29.7089 72.2958L29.1989 71.7958L29.6989 71.3018L30.2029 71.7958Z" fill="white"/>
<path d="M33.1029 76.6558C33.1609 76.6558 33.1899 76.6818 33.1899 76.7338V77.1398C33.1899 77.1918 33.1609 77.2178 33.1029 77.2178H31.4229C31.3649 77.2178 31.3359 77.1918 31.3359 77.1398V76.7338C31.3359 76.6818 31.3649 76.6558 31.4229 76.6558H33.1029Z" fill="white"/>
<path d="M33.1026 77.2189C33.0446 77.2189 33.0156 77.1929 33.0156 77.1409V76.7339C33.0156 76.6819 33.0446 76.6559 33.1026 76.6559C33.2663 76.6799 33.4334 76.6655 33.5905 76.6138C33.7477 76.5622 33.8908 76.4748 34.0084 76.3584C34.126 76.2421 34.215 76.1 34.2683 75.9433C34.3216 75.7867 34.3378 75.6199 34.3156 75.4559V70.9999L34.8436 70.8999V75.5299C34.8732 75.7633 34.848 76.0004 34.7701 76.2225C34.6923 76.4445 34.5638 76.6454 34.3949 76.8092C34.2261 76.973 34.0214 77.0953 33.7971 77.1664C33.5728 77.2375 33.335 77.2555 33.1026 77.2189Z" fill="white"/>
<path d="M36.4297 77.2189V70.9999L36.9577 70.8999V77.2189H36.4297Z" fill="white"/>
<path d="M45.5833 70.8789V76.3699C45.6206 77.0768 45.4148 77.7751 45.0003 78.3489C44.7725 78.6057 44.4879 78.8056 44.1691 78.9327C43.8503 79.0598 43.5062 79.1106 43.1643 79.0809C42.5578 79.1098 41.9629 78.9071 41.5003 78.5139C41.2821 78.299 41.1131 78.0395 41.0047 77.7531C40.8963 77.4668 40.8511 77.1604 40.8723 76.8549C40.8875 76.1384 41.0193 75.4291 41.2623 74.7549L41.6953 74.8759C41.4788 75.4732 41.3646 76.1027 41.3573 76.7379C41.3484 76.9821 41.3887 77.2256 41.4758 77.4539C41.5629 77.6822 41.695 77.8907 41.8643 78.0669C42.2389 78.3901 42.7254 78.5535 43.2193 78.5219C43.475 78.5413 43.7317 78.5032 43.9707 78.4102C44.2097 78.3173 44.4249 78.172 44.6003 77.9849C44.9398 77.5068 45.1005 76.9245 45.0543 76.3399V70.9829L45.5833 70.8789Z" fill="white"/>
<path d="M48.7798 77.2189C48.5478 77.255 48.3107 77.2366 48.0871 77.1652C47.8635 77.0938 47.6596 76.9713 47.4915 76.8074C47.3235 76.6435 47.1959 76.4428 47.1189 76.221C47.0418 75.9993 47.0175 75.7627 47.0478 75.5299V70.9999L47.5758 70.8999V75.4519C47.5532 75.6148 47.5687 75.7807 47.621 75.9365C47.6733 76.0924 47.7611 76.2341 47.8773 76.3503C47.9936 76.4666 48.1353 76.5543 48.2911 76.6067C48.447 76.659 48.6129 76.6745 48.7758 76.6519C48.8338 76.6519 48.8628 76.6779 48.8628 76.7299V77.1399C48.8628 77.1919 48.8338 77.2179 48.7758 77.2179" fill="white"/>
<path d="M50.4584 76.6558C50.5164 76.6558 50.5454 76.6818 50.5454 76.7338V77.1398C50.5454 77.1918 50.5164 77.2178 50.4584 77.2178H48.7784C48.7204 77.2178 48.6914 77.1918 48.6914 77.1398V76.7338C48.6914 76.6818 48.7204 76.6558 48.7784 76.6558H50.4584Z" fill="white"/>
<path d="M55.3082 76.6559C55.3652 76.6559 55.3942 76.6819 55.3942 76.7339V77.1399C55.3942 77.1919 55.3652 77.2179 55.3082 77.2179H53.1992C52.6958 77.2365 52.2001 77.0905 51.7872 76.8019C51.3903 77.0628 50.928 77.2069 50.4532 77.2179C50.3962 77.2179 50.3672 77.1919 50.3672 77.1399V76.7339C50.3672 76.6819 50.3962 76.6559 50.4532 76.6559C50.7875 76.652 51.1165 76.572 51.4152 76.4219C51.1352 76.032 50.9943 75.5594 51.0152 75.0799C51.0067 74.8217 51.0493 74.5644 51.1406 74.3228C51.2319 74.0812 51.3701 73.8599 51.5472 73.6719C51.7239 73.4875 51.9375 73.3424 52.1741 73.2463C52.4107 73.1501 52.6649 73.105 52.9202 73.1139C53.1718 73.1104 53.4213 73.1598 53.6525 73.2591C53.8837 73.3583 54.0914 73.5051 54.2622 73.6899C54.4384 73.8634 54.5783 74.0703 54.6736 74.2985C54.7689 74.5267 54.8177 74.7716 54.8172 75.0189C54.7976 75.5823 54.6742 76.1373 54.4532 76.6559H55.3082ZM53.1252 76.6559H53.9392C54.1471 76.1696 54.269 75.6509 54.2992 75.1229C54.3023 74.7442 54.1668 74.3775 53.9182 74.0919C53.8055 73.9499 53.6619 73.8355 53.4983 73.7575C53.3347 73.6795 53.1554 73.64 52.9742 73.6419C52.7813 73.6324 52.5886 73.6637 52.4087 73.7339C52.2288 73.804 52.0657 73.9114 51.9302 74.0489C51.6654 74.3422 51.527 74.7282 51.5452 75.1229C51.536 75.3288 51.5697 75.5344 51.644 75.7267C51.7184 75.919 51.8318 76.0937 51.9772 76.2399C52.1308 76.3831 52.3115 76.494 52.5087 76.5661C52.7058 76.6383 52.9155 76.6702 53.1252 76.6599" fill="white"/>
<path d="M56.9897 76.6558C57.0477 76.6558 57.0767 76.6818 57.0767 76.7338V77.1398C57.0767 77.1918 57.0477 77.2178 56.9897 77.2178H55.3097C55.2517 77.2178 55.2227 77.1918 55.2227 77.1398V76.7338C55.2227 76.6818 55.2517 76.6558 55.3097 76.6558H56.9897Z" fill="white"/>
<path d="M58.5743 76.622C59.5357 76.5694 60.4931 76.4596 61.4413 76.293L61.3283 76.847C59.8965 77.1041 58.444 77.2286 56.9893 77.219C56.9323 77.219 56.9023 77.193 56.9023 77.142V76.734C56.9023 76.682 56.9323 76.656 56.9893 76.656C57.4623 76.656 57.8033 76.656 58.0113 76.648C57.6375 76.1559 57.4276 75.5588 57.4113 74.941C57.4053 74.6964 57.4526 74.4535 57.5498 74.229C57.647 74.0045 57.7919 73.8039 57.9743 73.641C58.3433 73.2992 58.8306 73.1142 59.3333 73.125C59.8527 73.1556 60.3642 73.267 60.8493 73.455L60.7023 73.914C60.2935 73.7765 59.868 73.6951 59.4373 73.672C59.0429 73.6579 58.6578 73.7936 58.3593 74.052C58.2168 74.1803 58.1044 74.3385 58.0303 74.5154C57.9561 74.6923 57.922 74.8833 57.9303 75.075C57.9531 75.6514 58.1803 76.2008 58.5713 76.625" fill="white"/>
<path d="M66.1291 70.9998L66.6481 70.8998V75.5298C66.6778 75.7632 66.6528 76.0003 66.5751 76.2223C66.4973 76.4444 66.369 76.6453 66.2002 76.8091C66.0313 76.973 65.8267 77.0953 65.6025 77.1664C65.3782 77.2375 65.1405 77.2555 64.9081 77.2188H62.0021L61.8711 76.6558H64.1151L63.1891 72.1608L63.7261 72.0228L64.6261 76.6558H64.9111C65.074 76.6784 65.2399 76.6629 65.3957 76.6106C65.5516 76.5583 65.6933 76.4705 65.8095 76.3543C65.9258 76.238 66.0135 76.0964 66.0659 75.9405C66.1182 75.7846 66.1337 75.6187 66.1111 75.4558L66.1291 70.9998ZM64.2661 71.0998L64.1661 71.4718H62.2491V71.0958H62.7491C62.6517 70.9367 62.6008 70.7534 62.6021 70.5668C62.5997 70.47 62.6176 70.3738 62.6548 70.2843C62.6921 70.1949 62.7477 70.1143 62.8181 70.0478C62.8908 69.9784 62.9766 69.9242 63.0706 69.8885C63.1645 69.8528 63.2647 69.8362 63.3651 69.8398C63.5839 69.8503 63.7985 69.9033 63.9971 69.9958V70.3398C63.8198 70.2609 63.629 70.2168 63.4351 70.2098C63.3742 70.2076 63.3134 70.2173 63.2562 70.2386C63.1991 70.2599 63.1467 70.2923 63.1021 70.3338C63.0592 70.3734 63.0254 70.4218 63.003 70.4756C62.9806 70.5295 62.97 70.5875 62.9721 70.6458C62.9695 70.8109 63.0279 70.9711 63.1361 71.0958L64.2661 71.0998Z" fill="white"/>
<path d="M68.2344 77.2189V70.9999L68.7634 70.8999V77.2189H68.2344Z" fill="white"/>
<path d="M78.1298 76.6557C78.1878 76.6557 78.2168 76.6817 78.2168 76.7337V77.1397C78.2168 77.1917 78.1878 77.2177 78.1298 77.2177H76.0298C75.5335 77.235 75.0448 77.0923 74.6358 76.8107C74.2528 76.5348 73.9896 76.1231 73.8998 75.6597C73.7818 75.6735 73.6678 75.711 73.5646 75.7698C73.4614 75.8287 73.3712 75.9078 73.2993 76.0024C73.2274 76.097 73.1753 76.2051 73.1462 76.3203C73.1171 76.4355 73.1115 76.5553 73.1298 76.6727V79.4537L72.6008 79.5537V76.5537C72.5774 76.3752 72.5916 76.1938 72.6426 76.0212C72.6936 75.8486 72.7802 75.6886 72.8969 75.5515C73.0135 75.4144 73.1576 75.3032 73.3199 75.2253C73.4821 75.1473 73.6589 75.1042 73.8388 75.0987V75.0797C73.8308 74.8212 73.8741 74.5636 73.9663 74.3219C74.0584 74.0802 74.1976 73.8592 74.3758 73.6717C74.5521 73.488 74.7651 73.3433 75.001 73.2472C75.2368 73.1511 75.4902 73.1056 75.7448 73.1137C75.9947 73.1094 76.2427 73.1581 76.4724 73.2565C76.7022 73.3549 76.9085 73.5009 77.0778 73.6847C77.2525 73.8599 77.3907 74.068 77.4844 74.297C77.5781 74.526 77.6255 74.7713 77.6238 75.0187C77.6013 75.5818 77.478 76.1362 77.2598 76.6557H78.1298ZM75.9478 76.6557H76.7708C76.9856 76.1711 77.1115 75.6519 77.1428 75.1227C77.1458 74.7426 77.0071 74.3751 76.7538 74.0917C76.639 73.9495 76.4936 73.835 76.3284 73.7567C76.1633 73.6784 75.9826 73.6385 75.7998 73.6397C75.6071 73.6301 75.4145 73.6614 75.2347 73.7315C75.055 73.8017 74.8921 73.9091 74.7568 74.0467C74.4916 74.3399 74.3529 74.7258 74.3708 75.1207C74.3605 75.3268 74.3934 75.5328 74.4672 75.7255C74.5411 75.9182 74.6544 76.0933 74.7998 76.2397C74.9531 76.383 75.1337 76.4939 75.3307 76.5661C75.5277 76.6382 75.7372 76.6701 75.9468 76.6597" fill="white"/>
<path d="M79.81 76.6558C79.868 76.6558 79.897 76.6818 79.897 76.7338V77.1398C79.897 77.1918 79.868 77.2178 79.81 77.2178H78.13C78.072 77.2178 78.043 77.1918 78.043 77.1398V76.7338C78.043 76.6818 78.072 76.6558 78.13 76.6558H79.81Z" fill="white"/>
<path d="M83.0436 76.6567C83.1006 76.6567 83.1306 76.6827 83.1306 76.7337V77.1397C83.1306 77.1917 83.1006 77.2177 83.0436 77.2177C82.4698 77.2124 81.9193 76.9902 81.5026 76.5957C81.2929 76.8291 81.0295 77.0079 80.7352 77.1166C80.441 77.2253 80.1246 77.2607 79.8136 77.2197C79.7556 77.2197 79.7266 77.1937 79.7266 77.1417V76.7337C79.7266 76.6827 79.7556 76.6567 79.8136 76.6567C80.1963 76.6896 80.5792 76.595 80.9026 76.3877C81.0214 76.2771 81.1133 76.1407 81.171 75.989C81.2287 75.8372 81.2508 75.6743 81.2356 75.5127V73.9887L81.7646 73.8887V75.6087C81.7681 75.7982 81.7476 75.9873 81.7036 76.1717C82.082 76.4833 82.5564 76.6546 83.0466 76.6567M80.2196 78.5097L80.7136 78.0157L81.2136 78.5097L80.7196 79.0097L80.2196 78.5097ZM81.5446 78.5097L82.0446 78.0157L82.5446 78.5097L82.0516 79.0097L81.5446 78.5097Z" fill="white"/>
<path d="M84.7201 76.6558C84.7781 76.6558 84.8071 76.6818 84.8071 76.7338V77.1398C84.8071 77.1918 84.7781 77.2178 84.7201 77.2178H83.0401C82.9821 77.2178 82.9531 77.1918 82.9531 77.1398V76.7338C82.9531 76.6818 82.9821 76.6558 83.0401 76.6558H84.7201Z" fill="white"/>
<path d="M92.5537 76.6569C92.6107 76.6569 92.6397 76.6829 92.6397 76.7339V77.1399C92.6397 77.1919 92.6107 77.2179 92.5537 77.2179C92.0213 77.2018 91.513 76.9924 91.1237 76.6289C90.9479 76.8362 90.7246 76.998 90.4729 77.1005C90.2211 77.203 89.9484 77.2433 89.6777 77.2179H84.7237C84.6657 77.2179 84.6367 77.1919 84.6367 77.1399V76.7339C84.6367 76.6829 84.6657 76.6569 84.7237 76.6569H85.6507V71.0009L86.1787 70.9009V74.0709C87.1081 73.6895 87.7994 73.4299 88.2527 73.2919C88.6858 73.1559 89.1368 73.0854 89.5907 73.0829C89.834 73.0753 90.0763 73.1167 90.3032 73.2047C90.5302 73.2926 90.7371 73.4253 90.9117 73.5949C91.0847 73.7632 91.2207 73.9657 91.3109 74.1896C91.4012 74.4134 91.4437 74.6537 91.4357 74.8949L91.4277 75.6139C91.431 75.8192 91.4017 76.0238 91.3407 76.2199C91.6868 76.4941 92.1123 76.6492 92.5537 76.6619M89.6777 76.6619C90.0057 76.6828 90.3298 76.5808 90.5867 76.3759C90.6973 76.2681 90.7829 76.1374 90.8375 75.993C90.8921 75.8485 90.9144 75.6939 90.9027 75.5399V74.9769C90.9096 74.796 90.8774 74.6157 90.8084 74.4483C90.7394 74.2809 90.6351 74.1304 90.5027 74.0069C90.2252 73.7548 89.8604 73.621 89.4857 73.6339C89.0929 73.6332 88.702 73.6884 88.3247 73.7979C87.95 73.9079 87.2341 74.1562 86.1767 74.5429V76.6569L89.6777 76.6619ZM88.4387 71.6399L87.9447 72.1339L87.4347 71.6399L87.9347 71.1459L88.4387 71.6399Z" fill="white"/>
<path d="M94.2318 76.6558C94.2898 76.6558 94.3188 76.6818 94.3188 76.7338V77.1398C94.3188 77.1918 94.2898 77.2178 94.2318 77.2178H92.5518C92.4938 77.2178 92.4648 77.1918 92.4648 77.1398V76.7338C92.4648 76.6818 92.4938 76.6558 92.5518 76.6558H94.2318Z" fill="white"/>
<path d="M97.0644 76.6557C97.1214 76.6557 97.1514 76.6817 97.1514 76.7337V77.1397C97.1514 77.1907 97.1214 77.2167 97.0644 77.2167C96.5458 77.2009 96.0496 77.0014 95.6644 76.6537C95.4867 76.8529 95.2648 77.0076 95.0164 77.1054C94.7681 77.2031 94.5002 77.2413 94.2344 77.2167C94.1764 77.2167 94.1484 77.1907 94.1484 77.1397V76.7337C94.1484 76.6817 94.1764 76.6557 94.2344 76.6557C95.0431 76.6557 95.4474 76.2747 95.4474 75.5127V73.9887L95.9764 73.8887V75.6087C95.9758 75.8233 95.9421 76.0364 95.8764 76.2407C96.2187 76.5003 96.635 76.6455 97.0644 76.6557ZM96.1804 72.6717L95.6864 73.1657L95.1764 72.6717L95.6764 72.1787L96.1804 72.6717Z" fill="white"/>
<path d="M98.7426 76.6558C98.8006 76.6558 98.8296 76.6818 98.8296 76.7338V77.1398C98.8296 77.1918 98.8006 77.2178 98.7426 77.2178H97.0626C97.0046 77.2178 96.9766 77.1918 96.9766 77.1398V76.7338C96.9766 76.6818 97.0046 76.6558 97.0626 76.6558H98.7426Z" fill="white"/>
<path d="M101.974 76.6557C102.031 76.6557 102.061 76.6817 102.061 76.7337V77.1397C102.061 77.1907 102.031 77.2167 101.974 77.2167C101.4 77.2113 100.848 76.9888 100.431 76.5937C100.222 76.8269 99.9585 77.0055 99.6643 77.1141C99.3702 77.2226 99.0541 77.2579 98.7432 77.2167C98.6852 77.2167 98.6562 77.1907 98.6562 77.1397V76.7337C98.6562 76.6817 98.6852 76.6557 98.7432 76.6557C99.1252 76.6885 99.5073 76.5943 99.8303 76.3877C99.9491 76.2771 100.041 76.1407 100.099 75.989C100.156 75.8373 100.178 75.6743 100.163 75.5127V73.9887L100.692 73.8887V75.6087C100.695 75.7982 100.675 75.9873 100.631 76.1717C101.01 76.4832 101.484 76.6542 101.974 76.6557ZM100.216 72.6717L99.7223 73.1717L99.2223 72.6717L99.7163 72.1787L100.216 72.6717ZM101.549 72.6717L101.055 73.1717L100.545 72.6717L101.045 72.1787L101.549 72.6717Z" fill="white"/>
<path d="M103.654 76.6558C103.712 76.6558 103.741 76.6818 103.741 76.7338V77.1398C103.741 77.1918 103.712 77.2178 103.654 77.2178H101.974C101.916 77.2178 101.887 77.1918 101.887 77.1398V76.7338C101.887 76.6818 101.916 76.6558 101.974 76.6558H103.654Z" fill="white"/>
<path d="M103.653 77.2189C103.595 77.2189 103.566 77.1929 103.566 77.1409V76.7339C103.566 76.6819 103.595 76.6559 103.653 76.6559C103.817 76.6799 103.984 76.6655 104.141 76.6138C104.299 76.5622 104.442 76.4748 104.559 76.3584C104.677 76.2421 104.766 76.1 104.819 75.9433C104.872 75.7867 104.889 75.6199 104.866 75.4559V70.9999L105.394 70.8999V75.5299C105.424 75.7634 105.399 76.0006 105.321 76.2227C105.244 76.4448 105.115 76.6458 104.946 76.8097C104.777 76.9736 104.572 77.0959 104.348 77.1669C104.124 77.2379 103.886 77.2557 103.653 77.2189Z" fill="white"/>
<path d="M114.063 76.6557C114.121 76.6557 114.15 76.6817 114.15 76.7337V77.1397C114.15 77.1917 114.121 77.2177 114.063 77.2177C113.528 77.2028 113.017 76.9934 112.625 76.6287C112.451 76.838 112.228 77.0012 111.976 77.1039C111.723 77.2066 111.45 77.2457 111.179 77.2177H109.118L109 76.6557H111.182C111.507 76.6779 111.828 76.5777 112.082 76.3747C112.19 76.2687 112.274 76.1406 112.327 75.9993C112.381 75.8579 112.403 75.7065 112.393 75.5557V74.9667C112.398 74.7882 112.364 74.6107 112.293 74.4468C112.222 74.2829 112.116 74.1368 111.982 74.0187C111.699 73.7698 111.332 73.6381 110.956 73.6507H110.471V73.0957H111.06C111.303 73.0879 111.545 73.1281 111.772 73.2139C112 73.2997 112.208 73.4294 112.385 73.5957C112.559 73.7604 112.696 73.9594 112.788 74.1802C112.881 74.4009 112.926 74.6384 112.922 74.8777V75.6057C112.925 75.8084 112.899 76.0105 112.844 76.2057C113.192 76.4833 113.62 76.6412 114.065 76.6557" fill="white"/>
<path d="M115.744 76.6558C115.802 76.6558 115.831 76.6818 115.831 76.7338V77.1398C115.831 77.1918 115.802 77.2178 115.744 77.2178H114.064C114.006 77.2178 113.977 77.1918 113.977 77.1398V76.7338C113.977 76.6818 114.006 76.6558 114.064 76.6558H115.744Z" fill="white"/>
<path d="M118.974 76.6567C119.031 76.6567 119.061 76.6827 119.061 76.7337V77.1397C119.061 77.1917 119.031 77.2177 118.974 77.2177C118.4 77.2121 117.849 76.9891 117.432 76.5937C117.223 76.8271 116.959 77.0059 116.665 77.1146C116.371 77.2233 116.054 77.2587 115.743 77.2177C115.685 77.2177 115.656 77.1917 115.656 77.1397V76.7337C115.656 76.6827 115.685 76.6567 115.743 76.6567C116.125 76.6892 116.507 76.5946 116.83 76.3877C116.949 76.2771 117.041 76.1407 117.099 75.989C117.156 75.8372 117.179 75.6743 117.163 75.5127V73.9887L117.692 73.8887V75.6087C117.696 75.7982 117.675 75.9873 117.631 76.1717C118.01 76.4833 118.484 76.6546 118.974 76.6567ZM116.15 78.5097L116.644 78.0157L117.144 78.5097L116.65 79.0097L116.15 78.5097ZM117.475 78.5097L117.975 78.0157L118.475 78.5097L117.982 79.0097L117.475 78.5097Z" fill="white"/>
<path d="M120.654 76.6558C120.712 76.6558 120.741 76.6818 120.741 76.7338V77.1398C120.741 77.1918 120.712 77.2178 120.654 77.2178H118.974C118.916 77.2178 118.887 77.1918 118.887 77.1398V76.7338C118.887 76.6818 118.916 76.6558 118.974 76.6558H120.654Z" fill="white"/>
<path d="M123.012 73.1137C123.263 73.1076 123.511 73.1533 123.743 73.2479C123.975 73.3426 124.185 73.4841 124.359 73.6637C124.538 73.8457 124.678 74.062 124.771 74.2995C124.864 74.537 124.908 74.7908 124.9 75.0457C124.917 75.3423 124.87 75.639 124.76 75.9153C124.651 76.1916 124.483 76.4408 124.268 76.6457C123.777 77.0547 123.148 77.2611 122.51 77.2227H120.656C120.598 77.2227 120.57 77.1967 120.57 77.1447V76.7337C120.57 76.6827 120.598 76.6567 120.656 76.6567H121.505C121.24 76.1584 121.083 75.6092 121.046 75.0457C121.042 74.7908 121.09 74.5378 121.187 74.3022C121.285 74.0667 121.43 73.8538 121.613 73.6767C121.796 73.4928 122.015 73.348 122.255 73.2513C122.496 73.1545 122.753 73.1077 123.012 73.1137ZM122.589 76.6567C123.058 76.6816 123.52 76.5352 123.889 76.2447C124.051 76.102 124.177 75.9247 124.26 75.7261C124.344 75.5275 124.381 75.3127 124.369 75.0977C124.376 74.9064 124.344 74.7157 124.275 74.5371C124.206 74.3584 124.102 74.1954 123.969 74.0577C123.838 73.9235 123.679 73.818 123.505 73.748C123.33 73.6779 123.143 73.6448 122.955 73.6507C122.769 73.6485 122.585 73.686 122.415 73.7606C122.245 73.8353 122.093 73.9455 121.968 74.0837C121.705 74.3517 121.559 74.7131 121.561 75.0887C121.599 75.644 121.771 76.1819 122.061 76.6567H122.589ZM122.789 71.7977L122.295 72.2977L121.795 71.7977L122.289 71.3037L122.789 71.7977ZM124.123 71.7977L123.629 72.2977L123.119 71.7977L123.619 71.3037L124.123 71.7977Z" fill="white"/>
<path d="M133.091 76.6558C133.148 76.6558 133.178 76.6818 133.178 76.7338V77.1398C133.178 77.1918 133.148 77.2178 133.091 77.2178C132.885 77.2365 132.677 77.2114 132.482 77.1442C132.286 77.077 132.107 76.9691 131.957 76.8278C131.46 77.1076 130.906 77.2679 130.337 77.2958C130.075 77.3048 129.814 77.2572 129.573 77.1563C129.331 77.0553 129.114 76.9034 128.937 76.7108C128.573 76.3136 128.379 75.7901 128.396 75.2518C128.383 74.7011 128.578 74.1658 128.942 73.7518C129.113 73.5505 129.327 73.3901 129.568 73.2823C129.809 73.1745 130.071 73.122 130.336 73.1288C130.766 73.1424 131.191 73.23 131.592 73.3878V72.8268L132.12 72.7268V75.5468C132.092 75.8491 132.171 76.1515 132.345 76.4008C132.443 76.4942 132.561 76.5652 132.689 76.6092C132.818 76.6532 132.955 76.6691 133.091 76.6558ZM130.336 76.7508C130.814 76.7398 131.284 76.6244 131.713 76.4128C131.631 76.1378 131.593 75.8516 131.601 75.5648L131.592 73.9188C131.193 73.776 130.775 73.6914 130.353 73.6678C130.155 73.663 129.959 73.702 129.779 73.782C129.598 73.8621 129.437 73.9812 129.309 74.1308C129.038 74.4362 128.893 74.8321 128.901 75.2398C128.886 75.6379 129.03 76.0254 129.301 76.3178C129.433 76.4589 129.593 76.5702 129.772 76.6442C129.95 76.7182 130.142 76.7532 130.336 76.7468M130.146 71.6888L129.652 72.1888L129.152 71.6888L129.646 71.1948L130.146 71.6888ZM131.479 71.6888L130.985 72.1888L130.475 71.6888L130.975 71.1948L131.479 71.6888Z" fill="white"/>
<path d="M134.771 76.6558C134.829 76.6558 134.858 76.6818 134.858 76.7338V77.1398C134.858 77.1918 134.829 77.2178 134.771 77.2178H133.091C133.03 77.2184 133 77.1924 133 77.1398V76.7338C133 76.6818 133.029 76.6558 133.087 76.6558H134.771Z" fill="white"/>
<path d="M142.601 76.6559C142.658 76.6559 142.686 76.6819 142.686 76.7339V77.1399C142.686 77.1919 142.658 77.2179 142.601 77.2179C142.068 77.2021 141.56 76.9927 141.171 76.6289C140.995 76.8361 140.771 76.9978 140.52 77.1003C140.268 77.2029 139.995 77.2432 139.725 77.2179H134.771C134.712 77.2179 134.684 77.1919 134.684 77.1399V76.7339C134.684 76.6819 134.712 76.6559 134.771 76.6559H135.698V73.0399L136.225 72.9399V74.0749C137.149 73.6876 137.839 73.4249 138.296 73.2869C138.73 73.1515 139.182 73.0814 139.638 73.0789C139.881 73.0712 140.123 73.1124 140.35 73.2002C140.577 73.288 140.784 73.4205 140.959 73.5899C141.132 73.7583 141.267 73.9608 141.358 74.1847C141.448 74.4085 141.49 74.6487 141.483 74.8899L141.475 75.6089C141.478 75.8143 141.449 76.0188 141.388 76.2149C141.734 76.4892 142.159 76.6432 142.601 76.6559ZM139.725 76.6569C140.053 76.6783 140.377 76.5763 140.634 76.3709C140.745 76.2643 140.831 76.1346 140.886 75.9911C140.942 75.8475 140.965 75.6935 140.955 75.5399V74.9759C140.961 74.795 140.929 74.6147 140.86 74.4474C140.791 74.28 140.687 74.1294 140.555 74.0059C140.277 73.7539 139.912 73.6201 139.538 73.6329C139.238 73.6346 138.94 73.6712 138.65 73.7419C138.34 73.8139 138.061 73.8916 137.813 73.9749C137.564 74.0583 137.036 74.2476 136.228 74.5429V76.6559L139.725 76.6569Z" fill="white"/>
<path d="M145.436 76.6557C145.493 76.6557 145.523 76.6817 145.523 76.7337V77.1397C145.523 77.1907 145.493 77.2167 145.436 77.2167C144.917 77.2009 144.421 77.0014 144.036 76.6537C143.858 76.8529 143.636 77.0076 143.388 77.1054C143.139 77.2031 142.871 77.2413 142.606 77.2167C142.548 77.2167 142.52 77.1907 142.52 77.1397V76.7337C142.52 76.6817 142.548 76.6557 142.606 76.6557C143.414 76.6557 143.819 76.2747 143.819 75.5127V73.9887L144.348 73.8887V75.6087C144.347 75.8233 144.313 76.0364 144.248 76.2407C144.59 76.5003 145.006 76.6455 145.436 76.6557ZM144.551 72.6717L144.057 73.1657L143.547 72.6717L144.047 72.1787L144.551 72.6717Z" fill="white"/>
<path d="M147.115 76.6558C147.173 76.6558 147.202 76.6818 147.202 76.7338V77.1398C147.202 77.1918 147.173 77.2178 147.115 77.2178H145.435C145.377 77.2178 145.348 77.1918 145.348 77.1398V76.7338C145.348 76.6818 145.377 76.6558 145.435 76.6558H147.115Z" fill="white"/>
<path d="M149.469 73.114C149.72 73.1077 149.968 73.1532 150.2 73.2477C150.432 73.3422 150.642 73.4836 150.816 73.663C150.995 73.8452 151.134 74.0615 151.227 74.2989C151.32 74.5364 151.365 74.7901 151.357 75.045C151.374 75.3415 151.326 75.6382 151.217 75.9145C151.108 76.1907 150.94 76.44 150.725 76.645C150.234 77.0532 149.605 77.2592 148.967 77.221H147.113C147.055 77.221 147.027 77.195 147.027 77.143V76.734C147.027 76.682 147.055 76.656 147.113 76.656H147.962C147.695 76.1564 147.537 75.6054 147.5 75.04C147.496 74.7852 147.544 74.5323 147.641 74.2969C147.739 74.0616 147.884 73.8488 148.067 73.672C148.25 73.4879 148.469 73.343 148.709 73.2462C148.95 73.1494 149.208 73.1027 149.467 73.109M149.043 76.651C149.512 76.6757 149.974 76.5297 150.343 76.24C150.505 76.097 150.631 75.9196 150.715 75.7208C150.798 75.522 150.835 75.3071 150.823 75.092C150.83 74.9008 150.798 74.7103 150.729 74.5318C150.66 74.3533 150.556 74.1905 150.423 74.053C150.292 73.9187 150.134 73.8133 149.959 73.7432C149.784 73.6732 149.597 73.6401 149.409 73.646C149.223 73.6434 149.039 73.6807 148.869 73.7554C148.699 73.83 148.546 73.9404 148.422 74.079C148.159 74.3467 148.012 74.7082 148.015 75.084C148.053 75.6389 148.225 76.1765 148.515 76.651H149.043Z" fill="white"/>
<path d="M2.46537 83.976C2.9654 83.9445 3.4583 84.1071 3.84137 84.43C4.15383 84.7533 4.32849 85.1854 4.32849 85.635C4.32849 86.0847 4.15383 86.5167 3.84137 86.84C3.45953 87.1655 2.9661 87.3297 2.46537 87.298H0.866375V89.125H0.359375V83.976H2.46537ZM2.45037 86.863C2.8063 86.8785 3.15634 86.7684 3.43937 86.552C3.56074 86.4325 3.65712 86.2901 3.72291 86.133C3.7887 85.9759 3.82258 85.8073 3.82258 85.637C3.82258 85.4667 3.7887 85.2981 3.72291 85.141C3.65712 84.9839 3.56074 84.8415 3.43937 84.722C3.15541 84.5078 2.8057 84.3993 2.45037 84.415H0.866375V86.863H2.45037Z" fill="white"/>
<path d="M5.14844 89.1277V83.6867L5.64144 83.5957V89.1277H5.14844Z" fill="white"/>
<path d="M10.3251 88.81C10.437 88.8169 10.549 88.7963 10.6511 88.75V89.129C10.505 89.1806 10.351 89.206 10.1961 89.204C10.1024 89.2153 10.0074 89.206 9.91762 89.1769C9.82785 89.1478 9.74549 89.0995 9.67624 89.0354C9.607 88.9712 9.55251 88.8928 9.51657 88.8056C9.48063 88.7183 9.46409 88.6243 9.4681 88.53C9.28607 88.7476 9.05726 88.9212 8.79873 89.0379C8.5402 89.1546 8.25865 89.2114 7.9751 89.204C7.62785 89.2227 7.28573 89.1139 7.0131 88.898C6.89053 88.7873 6.79493 88.6501 6.73361 88.4967C6.67229 88.3434 6.64688 88.1781 6.65933 88.0134C6.67178 87.8487 6.72176 87.6891 6.80544 87.5467C6.88912 87.4043 7.00428 87.283 7.1421 87.192C7.53221 86.9813 7.97217 86.8804 8.4151 86.9C8.765 86.897 9.11463 86.9201 9.4611 86.969V86.569C9.46487 86.4454 9.44127 86.3225 9.392 86.2091C9.34273 86.0957 9.26901 85.9946 9.1761 85.913C8.93018 85.726 8.6241 85.636 8.3161 85.66C7.83542 85.6588 7.36182 85.7759 6.9371 86.001L6.8231 85.591C7.30376 85.3642 7.83078 85.2529 8.3621 85.266C8.78875 85.2359 9.2114 85.3652 9.5481 85.629C9.68273 85.7513 9.78888 85.9016 9.85903 86.0694C9.92919 86.2372 9.96164 86.4183 9.9541 86.6V88.381C9.9541 88.669 10.0771 88.812 10.3251 88.812M8.0891 88.805C8.35452 88.7983 8.61518 88.733 8.85238 88.6137C9.08958 88.4944 9.29745 88.3241 9.4611 88.115V87.357C9.11994 87.3055 8.77506 87.2828 8.4301 87.289C7.58077 87.289 7.15643 87.5467 7.1571 88.062C7.15302 88.1657 7.17354 88.2688 7.217 88.363C7.26045 88.4572 7.3256 88.5398 7.4071 88.604C7.60461 88.7472 7.84551 88.8189 8.0891 88.805Z" fill="white"/>
<path d="M12.0009 83.9746V85.3396H13.4479V85.7336H12.0009V88.1516C12.0009 88.5856 12.2609 88.8029 12.7809 88.8036C13.0038 88.8025 13.2247 88.7612 13.4329 88.6816L13.5239 89.0536C13.2508 89.1581 12.9603 89.2094 12.6679 89.2046C12.5094 89.2182 12.3498 89.1998 12.1986 89.1503C12.0474 89.1008 11.9077 89.0213 11.7879 88.9166C11.6932 88.8152 11.6196 88.696 11.5715 88.5658C11.5234 88.4357 11.5018 88.2972 11.5079 88.1586V85.7326H10.8789V85.3396H11.5079V84.0726L12.0009 83.9746Z" fill="white"/>
<path d="M13.7471 85.3396H14.3761V84.7866C14.3649 84.6232 14.3892 84.4593 14.4474 84.3062C14.5055 84.153 14.5962 84.0143 14.7131 83.8996C14.9741 83.6864 15.3057 83.5793 15.6421 83.5996C15.9488 83.5951 16.2537 83.6463 16.5421 83.7506L16.4361 84.1296C16.1974 84.0357 15.9426 83.9895 15.6861 83.9936C15.5764 83.9771 15.4645 83.9862 15.3589 84.0203C15.2534 84.0544 15.1572 84.1125 15.078 84.19C14.9987 84.2675 14.9385 84.3624 14.9021 84.4671C14.8657 84.5719 14.854 84.6836 14.8681 84.7936V85.3396H16.3681V85.7336H14.8681V89.1336H14.3751V85.7336H13.7461L13.7471 85.3396Z" fill="white"/>
<path d="M18.5829 85.264C18.9031 85.2763 19.2155 85.3664 19.493 85.5266C19.7705 85.6868 20.0048 85.9122 20.1756 86.1833C20.3465 86.4544 20.4486 86.763 20.4733 87.0825C20.498 87.402 20.4445 87.7227 20.3174 88.0168C20.1903 88.3109 19.9934 88.5697 19.7438 88.7706C19.4942 88.9715 19.1994 89.1086 18.8849 89.17C18.5704 89.2314 18.2457 89.2152 17.9388 89.1228C17.632 89.0305 17.3523 88.8647 17.1239 88.64C16.7752 88.2547 16.582 87.7536 16.582 87.234C16.582 86.7143 16.7752 86.2132 17.1239 85.828C17.3143 85.6374 17.5425 85.4887 17.7937 85.3916C18.045 85.2945 18.3138 85.251 18.5829 85.264ZM18.5829 88.803C18.7889 88.8132 18.9945 88.7774 19.1849 88.6979C19.3752 88.6185 19.5453 88.4976 19.6829 88.344C19.9403 88.0305 20.081 87.6375 20.081 87.232C20.081 86.8264 19.9403 86.4334 19.6829 86.12C19.5382 85.9736 19.3659 85.8574 19.176 85.7781C18.986 85.6988 18.7822 85.6579 18.5764 85.6579C18.3706 85.6579 18.1668 85.6988 17.9769 85.7781C17.7869 85.8574 17.6146 85.9736 17.4699 86.12C17.2125 86.4334 17.0718 86.8264 17.0718 87.232C17.0718 87.6375 17.2125 88.0305 17.4699 88.344C17.6088 88.4986 17.7807 88.6201 17.9728 88.6995C18.1649 88.779 18.3723 88.8143 18.5799 88.803" fill="white"/>
<path d="M23.6701 85.7557C23.3358 85.7507 23.0065 85.8375 22.7181 86.0067C22.4501 86.161 22.227 86.3826 22.0711 86.6497V89.1287H21.5781V85.3397H22.0401L22.0631 86.2037C22.2141 85.9271 22.4334 85.6937 22.7001 85.5257C22.9713 85.3522 23.2872 85.2615 23.6091 85.2647L23.6701 85.7557Z" fill="white"/>
<path d="M28.9994 85.2639C29.1858 85.2434 29.3744 85.2647 29.5515 85.3263C29.7286 85.388 29.8897 85.4884 30.023 85.6203C30.1563 85.7522 30.2585 85.9121 30.322 86.0885C30.3856 86.265 30.409 86.4533 30.3904 86.6399V89.1259H29.8994V86.6399C29.9077 86.5065 29.8878 86.3727 29.841 86.2474C29.7941 86.1222 29.7213 86.0082 29.6274 85.9129C29.4129 85.7293 29.1352 85.6368 28.8534 85.6549C28.6138 85.6589 28.3784 85.7192 28.1664 85.8311C27.9545 85.943 27.7718 86.1033 27.6334 86.2989C27.6553 86.4113 27.6657 86.5255 27.6644 86.6399V89.1259H27.1694V86.6399C27.1775 86.5064 27.1574 86.3726 27.1104 86.2473C27.0634 86.1221 26.9904 86.0081 26.8964 85.9129C26.6824 85.7292 26.4049 85.6366 26.1234 85.6549C25.8876 85.6608 25.6566 85.7231 25.4497 85.8365C25.2429 85.95 25.0662 86.1113 24.9344 86.3069V89.1259H24.4414V85.3399H24.8994L24.9304 85.9309C25.0826 85.7188 25.2843 85.5471 25.518 85.4308C25.7518 85.3146 26.0104 85.2573 26.2714 85.2639C26.5396 85.231 26.8111 85.2884 27.043 85.4269C27.275 85.5654 27.4542 85.7772 27.5524 86.0289C27.7085 85.7888 27.9233 85.5924 28.1766 85.4586C28.4298 85.3247 28.713 85.2577 28.9994 85.2639Z" fill="white"/>
<path d="M39.7558 86.5518C39.7605 86.9754 39.6699 87.3948 39.4908 87.7788C39.3213 88.1449 39.0598 88.4609 38.7318 88.6958L39.2558 89.3478L38.8768 89.6208L38.3228 88.9398C37.9232 89.12 37.4891 89.2104 37.0508 89.2048C36.6878 89.222 36.325 89.1643 35.9853 89.0352C35.6455 88.9062 35.3359 88.7086 35.0758 88.4548C34.5999 87.9354 34.3359 87.2566 34.3359 86.5523C34.3359 85.8479 34.5999 85.1691 35.0758 84.6498C35.6185 84.1668 36.3198 83.8999 37.0463 83.8999C37.7728 83.8999 38.4741 84.1668 39.0168 84.6498C39.2616 84.9003 39.4533 85.1978 39.5803 85.5243C39.7073 85.8508 39.767 86.1996 39.7558 86.5498M37.0428 88.7798C37.3869 88.7886 37.7286 88.7202 38.0428 88.5798L37.2628 87.5398L37.5798 87.3118L38.4378 88.3348C38.7056 88.1234 38.9182 87.8504 39.0575 87.5391C39.1968 87.2277 39.2587 86.8872 39.2378 86.5468C39.2505 86.2518 39.204 85.9572 39.1009 85.6805C38.9979 85.4038 38.8404 85.1506 38.6378 84.9358C38.2022 84.5388 37.6341 84.3188 37.0448 84.3188C36.4555 84.3188 35.8874 84.5388 35.4518 84.9358C35.2473 85.1496 35.0881 85.4025 34.9836 85.6793C34.8792 85.9561 34.8316 86.2511 34.8438 86.5468C34.8317 86.8422 34.8794 87.1371 34.9838 87.4137C35.0883 87.6903 35.2475 87.943 35.4518 88.1568C35.6599 88.3641 35.9087 88.5261 36.1826 88.6324C36.4564 88.7388 36.7493 88.7873 37.0428 88.7748" fill="white"/>
<path d="M42.6421 87.3017V89.1277H42.1341V87.2867L40.1641 84.0207L40.6641 83.9297L42.4021 86.7947L44.0841 83.9747H44.6231L42.6421 87.3017Z" fill="white"/>
<path d="M45.5273 89.1276V83.9746H47.3273C47.684 83.9565 48.0406 84.0106 48.3759 84.1336C48.7111 84.2566 49.0181 84.4461 49.2783 84.6906C49.5204 84.9344 49.7097 85.2255 49.8342 85.5457C49.9588 85.8659 50.016 86.2083 50.0023 86.5516C50.0159 86.8947 49.9586 87.237 49.834 87.557C49.7095 87.877 49.5203 88.1679 49.2783 88.4116C49.0181 88.6561 48.7111 88.8456 48.3759 88.9686C48.0406 89.0916 47.684 89.1457 47.3273 89.1276H45.5273ZM47.3273 88.6886C47.6153 88.7034 47.9032 88.66 48.174 88.561C48.4447 88.4621 48.6928 88.3096 48.9033 88.1126C49.1019 87.906 49.256 87.6609 49.3563 87.3924C49.4566 87.1239 49.5008 86.8378 49.4863 86.5516C49.5013 86.2654 49.4573 85.9791 49.357 85.7106C49.2567 85.442 49.1023 85.197 48.9033 84.9906C48.693 84.7933 48.445 84.6406 48.1742 84.5414C47.9034 84.4423 47.6153 84.3988 47.3273 84.4136H46.0273V88.6886H47.3273Z" fill="white"/>
<path d="M54.1172 89.1276V83.9746H57.5952V84.4136H54.6242V86.4446H57.3602L57.4442 86.8846H54.6242V89.1276H54.1172Z" fill="white"/>
<path d="M60.2704 85.264C60.5906 85.2763 60.903 85.3664 61.1805 85.5266C61.458 85.6868 61.6923 85.9122 61.8631 86.1833C62.034 86.4544 62.1361 86.763 62.1608 87.0825C62.1855 87.402 62.132 87.7227 62.0049 88.0168C61.8778 88.3109 61.6809 88.5697 61.4313 88.7706C61.1817 88.9715 60.8869 89.1086 60.5724 89.17C60.2579 89.2314 59.9332 89.2152 59.6263 89.1228C59.3195 89.0305 59.0398 88.8647 58.8114 88.64C58.4627 88.2547 58.2695 87.7536 58.2695 87.234C58.2695 86.7143 58.4627 86.2132 58.8114 85.828C59.0018 85.6374 59.23 85.4887 59.4812 85.3916C59.7325 85.2945 60.0013 85.251 60.2704 85.264ZM60.2704 88.803C60.4764 88.8132 60.682 88.7774 60.8724 88.6979C61.0627 88.6185 61.2328 88.4976 61.3704 88.344C61.6278 88.0305 61.7685 87.6375 61.7685 87.232C61.7685 86.8264 61.6278 86.4334 61.3704 86.12C61.2257 85.9736 61.0534 85.8574 60.8634 85.7781C60.6735 85.6988 60.4697 85.6579 60.2639 85.6579C60.0581 85.6579 59.8543 85.6988 59.6644 85.7781C59.4744 85.8574 59.3021 85.9736 59.1574 86.12C58.9 86.4334 58.7593 86.8264 58.7593 87.232C58.7593 87.6375 58.9 88.0305 59.1574 88.344C59.2963 88.4986 59.4682 88.6201 59.6603 88.6995C59.8524 88.779 60.0598 88.8143 60.2674 88.803" fill="white"/>
<path d="M65.3576 85.7557C65.0233 85.7507 64.694 85.8375 64.4056 86.0067C64.1377 86.1615 63.9145 86.383 63.7576 86.6497V89.1287H63.2656V85.3397H63.7286L63.7506 86.2037C63.9016 85.9274 64.1205 85.694 64.3866 85.5257C64.6582 85.3522 64.9744 85.2616 65.2966 85.2647L65.3576 85.7557Z" fill="white"/>
<path d="M71.6167 89.2037C71.2538 89.2209 70.8912 89.1632 70.5516 89.0341C70.212 88.9051 69.9026 88.7075 69.6427 88.4537C69.3978 88.2031 69.2062 87.9056 69.0792 87.5791C68.9522 87.2526 68.8925 86.9038 68.9037 86.5537C68.8925 86.2035 68.9522 85.8547 69.0792 85.5282C69.2062 85.2017 69.3978 84.9042 69.6427 84.6537C70.1854 84.1707 70.8866 83.9038 71.6132 83.9038C72.3397 83.9038 73.0409 84.1707 73.5837 84.6537C73.8285 84.9042 74.0202 85.2017 74.1472 85.5282C74.2742 85.8547 74.3338 86.2035 74.3227 86.5537C74.3338 86.9038 74.2742 87.2526 74.1472 87.5791C74.0202 87.9056 73.8285 88.2031 73.5837 88.4537C73.325 88.7072 73.0168 88.9046 72.6783 89.0336C72.3399 89.1627 71.9785 89.2206 71.6167 89.2037ZM73.2047 84.9487C72.7666 84.5547 72.1983 84.3368 71.6092 84.3368C71.02 84.3368 70.4517 84.5547 70.0137 84.9487C69.8112 85.1613 69.6537 85.4126 69.5506 85.6875C69.4475 85.9624 69.4009 86.2553 69.4137 86.5487C69.401 86.842 69.4476 87.1349 69.5507 87.4098C69.6538 87.6847 69.8112 87.936 70.0137 88.1487C70.4517 88.5426 71.02 88.7606 71.6092 88.7606C72.1983 88.7606 72.7666 88.5426 73.2047 88.1487C73.4072 87.9361 73.5647 87.6848 73.6678 87.4098C73.7709 87.1349 73.8175 86.842 73.8047 86.5487C73.8175 86.2553 73.7709 85.9624 73.6678 85.6875C73.5647 85.4126 73.4072 85.1613 73.2047 84.9487Z" fill="white"/>
<path d="M77.4318 85.7557C77.0975 85.7507 76.7682 85.8375 76.4798 86.0067C76.212 86.1615 75.9887 86.383 75.8318 86.6497V89.1287H75.3398V85.3397H75.8018L75.8238 86.2037C75.9748 85.9274 76.1937 85.694 76.4598 85.5257C76.7314 85.3522 77.0476 85.2616 77.3698 85.2647L77.4318 85.7557Z" fill="white"/>
<path d="M81.5942 85.3396V89.0836C81.5942 90.2756 80.9172 90.8716 79.5632 90.8716C79.021 90.888 78.4829 90.7738 77.9942 90.5386L78.0992 90.1516C78.5508 90.377 79.0505 90.4892 79.5552 90.4786C80.5852 90.4786 81.1005 90.0186 81.1012 89.0986V88.3866C80.9403 88.5859 80.7389 88.7485 80.5102 88.8636C80.2569 88.9923 79.9762 89.0575 79.6922 89.0536C79.4473 89.0633 79.203 89.0229 78.9743 88.9349C78.7456 88.8468 78.5373 88.713 78.3622 88.5416C78.1873 88.358 78.0517 88.1407 77.9637 87.9029C77.8756 87.6651 77.837 87.4119 77.8502 87.1586C77.837 86.9054 77.8756 86.6522 77.9637 86.4144C78.0517 86.1766 78.1873 85.9592 78.3622 85.7756C78.5374 85.6044 78.7458 85.4708 78.9745 85.3829C79.2032 85.2951 79.4474 85.2548 79.6922 85.2646C79.9761 85.2604 80.2569 85.3252 80.5102 85.4536C80.7389 85.5688 80.9403 85.7314 81.1012 85.9306L81.1312 85.3396H81.5942ZM81.1022 87.9836V86.3316C80.9514 86.1231 80.7533 85.9531 80.5242 85.8358C80.2952 85.7185 80.0415 85.6571 79.7842 85.6566C79.5899 85.6474 79.3959 85.6795 79.2149 85.7506C79.0339 85.8218 78.8701 85.9305 78.7342 86.0696C78.482 86.3754 78.3442 86.7593 78.3442 87.1556C78.3442 87.5519 78.482 87.9359 78.7342 88.2416C78.8706 88.3798 79.0346 88.4876 79.2156 88.5581C79.3965 88.6286 79.5902 88.6601 79.7842 88.6506C80.041 88.6517 80.2944 88.5918 80.5235 88.4759C80.7526 88.3599 80.951 88.1912 81.1022 87.9836Z" fill="white"/>
<path d="M86.2743 88.81C86.3863 88.8169 86.4982 88.7963 86.6003 88.75V89.129C86.4542 89.1805 86.3002 89.2059 86.1453 89.204C86.0517 89.2153 85.9567 89.206 85.867 89.1769C85.7772 89.1478 85.6949 89.0995 85.6258 89.0353C85.5566 88.9712 85.5022 88.8928 85.4664 88.8055C85.4306 88.7183 85.4142 88.6242 85.4183 88.53C85.2361 88.7476 85.0071 88.9212 84.7484 89.0379C84.4897 89.1546 84.208 89.2114 83.9243 89.204C83.5771 89.2226 83.235 89.1138 82.9623 88.898C82.8397 88.7873 82.7441 88.6501 82.6828 88.4967C82.6215 88.3434 82.5961 88.1781 82.6085 88.0134C82.621 87.8487 82.671 87.6891 82.7547 87.5467C82.8383 87.4043 82.9535 87.283 83.0913 87.192C83.4814 86.9813 83.9214 86.8804 84.3643 86.9C84.7139 86.8969 85.0632 86.92 85.4093 86.969V86.569C85.4132 86.4456 85.3899 86.3228 85.3409 86.2095C85.292 86.0961 85.2188 85.9949 85.1263 85.913C84.88 85.7261 84.5736 85.6361 84.2653 85.66C83.7846 85.6586 83.311 85.7757 82.8863 86.001L82.7723 85.591C83.253 85.3642 83.78 85.2529 84.3113 85.266C84.738 85.2359 85.1606 85.3652 85.4973 85.629C85.6309 85.7518 85.7359 85.9024 85.805 86.0702C85.8741 86.2379 85.9056 86.4188 85.8973 86.6V88.381C85.8973 88.669 86.0213 88.812 86.2693 88.812M84.0333 88.805C84.2987 88.7987 84.5593 88.7335 84.7964 88.6142C85.0335 88.4949 85.2412 88.3244 85.4043 88.115V87.357C85.0635 87.3055 84.719 87.2828 84.3743 87.289C83.5257 87.289 83.101 87.5467 83.1003 88.062C83.0964 88.1657 83.1172 88.2689 83.1608 88.3631C83.2044 88.4573 83.2697 88.5399 83.3513 88.604C83.5488 88.7472 83.7897 88.8189 84.0333 88.805Z" fill="white"/>
<path d="M89.0408 85.264C89.2268 85.2441 89.415 85.2659 89.5916 85.3278C89.7682 85.3897 89.9288 85.4903 90.0616 85.6221C90.1945 85.7538 90.2963 85.9136 90.3596 86.0897C90.4229 86.2658 90.4462 86.4538 90.4278 86.64V89.126H89.9348V86.64C89.9431 86.5065 89.9232 86.3728 89.8763 86.2475C89.8295 86.1222 89.7567 86.0082 89.6628 85.913C89.4483 85.7294 89.1705 85.6368 88.8888 85.655C88.6486 85.6606 88.4131 85.7225 88.2012 85.8358C87.9893 85.949 87.8069 86.1104 87.6688 86.307V89.126H87.1758V85.34H87.6388L87.6688 85.931C87.8267 85.7174 88.0339 85.5451 88.2728 85.429C88.5118 85.3128 88.7752 85.2562 89.0408 85.264Z" fill="white"/>
<path d="M91.8467 84.5736L91.4297 84.1736L91.8467 83.7646L92.2557 84.1736L91.8467 84.5736ZM92.0887 89.1286H91.5957V85.3396H92.0887V89.1286Z" fill="white"/>
<path d="M95.9163 85.3398V85.6958L93.5663 88.7268H96.0523V89.1268H92.9453V88.7638L95.2943 85.7318H93.0293V85.3398H95.9163Z" fill="white"/>
<path d="M97.1592 84.5736L96.7422 84.1736L97.1592 83.7646L97.5672 84.1736L97.1592 84.5736ZM97.4002 89.1286H96.9082V85.3396H97.4022L97.4002 89.1286Z" fill="white"/>
<path d="M100.47 85.264C100.656 85.244 100.844 85.2659 101.021 85.328C101.198 85.3901 101.359 85.4909 101.492 85.623C101.625 85.7552 101.726 85.9153 101.789 86.0918C101.853 86.2682 101.876 86.4566 101.857 86.643V89.129H101.364V86.64C101.372 86.5065 101.352 86.3728 101.305 86.2475C101.258 86.1222 101.185 86.0083 101.092 85.913C100.877 85.7293 100.599 85.6367 100.318 85.655C100.077 85.6607 99.8419 85.7227 99.63 85.8359C99.4181 85.9492 99.2358 86.1105 99.0976 86.307V89.126H98.6016V85.34H99.0636L99.0936 85.931C99.2515 85.7174 99.4587 85.5451 99.6976 85.429C99.9365 85.3128 100.2 85.2562 100.466 85.264" fill="white"/>
<path d="M106.554 85.3398V89.0838C106.554 90.2758 105.877 90.8718 104.523 90.8718C103.981 90.8881 103.443 90.7739 102.954 90.5388L103.06 90.1518C103.512 90.3772 104.012 90.4895 104.516 90.4788C105.546 90.4788 106.062 90.0188 106.062 89.0988V88.3868C105.901 88.5861 105.699 88.7487 105.47 88.8638C105.217 88.9925 104.937 89.0577 104.653 89.0538C104.408 89.0639 104.164 89.0236 103.935 88.9356C103.706 88.8475 103.498 88.7135 103.323 88.5418C103.148 88.3583 103.012 88.141 102.924 87.9031C102.836 87.6653 102.798 87.412 102.811 87.1588C102.798 86.9055 102.836 86.6522 102.924 86.4144C103.012 86.1766 103.148 85.9592 103.323 85.7758C103.498 85.6042 103.706 85.4703 103.935 85.3824C104.164 85.2945 104.408 85.2545 104.653 85.2648C104.937 85.2605 105.217 85.3254 105.47 85.4538C105.699 85.5688 105.901 85.7314 106.062 85.9308L106.091 85.3398H106.554ZM106.062 87.9848V86.3318C105.911 86.1232 105.713 85.9533 105.484 85.836C105.254 85.7186 105.001 85.6572 104.743 85.6568C104.549 85.6476 104.355 85.6796 104.174 85.7508C103.993 85.822 103.829 85.9307 103.693 86.0698C103.441 86.3755 103.303 86.7595 103.303 87.1558C103.303 87.5521 103.441 87.936 103.693 88.2418C103.83 88.3799 103.994 88.4878 104.175 88.5582C104.356 88.6287 104.549 88.6602 104.743 88.6508C105 88.652 105.254 88.5922 105.483 88.4762C105.712 88.3603 105.911 88.1915 106.062 87.9838" fill="white"/>
<path d="M110.832 89.1277V84.0197L111.339 83.9287V88.6887H114.301L114.392 89.1277H110.832Z" fill="white"/>
<path d="M118.479 87.1047C118.479 87.1297 118.479 87.1737 118.479 87.2367C118.479 87.2997 118.479 87.3467 118.479 87.3767H115.349C115.352 87.7733 115.51 88.153 115.789 88.4347C116.093 88.7027 116.49 88.8399 116.895 88.8167C117.351 88.8206 117.802 88.7113 118.206 88.4987L118.306 88.8627C117.866 89.0985 117.372 89.216 116.874 89.2037C116.601 89.2216 116.328 89.1841 116.07 89.0936C115.812 89.003 115.575 88.8612 115.374 88.6767C115.193 88.4844 115.053 88.2573 114.962 88.0093C114.871 87.7612 114.832 87.4974 114.847 87.2337C114.833 86.9716 114.873 86.7095 114.962 86.4628C115.051 86.216 115.189 85.9896 115.367 85.7967C115.548 85.6167 115.764 85.4762 116.002 85.3843C116.24 85.2924 116.495 85.251 116.75 85.2627C116.987 85.2594 117.224 85.2952 117.45 85.3687C117.633 85.4281 117.802 85.5222 117.95 85.6457C118.08 85.7619 118.187 85.9021 118.265 86.0587C118.344 86.217 118.401 86.3851 118.435 86.5587C118.469 86.74 118.485 86.9242 118.484 87.1087M115.354 86.9947H117.991C117.996 86.6461 117.895 86.3042 117.703 86.0137C117.583 85.8815 117.433 85.7799 117.265 85.7173C117.098 85.6546 116.918 85.6328 116.741 85.6537C116.567 85.6475 116.393 85.6757 116.23 85.7368C116.066 85.7979 115.917 85.8906 115.79 86.0097C115.527 86.2727 115.372 86.6237 115.354 86.9947Z" fill="white"/>
<path d="M122.997 85.3396V89.0836C122.997 90.2756 122.32 90.8716 120.966 90.8716C120.423 90.888 119.885 90.7738 119.397 90.5386L119.502 90.1516C119.953 90.377 120.453 90.4892 120.958 90.4786C121.988 90.4786 122.503 90.0186 122.504 89.0986V88.3866C122.343 88.5859 122.141 88.7485 121.913 88.8636C121.659 88.9923 121.379 89.0575 121.095 89.0536C120.85 89.0633 120.605 89.0229 120.377 88.9349C120.148 88.8468 119.94 88.713 119.765 88.5416C119.59 88.358 119.454 88.1407 119.366 87.9029C119.278 87.6651 119.239 87.4119 119.253 87.1586C119.239 86.9054 119.278 86.6522 119.366 86.4144C119.454 86.1766 119.59 85.9592 119.765 85.7756C119.94 85.6044 120.148 85.4708 120.377 85.3829C120.605 85.2951 120.85 85.2548 121.095 85.2646C121.378 85.2604 121.659 85.3252 121.913 85.4536C122.141 85.5688 122.343 85.7314 122.504 85.9306L122.534 85.3396H122.997ZM122.504 87.9846V86.3316C122.353 86.1231 122.155 85.9531 121.926 85.8358C121.697 85.7185 121.443 85.6571 121.186 85.6566C120.991 85.6474 120.797 85.6795 120.616 85.7506C120.435 85.8218 120.271 85.9305 120.136 86.0696C119.883 86.3754 119.746 86.7593 119.746 87.1556C119.746 87.5519 119.883 87.9359 120.136 88.2416C120.272 88.3798 120.436 88.4876 120.617 88.5581C120.798 88.6286 120.992 88.6601 121.186 88.6506C121.442 88.6517 121.696 88.5918 121.925 88.4759C122.154 88.3599 122.352 88.1912 122.504 87.9836" fill="white"/>
<path d="M127.677 88.81C127.789 88.8169 127.901 88.7963 128.003 88.75V89.129C127.857 89.1805 127.703 89.2059 127.548 89.204C127.454 89.2153 127.359 89.206 127.269 89.1769C127.18 89.1478 127.097 89.0995 127.028 89.0353C126.959 88.9712 126.905 88.8928 126.869 88.8055C126.833 88.7183 126.817 88.6242 126.821 88.53C126.638 88.7476 126.409 88.9212 126.151 89.0379C125.892 89.1546 125.61 89.2114 125.327 89.204C124.979 89.2226 124.637 89.1138 124.365 88.898C124.242 88.7873 124.146 88.6501 124.085 88.4967C124.024 88.3434 123.998 88.1781 124.011 88.0134C124.023 87.8487 124.073 87.6891 124.157 87.5467C124.241 87.4043 124.356 87.283 124.494 87.192C124.884 86.9813 125.324 86.8804 125.767 86.9C126.116 86.8969 126.466 86.92 126.812 86.969V86.569C126.816 86.4456 126.792 86.3228 126.743 86.2095C126.694 86.0961 126.621 85.9949 126.529 85.913C126.282 85.7261 125.976 85.6361 125.668 85.66C125.187 85.6586 124.713 85.7757 124.289 86.001L124.175 85.591C124.655 85.3642 125.182 85.2529 125.714 85.266C126.14 85.2359 126.563 85.3652 126.9 85.629C127.033 85.7518 127.138 85.9024 127.207 86.0702C127.276 86.2379 127.308 86.4188 127.3 86.6V88.381C127.3 88.669 127.424 88.812 127.672 88.812M125.436 88.805C125.701 88.7987 125.962 88.7335 126.199 88.6142C126.436 88.4949 126.644 88.3244 126.807 88.115V87.357C126.466 87.3055 126.121 87.2828 125.777 87.289C124.928 87.289 124.503 87.5467 124.503 88.062C124.499 88.1657 124.519 88.2689 124.563 88.3631C124.607 88.4573 124.672 88.5399 124.754 88.604C124.951 88.7472 125.192 88.8189 125.436 88.805Z" fill="white"/>
<path d="M128.578 89.1277V83.6867L129.071 83.5957V89.1277H128.578Z" fill="white"/>
<path d="M140.003 83.9747L138.374 89.1657H137.806L136.426 84.7657L135.085 89.1657H134.532L132.895 84.0197L133.388 83.9297L134.828 88.5367L136.176 83.9747H136.699L138.086 88.5367L139.503 83.9747H140.003Z" fill="white"/>
<path d="M142.437 85.264C142.757 85.2763 143.069 85.3664 143.347 85.5266C143.624 85.6868 143.859 85.9122 144.029 86.1833C144.2 86.4544 144.302 86.763 144.327 87.0825C144.352 87.402 144.298 87.7227 144.171 88.0168C144.044 88.3109 143.847 88.5697 143.598 88.7706C143.348 88.9715 143.053 89.1086 142.739 89.17C142.424 89.2314 142.099 89.2152 141.793 89.1228C141.486 89.0305 141.206 88.8647 140.978 88.64C140.63 88.2542 140.438 87.7533 140.438 87.234C140.438 86.7146 140.63 86.2137 140.978 85.828C141.168 85.6374 141.396 85.4887 141.647 85.3916C141.899 85.2945 142.168 85.251 142.437 85.264ZM142.437 88.803C142.643 88.8132 142.848 88.7774 143.039 88.6979C143.229 88.6185 143.399 88.4976 143.537 88.344C143.793 88.0302 143.934 87.6373 143.934 87.232C143.934 86.8266 143.793 86.4337 143.537 86.12C143.392 85.9736 143.22 85.8574 143.03 85.7781C142.84 85.6988 142.636 85.6579 142.43 85.6579C142.224 85.6579 142.021 85.6988 141.831 85.7781C141.641 85.8574 141.468 85.9736 141.324 86.12C141.066 86.4334 140.926 86.8264 140.926 87.232C140.926 87.6375 141.066 88.0305 141.324 88.344C141.463 88.4986 141.634 88.6201 141.826 88.6995C142.019 88.779 142.226 88.8143 142.434 88.803" fill="white"/>
<path d="M147.522 85.7557C147.187 85.7507 146.858 85.8375 146.57 86.0067C146.302 86.1615 146.079 86.383 145.922 86.6497V89.1287H145.43V85.3397H145.893L145.915 86.2037C146.066 85.9274 146.285 85.694 146.551 85.5257C146.822 85.3522 147.138 85.2616 147.461 85.2647L147.522 85.7557Z" fill="white"/>
<path d="M151.152 89.1277L149.601 87.3767H148.79V89.1277H148.297V83.6867L148.79 83.5957V86.9827H149.571L150.92 85.3387H151.466L150.001 87.1577L151.721 89.1277H151.152Z" fill="white"/>
</g>
<path d="M141.279 5.4H147.002V11.452H141.279V5.4ZM142.762 0L135.557 7.207V17.164H146.997V49.631H116.047V17.164H120.547L126.269 11.442V2.14L128.411 0H127.483L120.55 6.93V11.441H116.05L110.328 17.163V49.631L116.05 55.353H152.722V0H142.762Z" fill="white"/>
<mask id="mask1_4459_22644" style="mask-type:luminance" maskUnits="userSpaceOnUse" x="60" y="0" width="93" height="56">
<path d="M152.719 0H60.0352V55.352H152.719V0Z" fill="white"/>
</mask>
<g mask="url(#mask1_4459_22644)">
<path d="M112.88 5.11113C112.544 5.11512 112.211 5.05027 111.901 4.92059C111.592 4.7909 111.312 4.59914 111.08 4.35713C110.838 4.12449 110.646 3.84477 110.516 3.53522C110.386 3.22566 110.321 2.8928 110.325 2.55713C110.319 2.22037 110.382 1.88597 110.51 1.57464C110.639 1.2633 110.83 0.981651 111.072 0.747128C111.552 0.268375 112.202 -0.000488281 112.88 -0.000488281C113.557 -0.000488281 114.208 0.268375 114.688 0.747128C114.929 0.981406 115.12 1.2627 115.249 1.57366C115.377 1.88462 115.441 2.21865 115.436 2.55513C115.441 2.89177 115.378 3.22599 115.249 3.53713C115.12 3.84827 114.929 4.12973 114.688 4.36413C114.453 4.60553 114.172 4.79635 113.861 4.92483C113.55 5.0533 113.216 5.11671 112.88 5.11113ZM111.212 4.22313C111.43 4.44396 111.689 4.61931 111.976 4.73898C112.262 4.85865 112.569 4.92028 112.88 4.92028C113.19 4.92028 113.497 4.85865 113.784 4.73898C114.07 4.61931 114.33 4.44396 114.548 4.22313C114.772 4.00774 114.95 3.74859 115.071 3.46169C115.191 3.17479 115.251 2.86625 115.248 2.55513C115.251 2.24403 115.191 1.93551 115.07 1.64863C114.95 1.36175 114.772 1.10258 114.548 0.887128C114.329 0.666534 114.07 0.491407 113.783 0.371886C113.497 0.252364 113.19 0.190822 112.88 0.190822C112.569 0.190822 112.262 0.252364 111.976 0.371886C111.69 0.491407 111.43 0.666534 111.212 0.887128C110.987 1.10258 110.809 1.36175 110.689 1.64863C110.568 1.93551 110.508 2.24403 110.512 2.55513C110.508 2.86625 110.568 3.17479 110.689 3.46169C110.809 3.74859 110.987 4.00774 111.212 4.22313ZM113.621 4.07613H114.235L113.379 2.82413C113.583 2.79998 113.769 2.69685 113.898 2.53685C114.027 2.37684 114.088 2.17269 114.069 1.96813C114.069 1.34679 113.698 1.03579 112.957 1.03513H111.793V4.07613H112.357V2.90013H112.817L113.621 4.07613ZM112.343 2.44113V1.50013H112.905C113.297 1.50013 113.493 1.65746 113.493 1.97213C113.493 2.30546 113.297 2.46313 112.905 2.44513L112.343 2.44113Z" fill="white"/>
<path d="M88.7969 55.3523H101.688V44.3733L97.9069 40.5913H88.7969V55.3523ZM91.7969 43.4243H98.6839V52.5183H91.7979L91.7969 43.4243Z" fill="white"/>
<path d="M101.687 17.187H92.5872L88.7962 20.964V29.115H82.0352V22.835H81.1712L79.1332 24.862V29.115H72.3612V23.102L74.7312 20.72H73.7012L69.5262 25.006V29.115H62.0002L60.0352 31.086V31.949H101.676V17.187H101.687ZM98.6872 29.115H91.7972V20.023H98.6852L98.6872 29.115Z" fill="white"/>
<path d="M101.686 11.4512V14.3252H91.7969V13.4782L93.8269 11.4512H101.686Z" fill="white"/>
<path d="M82.0335 34.8203V37.6943H72.1445V36.8473L74.1705 34.8213L82.0335 34.8203Z" fill="white"/>
<path d="M74.6352 52.5189H72.3602V40.5879H60.0352V51.5739L63.8112 55.3509H76.6582V54.4869L74.6352 52.5189ZM69.5302 52.5189H62.8692V43.4239H69.5262L69.5302 52.5189Z" fill="white"/>
<path d="M87.1014 41.1959L82.0404 46.2569V55.3489H81.1764L79.1504 53.3229V46.2799L74.0664 41.1959L74.6754 40.5869H77.5434L80.5854 43.6319L83.6204 40.5859H86.4884L87.1014 41.1959Z" fill="white"/>
</g>
</g>
<defs>
<clipPath id="clip0_4459_22644">
<rect width="152.719" height="90.871" fill="white"/>
</clipPath>
</defs>
</svg>
