<svg width="103" height="64" viewBox="0 0 103 64" fill="none" xmlns="http://www.w3.org/2000/svg">
<path d="M91.0783 0L83.2468 7.83148V18.6509H95.6795V53.9323H62.0473V18.6509H66.94L73.1583 12.4326V2.32519L75.4816 0H74.4724L66.9382 7.53042V12.4326H62.0454L55.8271 18.6509V53.9323L62.0454 60.1505H101.896V0H91.0764H91.0783ZM89.465 5.86793H95.6832V12.444H89.465V5.86793Z" fill="white"/>
<path d="M58.6049 5.5555C57.8456 5.5555 57.1924 5.28284 56.647 4.73562C56.0998 4.1903 55.8271 3.53703 55.8271 2.77774C55.8271 2.01845 56.0979 1.35383 56.6395 0.812292C57.181 0.270754 57.8361 0 58.6049 0C59.3737 0 60.0288 0.270754 60.5703 0.812292C61.1119 1.35383 61.3827 2.00898 61.3827 2.77774C61.3827 3.54649 61.1119 4.20164 60.5703 4.74318C60.0288 5.28472 59.3737 5.5555 58.6049 5.5555ZM56.7928 4.58982C57.2965 5.09349 57.9005 5.34532 58.6049 5.34532C59.3093 5.34532 59.9114 5.09349 60.417 4.58982C60.9206 4.08615 61.1744 3.48022 61.1744 2.77774C61.1744 2.07525 60.9225 1.46934 60.417 0.965676C59.9114 0.462007 59.3074 0.210175 58.6049 0.210175C57.9024 0.210175 57.2965 0.462007 56.7928 0.965676C56.2873 1.47124 56.0354 2.07525 56.0354 2.77774C56.0354 3.48022 56.2873 4.08615 56.7928 4.58982ZM59.4115 4.43075H60.078L59.1483 3.06934C59.6482 2.96709 59.8982 2.65845 59.8982 2.13963C59.8982 1.46365 59.4948 1.12662 58.6901 1.12662H57.4272V4.43075H58.0387V3.15264H58.5386L59.4134 4.43075H59.4115ZM58.0217 2.65278V1.62461H58.6333C59.0593 1.62461 59.2714 1.79691 59.2714 2.13963C59.2714 2.50129 59.0593 2.67172 58.6333 2.65278H58.0217Z" fill="white"/>
<path d="M17.9991 26.7567V31.0417C17.9991 31.2197 17.8798 31.3693 17.7018 31.3693C15.9769 31.3693 14.4583 30.7445 13.2692 29.5837C12.0782 30.7729 10.2055 31.3693 7.67581 31.3693H1.01072L0.296875 26.4595H7.73451C9.40078 26.4595 10.2036 25.5374 10.2036 24.1684V23.2159C10.1733 21.6387 8.86492 20.5688 6.96007 20.5688H4.93782V15.8086H8.03179C12.0782 15.8086 14.8749 18.2474 14.8749 22.8012V25.1227C14.8749 25.3309 14.8749 25.5392 14.8446 25.7475C15.6474 26.1944 16.5411 26.4614 17.7 26.4614C17.8779 26.4614 17.9972 26.5807 17.9972 26.7586L17.9991 26.7567Z" fill="white"/>
<path d="M29.5141 26.7559V31.0409C29.5141 31.2189 29.3949 31.3685 29.2169 31.3685C27.6396 31.3685 25.9449 30.5656 24.5456 29.1379C23.1766 30.6262 20.8268 31.3685 17.7026 31.3685C17.5246 31.3685 17.4053 31.2189 17.4053 31.0409L17.464 26.7559C17.464 26.5779 17.5833 26.4586 17.7613 26.4586C20.0827 26.4586 21.3324 25.5668 21.3324 23.4234L21.3021 19.8523L25.943 19.3164V25.5043C26.9257 26.1292 28.0562 26.4568 29.215 26.4568C29.393 26.4568 29.5123 26.576 29.5123 26.754L29.5141 26.7559ZM25.587 32.8851L28.7113 35.9488L25.6476 39.0125L23.4758 36.8994L21.3627 39.0125L18.2384 35.9488L21.3021 32.8851L23.4739 34.9983L25.587 32.8851Z" fill="white"/>
<path d="M44.5687 23.246C44.5687 28.1842 41.2967 31.3691 36.0593 31.3691H29.2162C29.0079 31.3691 28.9189 31.2801 28.9189 31.0415V26.7565C28.9189 26.5786 29.0382 26.4593 29.2162 26.4593H31.0605C30.4943 25.2683 30.1687 24.1379 30.1687 22.979C30.1687 18.9326 33.2323 16.047 37.22 16.047C41.4747 16.047 44.5687 19.0822 44.5687 23.2479V23.246ZM34.7509 14.0834L31.6569 10.9894L34.7206 7.92578L37.0704 10.2169L39.3918 7.92578L42.4858 10.9894L39.4505 14.0834L37.0704 11.762L34.749 14.0834H34.7509ZM39.9277 23.2157C39.9277 21.6384 38.7367 20.4777 37.1613 20.4777C35.5859 20.4777 34.3059 21.7577 34.3059 23.3937C34.3059 24.3461 34.6032 25.3573 35.1391 26.4574H36.0915C38.5019 26.4574 39.9296 25.1774 39.9296 23.2138L39.9277 23.2157Z" fill="white"/>
<path d="M11.0599 63.9862L8.69308 60.3489C8.52645 60.381 8.34468 60.4076 8.14586 60.4227C7.94704 60.4397 7.73118 60.4473 7.49828 60.4473C5.67107 60.4473 4.21118 60.1406 3.11485 59.5252C2.01852 58.9117 1.22515 57.9612 0.736628 56.6736C0.246214 55.3879 0.00195312 53.7463 0.00195312 51.7543C0.00195312 49.7623 0.246214 48.0923 0.736628 46.7971C1.22704 45.502 2.01852 44.5401 3.11485 43.9077C4.21118 43.2772 5.67107 42.9609 7.49828 42.9609C9.3255 42.9609 10.8157 43.2772 11.9196 43.9077C13.0235 44.5382 13.8207 45.502 14.3111 46.7971C14.8015 48.0923 15.0457 49.7453 15.0457 51.7543C15.0457 53.5815 14.8507 55.1039 14.4607 56.3252C14.0706 57.5465 13.4192 58.48 12.5047 59.1276L14.5478 62.2651L11.0599 63.9844V63.9862ZM7.49828 56.8137C8.36172 56.8137 9.01308 56.6225 9.45426 56.24C9.89355 55.8575 10.1889 55.2895 10.3385 54.534C10.4881 53.7785 10.562 52.8525 10.562 51.7562C10.562 50.6599 10.4881 49.7302 10.3385 48.9671C10.1889 48.204 9.89923 47.6227 9.46752 47.2232C9.0358 46.8255 8.38065 46.6248 7.50018 46.6248C6.61971 46.6248 6.01 46.8236 5.56882 47.2232C5.12953 47.6208 4.82468 48.1983 4.65994 48.9538C4.49331 49.7093 4.41 50.6428 4.41 51.7562C4.41 52.8696 4.48953 53.7747 4.64669 54.5207C4.80385 55.2686 5.10681 55.8367 5.55556 56.2267C6.00432 56.6168 6.65189 56.8118 7.49828 56.8118V56.8137Z" fill="white"/>
<path d="M20.0259 60.1486V54.2201L15.0195 43.2852H19.7779L22.2678 49.2875L24.8335 43.2852H29.5653L24.4586 54.2201V60.1486H20.024H20.0259Z" fill="white"/>
<path d="M30.6122 60.1486V43.2852H37.3379C38.7164 43.2852 39.8866 43.4594 40.8504 43.8078C41.8122 44.1562 42.5905 44.675 43.1793 45.3642C43.7682 46.0534 44.1961 46.9093 44.4612 47.9299C44.7263 48.9505 44.8589 50.1263 44.8589 51.4537C44.8589 52.781 44.7339 54.0023 44.4859 55.0646C44.2359 56.1268 43.8288 57.0414 43.2646 57.8044C42.7003 58.5675 41.9448 59.1488 40.998 59.5484C40.0513 59.946 38.8887 60.1467 37.5102 60.1467H30.6104L30.6122 60.1486ZM35.0449 56.4885H37.1864C37.8832 56.4885 38.4437 56.3635 38.8679 56.1155C39.292 55.8655 39.6101 55.5171 39.826 55.0683C40.0418 54.6196 40.1819 54.0894 40.2501 53.474C40.3164 52.8605 40.3505 52.1884 40.3505 51.4575C40.3505 50.7266 40.3088 50.1339 40.2255 49.5772C40.1422 49.0205 39.9926 48.5434 39.7767 48.1457C39.5609 47.7481 39.2447 47.4489 38.83 47.2482C38.4153 47.0494 37.8662 46.9491 37.1864 46.9491H35.0449V56.4885Z" fill="white"/>
</svg>
