<svg width="139" height="72" viewBox="0 0 139 72" fill="none" xmlns="http://www.w3.org/2000/svg">
<path d="M67.1552 2.24629L65.2585 0.541016L61.7822 3.67361L65.8734 7.36613L67.7671 5.65817L69.6578 7.36613L73.1416 4.2295L69.0489 0.541016L67.1552 2.24629Z" fill="#292D32"/>
<path d="M42.2391 40.7789L38.7628 43.9142L36.8721 42.209L34.9813 43.9169L30.8872 40.2244L34.3635 37.0918L36.2542 38.7971L38.1479 37.0918L42.2391 40.7789Z" fill="#292D32"/>
<path d="M57.154 16.529H67.2076V27.3676H57.154V16.529ZM58.7112 11.4629L51.2003 18.2155L51.2078 27.3676H39.5373V18.2155H36.1965L33.6075 20.5438V27.3676H21.9385V16.529H18.5977L16.0087 18.8573V27.3756L6.79918 27.3689L0.00292969 33.5025V34.3189L2.10061 32.4391H65.6712L73.1464 25.6999V11.4669L58.7112 11.4629Z" fill="#292D32"/>
<path d="M66.7051 47.8701H51.207V70.0641H66.7051L73.1411 64.2595V53.6747L66.7051 47.8701ZM68.2535 66.6603H56.1125V51.2833H68.2535V66.6603Z" fill="#292D32"/>
<path d="M48.544 47.8672L39.2913 56.2123L38.5469 56.8836L38.4948 56.8904V70.0626H37.2368L34.6508 67.7356V56.8904L34.5957 56.8836L24.6001 47.8672H30.0356L36.5683 53.7564L43.1011 47.8672H48.544Z" fill="#292D32"/>
<path d="M4.89301 51.2791H17.0488V66.6547H4.89301V51.2791ZM0.00537109 47.8672V64.2485L6.44134 70.0532H27.966L29.6543 71.5678V70.9219L25.2267 66.9286H21.9395V53.6759L15.5035 47.8712L0.00537109 47.8672Z" fill="#292D32"/>
<path d="M121.377 25.2661H129.92V32.9721H121.377V25.2661ZM121.377 17.5655L112.846 25.2661V27.2641H112.833V40.6646H129.905V62.3618H81.6685L90.2021 70.0624H129.905H129.914H138.444V17.5615L121.377 17.5655Z" fill="#292D32"/>
<path d="M107.279 17.5664L98.7456 25.267H81.6738L90.2075 17.5664H107.279Z" fill="#292D32"/>
<path d="M129.447 4.94255L126.599 2.37793L121.372 7.09092L127.527 12.6431L130.372 10.0745L133.217 12.6431L138.444 7.92744L132.291 2.37793L129.447 4.94255Z" fill="#292D32"/>
<path d="M90.2075 25.2656H81.6738V62.3613H90.2075V25.2656Z" fill="#292D32"/>
<path d="M109.096 0.541016L98.7476 9.86764V17.5669H107.28V3.42252L110.476 0.541016H109.096Z" fill="#292D32"/>
<mask id="mask0_80_16506" style="mask-type:luminance" maskUnits="userSpaceOnUse" x="0" y="0" width="139" height="72">
<path d="M138.445 0H0V71.1514H138.445V0Z" fill="white"/>
</mask>
<g mask="url(#mask0_80_16506)">
<path d="M85.3803 7.36802C84.8742 7.37367 84.3723 7.28567 83.9055 7.10946C83.4387 6.93324 83.0169 6.67256 82.6662 6.34352C82.3015 6.02713 82.0126 5.6467 81.8172 5.2257C81.6219 4.80471 81.5242 4.35207 81.5303 3.89572C81.5219 3.43873 81.6174 2.98504 81.811 2.56265C82.0046 2.14026 82.2921 1.75814 82.6558 1.43986C83.3787 0.789233 84.3583 0.423828 85.3795 0.423828C86.4008 0.423828 87.3803 0.789233 88.1032 1.43986C88.4669 1.75814 88.7544 2.14026 88.948 2.56265C89.1416 2.98504 89.2371 3.43873 89.2287 3.89572C89.2371 4.3527 89.1416 4.80639 88.948 5.22878C88.7544 5.65117 88.4669 6.0333 88.1032 6.35158C87.7503 6.67953 87.3266 6.93879 86.8583 7.11338C86.3899 7.28796 85.8869 7.37551 85.3803 7.36802ZM82.8687 6.15822C83.1973 6.45795 83.5885 6.69591 84.0197 6.85832C84.451 7.02072 84.9137 7.10435 85.381 7.10435C85.8483 7.10435 86.311 7.02072 86.7423 6.85832C87.1735 6.69591 87.5648 6.45795 87.8933 6.15822C88.2293 5.86485 88.4952 5.51251 88.6744 5.12293C88.8536 4.73334 88.9425 4.31477 88.9355 3.89303C88.9425 3.47129 88.8536 3.05272 88.6744 2.66314C88.4952 2.27355 88.2293 1.92121 87.8933 1.62784C87.5648 1.32811 87.1735 1.09015 86.7423 0.927747C86.311 0.765342 85.8483 0.681718 85.381 0.681718C84.9137 0.681718 84.451 0.765342 84.0197 0.927747C83.5885 1.09015 83.1973 1.32811 82.8687 1.62784C82.5327 1.92121 82.2669 2.27355 82.0876 2.66314C81.9084 3.05272 81.8196 3.47129 81.8266 3.89303C81.8196 4.31477 81.9084 4.73334 82.0876 5.12293C82.2669 5.51251 82.5327 5.86485 82.8687 6.15822ZM86.4968 5.95815H87.4214L86.1321 4.25691C86.4402 4.22512 86.7221 4.08541 86.9171 3.86789C87.112 3.65037 87.2044 3.37247 87.1742 3.09411C87.1742 2.24908 86.6159 1.82657 85.4994 1.82657H83.7486V5.96218H84.5957V4.36567H85.288L86.4968 5.95815ZM84.5719 3.73593V2.45631H85.419C86.0095 2.45631 86.3048 2.67025 86.3048 3.09813C86.3048 3.54571 86.0095 3.75965 85.419 3.73996L84.5719 3.73593Z" fill="#292D32"/>
</g>
</svg>
