<svg width="20" height="20" viewBox="0 0 20 20" fill="none" xmlns="http://www.w3.org/2000/svg">
<g clip-path="url(#clip0_704_1600)">
<path d="M10.0035 6.67788C9.90897 6.67736 9.81514 6.69443 9.72733 6.72825C9.63949 6.76209 9.55922 6.81209 9.49124 6.87565C9.42325 6.93922 9.36888 7.01515 9.33153 7.09924C9.29418 7.18336 9.27466 7.27382 9.27428 7.36541V7.36583V11.5004C9.27428 11.6855 9.3522 11.8618 9.48885 11.9909C9.62531 12.1198 9.80924 12.1913 9.9999 12.1913C10.1906 12.1913 10.3745 12.1198 10.5109 11.9909C10.6476 11.8618 10.7255 11.6855 10.7255 11.5004L10.7255 7.36583L10.7255 7.36541C10.7247 7.1814 10.647 7.00636 10.5111 6.87808C10.3755 6.74999 10.193 6.67862 10.0035 6.67788ZM10.0035 6.67788C10.0035 6.67788 10.0034 6.67788 10.0034 6.67788L10.003 6.77788L10.0036 6.67788C10.0036 6.67788 10.0035 6.67788 10.0035 6.67788ZM0.765456 15.5057L0.765322 15.5057L0.762996 15.5107C0.391388 16.3088 0.474004 17.1052 0.878717 17.6679L0.878748 17.668C1.28137 18.2272 1.96242 18.533 2.66615 18.533H17.3099C18.0135 18.533 18.6959 18.2285 19.0986 17.6679C19.4144 17.2288 19.4774 16.7551 19.4449 16.3607C19.4125 15.9677 19.2852 15.6484 19.2126 15.5072L19.2118 15.5057L11.9125 1.84886L11.9125 1.84884L11.9112 1.84662C11.487 1.09936 10.8838 0.623633 10.003 0.623633C9.12923 0.623633 8.36973 1.17289 8.06263 1.85181L0.765456 15.5057ZM2.07871 16.889L2.07858 16.8888C1.97165 16.7402 1.91506 16.4664 2.07746 16.093L9.37435 2.44663C9.38091 2.43571 9.38801 2.42314 9.39583 2.40932C9.47299 2.27273 9.61934 2.0137 9.99803 2.0137C10.2124 2.0137 10.3434 2.09134 10.4302 2.17886C10.5032 2.25239 10.5452 2.33136 10.5802 2.39731C10.5892 2.41413 10.5977 2.43009 10.6061 2.44491L17.8986 16.0971C17.99 16.3071 18.0166 16.4673 18.0089 16.5915C18.0013 16.7151 17.9593 16.8097 17.9025 16.8887C17.7913 17.0431 17.5797 17.1536 17.3099 17.1536H2.66615C2.39609 17.1536 2.1901 17.0446 2.07871 16.889ZM10.0005 13.2971C9.72715 13.2971 9.4639 13.3996 9.26895 13.5837C9.07381 13.768 8.96303 14.0193 8.96303 14.2825C8.96303 14.5458 9.07381 14.797 9.26895 14.9813C9.4639 15.1655 9.72715 15.268 10.0005 15.268C10.2739 15.268 10.5372 15.1655 10.7321 14.9813C10.9272 14.797 11.038 14.5458 11.038 14.2825C11.038 14.0193 10.9272 13.768 10.7321 13.5837C10.5372 13.3996 10.2739 13.2971 10.0005 13.2971Z" fill="white" stroke="white" stroke-width="0.2"/>
</g>
<defs>
<clipPath id="clip0_704_1600">
<rect width="20" height="18.89" fill="white" transform="translate(0 0.134766)"/>
</clipPath>
</defs>
</svg>
