<svg width="24" height="22" viewBox="0 0 24 22" fill="none" xmlns="http://www.w3.org/2000/svg">
<mask id="path-1-outside-1_704_1594" maskUnits="userSpaceOnUse" x="0" y="-0.369141" width="24" height="22" fill="black">
<rect fill="white" y="-0.369141" width="24" height="22"/>
<path d="M22.9105 12.7744C22.8415 12.587 22.7344 12.4157 22.596 12.2712C22.4576 12.1267 22.2907 12.012 22.1058 11.9342V1.73148C22.105 1.43984 21.988 1.1604 21.7805 0.954186C21.573 0.747968 21.2919 0.63173 20.9984 0.630859H9.18606C8.89262 0.63173 8.61146 0.747968 8.40397 0.954186C8.19648 1.1604 8.07952 1.43984 8.07865 1.73148V12.0149C7.65983 12.2041 7.25946 12.4313 6.88264 12.6937L5.72356 13.5008L5.29905 12.8991C5.24273 12.82 5.15737 12.766 5.06139 12.7489C4.96541 12.7317 4.86648 12.7527 4.78595 12.8074L1.15734 15.3315C1.07747 15.3881 1.0231 15.4736 1.00585 15.5696C0.988599 15.6656 1.00985 15.7645 1.06505 15.8451L4.87823 21.2528C4.93412 21.3325 5.01952 21.3869 5.11571 21.4041C5.21189 21.4213 5.31101 21.3999 5.39133 21.3445L9.01994 18.8204C9.09965 18.7637 9.15391 18.6782 9.17115 18.5823C9.18838 18.4863 9.16724 18.3875 9.11223 18.3068L8.90182 18.0096C9.61409 17.526 10.4892 17.3402 11.3381 17.4924L11.9952 17.6024C12.8253 17.749 13.6796 17.6756 14.4721 17.3896L22.0283 14.6564C22.2106 14.5905 22.3781 14.4895 22.5211 14.3592C22.6642 14.2289 22.7799 14.0719 22.8619 13.8971C22.9438 13.7223 22.9903 13.5332 22.9986 13.3405C23.007 13.1479 22.9771 12.9555 22.9105 12.7744ZM16.9379 1.36461H20.9984C21.0963 1.36461 21.1902 1.40326 21.2594 1.47206C21.3287 1.54086 21.3676 1.63418 21.3676 1.73148V2.8321H16.9379V1.36461ZM13.9848 1.36461H16.1996V4.51605L15.3543 3.67224C15.2846 3.6035 15.1904 3.56493 15.0922 3.56493C14.9941 3.56493 14.8998 3.6035 14.8302 3.67224L13.9848 4.51605V1.36461ZM8.81692 1.73148C8.81692 1.63418 8.85581 1.54086 8.92504 1.47206C8.99426 1.40326 9.08815 1.36461 9.18606 1.36461H13.2466V2.8321H8.81692V1.73148ZM8.81692 3.56585H13.2466V5.40021C13.2463 5.47279 13.2679 5.54377 13.3088 5.60396C13.3496 5.66414 13.4076 5.71075 13.4754 5.73773C13.5426 5.76583 13.6167 5.77351 13.6883 5.75979C13.76 5.74608 13.8259 5.7116 13.8778 5.66069L15.0922 4.45001L16.3067 5.66069C16.3765 5.72913 16.4707 5.76737 16.5688 5.76708C16.6172 5.76835 16.6653 5.7583 16.7091 5.73773C16.7768 5.71075 16.8349 5.66414 16.8757 5.60396C16.9165 5.54377 16.9382 5.47279 16.9379 5.40021V3.56585H21.3676V11.8242C21.2493 11.8341 21.1327 11.8588 21.0206 11.8975L19.7138 12.3708H17.1188C16.924 12.2055 16.6882 12.0953 16.4359 12.0516L12.7261 11.4023C11.5274 11.1916 10.2957 11.2644 9.13068 11.615L9.06424 11.6371C8.97934 11.6591 8.89813 11.6921 8.81692 11.7214V3.56585ZM5.26952 20.5337L1.88454 15.724L4.90776 13.6182L8.29275 18.4279L5.26952 20.5337ZM22.2535 13.4054C22.2307 13.5323 22.1747 13.651 22.0911 13.7495C22.0075 13.848 21.8993 13.9229 21.7773 13.9667L14.2211 16.6999C13.5503 16.9421 12.827 17.0041 12.1244 16.8797L11.4636 16.7696C10.4224 16.5833 9.34935 16.8127 8.47731 17.408L6.14806 14.0988L7.30715 13.2953C7.90517 12.8755 8.5669 12.5535 9.26727 12.3415L9.33371 12.3231C10.392 12.004 11.5107 11.9349 12.6006 12.1213L16.3067 12.7707C16.5005 12.8062 16.6727 12.9154 16.7866 13.0752C16.8512 13.1696 16.8929 13.2776 16.9084 13.3907C16.9273 13.4934 16.921 13.5991 16.8899 13.6989C16.839 13.8744 16.7244 14.0248 16.5682 14.1211C16.412 14.2173 16.2254 14.2525 16.0446 14.2198L12.0542 13.5191L11.9287 14.2382L15.9154 14.9389C16.0016 14.9565 16.0895 14.9651 16.1775 14.9646C16.4953 14.9643 16.8046 14.8625 17.0598 14.6743C17.3151 14.486 17.5027 14.2213 17.595 13.919L21.2716 12.5873C21.4556 12.5212 21.6586 12.5304 21.8358 12.613C22.013 12.6955 22.1499 12.8446 22.2166 13.0275C22.2638 13.1476 22.2766 13.2785 22.2535 13.4054Z"/>
</mask>
<path d="M22.9105 12.7744C22.8415 12.587 22.7344 12.4157 22.596 12.2712C22.4576 12.1267 22.2907 12.012 22.1058 11.9342V1.73148C22.105 1.43984 21.988 1.1604 21.7805 0.954186C21.573 0.747968 21.2919 0.63173 20.9984 0.630859H9.18606C8.89262 0.63173 8.61146 0.747968 8.40397 0.954186C8.19648 1.1604 8.07952 1.43984 8.07865 1.73148V12.0149C7.65983 12.2041 7.25946 12.4313 6.88264 12.6937L5.72356 13.5008L5.29905 12.8991C5.24273 12.82 5.15737 12.766 5.06139 12.7489C4.96541 12.7317 4.86648 12.7527 4.78595 12.8074L1.15734 15.3315C1.07747 15.3881 1.0231 15.4736 1.00585 15.5696C0.988599 15.6656 1.00985 15.7645 1.06505 15.8451L4.87823 21.2528C4.93412 21.3325 5.01952 21.3869 5.11571 21.4041C5.21189 21.4213 5.31101 21.3999 5.39133 21.3445L9.01994 18.8204C9.09965 18.7637 9.15391 18.6782 9.17115 18.5823C9.18838 18.4863 9.16724 18.3875 9.11223 18.3068L8.90182 18.0096C9.61409 17.526 10.4892 17.3402 11.3381 17.4924L11.9952 17.6024C12.8253 17.749 13.6796 17.6756 14.4721 17.3896L22.0283 14.6564C22.2106 14.5905 22.3781 14.4895 22.5211 14.3592C22.6642 14.2289 22.7799 14.0719 22.8619 13.8971C22.9438 13.7223 22.9903 13.5332 22.9986 13.3405C23.007 13.1479 22.9771 12.9555 22.9105 12.7744ZM16.9379 1.36461H20.9984C21.0963 1.36461 21.1902 1.40326 21.2594 1.47206C21.3287 1.54086 21.3676 1.63418 21.3676 1.73148V2.8321H16.9379V1.36461ZM13.9848 1.36461H16.1996V4.51605L15.3543 3.67224C15.2846 3.6035 15.1904 3.56493 15.0922 3.56493C14.9941 3.56493 14.8998 3.6035 14.8302 3.67224L13.9848 4.51605V1.36461ZM8.81692 1.73148C8.81692 1.63418 8.85581 1.54086 8.92504 1.47206C8.99426 1.40326 9.08815 1.36461 9.18606 1.36461H13.2466V2.8321H8.81692V1.73148ZM8.81692 3.56585H13.2466V5.40021C13.2463 5.47279 13.2679 5.54377 13.3088 5.60396C13.3496 5.66414 13.4076 5.71075 13.4754 5.73773C13.5426 5.76583 13.6167 5.77351 13.6883 5.75979C13.76 5.74608 13.8259 5.7116 13.8778 5.66069L15.0922 4.45001L16.3067 5.66069C16.3765 5.72913 16.4707 5.76737 16.5688 5.76708C16.6172 5.76835 16.6653 5.7583 16.7091 5.73773C16.7768 5.71075 16.8349 5.66414 16.8757 5.60396C16.9165 5.54377 16.9382 5.47279 16.9379 5.40021V3.56585H21.3676V11.8242C21.2493 11.8341 21.1327 11.8588 21.0206 11.8975L19.7138 12.3708H17.1188C16.924 12.2055 16.6882 12.0953 16.4359 12.0516L12.7261 11.4023C11.5274 11.1916 10.2957 11.2644 9.13068 11.615L9.06424 11.6371C8.97934 11.6591 8.89813 11.6921 8.81692 11.7214V3.56585ZM5.26952 20.5337L1.88454 15.724L4.90776 13.6182L8.29275 18.4279L5.26952 20.5337ZM22.2535 13.4054C22.2307 13.5323 22.1747 13.651 22.0911 13.7495C22.0075 13.848 21.8993 13.9229 21.7773 13.9667L14.2211 16.6999C13.5503 16.9421 12.827 17.0041 12.1244 16.8797L11.4636 16.7696C10.4224 16.5833 9.34935 16.8127 8.47731 17.408L6.14806 14.0988L7.30715 13.2953C7.90517 12.8755 8.5669 12.5535 9.26727 12.3415L9.33371 12.3231C10.392 12.004 11.5107 11.9349 12.6006 12.1213L16.3067 12.7707C16.5005 12.8062 16.6727 12.9154 16.7866 13.0752C16.8512 13.1696 16.8929 13.2776 16.9084 13.3907C16.9273 13.4934 16.921 13.5991 16.8899 13.6989C16.839 13.8744 16.7244 14.0248 16.5682 14.1211C16.412 14.2173 16.2254 14.2525 16.0446 14.2198L12.0542 13.5191L11.9287 14.2382L15.9154 14.9389C16.0016 14.9565 16.0895 14.9651 16.1775 14.9646C16.4953 14.9643 16.8046 14.8625 17.0598 14.6743C17.3151 14.486 17.5027 14.2213 17.595 13.919L21.2716 12.5873C21.4556 12.5212 21.6586 12.5304 21.8358 12.613C22.013 12.6955 22.1499 12.8446 22.2166 13.0275C22.2638 13.1476 22.2766 13.2785 22.2535 13.4054Z" fill="white"/>
<path d="M22.9105 12.7744C22.8415 12.587 22.7344 12.4157 22.596 12.2712C22.4576 12.1267 22.2907 12.012 22.1058 11.9342V1.73148C22.105 1.43984 21.988 1.1604 21.7805 0.954186C21.573 0.747968 21.2919 0.63173 20.9984 0.630859H9.18606C8.89262 0.63173 8.61146 0.747968 8.40397 0.954186C8.19648 1.1604 8.07952 1.43984 8.07865 1.73148V12.0149C7.65983 12.2041 7.25946 12.4313 6.88264 12.6937L5.72356 13.5008L5.29905 12.8991C5.24273 12.82 5.15737 12.766 5.06139 12.7489C4.96541 12.7317 4.86648 12.7527 4.78595 12.8074L1.15734 15.3315C1.07747 15.3881 1.0231 15.4736 1.00585 15.5696C0.988599 15.6656 1.00985 15.7645 1.06505 15.8451L4.87823 21.2528C4.93412 21.3325 5.01952 21.3869 5.11571 21.4041C5.21189 21.4213 5.31101 21.3999 5.39133 21.3445L9.01994 18.8204C9.09965 18.7637 9.15391 18.6782 9.17115 18.5823C9.18838 18.4863 9.16724 18.3875 9.11223 18.3068L8.90182 18.0096C9.61409 17.526 10.4892 17.3402 11.3381 17.4924L11.9952 17.6024C12.8253 17.749 13.6796 17.6756 14.4721 17.3896L22.0283 14.6564C22.2106 14.5905 22.3781 14.4895 22.5211 14.3592C22.6642 14.2289 22.7799 14.0719 22.8619 13.8971C22.9438 13.7223 22.9903 13.5332 22.9986 13.3405C23.007 13.1479 22.9771 12.9555 22.9105 12.7744ZM16.9379 1.36461H20.9984C21.0963 1.36461 21.1902 1.40326 21.2594 1.47206C21.3287 1.54086 21.3676 1.63418 21.3676 1.73148V2.8321H16.9379V1.36461ZM13.9848 1.36461H16.1996V4.51605L15.3543 3.67224C15.2846 3.6035 15.1904 3.56493 15.0922 3.56493C14.9941 3.56493 14.8998 3.6035 14.8302 3.67224L13.9848 4.51605V1.36461ZM8.81692 1.73148C8.81692 1.63418 8.85581 1.54086 8.92504 1.47206C8.99426 1.40326 9.08815 1.36461 9.18606 1.36461H13.2466V2.8321H8.81692V1.73148ZM8.81692 3.56585H13.2466V5.40021C13.2463 5.47279 13.2679 5.54377 13.3088 5.60396C13.3496 5.66414 13.4076 5.71075 13.4754 5.73773C13.5426 5.76583 13.6167 5.77351 13.6883 5.75979C13.76 5.74608 13.8259 5.7116 13.8778 5.66069L15.0922 4.45001L16.3067 5.66069C16.3765 5.72913 16.4707 5.76737 16.5688 5.76708C16.6172 5.76835 16.6653 5.7583 16.7091 5.73773C16.7768 5.71075 16.8349 5.66414 16.8757 5.60396C16.9165 5.54377 16.9382 5.47279 16.9379 5.40021V3.56585H21.3676V11.8242C21.2493 11.8341 21.1327 11.8588 21.0206 11.8975L19.7138 12.3708H17.1188C16.924 12.2055 16.6882 12.0953 16.4359 12.0516L12.7261 11.4023C11.5274 11.1916 10.2957 11.2644 9.13068 11.615L9.06424 11.6371C8.97934 11.6591 8.89813 11.6921 8.81692 11.7214V3.56585ZM5.26952 20.5337L1.88454 15.724L4.90776 13.6182L8.29275 18.4279L5.26952 20.5337ZM22.2535 13.4054C22.2307 13.5323 22.1747 13.651 22.0911 13.7495C22.0075 13.848 21.8993 13.9229 21.7773 13.9667L14.2211 16.6999C13.5503 16.9421 12.827 17.0041 12.1244 16.8797L11.4636 16.7696C10.4224 16.5833 9.34935 16.8127 8.47731 17.408L6.14806 14.0988L7.30715 13.2953C7.90517 12.8755 8.5669 12.5535 9.26727 12.3415L9.33371 12.3231C10.392 12.004 11.5107 11.9349 12.6006 12.1213L16.3067 12.7707C16.5005 12.8062 16.6727 12.9154 16.7866 13.0752C16.8512 13.1696 16.8929 13.2776 16.9084 13.3907C16.9273 13.4934 16.921 13.5991 16.8899 13.6989C16.839 13.8744 16.7244 14.0248 16.5682 14.1211C16.412 14.2173 16.2254 14.2525 16.0446 14.2198L12.0542 13.5191L11.9287 14.2382L15.9154 14.9389C16.0016 14.9565 16.0895 14.9651 16.1775 14.9646C16.4953 14.9643 16.8046 14.8625 17.0598 14.6743C17.3151 14.486 17.5027 14.2213 17.595 13.919L21.2716 12.5873C21.4556 12.5212 21.6586 12.5304 21.8358 12.613C22.013 12.6955 22.1499 12.8446 22.2166 13.0275C22.2638 13.1476 22.2766 13.2785 22.2535 13.4054Z" stroke="white" stroke-width="0.4" mask="url(#path-1-outside-1_704_1594)"/>
</svg>
