<svg width="24" height="24" viewBox="0 0 24 24" fill="none" xmlns="http://www.w3.org/2000/svg">
<g clip-path="url(#clip0_0_1)">
<mask id="path-1-outside-1_0_1" maskUnits="userSpaceOnUse" x="1.69202" y="4.23047" width="20" height="15" fill="black">
<rect fill="white" x="1.69202" y="4.23047" width="20" height="15"/>
<path d="M13.5 12.4225C12.936 12.4225 12.4617 12.2301 12.077 11.8455C11.6924 11.4608 11.5 10.9865 11.5 10.4225C11.5 9.85847 11.6924 9.38414 12.077 8.99947C12.4617 8.6148 12.936 8.42247 13.5 8.42247C14.064 8.42247 14.5384 8.6148 14.923 8.99947C15.3077 9.38414 15.5 9.85847 15.5 10.4225C15.5 10.9865 15.3077 11.4608 14.923 11.8455C14.5384 12.2301 14.064 12.4225 13.5 12.4225ZM7.30802 15.6155C6.86335 15.6155 6.48302 15.4571 6.16702 15.1405C5.85035 14.8238 5.69202 14.4435 5.69202 13.9995V6.84547C5.69202 6.40147 5.85035 6.02147 6.16702 5.70547C6.48368 5.38947 6.86368 5.23114 7.30702 5.23047H19.692C20.1367 5.23047 20.517 5.38847 20.833 5.70447C21.149 6.02047 21.3074 6.4008 21.308 6.84547V13.9995C21.308 14.4435 21.1497 14.8235 20.833 15.1395C20.517 15.4568 20.137 15.6155 19.693 15.6155H7.30802ZM8.30802 14.6155H18.692C18.692 14.1675 18.8503 13.7861 19.167 13.4715C19.483 13.1568 19.863 12.9995 20.307 12.9995V7.84547C19.8603 7.84547 19.4797 7.68747 19.165 7.37147C18.8497 7.0548 18.692 6.67447 18.692 6.23047H8.30802C8.30802 6.6778 8.14968 7.0588 7.83302 7.37347C7.51702 7.68814 7.13702 7.84547 6.69302 7.84547V12.9995C7.13968 12.9995 7.52068 13.1578 7.83602 13.4745C8.15068 13.7905 8.30802 14.1705 8.30802 14.6145M17.846 18.6145H4.30802C3.86335 18.6145 3.48302 18.4565 3.16702 18.1405C2.85035 17.8238 2.69202 17.4435 2.69202 16.9995V8.69147C2.69202 8.55014 2.74002 8.43147 2.83602 8.33547C2.93202 8.23947 3.05102 8.19147 3.19302 8.19147C3.33502 8.19147 3.45368 8.23947 3.54902 8.33547C3.64435 8.43147 3.69202 8.55014 3.69202 8.69147V16.9995C3.69202 17.1528 3.75602 17.2938 3.88402 17.4225C4.01268 17.5511 4.15402 17.6155 4.30802 17.6155H17.846C17.988 17.6155 18.1067 17.6631 18.202 17.7585C18.298 17.8545 18.346 17.9735 18.346 18.1155C18.346 18.2575 18.298 18.3761 18.202 18.4715C18.106 18.5668 17.9874 18.6138 17.846 18.6145ZM7.30802 14.6155H6.69202V6.22947H7.30802C7.14135 6.22947 6.99702 6.29047 6.87502 6.41247C6.75302 6.53447 6.69202 6.67847 6.69202 6.84447V13.9995C6.69202 14.1661 6.75302 14.3105 6.87502 14.4325C6.99702 14.5545 7.14135 14.6155 7.30802 14.6155Z"/>
</mask>
<path d="M13.5 12.4225C12.936 12.4225 12.4617 12.2301 12.077 11.8455C11.6924 11.4608 11.5 10.9865 11.5 10.4225C11.5 9.85847 11.6924 9.38414 12.077 8.99947C12.4617 8.6148 12.936 8.42247 13.5 8.42247C14.064 8.42247 14.5384 8.6148 14.923 8.99947C15.3077 9.38414 15.5 9.85847 15.5 10.4225C15.5 10.9865 15.3077 11.4608 14.923 11.8455C14.5384 12.2301 14.064 12.4225 13.5 12.4225ZM7.30802 15.6155C6.86335 15.6155 6.48302 15.4571 6.16702 15.1405C5.85035 14.8238 5.69202 14.4435 5.69202 13.9995V6.84547C5.69202 6.40147 5.85035 6.02147 6.16702 5.70547C6.48368 5.38947 6.86368 5.23114 7.30702 5.23047H19.692C20.1367 5.23047 20.517 5.38847 20.833 5.70447C21.149 6.02047 21.3074 6.4008 21.308 6.84547V13.9995C21.308 14.4435 21.1497 14.8235 20.833 15.1395C20.517 15.4568 20.137 15.6155 19.693 15.6155H7.30802ZM8.30802 14.6155H18.692C18.692 14.1675 18.8503 13.7861 19.167 13.4715C19.483 13.1568 19.863 12.9995 20.307 12.9995V7.84547C19.8603 7.84547 19.4797 7.68747 19.165 7.37147C18.8497 7.0548 18.692 6.67447 18.692 6.23047H8.30802C8.30802 6.6778 8.14968 7.0588 7.83302 7.37347C7.51702 7.68814 7.13702 7.84547 6.69302 7.84547V12.9995C7.13968 12.9995 7.52068 13.1578 7.83602 13.4745C8.15068 13.7905 8.30802 14.1705 8.30802 14.6145M17.846 18.6145H4.30802C3.86335 18.6145 3.48302 18.4565 3.16702 18.1405C2.85035 17.8238 2.69202 17.4435 2.69202 16.9995V8.69147C2.69202 8.55014 2.74002 8.43147 2.83602 8.33547C2.93202 8.23947 3.05102 8.19147 3.19302 8.19147C3.33502 8.19147 3.45368 8.23947 3.54902 8.33547C3.64435 8.43147 3.69202 8.55014 3.69202 8.69147V16.9995C3.69202 17.1528 3.75602 17.2938 3.88402 17.4225C4.01268 17.5511 4.15402 17.6155 4.30802 17.6155H17.846C17.988 17.6155 18.1067 17.6631 18.202 17.7585C18.298 17.8545 18.346 17.9735 18.346 18.1155C18.346 18.2575 18.298 18.3761 18.202 18.4715C18.106 18.5668 17.9874 18.6138 17.846 18.6145ZM7.30802 14.6155H6.69202V6.22947H7.30802C7.14135 6.22947 6.99702 6.29047 6.87502 6.41247C6.75302 6.53447 6.69202 6.67847 6.69202 6.84447V13.9995C6.69202 14.1661 6.75302 14.3105 6.87502 14.4325C6.99702 14.5545 7.14135 14.6155 7.30802 14.6155Z" fill="white"/>
<path d="M6.16702 15.1405L6.30859 14.9992L6.30844 14.999L6.16702 15.1405ZM7.30702 5.23047V5.03047L7.30672 5.03047L7.30702 5.23047ZM21.308 6.84547H21.508L21.508 6.84517L21.308 6.84547ZM20.833 15.1395L20.6917 14.9979L20.6913 14.9983L20.833 15.1395ZM18.692 14.6155V14.8155H18.892V14.6155H18.692ZM19.167 13.4715L19.308 13.6133L19.3081 13.6132L19.167 13.4715ZM20.307 12.9995V13.1995H20.507V12.9995H20.307ZM20.307 7.84547H20.507V7.64547H20.307V7.84547ZM19.165 7.37147L19.3067 7.23035V7.23035L19.165 7.37147ZM18.692 6.23047H18.892V6.03047H18.692V6.23047ZM8.30802 6.23047V6.03047H8.10802V6.23047H8.30802ZM7.83302 7.37347L7.69204 7.2316L7.6919 7.23175L7.83302 7.37347ZM6.69302 7.84547V7.64547H6.49302V7.84547H6.69302ZM6.69302 12.9995H6.49302V13.1995H6.69302V12.9995ZM7.83602 13.4745L7.97774 13.3333L7.97774 13.3333L7.83602 13.4745ZM17.846 18.6145V18.8145L17.847 18.8145L17.846 18.6145ZM3.69202 8.69147H3.49202H3.69202ZM3.88402 17.4225L3.74223 17.5635L3.7426 17.5639L3.88402 17.4225ZM6.69202 14.6155H6.49202V14.8155H6.69202V14.6155ZM6.69202 6.22947V6.02947H6.49202V6.22947H6.69202ZM13.5 12.2225C12.9869 12.2225 12.5641 12.0497 12.2184 11.704L11.9356 11.9869C12.3593 12.4106 12.8852 12.6225 13.5 12.6225V12.2225ZM12.2184 11.704C11.8728 11.3584 11.7 10.9356 11.7 10.4225H11.3C11.3 11.0373 11.5119 11.5632 11.9356 11.9869L12.2184 11.704ZM11.7 10.4225C11.7 9.90933 11.8728 9.48654 12.2184 9.14089L11.9356 8.85805C11.5119 9.28173 11.3 9.8076 11.3 10.4225H11.7ZM12.2184 9.14089C12.5641 8.79524 12.9869 8.62247 13.5 8.62247V8.22247C12.8852 8.22247 12.3593 8.43436 11.9356 8.85805L12.2184 9.14089ZM13.5 8.62247C14.0132 8.62247 14.4359 8.79524 14.7816 9.14089L15.0644 8.85805C14.6408 8.43436 14.1149 8.22247 13.5 8.22247V8.62247ZM14.7816 9.14089C15.1272 9.48654 15.3 9.90933 15.3 10.4225H15.7C15.7 9.8076 15.4881 9.28173 15.0644 8.85805L14.7816 9.14089ZM15.3 10.4225C15.3 10.9356 15.1272 11.3584 14.7816 11.704L15.0644 11.9869C15.4881 11.5632 15.7 11.0373 15.7 10.4225H15.3ZM14.7816 11.704C14.4359 12.0497 14.0132 12.2225 13.5 12.2225V12.6225C14.1149 12.6225 14.6408 12.4106 15.0644 11.9869L14.7816 11.704ZM7.30802 15.4155C6.91683 15.4155 6.58732 15.2785 6.30859 14.9992L6.02545 15.2817C6.37871 15.6357 6.80987 15.8155 7.30802 15.8155V15.4155ZM6.30844 14.999C6.02891 14.7195 5.89202 14.3899 5.89202 13.9995H5.49202C5.49202 14.497 5.67179 14.9281 6.0256 15.2819L6.30844 14.999ZM5.89202 13.9995V6.84547H5.49202V13.9995H5.89202ZM5.89202 6.84547C5.89202 6.45504 6.0289 6.12584 6.30829 5.84704L6.02574 5.5639C5.6718 5.9171 5.49202 6.3479 5.49202 6.84547H5.89202ZM6.30829 5.84704C6.58792 5.568 6.91739 5.43105 7.30732 5.43047L7.30672 5.03047C6.80998 5.03122 6.37945 5.21094 6.02574 5.5639L6.30829 5.84704ZM7.30702 5.43047H19.692V5.03047H7.30702V5.43047ZM19.692 5.43047C20.0833 5.43047 20.4129 5.56719 20.6916 5.84589L20.9744 5.56305C20.6211 5.20975 20.19 5.03047 19.692 5.03047V5.43047ZM20.6916 5.84589C20.9704 6.12467 21.1074 6.45434 21.108 6.84577L21.508 6.84517C21.5073 6.34727 21.3277 5.91627 20.9744 5.56305L20.6916 5.84589ZM21.108 6.84547V13.9995H21.508V6.84547H21.108ZM21.108 13.9995C21.108 14.3899 20.9711 14.7191 20.6917 14.9979L20.9743 15.281C21.3282 14.9278 21.508 14.497 21.508 13.9995H21.108ZM20.6913 14.9983C20.4125 15.2784 20.0833 15.4155 19.693 15.4155V15.8155C20.1907 15.8155 20.6216 15.6352 20.9747 15.2806L20.6913 14.9983ZM19.693 15.4155H7.30802V15.8155H19.693V15.4155ZM8.30802 14.8155H18.692V14.4155H8.30802V14.8155ZM18.892 14.6155C18.892 14.2205 19.0293 13.8903 19.308 13.6133L19.026 13.3296C18.6714 13.682 18.492 14.1144 18.492 14.6155H18.892ZM19.3081 13.6132C19.5868 13.3357 19.9162 13.1995 20.307 13.1995V12.7995C19.8099 12.7995 19.3792 12.9779 19.0259 13.3297L19.3081 13.6132ZM20.507 12.9995V7.84547H20.107V12.9995H20.507ZM20.307 7.64547C19.9134 7.64547 19.5838 7.50859 19.3067 7.23035L19.0233 7.51259C19.3756 7.86635 19.8073 8.04547 20.307 8.04547V7.64547ZM19.3067 7.23035C19.0285 6.95089 18.892 6.62118 18.892 6.23047H18.492C18.492 6.72775 18.6709 7.15872 19.0233 7.51259L19.3067 7.23035ZM18.692 6.03047H8.30802V6.43047H18.692V6.03047ZM8.10802 6.23047C8.10802 6.62466 7.97084 6.95456 7.69204 7.2316L7.97399 7.51534C8.32853 7.16304 8.50802 6.73094 8.50802 6.23047H8.10802ZM7.6919 7.23175C7.41319 7.50928 7.08386 7.64547 6.69302 7.64547V8.04547C7.19017 8.04547 7.62084 7.867 7.97414 7.51519L7.6919 7.23175ZM6.49302 7.84547V12.9995H6.89302V7.84547H6.49302ZM6.69302 13.1995C7.08646 13.1995 7.41647 13.3366 7.6943 13.6156L7.97774 13.3333C7.62489 12.979 7.1929 12.7995 6.69302 12.7995V13.1995ZM7.6943 13.6156C7.97182 13.8943 8.10802 14.2236 8.10802 14.6145H8.50802C8.50802 14.1173 8.32954 13.6866 7.97774 13.3333L7.6943 13.6156ZM17.846 18.4145H4.30802V18.8145H17.846V18.4145ZM4.30802 18.4145C3.91669 18.4145 3.58714 18.2778 3.30844 17.999L3.0256 18.2819C3.37889 18.6352 3.81001 18.8145 4.30802 18.8145V18.4145ZM3.30844 17.999C3.02891 17.7195 2.89202 17.3899 2.89202 16.9995H2.49202C2.49202 17.497 2.67179 17.9281 3.0256 18.2819L3.30844 17.999ZM2.89202 16.9995V8.69147H2.49202V16.9995H2.89202ZM2.89202 8.69147C2.89202 8.60075 2.92063 8.5337 2.97744 8.47689L2.6946 8.19405C2.55941 8.32924 2.49202 8.49952 2.49202 8.69147H2.89202ZM2.97744 8.47689C3.03405 8.42027 3.10135 8.39147 3.19302 8.39147V7.99147C3.00069 7.99147 2.82998 8.05866 2.6946 8.19405L2.97744 8.47689ZM3.19302 8.39147C3.28467 8.39147 3.35134 8.42024 3.4071 8.4764L3.69093 8.19454C3.55603 8.05869 3.38536 7.99147 3.19302 7.99147V8.39147ZM3.4071 8.4764C3.46342 8.53311 3.49202 8.60031 3.49202 8.69147H3.89202C3.89202 8.49996 3.82528 8.32983 3.69093 8.19454L3.4071 8.4764ZM3.49202 8.69147V16.9995H3.89202V8.69147H3.49202ZM3.49202 16.9995C3.49202 17.2153 3.5843 17.4048 3.74223 17.5635L4.0258 17.2814C3.92773 17.1828 3.89202 17.0904 3.89202 16.9995H3.49202ZM3.7426 17.5639C3.90145 17.7227 4.09144 17.8155 4.30802 17.8155V17.4155C4.21659 17.4155 4.12392 17.3795 4.02544 17.281L3.7426 17.5639ZM4.30802 17.8155H17.846V17.4155H4.30802V17.8155ZM17.846 17.8155C17.9381 17.8155 18.0049 17.8442 18.0606 17.8999L18.3434 17.617C18.2084 17.482 18.0379 17.4155 17.846 17.4155V17.8155ZM18.0606 17.8999C18.1172 17.9565 18.146 18.0238 18.146 18.1155H18.546C18.546 17.9231 18.4788 17.7524 18.3434 17.617L18.0606 17.8999ZM18.146 18.1155C18.146 18.2071 18.1172 18.2738 18.0611 18.3296L18.3429 18.6134C18.4788 18.4785 18.546 18.3078 18.546 18.1155H18.146ZM18.0611 18.3296C18.0049 18.3854 17.9376 18.414 17.8451 18.4145L17.847 18.8145C18.0371 18.8136 18.2072 18.7482 18.3429 18.6134L18.0611 18.3296ZM7.30802 14.4155H6.69202V14.8155H7.30802V14.4155ZM6.89202 14.6155V6.22947H6.49202V14.6155H6.89202ZM6.69202 6.42947H7.30802V6.02947H6.69202V6.42947ZM7.30802 6.02947C7.08626 6.02947 6.89163 6.11302 6.7336 6.27105L7.01644 6.55389C7.10241 6.46792 7.19644 6.42947 7.30802 6.42947V6.02947ZM6.7336 6.27105C6.57574 6.42891 6.49202 6.62314 6.49202 6.84447H6.89202C6.89202 6.7338 6.9303 6.64003 7.01644 6.55389L6.7336 6.27105ZM6.49202 6.84447V13.9995H6.89202V6.84447H6.49202ZM6.49202 13.9995C6.49202 14.2212 6.57556 14.4159 6.7336 14.5739L7.01644 14.291C6.93047 14.2051 6.89202 14.111 6.89202 13.9995H6.49202ZM6.7336 14.5739C6.89163 14.7319 7.08626 14.8155 7.30802 14.8155V14.4155C7.19644 14.4155 7.10241 14.377 7.01644 14.291L6.7336 14.5739Z" fill="white" mask="url(#path-1-outside-1_0_1)"/>
</g>
<defs>
<clipPath id="clip0_0_1">
<rect width="20.7641" height="20.7641" fill="white" transform="translate(1.29688 1.29688)"/>
</clipPath>
</defs>
</svg>
