<svg width="24" height="24" viewBox="0 0 24 24" fill="none" xmlns="http://www.w3.org/2000/svg">
<g clip-path="url(#clip0_130_2)">
<g clip-path="url(#clip1_130_2)">
<mask id="path-1-outside-1_130_2" maskUnits="userSpaceOnUse" x="0.998047" y="1.45996" width="21" height="20" fill="black">
<rect fill="white" x="0.998047" y="1.45996" width="21" height="20"/>
<path d="M11.5229 20.7453C10.9805 20.7453 10.3244 20.7276 9.75914 20.3358C9.49711 20.1533 9.28401 19.9154 9.13692 19.641C8.98984 19.3667 8.91286 19.0636 8.91217 18.7561V18.6967C8.91217 18.5119 8.75903 18.4319 8.693 18.4061C8.628 18.3806 8.46034 18.3353 8.32206 18.4659L8.27677 18.5086C7.79452 18.9645 7.07823 19.1692 6.40653 19.0445C5.71236 18.9145 5.23495 18.4544 4.85122 18.0852L4.74751 17.9856C4.35652 17.6114 3.86977 17.1464 3.77574 16.447C3.73673 16.1502 3.76968 15.8489 3.87209 15.5659C3.97451 15.2829 4.1437 15.0256 4.36689 14.8135L4.4108 14.772C4.54908 14.6414 4.50068 14.4827 4.47337 14.4207C4.4464 14.3586 4.36205 14.2146 4.16639 14.2146H4.10381C3.77833 14.214 3.45753 14.1413 3.16715 14.0025C2.87676 13.8636 2.62486 13.6624 2.43166 13.415C1.99607 12.8544 1.99711 12.1997 1.99815 11.6737V11.5313C1.99746 11.0053 1.99607 10.3507 2.43166 9.79037C2.62479 9.54287 2.87666 9.34158 3.16706 9.20265C3.45745 9.06372 3.77829 8.99103 4.10381 8.9904H4.16639C4.36205 8.9904 4.4471 8.84576 4.47406 8.78339C4.50137 8.72168 4.54942 8.56365 4.4108 8.43304L4.36655 8.39125C4.14237 8.17917 3.97246 7.92153 3.86977 7.63798C3.83927 7.55657 3.82616 7.47025 3.83122 7.38402C3.83627 7.29779 3.85938 7.21337 3.89921 7.13563C3.93904 7.0579 3.9948 6.9884 4.06326 6.93115C4.13172 6.87391 4.21153 6.83006 4.29805 6.80214C4.38458 6.77422 4.47611 6.76279 4.56734 6.76851C4.65857 6.77423 4.7477 6.79698 4.82956 6.83545C4.91142 6.87392 4.98439 6.92735 5.04425 6.99263C5.1041 7.05792 5.14965 7.13377 5.17825 7.2158C5.21248 7.31016 5.26986 7.39734 5.34454 7.46786L5.38844 7.50933C5.8783 7.972 6.02107 8.66813 5.75143 9.28296C5.48178 9.89877 4.85952 10.2965 4.16639 10.2965H4.10381C3.88775 10.2965 3.67411 10.3987 3.54585 10.5636C3.37957 10.7777 3.38026 11.1428 3.38095 11.5291V11.676C3.38026 12.0626 3.37957 12.4276 3.5462 12.6418C3.67411 12.8064 3.8881 12.9086 4.10381 12.9086H4.16639C4.85952 12.9086 5.48143 13.306 5.75108 13.9211C6.02107 14.5366 5.87864 15.233 5.38879 15.6957L5.34454 15.7375C5.27074 15.8087 5.21475 15.8946 5.18065 15.9889C5.14656 16.0832 5.13522 16.1835 5.14749 16.2825C5.18275 16.5433 5.44928 16.798 5.73138 17.0681L5.83854 17.1706C6.11476 17.4364 6.40065 17.7116 6.67583 17.7632C6.7874 17.7835 6.90253 17.7778 7.01126 17.7466C7.11998 17.7155 7.21903 17.6597 7.29982 17.5843L7.34511 17.5415C7.83428 17.0795 8.57166 16.9446 9.22227 17.1996C9.87391 17.4543 10.295 18.0421 10.295 18.6967V18.7561C10.295 18.9602 10.4032 19.162 10.5778 19.2831C10.8042 19.4402 11.1941 19.4395 11.6 19.4389H11.7556C12.1652 19.4395 12.5514 19.4405 12.7781 19.2828C12.9524 19.162 13.0606 18.9602 13.0606 18.7561V18.6967C13.0606 18.0421 13.4813 17.4547 14.1323 17.2C14.7836 16.9459 15.5216 17.0798 16.0115 17.5425L16.0547 17.5833C16.1298 17.6537 16.2208 17.7071 16.321 17.7395C16.4211 17.7718 16.5277 17.7823 16.6327 17.7701C16.9089 17.7371 17.1786 17.485 17.4645 17.2186L17.5723 17.118C17.8541 16.8571 18.1459 16.5871 18.2005 16.3269C18.2219 16.2214 18.2159 16.1126 18.183 16.0098C18.15 15.9071 18.0911 15.8134 18.0114 15.7369L17.9671 15.6951C17.4773 15.2324 17.3345 14.5363 17.6041 13.9214C17.8738 13.3063 18.496 12.9086 19.1892 12.9086H19.2517C19.4678 12.9086 19.6815 12.8064 19.8097 12.6415C19.9763 12.4276 19.9756 12.0626 19.975 11.676L19.9746 11.6025V11.5291C19.9753 11.1425 19.976 10.7774 19.8094 10.5632C19.7444 10.4812 19.6603 10.4145 19.5636 10.3682C19.4669 10.3219 19.3602 10.2974 19.2517 10.2965H19.1892C18.496 10.2965 17.8741 9.8991 17.6045 9.28394C17.3345 8.66846 17.4769 7.972 17.9668 7.50933L18.011 7.46754C18.0848 7.39633 18.1408 7.31044 18.1749 7.21614C18.209 7.12185 18.2203 7.02155 18.2081 6.92258C18.1728 6.6617 17.9063 6.40702 17.6242 6.13699L17.517 6.03446C17.2408 5.76868 16.9549 5.49343 16.6797 5.44184C16.5682 5.42146 16.453 5.4271 16.3443 5.45828C16.2355 5.48947 16.1365 5.54524 16.0557 5.62077L16.0105 5.66354C15.5213 6.12556 14.7839 6.26041 14.1333 6.0054C13.4817 5.7504 13.0606 5.16267 13.0606 4.50801V4.44858C13.0606 4.24451 12.9524 4.04272 12.7778 3.92159C12.5514 3.76486 12.1628 3.7678 11.7556 3.76616H11.6C11.1928 3.7678 10.8045 3.76486 10.5774 3.92224C10.4032 4.04305 10.295 4.24484 10.295 4.44891V4.50833C10.295 5.163 9.87426 5.7504 9.2233 6.00508C8.57166 6.25911 7.83428 6.12524 7.34407 5.66256L7.30086 5.62175C7.22923 5.55394 7.14273 5.50178 7.04746 5.46894C6.87523 5.40949 6.73505 5.28786 6.65778 5.13079C6.5805 4.97373 6.57244 4.7941 6.63538 4.63143C6.69833 4.46876 6.82711 4.33636 6.9934 4.26337C7.15969 4.19038 7.34988 4.18277 7.52211 4.24222C7.80489 4.34018 8.06659 4.49756 8.2785 4.69804L8.32137 4.7382C8.45999 4.86979 8.62835 4.8244 8.69438 4.79828C8.75972 4.77248 8.91217 4.69281 8.91217 4.50801V4.44858C8.91217 3.82788 9.22883 3.23721 9.75879 2.86923C10.3524 2.45782 11.0441 2.4588 11.6024 2.4601H11.7535C12.3125 2.4588 13.0039 2.45782 13.5968 2.86923C13.8587 3.05182 14.0717 3.2898 14.2187 3.56411C14.3657 3.83843 14.4427 4.14145 14.4434 4.44891V4.50833C14.4434 4.69314 14.5965 4.77314 14.6626 4.79893C14.7276 4.82407 14.8949 4.86979 15.0335 4.73918L15.0788 4.69641C15.5614 4.24059 16.2784 4.03652 16.949 4.16059C17.6432 4.29055 18.1206 4.75061 18.5043 5.1199L18.6081 5.21948C18.999 5.59367 19.4858 6.05863 19.5798 6.75802C19.6188 7.05482 19.5859 7.35611 19.4835 7.63911C19.3811 7.92212 19.2119 8.17942 18.9887 8.39158L18.9448 8.43304C18.8065 8.56365 18.8549 8.72234 18.8822 8.78437C18.9092 8.84641 18.9935 8.9904 19.1892 8.9904H19.2517C19.9093 8.9904 20.5343 9.28949 20.9239 9.79004C21.3595 10.3507 21.3585 11.0053 21.3574 11.5313V11.6737C21.3581 12.1997 21.3595 12.8544 20.9239 13.4147C20.7308 13.6622 20.4789 13.8635 20.1885 14.0024C19.8981 14.1413 19.5773 14.214 19.2517 14.2146H19.1892C18.9935 14.2146 18.9085 14.3593 18.8815 14.4217C18.8542 14.4834 18.8061 14.6414 18.9448 14.772L18.989 14.8138C19.2305 15.0414 19.4086 15.3219 19.5077 15.6302C19.6068 15.9386 19.6237 16.2652 19.557 16.5812C19.4191 17.2375 18.932 17.6884 18.5406 18.0509L18.4369 18.1475C18.0408 18.5171 17.5481 18.9772 16.8073 19.066C16.4932 19.1027 16.1743 19.0715 15.8748 18.9747C15.5753 18.878 15.303 18.7183 15.0784 18.5077L15.0349 18.4668C14.8956 18.3353 14.7276 18.3806 14.6619 18.4068C14.5958 18.4326 14.4434 18.5122 14.4434 18.697V18.7565C14.4434 19.3772 14.1267 19.9678 13.5968 20.3358C13.0035 20.7472 12.3125 20.7443 11.7531 20.7453H11.5229Z"/>
</mask>
<path d="M11.5229 20.7453C10.9805 20.7453 10.3244 20.7276 9.75914 20.3358C9.49711 20.1533 9.28401 19.9154 9.13692 19.641C8.98984 19.3667 8.91286 19.0636 8.91217 18.7561V18.6967C8.91217 18.5119 8.75903 18.4319 8.693 18.4061C8.628 18.3806 8.46034 18.3353 8.32206 18.4659L8.27677 18.5086C7.79452 18.9645 7.07823 19.1692 6.40653 19.0445C5.71236 18.9145 5.23495 18.4544 4.85122 18.0852L4.74751 17.9856C4.35652 17.6114 3.86977 17.1464 3.77574 16.447C3.73673 16.1502 3.76968 15.8489 3.87209 15.5659C3.97451 15.2829 4.1437 15.0256 4.36689 14.8135L4.4108 14.772C4.54908 14.6414 4.50068 14.4827 4.47337 14.4207C4.4464 14.3586 4.36205 14.2146 4.16639 14.2146H4.10381C3.77833 14.214 3.45753 14.1413 3.16715 14.0025C2.87676 13.8636 2.62486 13.6624 2.43166 13.415C1.99607 12.8544 1.99711 12.1997 1.99815 11.6737V11.5313C1.99746 11.0053 1.99607 10.3507 2.43166 9.79037C2.62479 9.54287 2.87666 9.34158 3.16706 9.20265C3.45745 9.06372 3.77829 8.99103 4.10381 8.9904H4.16639C4.36205 8.9904 4.4471 8.84576 4.47406 8.78339C4.50137 8.72168 4.54942 8.56365 4.4108 8.43304L4.36655 8.39125C4.14237 8.17917 3.97246 7.92153 3.86977 7.63798C3.83927 7.55657 3.82616 7.47025 3.83122 7.38402C3.83627 7.29779 3.85938 7.21337 3.89921 7.13563C3.93904 7.0579 3.9948 6.9884 4.06326 6.93115C4.13172 6.87391 4.21153 6.83006 4.29805 6.80214C4.38458 6.77422 4.47611 6.76279 4.56734 6.76851C4.65857 6.77423 4.7477 6.79698 4.82956 6.83545C4.91142 6.87392 4.98439 6.92735 5.04425 6.99263C5.1041 7.05792 5.14965 7.13377 5.17825 7.2158C5.21248 7.31016 5.26986 7.39734 5.34454 7.46786L5.38844 7.50933C5.8783 7.972 6.02107 8.66813 5.75143 9.28296C5.48178 9.89877 4.85952 10.2965 4.16639 10.2965H4.10381C3.88775 10.2965 3.67411 10.3987 3.54585 10.5636C3.37957 10.7777 3.38026 11.1428 3.38095 11.5291V11.676C3.38026 12.0626 3.37957 12.4276 3.5462 12.6418C3.67411 12.8064 3.8881 12.9086 4.10381 12.9086H4.16639C4.85952 12.9086 5.48143 13.306 5.75108 13.9211C6.02107 14.5366 5.87864 15.233 5.38879 15.6957L5.34454 15.7375C5.27074 15.8087 5.21475 15.8946 5.18065 15.9889C5.14656 16.0832 5.13522 16.1835 5.14749 16.2825C5.18275 16.5433 5.44928 16.798 5.73138 17.0681L5.83854 17.1706C6.11476 17.4364 6.40065 17.7116 6.67583 17.7632C6.7874 17.7835 6.90253 17.7778 7.01126 17.7466C7.11998 17.7155 7.21903 17.6597 7.29982 17.5843L7.34511 17.5415C7.83428 17.0795 8.57166 16.9446 9.22227 17.1996C9.87391 17.4543 10.295 18.0421 10.295 18.6967V18.7561C10.295 18.9602 10.4032 19.162 10.5778 19.2831C10.8042 19.4402 11.1941 19.4395 11.6 19.4389H11.7556C12.1652 19.4395 12.5514 19.4405 12.7781 19.2828C12.9524 19.162 13.0606 18.9602 13.0606 18.7561V18.6967C13.0606 18.0421 13.4813 17.4547 14.1323 17.2C14.7836 16.9459 15.5216 17.0798 16.0115 17.5425L16.0547 17.5833C16.1298 17.6537 16.2208 17.7071 16.321 17.7395C16.4211 17.7718 16.5277 17.7823 16.6327 17.7701C16.9089 17.7371 17.1786 17.485 17.4645 17.2186L17.5723 17.118C17.8541 16.8571 18.1459 16.5871 18.2005 16.3269C18.2219 16.2214 18.2159 16.1126 18.183 16.0098C18.15 15.9071 18.0911 15.8134 18.0114 15.7369L17.9671 15.6951C17.4773 15.2324 17.3345 14.5363 17.6041 13.9214C17.8738 13.3063 18.496 12.9086 19.1892 12.9086H19.2517C19.4678 12.9086 19.6815 12.8064 19.8097 12.6415C19.9763 12.4276 19.9756 12.0626 19.975 11.676L19.9746 11.6025V11.5291C19.9753 11.1425 19.976 10.7774 19.8094 10.5632C19.7444 10.4812 19.6603 10.4145 19.5636 10.3682C19.4669 10.3219 19.3602 10.2974 19.2517 10.2965H19.1892C18.496 10.2965 17.8741 9.8991 17.6045 9.28394C17.3345 8.66846 17.4769 7.972 17.9668 7.50933L18.011 7.46754C18.0848 7.39633 18.1408 7.31044 18.1749 7.21614C18.209 7.12185 18.2203 7.02155 18.2081 6.92258C18.1728 6.6617 17.9063 6.40702 17.6242 6.13699L17.517 6.03446C17.2408 5.76868 16.9549 5.49343 16.6797 5.44184C16.5682 5.42146 16.453 5.4271 16.3443 5.45828C16.2355 5.48947 16.1365 5.54524 16.0557 5.62077L16.0105 5.66354C15.5213 6.12556 14.7839 6.26041 14.1333 6.0054C13.4817 5.7504 13.0606 5.16267 13.0606 4.50801V4.44858C13.0606 4.24451 12.9524 4.04272 12.7778 3.92159C12.5514 3.76486 12.1628 3.7678 11.7556 3.76616H11.6C11.1928 3.7678 10.8045 3.76486 10.5774 3.92224C10.4032 4.04305 10.295 4.24484 10.295 4.44891V4.50833C10.295 5.163 9.87426 5.7504 9.2233 6.00508C8.57166 6.25911 7.83428 6.12524 7.34407 5.66256L7.30086 5.62175C7.22923 5.55394 7.14273 5.50178 7.04746 5.46894C6.87523 5.40949 6.73505 5.28786 6.65778 5.13079C6.5805 4.97373 6.57244 4.7941 6.63538 4.63143C6.69833 4.46876 6.82711 4.33636 6.9934 4.26337C7.15969 4.19038 7.34988 4.18277 7.52211 4.24222C7.80489 4.34018 8.06659 4.49756 8.2785 4.69804L8.32137 4.7382C8.45999 4.86979 8.62835 4.8244 8.69438 4.79828C8.75972 4.77248 8.91217 4.69281 8.91217 4.50801V4.44858C8.91217 3.82788 9.22883 3.23721 9.75879 2.86923C10.3524 2.45782 11.0441 2.4588 11.6024 2.4601H11.7535C12.3125 2.4588 13.0039 2.45782 13.5968 2.86923C13.8587 3.05182 14.0717 3.2898 14.2187 3.56411C14.3657 3.83843 14.4427 4.14145 14.4434 4.44891V4.50833C14.4434 4.69314 14.5965 4.77314 14.6626 4.79893C14.7276 4.82407 14.8949 4.86979 15.0335 4.73918L15.0788 4.69641C15.5614 4.24059 16.2784 4.03652 16.949 4.16059C17.6432 4.29055 18.1206 4.75061 18.5043 5.1199L18.6081 5.21948C18.999 5.59367 19.4858 6.05863 19.5798 6.75802C19.6188 7.05482 19.5859 7.35611 19.4835 7.63911C19.3811 7.92212 19.2119 8.17942 18.9887 8.39158L18.9448 8.43304C18.8065 8.56365 18.8549 8.72234 18.8822 8.78437C18.9092 8.84641 18.9935 8.9904 19.1892 8.9904H19.2517C19.9093 8.9904 20.5343 9.28949 20.9239 9.79004C21.3595 10.3507 21.3585 11.0053 21.3574 11.5313V11.6737C21.3581 12.1997 21.3595 12.8544 20.9239 13.4147C20.7308 13.6622 20.4789 13.8635 20.1885 14.0024C19.8981 14.1413 19.5773 14.214 19.2517 14.2146H19.1892C18.9935 14.2146 18.9085 14.3593 18.8815 14.4217C18.8542 14.4834 18.8061 14.6414 18.9448 14.772L18.989 14.8138C19.2305 15.0414 19.4086 15.3219 19.5077 15.6302C19.6068 15.9386 19.6237 16.2652 19.557 16.5812C19.4191 17.2375 18.932 17.6884 18.5406 18.0509L18.4369 18.1475C18.0408 18.5171 17.5481 18.9772 16.8073 19.066C16.4932 19.1027 16.1743 19.0715 15.8748 18.9747C15.5753 18.878 15.303 18.7183 15.0784 18.5077L15.0349 18.4668C14.8956 18.3353 14.7276 18.3806 14.6619 18.4068C14.5958 18.4326 14.4434 18.5122 14.4434 18.697V18.7565C14.4434 19.3772 14.1267 19.9678 13.5968 20.3358C13.0035 20.7472 12.3125 20.7443 11.7531 20.7453H11.5229Z" fill="white"/>
<path d="M11.5229 20.7453C10.9805 20.7453 10.3244 20.7276 9.75914 20.3358C9.49711 20.1533 9.28401 19.9154 9.13692 19.641C8.98984 19.3667 8.91286 19.0636 8.91217 18.7561V18.6967C8.91217 18.5119 8.75903 18.4319 8.693 18.4061C8.628 18.3806 8.46034 18.3353 8.32206 18.4659L8.27677 18.5086C7.79452 18.9645 7.07823 19.1692 6.40653 19.0445C5.71236 18.9145 5.23495 18.4544 4.85122 18.0852L4.74751 17.9856C4.35652 17.6114 3.86977 17.1464 3.77574 16.447C3.73673 16.1502 3.76968 15.8489 3.87209 15.5659C3.97451 15.2829 4.1437 15.0256 4.36689 14.8135L4.4108 14.772C4.54908 14.6414 4.50068 14.4827 4.47337 14.4207C4.4464 14.3586 4.36205 14.2146 4.16639 14.2146H4.10381C3.77833 14.214 3.45753 14.1413 3.16715 14.0025C2.87676 13.8636 2.62486 13.6624 2.43166 13.415C1.99607 12.8544 1.99711 12.1997 1.99815 11.6737V11.5313C1.99746 11.0053 1.99607 10.3507 2.43166 9.79037C2.62479 9.54287 2.87666 9.34158 3.16706 9.20265C3.45745 9.06372 3.77829 8.99103 4.10381 8.9904H4.16639C4.36205 8.9904 4.4471 8.84576 4.47406 8.78339C4.50137 8.72168 4.54942 8.56365 4.4108 8.43304L4.36655 8.39125C4.14237 8.17917 3.97246 7.92153 3.86977 7.63798C3.83927 7.55657 3.82616 7.47025 3.83122 7.38402C3.83627 7.29779 3.85938 7.21337 3.89921 7.13563C3.93904 7.0579 3.9948 6.9884 4.06326 6.93115C4.13172 6.87391 4.21153 6.83006 4.29805 6.80214C4.38458 6.77422 4.47611 6.76279 4.56734 6.76851C4.65857 6.77423 4.7477 6.79698 4.82956 6.83545C4.91142 6.87392 4.98439 6.92735 5.04425 6.99263C5.1041 7.05792 5.14965 7.13377 5.17825 7.2158C5.21248 7.31016 5.26986 7.39734 5.34454 7.46786L5.38844 7.50933C5.8783 7.972 6.02107 8.66813 5.75143 9.28296C5.48178 9.89877 4.85952 10.2965 4.16639 10.2965H4.10381C3.88775 10.2965 3.67411 10.3987 3.54585 10.5636C3.37957 10.7777 3.38026 11.1428 3.38095 11.5291V11.676C3.38026 12.0626 3.37957 12.4276 3.5462 12.6418C3.67411 12.8064 3.8881 12.9086 4.10381 12.9086H4.16639C4.85952 12.9086 5.48143 13.306 5.75108 13.9211C6.02107 14.5366 5.87864 15.233 5.38879 15.6957L5.34454 15.7375C5.27074 15.8087 5.21475 15.8946 5.18065 15.9889C5.14656 16.0832 5.13522 16.1835 5.14749 16.2825C5.18275 16.5433 5.44928 16.798 5.73138 17.0681L5.83854 17.1706C6.11476 17.4364 6.40065 17.7116 6.67583 17.7632C6.7874 17.7835 6.90253 17.7778 7.01126 17.7466C7.11998 17.7155 7.21903 17.6597 7.29982 17.5843L7.34511 17.5415C7.83428 17.0795 8.57166 16.9446 9.22227 17.1996C9.87391 17.4543 10.295 18.0421 10.295 18.6967V18.7561C10.295 18.9602 10.4032 19.162 10.5778 19.2831C10.8042 19.4402 11.1941 19.4395 11.6 19.4389H11.7556C12.1652 19.4395 12.5514 19.4405 12.7781 19.2828C12.9524 19.162 13.0606 18.9602 13.0606 18.7561V18.6967C13.0606 18.0421 13.4813 17.4547 14.1323 17.2C14.7836 16.9459 15.5216 17.0798 16.0115 17.5425L16.0547 17.5833C16.1298 17.6537 16.2208 17.7071 16.321 17.7395C16.4211 17.7718 16.5277 17.7823 16.6327 17.7701C16.9089 17.7371 17.1786 17.485 17.4645 17.2186L17.5723 17.118C17.8541 16.8571 18.1459 16.5871 18.2005 16.3269C18.2219 16.2214 18.2159 16.1126 18.183 16.0098C18.15 15.9071 18.0911 15.8134 18.0114 15.7369L17.9671 15.6951C17.4773 15.2324 17.3345 14.5363 17.6041 13.9214C17.8738 13.3063 18.496 12.9086 19.1892 12.9086H19.2517C19.4678 12.9086 19.6815 12.8064 19.8097 12.6415C19.9763 12.4276 19.9756 12.0626 19.975 11.676L19.9746 11.6025V11.5291C19.9753 11.1425 19.976 10.7774 19.8094 10.5632C19.7444 10.4812 19.6603 10.4145 19.5636 10.3682C19.4669 10.3219 19.3602 10.2974 19.2517 10.2965H19.1892C18.496 10.2965 17.8741 9.8991 17.6045 9.28394C17.3345 8.66846 17.4769 7.972 17.9668 7.50933L18.011 7.46754C18.0848 7.39633 18.1408 7.31044 18.1749 7.21614C18.209 7.12185 18.2203 7.02155 18.2081 6.92258C18.1728 6.6617 17.9063 6.40702 17.6242 6.13699L17.517 6.03446C17.2408 5.76868 16.9549 5.49343 16.6797 5.44184C16.5682 5.42146 16.453 5.4271 16.3443 5.45828C16.2355 5.48947 16.1365 5.54524 16.0557 5.62077L16.0105 5.66354C15.5213 6.12556 14.7839 6.26041 14.1333 6.0054C13.4817 5.7504 13.0606 5.16267 13.0606 4.50801V4.44858C13.0606 4.24451 12.9524 4.04272 12.7778 3.92159C12.5514 3.76486 12.1628 3.7678 11.7556 3.76616H11.6C11.1928 3.7678 10.8045 3.76486 10.5774 3.92224C10.4032 4.04305 10.295 4.24484 10.295 4.44891V4.50833C10.295 5.163 9.87426 5.7504 9.2233 6.00508C8.57166 6.25911 7.83428 6.12524 7.34407 5.66256L7.30086 5.62175C7.22923 5.55394 7.14273 5.50178 7.04746 5.46894C6.87523 5.40949 6.73505 5.28786 6.65778 5.13079C6.5805 4.97373 6.57244 4.7941 6.63538 4.63143C6.69833 4.46876 6.82711 4.33636 6.9934 4.26337C7.15969 4.19038 7.34988 4.18277 7.52211 4.24222C7.80489 4.34018 8.06659 4.49756 8.2785 4.69804L8.32137 4.7382C8.45999 4.86979 8.62835 4.8244 8.69438 4.79828C8.75972 4.77248 8.91217 4.69281 8.91217 4.50801V4.44858C8.91217 3.82788 9.22883 3.23721 9.75879 2.86923C10.3524 2.45782 11.0441 2.4588 11.6024 2.4601H11.7535C12.3125 2.4588 13.0039 2.45782 13.5968 2.86923C13.8587 3.05182 14.0717 3.2898 14.2187 3.56411C14.3657 3.83843 14.4427 4.14145 14.4434 4.44891V4.50833C14.4434 4.69314 14.5965 4.77314 14.6626 4.79893C14.7276 4.82407 14.8949 4.86979 15.0335 4.73918L15.0788 4.69641C15.5614 4.24059 16.2784 4.03652 16.949 4.16059C17.6432 4.29055 18.1206 4.75061 18.5043 5.1199L18.6081 5.21948C18.999 5.59367 19.4858 6.05863 19.5798 6.75802C19.6188 7.05482 19.5859 7.35611 19.4835 7.63911C19.3811 7.92212 19.2119 8.17942 18.9887 8.39158L18.9448 8.43304C18.8065 8.56365 18.8549 8.72234 18.8822 8.78437C18.9092 8.84641 18.9935 8.9904 19.1892 8.9904H19.2517C19.9093 8.9904 20.5343 9.28949 20.9239 9.79004C21.3595 10.3507 21.3585 11.0053 21.3574 11.5313V11.6737C21.3581 12.1997 21.3595 12.8544 20.9239 13.4147C20.7308 13.6622 20.4789 13.8635 20.1885 14.0024C19.8981 14.1413 19.5773 14.214 19.2517 14.2146H19.1892C18.9935 14.2146 18.9085 14.3593 18.8815 14.4217C18.8542 14.4834 18.8061 14.6414 18.9448 14.772L18.989 14.8138C19.2305 15.0414 19.4086 15.3219 19.5077 15.6302C19.6068 15.9386 19.6237 16.2652 19.557 16.5812C19.4191 17.2375 18.932 17.6884 18.5406 18.0509L18.4369 18.1475C18.0408 18.5171 17.5481 18.9772 16.8073 19.066C16.4932 19.1027 16.1743 19.0715 15.8748 18.9747C15.5753 18.878 15.303 18.7183 15.0784 18.5077L15.0349 18.4668C14.8956 18.3353 14.7276 18.3806 14.6619 18.4068C14.5958 18.4326 14.4434 18.5122 14.4434 18.697V18.7565C14.4434 19.3772 14.1267 19.9678 13.5968 20.3358C13.0035 20.7472 12.3125 20.7443 11.7531 20.7453H11.5229Z" stroke="white" stroke-width="0.2" mask="url(#path-1-outside-1_130_2)"/>
<path d="M5.2113 6.35905C5.0756 6.35912 4.94288 6.32147 4.82968 6.2508C4.71648 6.18013 4.6278 6.07955 4.57469 5.96161C4.52158 5.84367 4.50639 5.71358 4.53101 5.58754C4.55563 5.4615 4.61897 5.34509 4.71314 5.25282C4.79957 5.16825 4.88772 5.08532 4.97726 5.00401C5.10961 4.88412 5.28696 4.8188 5.4703 4.82241C5.65365 4.82602 5.82796 4.89828 5.9549 5.02328C6.08184 5.14828 6.151 5.31579 6.14718 5.48896C6.14335 5.66213 6.06685 5.82677 5.9345 5.94666C5.85783 6.01593 5.78268 6.08669 5.70911 6.1589C5.64475 6.22229 5.56746 6.27271 5.4819 6.30711C5.39634 6.34151 5.30429 6.35918 5.2113 6.35905Z" fill="white"/>
<path d="M8.67966 7.82685L8.6797 7.82682C9.53404 7.21935 10.6011 6.88613 11.685 6.88613C12.4699 6.88613 13.2486 7.06104 13.9378 7.39339C15.5923 8.19072 16.6659 9.84028 16.6659 11.6028C16.6659 12.8755 16.1231 14.0699 15.143 14.9659L15.143 14.9659C14.2008 15.8272 12.926 16.3207 11.6439 16.3207C11.165 16.3207 10.6885 16.2538 10.2277 16.1216C8.46418 15.6164 7.10428 14.1837 6.76921 12.4634L8.67966 7.82685ZM8.67966 7.82685C7.18026 8.89379 6.42763 10.7123 6.7692 12.4634L8.67966 7.82685ZM11.6853 8.49252L11.685 8.49252C10.9587 8.49252 10.2485 8.7145 9.68569 9.11483L11.6853 8.49252ZM11.6853 8.49252C12.2046 8.49168 12.7164 8.60645 13.1793 8.82715C14.2778 9.35651 14.9831 10.4483 14.9831 11.6028C14.9831 12.4295 14.6287 13.212 13.9788 13.8061L13.9788 13.8061M11.6853 8.49252L13.9788 13.8061M13.9788 13.8061C13.3475 14.3833 12.4951 14.7147 11.6435 14.7147C11.3296 14.7147 11.0162 14.6703 10.7121 14.5833C9.53955 14.2475 8.64343 13.2969 8.42365 12.1696L13.9788 13.8061ZM8.42365 12.1696C8.2 11.0219 8.69261 9.82152 9.68567 9.11484L8.42365 12.1696Z" fill="white" stroke="white" stroke-width="0.3"/>
</g>
</g>
<defs>
<clipPath id="clip0_130_2">
<rect width="24" height="22.668" fill="white" transform="translate(0 0.571289)"/>
</clipPath>
<clipPath id="clip1_130_2">
<rect width="20.7641" height="19.6117" fill="white" transform="translate(1.29688 1.79688)"/>
</clipPath>
</defs>
</svg>
