<svg width="24" height="24" viewBox="0 0 24 24" fill="none" xmlns="http://www.w3.org/2000/svg">
<mask id="path-1-outside-1_101_11373" maskUnits="userSpaceOnUse" x="0" y="0" width="24" height="24" fill="black">
<rect fill="white" width="24" height="24"/>
<path d="M22.9105 13.8571C22.8415 13.6587 22.7344 13.4774 22.596 13.3244C22.4576 13.1713 22.2907 13.0499 22.1058 12.9676V2.16529C22.105 1.85652 21.988 1.56066 21.7805 1.34233C21.573 1.12399 21.2919 1.00092 20.9984 1H9.18606C8.89262 1.00092 8.61146 1.12399 8.40397 1.34233C8.19648 1.56066 8.07952 1.85652 8.07865 2.16529V13.053C7.65983 13.2533 7.25946 13.4939 6.88264 13.7716L5.72356 14.6262L5.29905 13.9891C5.24273 13.9054 5.15737 13.8482 5.06139 13.8301C4.96541 13.8119 4.86648 13.8341 4.78595 13.892L1.15734 16.5644C1.07747 16.6244 1.0231 16.7149 1.00585 16.8165C0.988599 16.9182 1.00985 17.0229 1.06505 17.1082L4.87823 22.8337C4.93412 22.9181 5.01952 22.9757 5.11571 22.9939C5.21189 23.0121 5.31101 22.9894 5.39133 22.9308L9.01994 20.2584C9.09965 20.1983 9.15391 20.1078 9.17115 20.0062C9.18838 19.9047 9.16724 19.8 9.11223 19.7146L8.90182 19.4C9.61409 18.8879 10.4892 18.6912 11.3381 18.8523L11.9952 18.9688C12.8253 19.124 13.6796 19.0463 14.4721 18.7435L22.0283 15.8497C22.2106 15.7799 22.3781 15.673 22.5211 15.535C22.6642 15.3971 22.7799 15.2308 22.8619 15.0458C22.9438 14.8607 22.9903 14.6605 22.9986 14.4565C23.007 14.2526 22.9771 14.0489 22.9105 13.8571ZM16.9379 1.77686H20.9984C21.0963 1.77686 21.1902 1.81779 21.2594 1.89063C21.3287 1.96348 21.3676 2.06227 21.3676 2.16529V3.33059H16.9379V1.77686ZM13.9848 1.77686H16.1996V5.11348L15.3543 4.22009C15.2846 4.14732 15.1904 4.10648 15.0922 4.10648C14.9941 4.10648 14.8998 4.14732 14.8302 4.22009L13.9848 5.11348V1.77686ZM8.81692 2.16529C8.81692 2.06227 8.85581 1.96348 8.92504 1.89063C8.99426 1.81779 9.08815 1.77686 9.18606 1.77686H13.2466V3.33059H8.81692V2.16529ZM8.81692 4.10745H13.2466V6.0496C13.2463 6.12644 13.2679 6.2016 13.3088 6.26532C13.3496 6.32904 13.4076 6.37839 13.4754 6.40696C13.5426 6.4367 13.6167 6.44483 13.6883 6.43031C13.76 6.4158 13.8259 6.37929 13.8778 6.32539L15.0922 5.04357L16.3067 6.32539C16.3765 6.39784 16.4707 6.43833 16.5688 6.43803C16.6172 6.43937 16.6653 6.42873 16.7091 6.40696C16.7768 6.37839 16.8349 6.32904 16.8757 6.26532C16.9165 6.2016 16.9382 6.12644 16.9379 6.0496V4.10745H21.3676V12.851C21.2493 12.8616 21.1327 12.8877 21.0206 12.9287L19.7138 13.4298H17.1188C16.924 13.2548 16.6882 13.1381 16.4359 13.0919L12.7261 12.4043C11.5274 12.1812 10.2957 12.2584 9.13068 12.6296L9.06424 12.6529C8.97934 12.6762 8.89813 12.7112 8.81692 12.7423V4.10745ZM5.26952 22.0724L1.88454 16.98L4.90776 14.7505L8.29275 19.8428L5.26952 22.0724ZM22.2535 14.5252C22.2307 14.6595 22.1747 14.7852 22.0911 14.8895C22.0075 14.9938 21.8993 15.0731 21.7773 15.1195L14.2211 18.0133C13.5503 18.2697 12.827 18.3354 12.1244 18.2036L11.4636 18.0871C10.4224 17.8898 9.34935 18.1327 8.47731 18.7629L6.14806 15.2593L7.30715 14.4086C7.90517 13.9642 8.5669 13.6232 9.26727 13.3987L9.33371 13.3793C10.392 13.0415 11.5107 12.9683 12.6006 13.1657L16.3067 13.8532C16.5005 13.8907 16.6727 14.0064 16.7866 14.1756C16.8512 14.2755 16.8929 14.3899 16.9084 14.5096C16.9273 14.6184 16.921 14.7303 16.8899 14.8359C16.839 15.0217 16.7244 15.181 16.5682 15.2829C16.412 15.3848 16.2254 15.4221 16.0446 15.3875L12.0542 14.6456L11.9287 15.4069L15.9154 16.1488C16.0016 16.1675 16.0895 16.1766 16.1775 16.176C16.4953 16.1757 16.8046 16.0679 17.0598 15.8686C17.3151 15.6693 17.5027 15.389 17.595 15.069L21.2716 13.659C21.4556 13.589 21.6586 13.5988 21.8358 13.6862C22.013 13.7736 22.1499 13.9315 22.2166 14.1251C22.2638 14.2523 22.2766 14.3908 22.2535 14.5252Z"/>
</mask>
<path d="M22.9105 13.8571C22.8415 13.6587 22.7344 13.4774 22.596 13.3244C22.4576 13.1713 22.2907 13.0499 22.1058 12.9676V2.16529C22.105 1.85652 21.988 1.56066 21.7805 1.34233C21.573 1.12399 21.2919 1.00092 20.9984 1H9.18606C8.89262 1.00092 8.61146 1.12399 8.40397 1.34233C8.19648 1.56066 8.07952 1.85652 8.07865 2.16529V13.053C7.65983 13.2533 7.25946 13.4939 6.88264 13.7716L5.72356 14.6262L5.29905 13.9891C5.24273 13.9054 5.15737 13.8482 5.06139 13.8301C4.96541 13.8119 4.86648 13.8341 4.78595 13.892L1.15734 16.5644C1.07747 16.6244 1.0231 16.7149 1.00585 16.8165C0.988599 16.9182 1.00985 17.0229 1.06505 17.1082L4.87823 22.8337C4.93412 22.9181 5.01952 22.9757 5.11571 22.9939C5.21189 23.0121 5.31101 22.9894 5.39133 22.9308L9.01994 20.2584C9.09965 20.1983 9.15391 20.1078 9.17115 20.0062C9.18838 19.9047 9.16724 19.8 9.11223 19.7146L8.90182 19.4C9.61409 18.8879 10.4892 18.6912 11.3381 18.8523L11.9952 18.9688C12.8253 19.124 13.6796 19.0463 14.4721 18.7435L22.0283 15.8497C22.2106 15.7799 22.3781 15.673 22.5211 15.535C22.6642 15.3971 22.7799 15.2308 22.8619 15.0458C22.9438 14.8607 22.9903 14.6605 22.9986 14.4565C23.007 14.2526 22.9771 14.0489 22.9105 13.8571ZM16.9379 1.77686H20.9984C21.0963 1.77686 21.1902 1.81779 21.2594 1.89063C21.3287 1.96348 21.3676 2.06227 21.3676 2.16529V3.33059H16.9379V1.77686ZM13.9848 1.77686H16.1996V5.11348L15.3543 4.22009C15.2846 4.14732 15.1904 4.10648 15.0922 4.10648C14.9941 4.10648 14.8998 4.14732 14.8302 4.22009L13.9848 5.11348V1.77686ZM8.81692 2.16529C8.81692 2.06227 8.85581 1.96348 8.92504 1.89063C8.99426 1.81779 9.08815 1.77686 9.18606 1.77686H13.2466V3.33059H8.81692V2.16529ZM8.81692 4.10745H13.2466V6.0496C13.2463 6.12644 13.2679 6.2016 13.3088 6.26532C13.3496 6.32904 13.4076 6.37839 13.4754 6.40696C13.5426 6.4367 13.6167 6.44483 13.6883 6.43031C13.76 6.4158 13.8259 6.37929 13.8778 6.32539L15.0922 5.04357L16.3067 6.32539C16.3765 6.39784 16.4707 6.43833 16.5688 6.43803C16.6172 6.43937 16.6653 6.42873 16.7091 6.40696C16.7768 6.37839 16.8349 6.32904 16.8757 6.26532C16.9165 6.2016 16.9382 6.12644 16.9379 6.0496V4.10745H21.3676V12.851C21.2493 12.8616 21.1327 12.8877 21.0206 12.9287L19.7138 13.4298H17.1188C16.924 13.2548 16.6882 13.1381 16.4359 13.0919L12.7261 12.4043C11.5274 12.1812 10.2957 12.2584 9.13068 12.6296L9.06424 12.6529C8.97934 12.6762 8.89813 12.7112 8.81692 12.7423V4.10745ZM5.26952 22.0724L1.88454 16.98L4.90776 14.7505L8.29275 19.8428L5.26952 22.0724ZM22.2535 14.5252C22.2307 14.6595 22.1747 14.7852 22.0911 14.8895C22.0075 14.9938 21.8993 15.0731 21.7773 15.1195L14.2211 18.0133C13.5503 18.2697 12.827 18.3354 12.1244 18.2036L11.4636 18.0871C10.4224 17.8898 9.34935 18.1327 8.47731 18.7629L6.14806 15.2593L7.30715 14.4086C7.90517 13.9642 8.5669 13.6232 9.26727 13.3987L9.33371 13.3793C10.392 13.0415 11.5107 12.9683 12.6006 13.1657L16.3067 13.8532C16.5005 13.8907 16.6727 14.0064 16.7866 14.1756C16.8512 14.2755 16.8929 14.3899 16.9084 14.5096C16.9273 14.6184 16.921 14.7303 16.8899 14.8359C16.839 15.0217 16.7244 15.181 16.5682 15.2829C16.412 15.3848 16.2254 15.4221 16.0446 15.3875L12.0542 14.6456L11.9287 15.4069L15.9154 16.1488C16.0016 16.1675 16.0895 16.1766 16.1775 16.176C16.4953 16.1757 16.8046 16.0679 17.0598 15.8686C17.3151 15.6693 17.5027 15.389 17.595 15.069L21.2716 13.659C21.4556 13.589 21.6586 13.5988 21.8358 13.6862C22.013 13.7736 22.1499 13.9315 22.2166 14.1251C22.2638 14.2523 22.2766 14.3908 22.2535 14.5252Z" fill="#fff"/>
<path d="M22.9105 13.8571C22.8415 13.6587 22.7344 13.4774 22.596 13.3244C22.4576 13.1713 22.2907 13.0499 22.1058 12.9676V2.16529C22.105 1.85652 21.988 1.56066 21.7805 1.34233C21.573 1.12399 21.2919 1.00092 20.9984 1H9.18606C8.89262 1.00092 8.61146 1.12399 8.40397 1.34233C8.19648 1.56066 8.07952 1.85652 8.07865 2.16529V13.053C7.65983 13.2533 7.25946 13.4939 6.88264 13.7716L5.72356 14.6262L5.29905 13.9891C5.24273 13.9054 5.15737 13.8482 5.06139 13.8301C4.96541 13.8119 4.86648 13.8341 4.78595 13.892L1.15734 16.5644C1.07747 16.6244 1.0231 16.7149 1.00585 16.8165C0.988599 16.9182 1.00985 17.0229 1.06505 17.1082L4.87823 22.8337C4.93412 22.9181 5.01952 22.9757 5.11571 22.9939C5.21189 23.0121 5.31101 22.9894 5.39133 22.9308L9.01994 20.2584C9.09965 20.1983 9.15391 20.1078 9.17115 20.0062C9.18838 19.9047 9.16724 19.8 9.11223 19.7146L8.90182 19.4C9.61409 18.8879 10.4892 18.6912 11.3381 18.8523L11.9952 18.9688C12.8253 19.124 13.6796 19.0463 14.4721 18.7435L22.0283 15.8497C22.2106 15.7799 22.3781 15.673 22.5211 15.535C22.6642 15.3971 22.7799 15.2308 22.8619 15.0458C22.9438 14.8607 22.9903 14.6605 22.9986 14.4565C23.007 14.2526 22.9771 14.0489 22.9105 13.8571ZM16.9379 1.77686H20.9984C21.0963 1.77686 21.1902 1.81779 21.2594 1.89063C21.3287 1.96348 21.3676 2.06227 21.3676 2.16529V3.33059H16.9379V1.77686ZM13.9848 1.77686H16.1996V5.11348L15.3543 4.22009C15.2846 4.14732 15.1904 4.10648 15.0922 4.10648C14.9941 4.10648 14.8998 4.14732 14.8302 4.22009L13.9848 5.11348V1.77686ZM8.81692 2.16529C8.81692 2.06227 8.85581 1.96348 8.92504 1.89063C8.99426 1.81779 9.08815 1.77686 9.18606 1.77686H13.2466V3.33059H8.81692V2.16529ZM8.81692 4.10745H13.2466V6.0496C13.2463 6.12644 13.2679 6.2016 13.3088 6.26532C13.3496 6.32904 13.4076 6.37839 13.4754 6.40696C13.5426 6.4367 13.6167 6.44483 13.6883 6.43031C13.76 6.4158 13.8259 6.37929 13.8778 6.32539L15.0922 5.04357L16.3067 6.32539C16.3765 6.39784 16.4707 6.43833 16.5688 6.43803C16.6172 6.43937 16.6653 6.42873 16.7091 6.40696C16.7768 6.37839 16.8349 6.32904 16.8757 6.26532C16.9165 6.2016 16.9382 6.12644 16.9379 6.0496V4.10745H21.3676V12.851C21.2493 12.8616 21.1327 12.8877 21.0206 12.9287L19.7138 13.4298H17.1188C16.924 13.2548 16.6882 13.1381 16.4359 13.0919L12.7261 12.4043C11.5274 12.1812 10.2957 12.2584 9.13068 12.6296L9.06424 12.6529C8.97934 12.6762 8.89813 12.7112 8.81692 12.7423V4.10745ZM5.26952 22.0724L1.88454 16.98L4.90776 14.7505L8.29275 19.8428L5.26952 22.0724ZM22.2535 14.5252C22.2307 14.6595 22.1747 14.7852 22.0911 14.8895C22.0075 14.9938 21.8993 15.0731 21.7773 15.1195L14.2211 18.0133C13.5503 18.2697 12.827 18.3354 12.1244 18.2036L11.4636 18.0871C10.4224 17.8898 9.34935 18.1327 8.47731 18.7629L6.14806 15.2593L7.30715 14.4086C7.90517 13.9642 8.5669 13.6232 9.26727 13.3987L9.33371 13.3793C10.392 13.0415 11.5107 12.9683 12.6006 13.1657L16.3067 13.8532C16.5005 13.8907 16.6727 14.0064 16.7866 14.1756C16.8512 14.2755 16.8929 14.3899 16.9084 14.5096C16.9273 14.6184 16.921 14.7303 16.8899 14.8359C16.839 15.0217 16.7244 15.181 16.5682 15.2829C16.412 15.3848 16.2254 15.4221 16.0446 15.3875L12.0542 14.6456L11.9287 15.4069L15.9154 16.1488C16.0016 16.1675 16.0895 16.1766 16.1775 16.176C16.4953 16.1757 16.8046 16.0679 17.0598 15.8686C17.3151 15.6693 17.5027 15.389 17.595 15.069L21.2716 13.659C21.4556 13.589 21.6586 13.5988 21.8358 13.6862C22.013 13.7736 22.1499 13.9315 22.2166 14.1251C22.2638 14.2523 22.2766 14.3908 22.2535 14.5252Z" stroke="#fff" stroke-width="0.4" mask="url(#path-1-outside-1_101_11373)"/>
</svg>
