<svg width="16" height="16" viewBox="0 0 16 16" fill="none" xmlns="http://www.w3.org/2000/svg">
<path d="M10.8335 4.0026V4.5026H11.3335H14.1668V4.83594H13.3335H12.8335V5.33594V14.0026C12.8335 14.0947 12.7589 14.1693 12.6668 14.1693H3.3335C3.24145 14.1693 3.16683 14.0947 3.16683 14.0026V5.33594V4.83594H2.66683H1.8335V4.5026H4.66683H5.16683V4.0026V2.0026C5.16683 1.91056 5.24145 1.83594 5.3335 1.83594H10.6668C10.7589 1.83594 10.8335 1.91055 10.8335 2.0026V4.0026ZM12.5002 5.33594V4.83594H12.0002H4.00016H3.50016V5.33594V13.3359V13.8359H4.00016H12.0002H12.5002V13.3359V5.33594ZM6.00016 2.16927H5.50016V2.66927V4.0026V4.5026H6.00016H10.0002H10.5002V4.0026V2.66927V2.16927H10.0002H6.00016ZM6.50016 7.83594H6.8335V10.8359H6.50016V7.83594ZM9.16683 7.83594H9.50016V10.8359H9.16683V7.83594Z" fill="black" stroke="#EF4444"/>
</svg>
