<svg width="32" height="32" viewBox="0 0 32 32" fill="none" xmlns="http://www.w3.org/2000/svg">
<g clip-path="url(#clip0_5000_1327)">
<rect width="32" height="32" rx="4" fill="white"/>
<path d="M18.25 8.5H11.5C10.6709 8.5 10 9.1709 10 10V22C10 22.8291 10.6709 23.5 11.5 23.5H20.5C21.3291 23.5 22 22.8291 22 22V12.25L18.25 8.5ZM13.75 14.5C14.1631 14.5 14.5 14.8369 14.5 15.25C14.5 15.6631 14.1631 16 13.75 16C13.3369 16 13 15.6631 13 15.25C13 14.8369 13.3369 14.5 13.75 14.5ZM12.25 19.75L14.5 16.75L16 18.25L17.5 16L19.75 19.75H12.25Z" fill="#FF5F5F"/>
</g>
<defs>
<clipPath id="clip0_5000_1327">
<rect width="32" height="32" fill="white"/>
</clipPath>
</defs>
</svg>
