<svg width="16" height="16" viewBox="0 0 16 16" fill="none" xmlns="http://www.w3.org/2000/svg">
<mask id="path-1-inside-1_5000_20147" fill="white">
<path fill-rule="evenodd" clip-rule="evenodd" d="M7.64689 1.64623C7.74064 1.55259 7.86772 1.5 8.00022 1.5C8.13272 1.5 8.25981 1.55259 8.35356 1.64623L10.8536 4.14623C10.9419 4.24101 10.99 4.36637 10.9877 4.49591C10.9854 4.62544 10.9329 4.74903 10.8413 4.84064C10.7497 4.93225 10.6261 4.98472 10.4966 4.98701C10.367 4.9893 10.2417 4.94121 10.1469 4.85289L8.50022 3.20623V13.9996C8.50022 14.1322 8.44754 14.2593 8.35378 14.3531C8.26001 14.4469 8.13283 14.4996 8.00022 14.4996C7.86761 14.4996 7.74044 14.4469 7.64667 14.3531C7.5529 14.2593 7.50022 14.1322 7.50022 13.9996V3.20623L5.85356 4.85289C5.75877 4.94121 5.63341 4.9893 5.50388 4.98701C5.37434 4.98472 5.25075 4.93225 5.15914 4.84064C5.06753 4.74903 5.01506 4.62544 5.01277 4.49591C5.01049 4.36637 5.05857 4.24101 5.14689 4.14623L7.64689 1.64623Z"/>
</mask>
<path fill-rule="evenodd" clip-rule="evenodd" d="M7.64689 1.64623C7.74064 1.55259 7.86772 1.5 8.00022 1.5C8.13272 1.5 8.25981 1.55259 8.35356 1.64623L10.8536 4.14623C10.9419 4.24101 10.99 4.36637 10.9877 4.49591C10.9854 4.62544 10.9329 4.74903 10.8413 4.84064C10.7497 4.93225 10.6261 4.98472 10.4966 4.98701C10.367 4.9893 10.2417 4.94121 10.1469 4.85289L8.50022 3.20623V13.9996C8.50022 14.1322 8.44754 14.2593 8.35378 14.3531C8.26001 14.4469 8.13283 14.4996 8.00022 14.4996C7.86761 14.4996 7.74044 14.4469 7.64667 14.3531C7.5529 14.2593 7.50022 14.1322 7.50022 13.9996V3.20623L5.85356 4.85289C5.75877 4.94121 5.63341 4.9893 5.50388 4.98701C5.37434 4.98472 5.25075 4.93225 5.15914 4.84064C5.06753 4.74903 5.01506 4.62544 5.01277 4.49591C5.01049 4.36637 5.05857 4.24101 5.14689 4.14623L7.64689 1.64623Z" fill="#111827"/>
<path d="M7.64689 1.64623L6.94022 0.93868L6.93978 0.93912L7.64689 1.64623ZM8.35356 1.64623L9.06066 0.93912L9.06022 0.93868L8.35356 1.64623ZM10.8536 4.14623L11.5852 3.4645L11.5731 3.4516L11.5607 3.43912L10.8536 4.14623ZM10.1469 4.85289L9.43978 5.56L9.45226 5.57248L9.46517 5.5845L10.1469 4.85289ZM8.50022 3.20623L9.20733 2.49912L7.50022 0.792013V3.20623H8.50022ZM7.50022 3.20623H8.50022V0.792013L6.79312 2.49912L7.50022 3.20623ZM5.85356 4.85289L6.53528 5.5845L6.54819 5.57248L6.56066 5.56L5.85356 4.85289ZM5.14689 4.14623L4.43978 3.43912L4.42731 3.4516L4.41528 3.4645L5.14689 4.14623ZM8.35356 2.35377C8.25981 2.44741 8.13272 2.5 8.00022 2.5V0.5C7.60272 0.5 7.22147 0.65778 6.94022 0.93868L8.35356 2.35377ZM8.00022 2.5C7.86772 2.5 7.74064 2.44741 7.64689 2.35377L9.06022 0.93868C8.77897 0.65778 8.39773 0.5 8.00022 0.5V2.5ZM7.64645 2.35333L10.1465 4.85333L11.5607 3.43912L9.06066 0.93912L7.64645 2.35333ZM10.1219 4.82795C10.0336 4.73316 9.98554 4.6078 9.98783 4.47827L11.9875 4.51355C11.9944 4.12495 11.8501 3.74886 11.5852 3.4645L10.1219 4.82795ZM9.98783 4.47827C9.99011 4.34873 10.0426 4.22514 10.1342 4.13353L11.5484 5.54775C11.8232 5.27292 11.9807 4.90215 11.9875 4.51355L9.98783 4.47827ZM10.1342 4.13353C10.2258 4.04193 10.3494 3.98945 10.4789 3.98717L10.5142 5.98685C10.9028 5.98 11.2736 5.82258 11.5484 5.54775L10.1342 4.13353ZM10.4789 3.98717C10.6085 3.98488 10.7338 4.03296 10.8286 4.12128L9.46517 5.5845C9.74952 5.84946 10.1256 5.99371 10.5142 5.98685L10.4789 3.98717ZM10.854 4.14579L9.20733 2.49912L7.79312 3.91333L9.43978 5.56L10.854 4.14579ZM7.50022 3.20623V13.9996H9.50022V3.20623H7.50022ZM7.50022 13.9996C7.50022 13.867 7.5529 13.7398 7.64667 13.646L9.06088 15.0602C9.34219 14.7789 9.50022 14.3974 9.50022 13.9996H7.50022ZM7.64667 13.646C7.74044 13.5522 7.86762 13.4996 8.00022 13.4996V15.4996C8.39805 15.4996 8.77958 15.3415 9.06088 15.0602L7.64667 13.646ZM8.00022 13.4996C8.13283 13.4996 8.26001 13.5522 8.35378 13.646L6.93956 15.0602C7.22087 15.3415 7.6024 15.4996 8.00022 15.4996V13.4996ZM8.35378 13.646C8.44754 13.7398 8.50022 13.867 8.50022 13.9996H6.50022C6.50022 14.3974 6.65826 14.7789 6.93956 15.0602L8.35378 13.646ZM8.50022 13.9996V3.20623H6.50022V13.9996H8.50022ZM6.79312 2.49912L5.14645 4.14579L6.56066 5.56L8.20733 3.91333L6.79312 2.49912ZM5.17183 4.12128C5.26662 4.03296 5.39198 3.98488 5.52152 3.98717L5.48623 5.98685C5.87484 5.99371 6.25093 5.84946 6.53528 5.5845L5.17183 4.12128ZM5.52152 3.98717C5.65105 3.98945 5.77464 4.04192 5.86625 4.13353L4.45204 5.54775C4.72686 5.82258 5.09763 5.98 5.48623 5.98685L5.52152 3.98717ZM5.86625 4.13353C5.95786 4.22514 6.01033 4.34873 6.01262 4.47827L4.01293 4.51355C4.01979 4.90215 4.17721 5.27292 4.45204 5.54775L5.86625 4.13353ZM6.01262 4.47827C6.0149 4.6078 5.96682 4.73316 5.8785 4.82795L4.41528 3.4645C4.15032 3.74886 4.00607 4.12495 4.01293 4.51355L6.01262 4.47827ZM5.854 4.85333L8.354 2.35333L6.93978 0.93912L4.43978 3.43912L5.854 4.85333Z" fill="#71717A" mask="url(#path-1-inside-1_5000_20147)"/>
</svg>
