<svg width="102" height="109" viewBox="0 0 102 109" fill="none" xmlns="http://www.w3.org/2000/svg">
<path d="M2.84688 34.12C12.3669 28.84 21.3669 26.2 29.8469 26.2C38.4869 26.2 45.6469 28.16 51.3269 32.08C57.0069 36 59.8469 41.84 59.8469 49.6C59.8469 54.4 58.3669 58.8 55.4069 62.8C52.4469 66.72 48.8469 70.04 44.6069 72.76C40.3669 75.4 36.1269 77.92 31.8869 80.32C27.6469 82.72 24.0469 85.36 21.0869 88.24C18.1269 91.04 16.6469 94 16.6469 97.12H59.4869L61.2869 109H0.686875V101.56C0.686875 96.76 1.76688 92.4 3.92688 88.48C6.16688 84.48 8.92688 81.28 12.2069 78.88C15.4869 76.48 19.0469 74.12 22.8869 71.8C26.7269 69.4 30.2869 67.32 33.5669 65.56C36.8469 63.72 39.5669 61.48 41.7269 58.84C43.9669 56.2 45.0869 53.36 45.0869 50.32C45.0869 45.92 43.5269 42.68 40.4069 40.6C37.2869 38.52 33.2469 37.48 28.2869 37.48C21.8069 37.48 14.0469 40.16 5.00688 45.52L2.84688 34.12Z" fill="url(#paint0_linear_0_1)"/>
<path d="M81.4596 0H32V79H81.4596L102 58.3374V20.6626L81.4596 0ZM86.4005 66.8851H47.6573V12.1477H86.4005V66.8851Z" fill="#9E9E9E" fill-opacity="0.1"/>
<defs>
<linearGradient id="paint0_linear_0_1" x1="41.656" y1="64.01" x2="100.082" y2="151.49" gradientUnits="userSpaceOnUse">
<stop stop-color="#033E3D"/>
<stop offset="1" stop-color="#018B8B"/>
</linearGradient>
</defs>
</svg>
