<svg width="62" height="61" viewBox="0 0 62 61" fill="none" xmlns="http://www.w3.org/2000/svg">
<path opacity="0.4" d="M30.9987 55.9163C45.0359 55.9163 56.4154 44.5369 56.4154 30.4997C56.4154 16.4624 45.0359 5.08301 30.9987 5.08301C16.9615 5.08301 5.58203 16.4624 5.58203 30.4997C5.58203 44.5369 16.9615 55.9163 30.9987 55.9163Z" fill="#106F6E" fill-opacity="0.18"/>
<path d="M27.3897 39.5992C26.8814 39.5992 26.3984 39.3959 26.0426 39.0401L18.8497 31.8471C18.1126 31.1101 18.1126 29.8901 18.8497 29.153C19.5868 28.4159 20.8068 28.4159 21.5439 29.153L27.3897 34.9988L40.4539 21.9346C41.1909 21.1976 42.4109 21.1976 43.148 21.9346C43.8851 22.6717 43.8851 23.8917 43.148 24.6288L28.7368 39.0401C28.3809 39.3959 27.898 39.5992 27.3897 39.5992Z" fill="#106F6E"/>
</svg>
