<svg width="48" height="48" viewBox="0 0 48 48" fill="none" xmlns="http://www.w3.org/2000/svg">
<path opacity="0.4" d="M43.5209 31.84L30.7209 8.8C29.0009 5.7 26.6209 4 24.0009 4C21.3809 4 19.0009 5.7 17.2809 8.8L4.48093 31.84C2.86093 34.78 2.68093 37.6 3.98093 39.82C5.28093 42.04 7.84093 43.26 11.2009 43.26H36.8009C40.1609 43.26 42.7209 42.04 44.0209 39.82C45.3209 37.6 45.1409 34.76 43.5209 31.84Z" fill="#106F6E" fill-opacity="0.18"/>
<path d="M24 29.5C23.18 29.5 22.5 28.82 22.5 28V18C22.5 17.18 23.18 16.5 24 16.5C24.82 16.5 25.5 17.18 25.5 18V28C25.5 28.82 24.82 29.5 24 29.5Z" fill="#106F6E"/>
<path d="M24 36.0001C23.88 36.0001 23.74 35.9801 23.6 35.9601C23.48 35.9401 23.36 35.9001 23.24 35.8401C23.12 35.8001 23 35.7401 22.88 35.6601C22.78 35.5801 22.68 35.5001 22.58 35.4201C22.22 35.0401 22 34.5201 22 34.0001C22 33.4801 22.22 32.9601 22.58 32.5801C22.68 32.5001 22.78 32.4201 22.88 32.3401C23 32.2601 23.12 32.2001 23.24 32.1601C23.36 32.1001 23.48 32.0601 23.6 32.0401C23.86 31.9801 24.14 31.9801 24.38 32.0401C24.52 32.0601 24.64 32.1001 24.76 32.1601C24.88 32.2001 25 32.2601 25.12 32.3401C25.22 32.4201 25.32 32.5001 25.42 32.5801C25.78 32.9601 26 33.4801 26 34.0001C26 34.5201 25.78 35.0401 25.42 35.4201C25.32 35.5001 25.22 35.5801 25.12 35.6601C25 35.7401 24.88 35.8001 24.76 35.8401C24.64 35.9001 24.52 35.9401 24.38 35.9601C24.26 35.9801 24.12 36.0001 24 36.0001Z" fill="#106F6E"/>
</svg>
