<?xml version="1.0" encoding="UTF-8"?>
<svg id="Layer_1" data-name="Layer 1" xmlns="http://www.w3.org/2000/svg" version="1.1" viewBox="0 0 600 150">
  <defs>
    <style>
      .cls-1 {
        fill: #212e51;
      }

      .cls-1, .cls-2 {
        stroke-width: 0px;
      }

      .cls-2 {
        fill: #fff;
      }
    </style>
  </defs>
  <rect class="cls-1" x="-11.511" y="-7.79" width="623.022" height="165.581"/>
  <g>
    <path class="cls-2" d="M350.531,34.714l-9.861,9.861v13.625h15.656v44.426h-42.351v-44.426h6.161l7.83-7.83v-12.727l2.926-2.928h-1.27l-9.487,9.483v6.173h-6.161l-7.83,7.83v44.426l7.83,7.83h50.18V34.714h-13.624ZM348.5,42.103h7.83v8.281h-7.83v-8.281Z"/>
    <path class="cls-2" d="M309.642,41.708c-.956,0-1.778-.344-2.466-1.032-.688-.687-1.032-1.509-1.032-2.465,0-.968.341-1.793,1.023-2.475s1.507-1.023,2.475-1.023,1.792.341,2.474,1.023c.682.682,1.023,1.507,1.023,2.475s-.341,1.792-1.023,2.474c-.682.682-1.507,1.023-2.474,1.023M307.36,40.493c.635.635,1.396.952,2.282.952s1.646-.317,2.282-.952c.635-.635.953-1.396.953-2.282s-.318-1.647-.953-2.282c-.636-.635-1.396-.952-2.282-.952s-1.647.317-2.282.952-.953,1.396-.953,2.282.317,1.647.953,2.282M310.656,40.292h.84l-1.172-1.714c.629-.128.944-.518.944-1.171,0-.851-.507-1.277-1.521-1.277h-1.591v4.162h.769v-1.609h.63l1.101,1.609ZM308.907,38.054v-1.294h.769c.536,0,.804.216.804.647,0,.455-.268.67-.804.647h-.769Z"/>
    <g>
      <path class="cls-2" d="M258.51,68.406v5.395c0,.225-.15.412-.375.412-2.173,0-4.084-.787-5.582-2.248-1.499,1.498-3.859,2.248-7.043,2.248h-8.392l-.899-6.182h9.366c2.098,0,3.11-1.161,3.11-2.885v-1.199c-.037-1.986-1.686-3.334-4.084-3.334h-2.548v-5.994h3.896c5.095,0,8.617,3.072,8.617,8.804v2.922c0,.262,0,.524-.037.787,1.011.562,2.135.899,3.597.899.225,0,.375.15.375.375Z"/>
      <path class="cls-2" d="M273.01,68.406v5.395c0,.225-.15.412-.375.412-1.986,0-4.121-1.012-5.882-2.81-1.723,1.873-4.683,2.81-8.617,2.81-.225,0-.375-.187-.375-.412l.075-5.395c0-.225.15-.375.375-.375,2.922,0,4.496-1.124,4.496-3.821l-.037-4.496,5.844-.674v7.793c1.236.787,2.66,1.199,4.121,1.199.225,0,.375.15.375.375ZM268.064,76.124l3.934,3.859-3.859,3.859-2.735-2.66-2.66,2.66-3.934-3.859,3.859-3.859,2.735,2.66,2.66-2.66Z"/>
      <path class="cls-2" d="M291.967,63.985c0,6.219-4.121,10.228-10.715,10.228h-8.617c-.262,0-.375-.112-.375-.412v-5.395c0-.225.15-.375.375-.375h2.323c-.712-1.499-1.124-2.922-1.124-4.383,0-5.095,3.859-8.729,8.879-8.729,5.357,0,9.254,3.821,9.254,9.066ZM279.604,52.446l-3.896-3.896,3.859-3.859,2.96,2.885,2.922-2.885,3.896,3.859-3.821,3.896-2.997-2.922-2.922,2.922ZM286.122,63.948c0-1.986-1.499-3.447-3.484-3.447s-3.597,1.611-3.597,3.672c0,1.199.375,2.473,1.049,3.859h1.199c3.035,0,4.833-1.611,4.833-4.084Z"/>
    </g>
    <g>
      <path class="cls-2" d="M249.771,115.286l-2.98-4.579c-.209.042-.439.073-.69.094-.251.021-.523.031-.815.031-2.3,0-4.14-.387-5.52-1.16-1.38-.773-2.379-1.97-2.995-3.591-.617-1.62-.925-3.685-.925-6.194,0-2.53.308-4.611.925-6.242.616-1.631,1.615-2.843,2.995-3.638,1.38-.794,3.22-1.192,5.52-1.192,2.321,0,4.176.397,5.567,1.192,1.39.795,2.394,2.007,3.011,3.638.616,1.631.925,3.712.925,6.242,0,2.3-.246,4.218-.737,5.755-.492,1.537-1.312,2.713-2.462,3.528l2.572,3.952-4.391,2.164ZM245.285,106.253c1.087,0,1.908-.24,2.462-.721.554-.481.925-1.197,1.113-2.148.188-.951.282-2.117.282-3.497s-.094-2.551-.282-3.513c-.188-.961-.554-1.694-1.098-2.195-.544-.502-1.37-.753-2.478-.753-1.066,0-1.877.251-2.431.753-.554.502-.936,1.229-1.145,2.18-.209.952-.314,2.128-.314,3.528,0,1.38.099,2.541.298,3.481.198.941.58,1.657,1.145,2.148.565.491,1.38.737,2.447.737Z"/>
      <path class="cls-2" d="M261.062,110.456v-7.465l-6.304-13.769h5.991l3.136,7.559,3.231-7.559h5.959l-6.43,13.769v7.465h-5.583Z"/>
      <path class="cls-2" d="M274.391,110.456v-21.234h8.468c1.735,0,3.209.22,4.422.659,1.212.439,2.19,1.093,2.933,1.96.742.868,1.281,1.945,1.615,3.231.334,1.286.502,2.765.502,4.438,0,1.694-.157,3.21-.471,4.548-.314,1.338-.826,2.489-1.537,3.45-.711.962-1.662,1.694-2.854,2.195s-2.656.753-4.391.753h-8.688ZM279.974,105.846h2.697c.878,0,1.584-.157,2.117-.47.533-.314.936-.753,1.208-1.317.271-.565.449-1.233.533-2.007.083-.773.125-1.62.125-2.54,0-.878-.053-1.667-.157-2.368-.105-.7-.293-1.302-.565-1.803-.272-.502-.669-.878-1.192-1.129-.523-.251-1.213-.376-2.07-.376h-2.697v12.012Z"/>
    </g>
  </g>
</svg>