<svg width="36" height="36" viewBox="0 0 36 36" fill="none" xmlns="http://www.w3.org/2000/svg">
<path d="M17.9985 0.373047C13.8561 0.373047 10.0221 1.82733 6.98139 4.25111C2.92707 7.46812 0.371094 12.4479 0.371094 18.0005C0.371094 21.3056 1.29654 24.4345 2.92708 27.0786C5.96782 32.1906 11.5645 35.6279 17.9985 35.6279C22.4495 35.6279 26.5038 33.9974 29.5886 31.2211C30.9547 30.0753 32.1446 28.6651 33.07 27.0786C34.7005 24.4345 35.626 21.3056 35.626 18.0005C35.626 8.26133 27.7377 0.373047 17.9985 0.373047ZM27.1208 16.1056L17.7341 24.787C17.1172 25.3599 16.2798 25.6684 15.4866 25.6684C14.6493 25.6684 13.812 25.36 13.151 24.699L8.78822 20.3363C7.51023 19.0583 7.51023 16.9427 8.78822 15.6647C10.0662 14.3867 12.1815 14.3867 13.4595 15.6647L15.5748 17.7802L22.6258 11.2579C23.9478 10.0239 26.0631 10.1123 27.297 11.4343C28.5309 12.7564 28.4428 14.8717 27.1208 16.1056Z" fill="#106F6E"/>
</svg>
