<svg width="17" height="17" viewBox="0 0 17 17" fill="none" xmlns="http://www.w3.org/2000/svg">
<path fill-rule="evenodd" clip-rule="evenodd" d="M12.75 5.91931C13.2992 6.08364 13.6944 6.13889 13.6944 6.13889V4.72222H14.6389C15.2651 4.72222 15.8657 4.47346 16.3084 4.03067C16.7512 3.58787 17 2.98732 17 2.36111C17 1.73491 16.7512 1.13435 16.3084 0.691553C15.8657 0.248759 15.2651 0 14.6389 0H11.917C11.2612 0 10.6323 0.260501 10.1686 0.724195C9.70494 1.18789 9.44444 1.81679 9.44444 2.47256C9.44444 4.60606 11.4977 5.54483 12.75 5.91931ZM16.0556 2.36111C16.0556 2.73683 15.9063 3.09717 15.6406 3.36285C15.3749 3.62852 15.0146 3.77778 14.6389 3.77778H12.75V4.92764C12.4909 4.83967 12.238 4.73444 11.993 4.61267C11.0566 4.14328 10.3889 3.47556 10.3889 2.47256C10.3889 2.06728 10.5499 1.67859 10.8365 1.39202C11.123 1.10544 11.5117 0.944444 11.917 0.944444H14.6389C15.0146 0.944444 15.3749 1.0937 15.6406 1.35938C15.9063 1.62505 16.0556 1.98539 16.0556 2.36111ZM4.16358 5.66336C3.54474 5.64193 2.95911 5.37816 2.53296 4.92893C2.1068 4.47969 1.87426 3.88097 1.88548 3.26187C1.89669 2.64276 2.15076 2.05285 2.5929 1.61934C3.03505 1.18584 3.62985 0.943448 4.24906 0.944444H5.74553C6.35082 0.944444 6.93132 1.1849 7.35932 1.6129C7.78733 2.0409 8.02778 2.6214 8.02778 3.22669C8.02778 5.13542 6.31361 6.00808 5.19444 6.375C4.65233 6.55256 4.25 6.61111 4.25 6.61111V5.66667L4.16358 5.66336ZM5.19444 4.75575L4.19806 4.71986C3.82362 4.71172 3.46767 4.55555 3.20814 4.28554C2.9486 4.01552 2.80664 3.65367 2.81332 3.27921C2.82 2.90475 2.97479 2.54819 3.2438 2.28761C3.5128 2.02703 3.8741 1.88366 4.24858 1.88889H5.74506C5.92078 1.88883 6.09479 1.92338 6.25716 1.99059C6.41952 2.05779 6.56706 2.15632 6.69133 2.28056C6.81561 2.40479 6.91419 2.55229 6.98145 2.71463C7.04871 2.87697 7.08333 3.05097 7.08333 3.22669C7.08333 4.131 6.50864 4.72364 5.70256 5.14392C5.53256 5.23269 5.36019 5.30825 5.19444 5.37247V4.75575ZM10.3889 8.5C10.3889 9.54361 9.54361 10.3889 8.5 10.3889C7.45639 10.3889 6.61111 9.54361 6.61111 8.5C6.61111 7.45639 7.45639 6.61111 8.5 6.61111C9.54361 6.61111 10.3889 7.45639 10.3889 8.5ZM9.44444 8.5C9.44444 8.75048 9.34494 8.9907 9.16782 9.16782C8.9907 9.34494 8.75048 9.44444 8.5 9.44444C8.24952 9.44444 8.00929 9.34494 7.83218 9.16782C7.65506 8.9907 7.55556 8.75048 7.55556 8.5C7.55556 8.24952 7.65506 8.00929 7.83218 7.83218C8.00929 7.65506 8.24952 7.55556 8.5 7.55556C8.75048 7.55556 8.9907 7.65506 9.16782 7.83218C9.34494 8.00929 9.44444 8.24952 9.44444 8.5ZM6.13889 9.44444C6.13889 10.4881 5.29361 11.3333 4.25 11.3333C3.20639 11.3333 2.36111 10.4881 2.36111 9.44444C2.36111 8.40083 3.20639 7.55556 4.25 7.55556C5.29361 7.55556 6.13889 8.40083 6.13889 9.44444ZM5.19444 9.44444C5.19444 9.69493 5.09494 9.93515 4.91782 10.1123C4.74071 10.2894 4.50048 10.3889 4.25 10.3889C3.99952 10.3889 3.75929 10.2894 3.58218 10.1123C3.40506 9.93515 3.30556 9.69493 3.30556 9.44444C3.30556 9.19396 3.40506 8.95374 3.58218 8.77662C3.75929 8.5995 3.99952 8.5 4.25 8.5C4.50048 8.5 4.74071 8.5995 4.91782 8.77662C5.09494 8.95374 5.19444 9.19396 5.19444 9.44444ZM0 14.4245C0 12.9965 2.83144 12.2778 4.25 12.2778C4.52625 12.2778 4.85633 12.3052 5.20861 12.3595C5.84186 11.8953 7.00164 11.3333 8.5 11.3333C9.99789 11.3333 11.1581 11.8953 11.7919 12.3595C12.1088 12.3084 12.429 12.2811 12.75 12.2778C14.1686 12.2778 17 12.997 17 14.424V17H0V14.4245ZM7.39122 14.1775C7.55556 14.3305 7.55556 14.4103 7.55556 14.424V16.0556H0.944444V14.424C0.944444 14.4099 0.944444 14.3305 1.10878 14.1775C1.28019 14.0174 1.56306 13.847 1.94744 13.6911C2.71811 13.3795 3.65972 13.2222 4.25 13.2222C4.84028 13.2222 5.78189 13.3795 6.55256 13.6911C6.93694 13.847 7.21981 14.0174 7.39122 14.1775ZM10.4559 12.682C9.83865 12.4143 9.17283 12.2767 8.5 12.2778C7.718 12.2778 7.05311 12.4601 6.54453 12.682C7.5905 13.0333 8.5 13.6151 8.5 14.4245C8.5 13.6151 9.4095 13.0338 10.4559 12.682ZM16.0556 14.4245C16.0556 14.4103 16.0556 14.3305 15.8912 14.1775C15.7198 14.0174 15.4369 13.847 15.0526 13.6911C14.2819 13.3795 13.3403 13.2222 12.75 13.2222C12.1597 13.2222 11.2181 13.3795 10.4474 13.6911C10.0631 13.847 9.78019 14.0174 9.60878 14.1775C9.44444 14.3305 9.44444 14.4103 9.44444 14.424V16.0556H16.0556V14.4245ZM12.75 11.3333C13.7936 11.3333 14.6389 10.4881 14.6389 9.44444C14.6389 8.40083 13.7936 7.55556 12.75 7.55556C11.7064 7.55556 10.8611 8.40083 10.8611 9.44444C10.8611 10.4881 11.7064 11.3333 12.75 11.3333ZM12.75 10.3889C13.0005 10.3889 13.2407 10.2894 13.4178 10.1123C13.5949 9.93515 13.6944 9.69493 13.6944 9.44444C13.6944 9.19396 13.5949 8.95374 13.4178 8.77662C13.2407 8.5995 13.0005 8.5 12.75 8.5C12.4995 8.5 12.2593 8.5995 12.0822 8.77662C11.9051 8.95374 11.8056 9.19396 11.8056 9.44444C11.8056 9.69493 11.9051 9.93515 12.0822 10.1123C12.2593 10.2894 12.4995 10.3889 12.75 10.3889Z" fill="#606060"/>
</svg>
