<svg width="77" height="67" viewBox="0 0 77 67" fill="none" xmlns="http://www.w3.org/2000/svg">
<path d="M5.16553 58.0106C2.86703 62.0106 5.75446 67 10.3678 67H66.6322C71.2455 67 74.133 62.0106 71.8345 58.0106L43.7023 9.05331C41.3956 5.03913 35.6044 5.03914 33.2977 9.05331L5.16553 58.0106ZM42 52.8947C42 54.8277 40.433 56.4211 38.5 56.4211C36.567 56.4211 35 54.8277 35 52.8947C35 50.9617 36.567 49.3684 38.5 49.3684C40.433 49.3684 42 50.9617 42 52.8947ZM42 38.8158C42 40.7488 40.433 42.3158 38.5 42.3158C36.567 42.3158 35 40.7488 35 38.8158V31.7105C35 29.7775 36.567 28.2105 38.5 28.2105C40.433 28.2105 42 29.7775 42 31.7105V38.8158Z" fill="#FFB800"/>
</svg>
