<svg width="21" height="17" viewBox="0 0 21 17" fill="none" xmlns="http://www.w3.org/2000/svg">
<path d="M4.03125 1.53125C4.15625 1.125 4.5625 0.9375 4.96875 1.0625L8.8125 2.28125C9.25 1.53125 10.0625 1 11 1C12.375 1 13.5 2.125 13.5 3.5C13.5 3.59375 13.4688 3.6875 13.4688 3.78125L17.4688 5.0625C17.875 5.1875 18.0938 5.59375 17.9375 6C17.8125 6.375 17.4062 6.59375 17 6.46875L12.875 5.15625C12.5625 5.5 12.1875 5.75 11.75 5.90625V16.25C11.75 16.6875 11.4062 17 11 17H4.75C4.3125 17 4 16.6875 4 16.25C4 15.8438 4.3125 15.5 4.75 15.5H10.25V5.90625C9.28125 5.59375 8.59375 4.78125 8.5 3.75L4.5 2.46875C4.125 2.34375 3.90625 1.9375 4.03125 1.53125ZM5 6.125L2.71875 10H7.25L5 6.125ZM8.9375 10.5625C8.59375 11.9375 6.9375 13 5 13C3.03125 13 1.375 11.9375 1.0625 10.5625C0.96875 10.2188 1.09375 9.84375 1.25 9.5625L4.21875 4.4375C4.375 4.1875 4.6875 4 5 4C5.28125 4 5.59375 4.1875 5.75 4.4375L8.71875 9.53125C8.90625 9.84375 9 10.2188 8.9375 10.5625ZM19.2188 14L16.9375 10.125L14.6875 14H19.2188ZM16.9375 17C15 17 13.3438 15.9375 13 14.5625C12.9375 14.2188 13.0312 13.8438 13.2188 13.5625L16.1875 8.4375C16.3438 8.1875 16.625 8 16.9375 8C17.25 8 17.5312 8.1875 17.6875 8.4375L20.6875 13.5312C20.8438 13.8438 20.9688 14.2188 20.875 14.5625C20.5625 15.9375 18.9062 17 16.9375 17ZM11 2.5C10.4375 2.5 10 2.96875 10 3.5C10 4.0625 10.4375 4.5 11 4.5C11.5312 4.5 12 4.0625 12 3.5C12 2.96875 11.5312 2.5 11 2.5Z" fill="#0E6463"/>
</svg>
