<svg width="15" height="14" viewBox="0 0 15 14" fill="none" xmlns="http://www.w3.org/2000/svg">
<path fill-rule="evenodd" clip-rule="evenodd" d="M7.47853 13.982C11.3271 13.982 14.447 10.862 14.447 7.01344C14.447 3.16483 11.3271 0.0449219 7.47853 0.0449219C3.62992 0.0449219 0.51001 3.16483 0.51001 7.01344C0.51001 10.862 3.62992 13.982 7.47853 13.982ZM10.7077 5.88725C11.0478 5.54707 11.0478 4.99555 10.7077 4.65537C10.3675 4.3152 9.81596 4.3152 9.47578 4.65537L6.60746 7.5237L5.48127 6.3975C5.1411 6.05733 4.58957 6.05733 4.2494 6.3975C3.90923 6.73767 3.90923 7.2892 4.2494 7.62937L5.99153 9.3715C6.3317 9.71168 6.88323 9.71168 7.2234 9.3715L10.7077 5.88725Z" fill="#22C55E"/>
</svg>
