<svg width="21" height="22" viewBox="0 0 21 22" fill="none" xmlns="http://www.w3.org/2000/svg">
<path fill-rule="evenodd" clip-rule="evenodd" d="M9.04385 0.525315C9.21035 0.358772 9.40803 0.226661 9.6256 0.136527C9.84317 0.046392 10.0764 0 10.3119 0C10.5474 0 10.7805 0.046392 10.9981 0.136527C11.2157 0.226661 11.4134 0.358772 11.5799 0.525315L13.0249 1.97031C13.0909 2.03631 13.1849 2.06732 13.2779 2.05231L15.2959 1.73331C15.7655 1.65902 16.2455 1.77423 16.6302 2.05361C17.015 2.333 17.2731 2.75372 17.3479 3.22332L17.6669 5.24131C17.6742 5.28713 17.6922 5.33056 17.7195 5.3681C17.7468 5.40563 17.7825 5.43619 17.8239 5.45731L19.6439 6.38431C20.0674 6.60052 20.3878 6.97594 20.5348 7.42815C20.6817 7.88036 20.6433 8.37242 20.4279 8.79631L19.5009 10.6173C19.4796 10.6584 19.4686 10.704 19.4686 10.7503C19.4686 10.7966 19.4796 10.8422 19.5009 10.8833L20.4279 12.7043C20.5349 12.9141 20.5996 13.143 20.6181 13.3778C20.6367 13.6127 20.6088 13.8488 20.5359 14.0729C20.4631 14.2969 20.3469 14.5044 20.1938 14.6834C20.0407 14.8624 19.8538 15.0096 19.6439 15.1163L17.8239 16.0433C17.7825 16.0644 17.7468 16.095 17.7195 16.1325C17.6922 16.1701 17.6742 16.2135 17.6669 16.2593L17.3479 18.2773C17.2731 18.7469 17.015 19.1676 16.6302 19.447C16.2455 19.7264 15.7655 19.8416 15.2959 19.7673L13.2779 19.4483C13.2322 19.441 13.1855 19.4446 13.1415 19.4588C13.0975 19.4731 13.0575 19.4976 13.0249 19.5303L11.5799 20.9753C11.4134 21.1419 11.2157 21.274 10.9981 21.3641C10.7805 21.4542 10.5474 21.5006 10.3119 21.5006C10.0764 21.5006 9.84317 21.4542 9.6256 21.3641C9.40803 21.274 9.21035 21.1419 9.04385 20.9753L7.59885 19.5303C7.56619 19.4976 7.52622 19.4731 7.48223 19.4588C7.43825 19.4446 7.39151 19.441 7.34585 19.4483L5.32785 19.7673C4.85819 19.8416 4.37824 19.7264 3.99347 19.447C3.6087 19.1676 3.35059 18.7469 3.27585 18.2773L2.95685 16.2593C2.94951 16.2135 2.93147 16.1701 2.90419 16.1325C2.87691 16.095 2.84116 16.0644 2.79985 16.0433L0.979852 15.1163C0.556349 14.9001 0.235937 14.5247 0.0889493 14.0725C-0.0580385 13.6203 -0.019591 13.1282 0.195852 12.7043L1.12285 10.8833C1.14408 10.8422 1.15515 10.7966 1.15515 10.7503C1.15515 10.704 1.14408 10.6584 1.12285 10.6173L0.195852 8.79631C0.088772 8.5865 0.0241091 8.35763 0.00556287 8.1228C-0.0129834 7.88797 0.0149509 7.65179 0.0877678 7.42777C0.160585 7.20374 0.276855 6.99627 0.429928 6.81723C0.583001 6.63818 0.769873 6.49107 0.979852 6.38431L2.79985 5.45731C2.84116 5.43619 2.87691 5.40563 2.90419 5.3681C2.93147 5.33056 2.94951 5.28713 2.95685 5.24131L3.27585 3.22332C3.35059 2.75372 3.6087 2.333 3.99347 2.05361C4.37824 1.77423 4.85819 1.65902 5.32785 1.73331L7.34585 2.05231C7.39151 2.05965 7.43825 2.05605 7.48223 2.04179C7.52622 2.02754 7.56619 2.00304 7.59885 1.97031L9.04385 0.525315ZM6.28185 11.2803L8.61485 13.6143C8.6845 13.684 8.7672 13.7393 8.85823 13.777C8.94925 13.8147 9.04682 13.8342 9.14535 13.8342C9.24389 13.8342 9.34145 13.8147 9.43248 13.777C9.5235 13.7393 9.6062 13.684 9.67585 13.6143L14.3419 8.94731C14.4785 8.80593 14.5542 8.61651 14.5526 8.41986C14.551 8.22321 14.4722 8.03506 14.3332 7.89594C14.1942 7.75682 14.0062 7.67786 13.8095 7.67605C13.6129 7.67425 13.4234 7.74976 13.2819 7.88631L9.14485 12.0233L7.34185 10.2203C7.27225 10.1507 7.18962 10.0955 7.09869 10.0578C7.00775 10.0202 6.91028 10.0008 6.81185 10.0008C6.71342 10.0008 6.61596 10.0202 6.52502 10.0578C6.43408 10.0955 6.35145 10.1507 6.28185 10.2203C6.21225 10.2899 6.15704 10.3725 6.11938 10.4635C6.08171 10.5544 6.06232 10.6519 6.06232 10.7503C6.06232 10.8487 6.08171 10.9462 6.11938 11.0371C6.15704 11.1281 6.21225 11.2107 6.28185 11.2803Z" fill="#12C539"/>
</svg>
