<svg width="71" height="110" viewBox="0 0 71 116" fill="none" xmlns="http://www.w3.org/2000/svg">
<path fill-rule="evenodd" clip-rule="evenodd" d="M67.2146 108.977C67.2146 107.364 65.8999 106.049 64.2852 106.049H6.71348C5.09876 106.049 3.78413 107.364 3.78413 108.977V111.908H67.2146V108.977ZM12.3958 102.264H58.8334L66.2265 45.1559C66.4001 43.7979 65.3663 42.6178 63.9953 42.6178H7.00473C6.6837 42.6158 6.366 42.6829 6.07323 42.8146C5.78045 42.9464 5.51947 43.1396 5.30803 43.3811C5.09658 43.6227 4.93963 43.907 4.84784 44.2146C4.75605 44.5222 4.73158 44.846 4.77608 45.164L12.3958 102.264ZM4.37442 35.7173L5.98004 38.5004L58.5068 8.17434L56.8999 5.39126C56.0046 3.84124 54.0303 3.33539 52.5099 4.2151L5.55057 31.3262C4.01926 32.2101 3.49444 34.186 4.37442 35.7173ZM21.5447 17.7223C21.277 16.6264 21.291 15.4804 21.5855 14.3913C22.9175 9.41909 29.0745 7.76774 32.73 11.2619L21.5447 17.7223ZM71 108.977V113.799C71.0001 114.048 70.9512 114.294 70.8561 114.524C70.7611 114.754 70.6216 114.962 70.4459 115.138C70.2701 115.314 70.0614 115.453 69.8317 115.548C69.602 115.643 69.3559 115.692 69.1073 115.692H1.89141C1.6429 115.692 1.39681 115.643 1.16722 115.548C0.937629 115.453 0.729038 115.314 0.553373 115.138C0.377708 114.962 0.238416 114.753 0.143464 114.524C0.048512 114.294 -0.000238155 114.048 8.7475e-07 113.799V108.977C8.7475e-07 105.276 3.01223 102.264 6.71348 102.264H8.57866L1.02339 45.6656C0.761242 43.7007 1.40064 41.9366 2.79244 40.5458L1.09717 37.6084C-0.832431 34.2696 0.318007 29.9752 3.65786 28.0485L18.182 19.6647C16.4784 14.9107 18.4273 9.5664 22.8264 7.0252C27.2423 4.47439 32.8347 5.4692 36.0941 9.32114L50.6169 0.937343C53.9612 -0.993563 58.2498 0.155056 60.1781 3.49777L62.7308 7.91817C63.2538 8.82516 62.9407 9.98262 62.0379 10.5051L12.9715 38.8337H63.9955C67.65 38.8337 70.4474 42.0148 69.9782 45.6407L62.6482 102.264H64.2852C67.9878 102.264 71 105.276 71 108.977ZM35.5014 45.7698C36.0031 45.7698 36.4842 45.9691 36.8389 46.3238C37.1936 46.6785 37.3928 47.1596 37.3928 47.6613V98.3652C37.3958 98.6155 37.349 98.8639 37.2552 99.0961C37.1615 99.3282 37.0226 99.5394 36.8466 99.7175C36.6706 99.8955 36.461 100.037 36.23 100.133C35.999 100.23 35.7511 100.28 35.5008 100.28C35.2504 100.28 35.0026 100.23 34.7715 100.133C34.5405 100.037 34.331 99.8955 34.155 99.7175C33.979 99.5394 33.8401 99.3282 33.7463 99.0961C33.6526 98.8639 33.6058 98.6155 33.6087 98.3652V47.6613C33.6087 46.6168 34.4541 45.7698 35.5014 45.7698ZM21.3932 48.5807L27.1005 97.0033C27.1592 97.5017 27.0177 98.0031 26.707 98.3972C26.3963 98.7914 25.9418 99.0461 25.4434 99.1054C24.4086 99.221 23.4644 98.4938 23.3413 97.447L17.6341 49.0245C17.5101 47.9878 18.2545 47.046 19.2911 46.9223C20.3291 46.7987 21.2696 47.5441 21.3932 48.5807ZM53.3659 49.0245L47.6574 97.447C47.534 98.4933 46.5891 99.2215 45.5566 99.1054C45.0581 99.0462 44.6035 98.7915 44.2925 98.3974C43.9816 98.0033 43.8398 97.5019 43.8982 97.0033L49.6055 48.5807C49.6649 48.0823 49.9196 47.6279 50.3137 47.317C50.7078 47.0061 51.209 46.8642 51.7076 46.9223C52.7442 47.0463 53.4883 47.9878 53.3659 49.0245Z" fill="#FF6F59"/>
</svg>
