<svg width="16" height="17" viewBox="0 0 16 17" fill="none" xmlns="http://www.w3.org/2000/svg">
<path d="M8.34375 1.09375L15.4375 5.03125C15.7812 5.21875 16 5.5625 16 5.9375C16 6.53125 15.5 7 14.9062 7H1.0625C0.46875 7 0 6.53125 0 5.9375C0 5.5625 0.1875 5.21875 0.53125 5.03125L7.625 1.09375C7.84375 0.96875 8.125 0.96875 8.34375 1.09375ZM7.125 5.5C7.03125 5.375 7 5.1875 7 5C7 4.46875 7.4375 4 8 4C8.53125 4 9 4.46875 9 5C9 5.1875 8.9375 5.375 8.84375 5.5H13.2188L8 2.625L2.75 5.5H7.125ZM2 8H3.5V13H5.5V8H7V13H9V8H10.5V13H12.5V8H14V13H14.25C14.6562 13 15 13.3438 15 13.75C15 14.1875 14.6562 14.5 14.25 14.5H2C1.5625 14.5 1.25 14.1875 1.25 13.75C1.25 13.3438 1.5625 13 2 13V8ZM1 15.5H15.25C15.6562 15.5 16 15.8438 16 16.25C16 16.6875 15.6562 17 15.25 17H1C0.5625 17 0.25 16.6875 0.25 16.25C0.25 15.8438 0.5625 15.5 1 15.5Z" fill="#0E6463"/>
</svg>
