<svg width="13" height="15" viewBox="0 0 13 15" fill="none" xmlns="http://www.w3.org/2000/svg">
<path d="M10.875 2C11.832 2 12.625 2.79297 12.625 3.75V12.5C12.625 13.4844 11.832 14.25 10.875 14.25H2.125C1.14062 14.25 0.375 13.4844 0.375 12.5V3.75C0.375 2.79297 1.14062 2 2.125 2H3.21875V0.90625C3.21875 0.550781 3.49219 0.25 3.875 0.25C4.23047 0.25 4.53125 0.550781 4.53125 0.90625V2H8.46875V0.90625C8.46875 0.550781 8.79688 0.25 9.125 0.25C9.48047 0.25 9.78125 0.550781 9.78125 0.90625V2H10.875ZM10.875 12.9375C11.0938 12.9375 11.3125 12.7461 11.3125 12.5V5.5H1.6875V12.5C1.6875 12.7461 1.87891 12.9375 2.125 12.9375H10.875Z" fill="#D9D9D9"/>
</svg>
