<svg width="15" height="16" viewBox="0 0 15 16" fill="none" xmlns="http://www.w3.org/2000/svg">
<path d="M14 2.5C14.25 2.5 14.5 2.75 14.5 3V3.5C14.5 3.78125 14.25 4 14 4H13.5V14C13.5 15.125 12.5938 16 11.5 16H3.5C2.375 16 1.5 15.125 1.5 14V4H1C0.71875 4 0.5 3.78125 0.5 3.5V3C0.5 2.75 0.71875 2.5 1 2.5H3.5625L4.625 0.75C4.90625 0.28125 5.375 0 5.90625 0H9.0625C9.59375 0 10.0625 0.28125 10.3438 0.75L11.4062 2.5H14ZM5.84375 1.59375L5.3125 2.5H9.65625L9.125 1.59375C9.09375 1.5625 9.03125 1.5 8.96875 1.5H6.03125C5.9375 1.5 5.875 1.5625 5.84375 1.59375ZM11.5 14.5C11.75 14.5 12 14.2812 12 14V4H3V14C3 14.2812 3.21875 14.5 3.5 14.5H11.5ZM7.5 13C7.21875 13 7 12.7812 7 12.5V6C7 5.75 7.21875 5.5 7.5 5.5C7.75 5.5 8 5.75 8 6V12.5C8 12.7812 7.75 13 7.5 13ZM5 13C4.71875 13 4.5 12.7812 4.5 12.5V6C4.5 5.75 4.71875 5.5 5 5.5C5.25 5.5 5.5 5.75 5.5 6V12.5C5.5 12.7812 5.25 13 5 13ZM10 13C9.71875 13 9.5 12.7812 9.5 12.5V6C9.5 5.75 9.71875 5.5 10 5.5C10.25 5.5 10.5 5.75 10.5 6V12.5C10.5 12.7812 10.25 13 10 13Z" fill="#BF524D"/>
</svg>
