<svg width="20" height="18" viewBox="0 0 20 18" fill="none" xmlns="http://www.w3.org/2000/svg">
<path d="M19.1 16V10.6667C19.1 10.3749 18.9841 10.0951 18.7778 9.88885C18.5715 9.68256 18.2917 9.56667 18 9.56667H14.6667C14.5517 9.56667 14.4415 9.61232 14.3603 9.69359C14.279 9.77485 14.2333 9.88507 14.2333 10C14.2333 10.1149 14.279 10.2251 14.3603 10.3064C14.4415 10.3877 14.5517 10.4333 14.6667 10.4333H18C18.0619 10.4333 18.1212 10.4579 18.165 10.5017C18.2087 10.5454 18.2333 10.6048 18.2333 10.6667V16C18.2333 16.0619 18.2087 16.1212 18.165 16.165C18.1212 16.2088 18.0619 16.2333 18 16.2333H2C1.93812 16.2333 1.87877 16.2088 1.83501 16.165C1.79125 16.1212 1.76667 16.0619 1.76667 16V10.6667C1.76667 10.6048 1.79125 10.5454 1.83501 10.5017C1.87877 10.4579 1.93812 10.4333 2 10.4333H5.33333C5.44826 10.4333 5.55848 10.3877 5.63975 10.3064C5.72101 10.2251 5.76667 10.1149 5.76667 10C5.76667 9.88507 5.72101 9.77485 5.63975 9.69359C5.55848 9.61232 5.44826 9.56667 5.33333 9.56667H2C1.70826 9.56667 1.42847 9.68256 1.22218 9.88885C1.01589 10.0951 0.9 10.3749 0.9 10.6667V16C0.9 16.2917 1.01589 16.5715 1.22218 16.7778C1.42847 16.9841 1.70826 17.1 2 17.1H18C18.2917 17.1 18.5715 16.9841 18.7778 16.7778C18.9841 16.5715 19.1 16.2917 19.1 16ZM5.69346 6.30654L9.69342 10.3065L6.23583 5.76417C6.17329 5.70162 6.08845 5.66648 6 5.66648C5.91155 5.66648 5.82671 5.70162 5.76417 5.76417C5.70162 5.82671 5.66648 5.91155 5.66648 6C5.66648 6.08845 5.70162 6.17329 5.76417 6.23583L9.76417 10.2358C9.79512 10.2668 9.83189 10.2914 9.87235 10.3082C9.91282 10.325 9.95619 10.3336 10 10.3336C10.0438 10.3336 10.0872 10.325 10.1276 10.3082C10.1681 10.2914 10.2049 10.2668 10.2358 10.2358L10.3065 10.3065L10.3066 10.3065L14.3065 6.30654C14.3468 6.26629 14.3787 6.2185 14.4005 6.1659C14.4223 6.1133 14.4335 6.05693 14.4335 6C14.4335 5.94307 14.4223 5.8867 14.4005 5.8341C14.3787 5.7815 14.3468 5.73371 14.3065 5.69346C14.2663 5.6532 14.2185 5.62127 14.1659 5.59948C14.1133 5.5777 14.0569 5.56648 14 5.56648C13.9431 5.56648 13.8867 5.5777 13.8341 5.59948C13.7815 5.62127 13.7337 5.6532 13.6935 5.69346L10.4333 8.95358V1.33333C10.4333 1.21841 10.3877 1.10819 10.3064 1.02692C10.2251 0.945655 10.1149 0.9 10 0.9C9.88507 0.9 9.77485 0.945655 9.69359 1.02692C9.61232 1.10819 9.56667 1.21841 9.56667 1.33333V8.95358L6.30654 5.69346C6.22524 5.61216 6.11498 5.56648 6 5.56648C5.88502 5.56648 5.77476 5.61216 5.69346 5.69346C5.61216 5.77476 5.56648 5.88502 5.56648 6C5.56648 6.11498 5.61216 6.22524 5.69346 6.30654ZM15.7667 13.3333C15.7667 13.1817 15.7217 13.0335 15.6375 12.9074C15.5532 12.7813 15.4335 12.6831 15.2934 12.625C15.1533 12.567 14.9991 12.5518 14.8504 12.5814C14.7017 12.611 14.5651 12.684 14.4579 12.7912C14.3507 12.8984 14.2776 13.035 14.2481 13.1838C14.2185 13.3325 14.2337 13.4866 14.2917 13.6267C14.3497 13.7668 14.448 13.8866 14.5741 13.9708C14.7001 14.055 14.8484 14.1 15 14.1C15.2033 14.1 15.3983 14.0192 15.5421 13.8754C15.6859 13.7317 15.7667 13.5367 15.7667 13.3333Z" fill="#606060" stroke="#606060" stroke-width="0.2"/>
</svg>
