<svg width="12" height="16" viewBox="0 0 12 16" fill="none" xmlns="http://www.w3.org/2000/svg">
<path d="M1.5 14C1.5 14.2812 1.71875 14.5 2 14.5H10C10.25 14.5 10.5 14.2812 10.5 14V5H8C7.4375 5 7 4.5625 7 4V1.5H2C1.71875 1.5 1.5 1.75 1.5 2V14ZM2 0H7.15625C7.6875 0 8.1875 0.21875 8.5625 0.59375L11.4062 3.4375C11.7812 3.8125 12 4.3125 12 4.84375V14C12 15.125 11.0938 16 10 16H2C0.875 16 0 15.125 0 14V2C0 0.90625 0.875 0 2 0ZM6.75 7.25V10.4688L7.71875 9.5C8 9.1875 8.46875 9.1875 8.78125 9.5C9.0625 9.78125 9.0625 10.25 8.78125 10.5312L6.53125 12.7812C6.21875 13.0938 5.75 13.0938 5.46875 12.7812L3.21875 10.5312C2.90625 10.25 2.90625 9.78125 3.21875 9.5C3.5 9.1875 3.96875 9.1875 4.28125 9.5L5.25 10.4688V7.25C5.25 6.84375 5.5625 6.5 6 6.5C6.40625 6.5 6.75 6.84375 6.75 7.25Z" fill="#828282"/>
</svg>
