<svg width="18" height="17" viewBox="0 0 18 17" fill="none" xmlns="http://www.w3.org/2000/svg">
<path d="M1.25521 16.3554H16.7469C16.8684 16.3554 16.985 16.3071 17.071 16.2212C17.1569 16.1352 17.2052 16.0187 17.2052 15.8971C17.2052 15.7755 17.1569 15.659 17.071 15.573C16.985 15.487 16.8684 15.4388 16.7469 15.4388H1.25521C1.13365 15.4388 1.01707 15.487 0.931118 15.573C0.845163 15.659 0.796875 15.7755 0.796875 15.8971C0.796875 16.0187 0.845163 16.1352 0.931118 16.2212C1.01707 16.3071 1.13365 16.3554 1.25521 16.3554ZM6.90371 12.9106C7.29071 12.8017 7.64388 12.5968 7.93038 12.3148L16.6754 3.56976C16.9749 3.26911 17.143 2.86204 17.143 2.43768C17.143 2.01332 16.9749 1.60625 16.6754 1.3056L15.8137 0.453095C15.5086 0.162247 15.1032 0 14.6816 0C14.2601 0 13.8547 0.162247 13.5495 0.453095L4.80454 9.18893C4.52254 9.47394 4.32025 9.82794 4.21788 10.2156L3.53954 12.7456C3.50765 12.8612 3.50696 12.9832 3.53756 13.0991C3.56815 13.215 3.62893 13.3208 3.71371 13.4056C3.84362 13.5329 4.01766 13.6051 4.19954 13.6073L6.90371 12.9106ZM7.27954 11.6639C7.1105 11.8359 6.8984 11.9594 6.66538 12.0214L5.77621 12.2598L4.85954 11.3431L5.09787 10.4539C5.16117 10.2214 5.28445 10.0096 5.45538 9.83976L5.80371 9.5006L7.62788 11.3248L7.27954 11.6639ZM8.27871 10.6739L6.45454 8.84976L12.6237 2.6806L14.4479 4.50476L8.27871 10.6739ZM16.0245 2.9281L15.0987 3.85393L13.2745 2.02976L14.2004 1.09476C14.3293 0.966016 14.504 0.8937 14.6862 0.8937C14.8684 0.8937 15.0431 0.966016 15.172 1.09476L16.0245 1.95643C16.1524 2.0858 16.2241 2.26037 16.2241 2.44226C16.2241 2.62416 16.1524 2.79872 16.0245 2.9281Z" fill="#0C5353"/>
</svg>
