<svg width="22" height="17" viewBox="0 0 22 17" fill="none" xmlns="http://www.w3.org/2000/svg">
<path d="M18.7087 15.3864L18.7338 15.4297C18.032 15.8357 17.2311 16.05 16.4167 16.05C14.3133 16.05 12.5371 14.6398 11.9734 12.7167H2.66668C1.71985 12.7167 0.95 11.9468 0.95 11V2.66668C0.95 1.71985 1.71985 0.95 2.66664 0.95H15.1666C16.1135 0.95 16.8833 1.71989 16.8833 2.66668V6.80901C19.2196 7.04404 21.05 9.01941 21.05 11.4166V11.8333C21.05 12.7802 20.2802 13.55 19.3334 13.55C18.7753 13.55 18.2809 13.281 17.9676 12.868C17.5788 13.2841 17.0308 13.55 16.4167 13.55C15.2404 13.55 14.2833 12.5929 14.2833 11.4166C14.2833 10.2404 15.2404 9.28332 16.4166 9.28332C16.945 9.28332 17.4237 9.48213 17.7958 9.80085C17.8747 9.73841 17.974 9.70001 18.0833 9.7C18.0833 9.7 18.0833 9.7 18.0833 9.7L18.7087 15.3864ZM18.7087 15.3864L18.7338 15.4297C18.9566 15.3007 19.0332 15.0154 18.9038 14.7921C18.7749 14.569 18.4893 14.4918 18.2662 14.6221C17.7067 14.9456 17.0671 15.1167 16.4166 15.1167C14.3764 15.1167 12.7166 13.4569 12.7166 11.4167C12.7166 9.37644 14.3764 7.71668 16.4166 7.71668C18.4569 7.71668 20.1166 9.37644 20.1166 11.4167V11.8334C20.1166 12.2651 19.7651 12.6167 19.3333 12.6167C18.9016 12.6167 18.55 12.2651 18.55 11.8334V10.1667V10.1667H18.5L18.7087 15.3864ZM15.95 6.809C13.6138 7.04401 11.7833 9.0194 11.7833 11.4167C11.7833 11.5406 11.7899 11.6627 11.7999 11.7834H2.66668C2.23492 11.7834 1.88336 11.4318 1.88336 11V2.66668C1.88336 2.57962 1.89849 2.4962 1.92541 2.41776L8.07853 7.46366L8.07834 7.46389L8.08291 7.46687C8.33342 7.63038 8.62164 7.71672 8.91672 7.71672C9.19995 7.71672 9.47669 7.63701 9.72016 7.48623C9.74636 7.47207 9.7711 7.45538 9.79404 7.43638C9.79408 7.43634 9.79413 7.43631 9.79417 7.43627L15.9079 2.41771C15.9349 2.4962 15.95 2.57963 15.95 2.66672V6.809ZM8.63109 6.71266L2.74596 1.88332H15.088L9.23007 6.69173C9.13466 6.7509 9.01607 6.77555 8.90329 6.77479C8.79051 6.77403 8.69038 6.74794 8.63109 6.71266ZM16.4167 12.6167C15.755 12.6167 15.2167 12.0784 15.2167 11.4167C15.2167 10.755 15.755 10.2167 16.4167 10.2167C17.0784 10.2167 17.6167 10.755 17.6167 11.4167C17.6167 12.0784 17.0784 12.6167 16.4167 12.6167Z" fill="#606060" stroke="#606060" stroke-width="0.1"/>
</svg>
