<svg width="18" height="18" viewBox="0 0 18 18" fill="none" xmlns="http://www.w3.org/2000/svg">
<g clip-path="url(#clip0_201_11741)">
<path d="M16.0714 0.642578H1.92854C1.58754 0.642578 1.26052 0.778037 1.0194 1.01916C0.778281 1.26027 0.642822 1.5873 0.642822 1.92829V9.64258C0.642822 9.98357 0.778281 10.3106 1.0194 10.5517C1.26052 10.7928 1.58754 10.9283 1.92854 10.9283H16.0714C16.4124 10.9283 16.7394 10.7928 16.9805 10.5517C17.2216 10.3106 17.3571 9.98357 17.3571 9.64258V1.92829C17.3571 1.5873 17.2216 1.26027 16.9805 1.01916C16.7394 0.778037 16.4124 0.642578 16.0714 0.642578Z" stroke="#606060" stroke-linecap="round" stroke-linejoin="round"/>
<path d="M1.92847 14.1431H16.0713M3.21418 17.3574H14.7856M8.9999 7.71456C9.51138 7.71456 10.0019 7.51138 10.3636 7.1497C10.7253 6.78802 10.9285 6.29748 10.9285 5.78599C10.9285 5.2745 10.7253 4.78396 10.3636 4.42229C10.0019 4.06061 9.51138 3.85742 8.9999 3.85742C8.48841 3.85742 7.99787 4.06061 7.63619 4.42229C7.27451 4.78396 7.07132 5.2745 7.07132 5.78599C7.07132 6.29748 7.27451 6.78802 7.63619 7.1497C7.99787 7.51138 8.48841 7.71456 8.9999 7.71456ZM3.56775 6.10742C3.4825 6.10742 3.40075 6.07356 3.34047 6.01328C3.28019 5.953 3.24632 5.87124 3.24632 5.78599C3.24632 5.70075 3.28019 5.61899 3.34047 5.55871C3.40075 5.49843 3.4825 5.46456 3.56775 5.46456C3.653 5.46456 3.73476 5.49843 3.79504 5.55871C3.85532 5.61899 3.88918 5.70075 3.88918 5.78599C3.88918 5.87124 3.85532 5.953 3.79504 6.01328C3.73476 6.07356 3.653 6.10742 3.56775 6.10742ZM14.432 6.10742C14.3468 6.10742 14.265 6.07356 14.2048 6.01328C14.1445 5.953 14.1106 5.87124 14.1106 5.78599C14.1106 5.70075 14.1445 5.61899 14.2048 5.55871C14.265 5.49843 14.3468 5.46456 14.432 5.46456C14.5173 5.46456 14.599 5.49843 14.6593 5.55871C14.7196 5.61899 14.7535 5.70075 14.7535 5.78599C14.7535 5.87124 14.7196 5.953 14.6593 6.01328C14.599 6.07356 14.5173 6.10742 14.432 6.10742Z" stroke="#606060" stroke-linecap="round" stroke-linejoin="round"/>
</g>
<defs>
<clipPath id="clip0_201_11741">
<rect width="18" height="18" fill="white"/>
</clipPath>
</defs>
</svg>
