<svg width="98" height="50" viewBox="0 0 98 50" fill="none" xmlns="http://www.w3.org/2000/svg">
<path d="M47.2074 1.28037L45.8745 0.0820312L43.4316 2.28339L46.3066 4.87822L47.6374 3.67799L48.9661 4.87822L51.4142 2.67403L48.5382 0.0820312L47.2074 1.28037Z" fill="#292D32"/>
<path d="M29.698 28.3586L27.2551 30.5619L25.9264 29.3635L24.5978 30.5638L21.7207 27.9689L24.1636 25.7676L25.4923 26.9659L26.823 25.7676L29.698 28.3586Z" fill="#292D32"/>
<path d="M40.1791 11.3179H47.2441V18.9344H40.1791V11.3179ZM41.2735 7.75781L35.9954 12.503L36.0006 18.9344H27.7994V12.503H25.4518L23.6324 14.1392V18.9344H15.4323V11.3179H13.0846L11.2653 12.9541V18.9401L4.79348 18.9354L0.0175781 23.2456V23.8193L1.49168 22.4983H46.1644L51.4174 17.7625V7.76064L41.2735 7.75781Z" fill="#292D32"/>
<path d="M46.8909 33.3418H36V48.9381H46.8909L51.4137 44.8591V37.4209L46.8909 33.3418ZM47.979 46.5462H39.4472V35.7404H47.979V46.5462Z" fill="#292D32"/>
<path d="M34.1288 33.3398L27.6266 39.2042L27.1035 39.6759L27.0669 39.6807V48.9371H26.1829L24.3656 47.3019V39.6807L24.3269 39.6759L17.3027 33.3398H21.1224L25.7131 37.4784L30.3039 33.3398H34.1288Z" fill="#292D32"/>
<path d="M3.45421 35.7375H11.9964V46.5423H3.45421V35.7375ZM0.0195312 33.3398V44.8514L4.54226 48.9305H19.6682L20.8546 49.9949V49.541L17.7432 46.7348H15.4332V37.4217L10.9105 33.3427L0.0195312 33.3398Z" fill="#292D32"/>
<path d="M85.3105 17.4572H91.3136V22.8724H85.3105V17.4572ZM85.3105 12.0458L79.3158 17.4572V18.8612H79.3064V28.2781H91.3032V43.5253H57.4062L63.4031 48.9367H91.3032H91.3094H97.3042V12.043L85.3105 12.0458Z" fill="#292D32"/>
<path d="M75.4038 12.0469L69.4069 17.4583H57.4102L63.407 12.0469H75.4038Z" fill="#292D32"/>
<path d="M90.9812 3.17527L88.9798 1.37305L85.3066 4.68499L89.6316 8.58667L91.6309 6.78161L93.6302 8.58667L97.3034 5.27284L92.9795 1.37305L90.9812 3.17527Z" fill="#292D32"/>
<path d="M63.407 17.457H57.4102V43.5252H63.407V17.457Z" fill="#292D32"/>
<path d="M76.6804 0.0820312L69.4082 6.6361V12.0466H75.404V2.10694L77.6502 0.0820312H76.6804Z" fill="#292D32"/>
<mask id="mask0_119_1793" style="mask-type:luminance" maskUnits="userSpaceOnUse" x="0" y="0" width="98" height="50">
<path d="M97.305 0H0.015625V50H97.305V0Z" fill="white"/>
</mask>
<g mask="url(#mask0_119_1793)">
<path d="M60.0144 4.87987C59.6588 4.88384 59.3061 4.822 58.9781 4.69817C58.65 4.57434 58.3536 4.39115 58.1072 4.15993C57.8509 3.93759 57.6479 3.67025 57.5106 3.37441C57.3733 3.07856 57.3047 2.76048 57.309 2.43979C57.3031 2.11865 57.3702 1.79983 57.5062 1.50301C57.6423 1.20618 57.8443 0.937653 58.0999 0.713992C58.6079 0.256779 59.2962 0 60.0139 0C60.7316 0 61.4199 0.256779 61.9279 0.713992C62.1835 0.937653 62.3855 1.20618 62.5216 1.50301C62.6576 1.79983 62.7248 2.11865 62.7189 2.43979C62.7248 2.76093 62.6576 3.07975 62.5216 3.37657C62.3855 3.6734 62.1835 3.94193 61.9279 4.16559C61.6799 4.39605 61.3822 4.57824 61.0531 4.70093C60.724 4.82361 60.3705 4.88514 60.0144 4.87987ZM58.2495 4.02971C58.4804 4.24034 58.7553 4.40756 59.0584 4.52169C59.3614 4.63581 59.6865 4.69458 60.015 4.69458C60.3434 4.69458 60.6685 4.63581 60.9715 4.52169C61.2746 4.40756 61.5495 4.24034 61.7804 4.02971C62.0165 3.82355 62.2033 3.57595 62.3293 3.30218C62.4553 3.02841 62.5177 2.73427 62.5128 2.4379C62.5177 2.14153 62.4553 1.84739 62.3293 1.57362C62.2033 1.29985 62.0165 1.05225 61.7804 0.846093C61.5495 0.635464 61.2746 0.468244 60.9715 0.354117C60.6685 0.239991 60.3434 0.181226 60.015 0.181226C59.6865 0.181226 59.3614 0.239991 59.0584 0.354117C58.7553 0.468244 58.4804 0.635464 58.2495 0.846093C58.0134 1.05225 57.8266 1.29985 57.7006 1.57362C57.5747 1.84739 57.5122 2.14153 57.5172 2.4379C57.5122 2.73427 57.5747 3.02841 57.7006 3.30218C57.8266 3.57595 58.0134 3.82355 58.2495 4.02971ZM60.7991 3.88912H61.4488L60.5428 2.69361C60.7593 2.67127 60.9574 2.57309 61.0944 2.42024C61.2314 2.26738 61.2963 2.07209 61.2751 1.87648C61.2751 1.28265 60.8828 0.985742 60.0981 0.985742H58.8678V3.89195H59.4631V2.77004H59.9496L60.7991 3.88912ZM59.4463 2.3275V1.42828H60.0416C60.4566 1.42828 60.6641 1.57862 60.6641 1.87931C60.6641 2.19383 60.4566 2.34417 60.0416 2.33033L59.4463 2.3275Z" fill="#292D32"/>
</g>
</svg>
