<svg width="83" height="46" viewBox="0 0 83 46" fill="none" xmlns="http://www.w3.org/2000/svg">
<path d="M39.4748 2.0833L38.3998 1.0083L36.4238 2.9823L38.7498 5.3093L39.8258 4.2333L40.9008 5.3093L42.8768 3.3333L40.5548 1.0083L39.4748 2.0833Z" fill="white"/>
<path d="M25.3143 26.3641L23.3383 28.3401L22.2633 27.2641L21.1883 28.3401L18.8613 26.0131L20.8373 24.0391L21.9123 25.1141L22.9883 24.0391L25.3143 26.3641Z" fill="white"/>
<path d="M33.7906 11.0802H39.5086V17.9102H33.7906V11.0802ZM34.6756 7.88721L30.4086 12.1442V17.9122H23.7776V12.1442H21.8776L20.4086 13.6122V17.9122H13.7756V11.0802H11.8756L10.4086 12.5492V17.9162H5.17459L1.30859 21.7802V22.2942L2.50059 21.1072H38.6286L42.8766 16.8602V7.88921L34.6756 7.88721Z" fill="white"/>
<path d="M39.2191 30.833H30.4102V44.819H39.2191L42.8772 41.161V34.491L39.2191 30.833ZM40.0992 42.674H33.1992V32.983H40.0992V42.674Z" fill="#D9D8D7"/>
<path d="M28.8971 30.8321L23.6401 36.0911L23.2181 36.5131H23.1881V44.8131H22.4731L21.0011 43.3471V36.5121H20.9701L15.2891 30.8301H18.3811L22.0941 34.5421L25.8071 30.8301L28.8971 30.8321Z" fill="#D9D8D7"/>
<path d="M4.08659 32.982H10.9956V42.671H4.08659V32.982ZM1.30859 30.832V41.159L4.96659 44.817H17.2026L18.1626 45.772V45.359L15.6466 42.843H13.7746V34.491L10.1166 30.832H1.30859Z" fill="#D9D8D7"/>
<path d="M73.2916 16.5903H78.1466V21.4503H73.2916V16.5903ZM73.2916 11.7373L68.4436 16.5903V17.8493V26.2933H78.1436V39.9663H50.7266L55.5766 44.8193H78.1416H82.9896V11.7373H73.2916Z" fill="white"/>
<path d="M65.2785 11.7373L60.4285 16.5903H50.7285L55.5785 11.7373H65.2785Z" fill="white"/>
<path d="M77.879 3.78109L76.262 2.16409L73.291 5.13409L76.791 8.63409L78.408 7.01609L80.025 8.63409L82.996 5.66309L79.496 2.16309L77.879 3.78109Z" fill="#D9D8D7"/>
<path d="M55.5766 16.5898H50.7266V39.9658H55.5766V16.5898Z" fill="#D9D8D7"/>
<path d="M66.3107 1.0083L60.4297 6.8853V11.7373H65.2787V2.8203L67.0947 1.0083H66.3107Z" fill="#D9D8D7"/>
<mask id="mask0_318_199" style="mask-type:luminance" maskUnits="userSpaceOnUse" x="0" y="0" width="80" height="46">
<path d="M79.9844 0.934082H0.984375V45.9341H79.9844V0.934082Z" fill="white"/>
</mask>
<g mask="url(#mask0_318_199)">
<path d="M49.8348 5.31017C49.5473 5.31395 49.2621 5.25865 48.9969 5.1477C48.7316 5.03675 48.492 4.87252 48.2928 4.66517C48.0853 4.46608 47.9208 4.22648 47.8097 3.96123C47.6986 3.69598 47.6431 3.41073 47.6468 3.12317C47.6419 2.83494 47.6961 2.54876 47.8062 2.28233C47.9163 2.0159 48.0799 1.77488 48.2868 1.57417C48.4903 1.37062 48.732 1.20915 48.9979 1.09899C49.2639 0.988829 49.5489 0.932129 49.8368 0.932129C50.1247 0.932129 50.4097 0.988829 50.6756 1.09899C50.9416 1.20915 51.1832 1.37062 51.3868 1.57417C51.5936 1.77477 51.7571 2.01563 51.8672 2.28187C51.9772 2.54812 52.0316 2.83411 52.0268 3.12217C52.0316 3.41024 51.9772 3.69622 51.8672 3.96247C51.7571 4.22872 51.5936 4.46958 51.3868 4.67017C51.1862 4.87697 50.9453 5.04046 50.6791 5.15053C50.4128 5.26061 50.1269 5.31494 49.8388 5.31017M48.4108 4.55017C48.5975 4.73893 48.8198 4.88878 49.0649 4.99105C49.3099 5.09332 49.5728 5.14597 49.8383 5.14597C50.1038 5.14597 50.3667 5.09332 50.6117 4.99105C50.8567 4.88878 51.0791 4.73893 51.2658 4.55017C51.4581 4.36583 51.6106 4.14399 51.7138 3.89837C51.817 3.65275 51.8688 3.38858 51.8658 3.12217C51.8687 2.85578 51.8169 2.59162 51.7137 2.34601C51.6105 2.1004 51.4581 1.87855 51.2658 1.69417C51.0791 1.50542 50.8567 1.35557 50.6117 1.2533C50.3667 1.15103 50.1038 1.09837 49.8383 1.09837C49.5728 1.09837 49.3099 1.15103 49.0649 1.2533C48.8198 1.35557 48.5975 1.50542 48.4108 1.69417C48.2185 1.87855 48.066 2.1004 47.9628 2.34601C47.8596 2.59162 47.8079 2.85578 47.8108 3.12217C47.8078 3.38858 47.8596 3.65275 47.9628 3.89837C48.066 4.14399 48.2185 4.36583 48.4108 4.55017ZM50.4728 4.42417H50.9978L50.2568 3.35217C50.4317 3.33179 50.5916 3.24357 50.7021 3.10649C50.8127 2.96941 50.865 2.79442 50.8478 2.61917C50.8478 2.08584 50.5305 1.81917 49.8958 1.81917H48.8958V4.41917H49.3768V3.41717H49.7708L50.4728 4.42417ZM49.3788 3.02417V2.21417H49.8598C50.1931 2.21417 50.3598 2.34751 50.3598 2.61417C50.3598 2.89884 50.1931 3.03217 49.8598 3.01417L49.3788 3.02417Z" fill="white"/>
</g>
</svg>
