<svg width="52" height="32" viewBox="0 0 52 32" fill="none" xmlns="http://www.w3.org/2000/svg">
<path d="M45.5391 0L41.6234 3.91574V9.32544H47.8397V26.9662H31.0236V9.32544H33.47L36.5791 6.21632V1.16259L37.7408 0H37.2362L33.4691 3.76521V6.21632H31.0227L27.9136 9.32544V26.9662L31.0227 30.0753H50.9479V0H45.5382H45.5391ZM44.7325 2.93396H47.8416V6.22201H44.7325V2.93396Z" fill="#713E80"/>
<path d="M29.3025 2.77775C28.9228 2.77775 28.5962 2.64142 28.3235 2.36781C28.0499 2.09515 27.9136 1.76851 27.9136 1.38887C27.9136 1.00922 28.049 0.676915 28.3197 0.406146C28.5905 0.135377 28.9181 0 29.3025 0C29.6868 0 30.0144 0.135377 30.2852 0.406146C30.5559 0.676915 30.6913 1.00449 30.6913 1.38887C30.6913 1.77325 30.5559 2.10082 30.2852 2.37159C30.0144 2.64236 29.6868 2.77775 29.3025 2.77775ZM28.3964 2.29491C28.6482 2.54674 28.9503 2.67266 29.3025 2.67266C29.6546 2.67266 29.9557 2.54674 30.2085 2.29491C30.4603 2.04308 30.5872 1.74011 30.5872 1.38887C30.5872 1.03763 30.4613 0.734672 30.2085 0.482838C29.9557 0.231004 29.6537 0.105087 29.3025 0.105087C28.9512 0.105087 28.6482 0.231004 28.3964 0.482838C28.1436 0.735619 28.0177 1.03763 28.0177 1.38887C28.0177 1.74011 28.1436 2.04308 28.3964 2.29491ZM29.7058 2.21538H30.039L29.5742 1.53467C29.8241 1.48355 29.9491 1.32922 29.9491 1.06982C29.9491 0.731827 29.7474 0.563309 29.3451 0.563309H28.7136V2.21538H29.0194V1.57632H29.2693L29.7067 2.21538H29.7058ZM29.0109 1.32639V0.812304H29.3167C29.5297 0.812304 29.6357 0.898455 29.6357 1.06982C29.6357 1.25064 29.5297 1.33586 29.3167 1.32639H29.0109Z" fill="#713E80"/>
<path d="M8.99956 13.3784V15.5209C8.99956 15.6099 8.93992 15.6846 8.85092 15.6846C7.98844 15.6846 7.22915 15.3722 6.63459 14.7919C6.03909 15.3864 5.10276 15.6846 3.8379 15.6846H0.505361L0.148438 13.2297H3.86725C4.70039 13.2297 5.10181 12.7687 5.10181 12.0842V11.608C5.08666 10.8193 4.43246 10.2844 3.48003 10.2844H2.46891V7.9043H4.01589C6.03909 7.9043 7.43743 9.1237 7.43743 11.4006V12.5613C7.43743 12.6655 7.43743 12.7696 7.42228 12.8738C7.8237 13.0972 8.27057 13.2307 8.84998 13.2307C8.93897 13.2307 8.99861 13.2903 8.99861 13.3793L8.99956 13.3784Z" fill="#713E80"/>
<path d="M14.7571 13.378V15.5204C14.7571 15.6094 14.6974 15.6842 14.6084 15.6842C13.8198 15.6842 12.9725 15.2828 12.2728 14.569C11.5883 15.3131 10.4134 15.6842 8.85128 15.6842C8.76228 15.6842 8.70264 15.6094 8.70264 15.5204L8.73199 13.378C8.73199 13.289 8.79163 13.2293 8.88063 13.2293C10.0413 13.2293 10.6662 12.7834 10.6662 11.7117L10.651 9.92613L12.9715 9.6582V12.7522C13.4629 13.0646 14.0281 13.2284 14.6075 13.2284C14.6965 13.2284 14.7561 13.288 14.7561 13.377L14.7571 13.378ZM12.7935 16.4426L14.3557 17.9744L12.8238 19.5062L11.7379 18.4497L10.6813 19.5062L9.1192 17.9744L10.651 16.4426L11.737 17.4991L12.7935 16.4426Z" fill="#713E80"/>
<path d="M22.2843 11.623C22.2843 14.0921 20.6483 15.6845 18.0297 15.6845H14.6081C14.504 15.6845 14.4595 15.64 14.4595 15.5208V13.3783C14.4595 13.2893 14.5191 13.2296 14.6081 13.2296H15.5302C15.2472 12.6341 15.0843 12.0689 15.0843 11.4895C15.0843 9.46632 16.6162 8.02348 18.61 8.02348C20.7373 8.02348 22.2843 9.54111 22.2843 11.6239V11.623ZM17.3754 7.04171L15.8285 5.49472L17.3603 3.96289L18.5352 5.10845L19.6959 3.96289L21.2429 5.49472L19.7253 7.04171L18.5352 5.881L17.3745 7.04171H17.3754ZM19.9639 11.6079C19.9639 10.8192 19.3683 10.2389 18.5807 10.2389C17.793 10.2389 17.153 10.8789 17.153 11.6968C17.153 12.1731 17.3016 12.6786 17.5695 13.2287H18.0457C19.251 13.2287 19.9648 12.5887 19.9648 11.6069L19.9639 11.6079Z" fill="#713E80"/>
<path d="M5.52997 31.9931L4.34654 30.1744C4.26323 30.1905 4.17234 30.2038 4.07293 30.2114C3.97352 30.2199 3.86559 30.2237 3.74914 30.2237C2.83553 30.2237 2.10559 30.0703 1.55743 29.7626C1.00926 29.4559 0.612574 28.9806 0.368314 28.3368C0.123107 27.694 0.000976562 26.8731 0.000976562 25.8771C0.000976562 24.8812 0.123107 24.0461 0.368314 23.3986C0.613521 22.751 1.00926 22.2701 1.55743 21.9538C2.10559 21.6386 2.83553 21.4805 3.74914 21.4805C4.66275 21.4805 5.40784 21.6386 5.95979 21.9538C6.51175 22.2691 6.91033 22.751 7.15553 23.3986C7.40074 24.0461 7.52287 24.8727 7.52287 25.8771C7.52287 26.7908 7.42536 27.5519 7.23033 28.1626C7.0353 28.7732 6.70962 29.24 6.25234 29.5638L7.27388 31.1325L5.52997 31.9922V31.9931ZM3.74914 28.4069C4.18086 28.4069 4.50654 28.3112 4.72713 28.12C4.94678 27.9288 5.09447 27.6447 5.16926 27.267C5.24405 26.8892 5.28098 26.4263 5.28098 25.8781C5.28098 25.3299 5.24405 24.8651 5.16926 24.4835C5.09447 24.102 4.94962 23.8113 4.73376 23.6116C4.5179 23.4128 4.19033 23.3124 3.75009 23.3124C3.30985 23.3124 3.005 23.4118 2.78441 23.6116C2.56476 23.8104 2.41234 24.0992 2.32997 24.4769C2.24666 24.8547 2.205 25.3214 2.205 25.8781C2.205 26.4348 2.24476 26.8873 2.32334 27.2603C2.40192 27.6343 2.5534 27.9183 2.77778 28.1134C3.00216 28.3084 3.32595 28.4059 3.74914 28.4059V28.4069Z" fill="#713E80"/>
<path d="M10.013 30.0753V27.111L7.50977 21.6436H9.88894L11.1339 24.6447L12.4167 21.6436H14.7827L12.2293 27.111V30.0753H10.012H10.013Z" fill="#713E80"/>
<path d="M15.3061 30.0753V21.6436H18.669C19.3582 21.6436 19.9433 21.7307 20.4252 21.9049C20.9061 22.0791 21.2952 22.3385 21.5897 22.6831C21.8841 23.0277 22.0981 23.4556 22.2306 23.9659C22.3632 24.4762 22.4294 25.0641 22.4294 25.7278C22.4294 26.3915 22.367 27.0021 22.2429 27.5333C22.118 28.0644 21.9144 28.5217 21.6323 28.9032C21.3501 29.2847 20.9724 29.5754 20.499 29.7752C20.0256 29.974 19.4443 30.0743 18.7551 30.0743H15.3052L15.3061 30.0753ZM17.5225 28.2452H18.5932C18.9416 28.2452 19.2219 28.1827 19.4339 28.0587C19.646 27.9337 19.8051 27.7595 19.913 27.5352C20.0209 27.3108 20.091 27.0457 20.1251 26.738C20.1582 26.4312 20.1752 26.0952 20.1752 25.7297C20.1752 25.3643 20.1544 25.0679 20.1127 24.7896C20.0711 24.5112 19.9963 24.2727 19.8884 24.0738C19.7804 23.875 19.6223 23.7254 19.415 23.6251C19.2077 23.5257 18.9331 23.4755 18.5932 23.4755H17.5225V28.2452Z" fill="#713E80"/>
</svg>
