<svg width="52" height="32" viewBox="0 0 52 32" fill="none" xmlns="http://www.w3.org/2000/svg">
<path d="M46.5103 0L42.5946 3.91574V9.32544H48.8109V26.9662H31.9948V9.32544H34.4412L37.5503 6.21632V1.16259L38.712 0H38.2074L34.4403 3.76521V6.21632H31.9939L28.8848 9.32544V26.9662L31.9939 30.0753H51.9191V0H46.5094H46.5103ZM45.7037 2.93396H48.8128V6.22201H45.7037V2.93396Z" fill="white"/>
<path d="M30.2736 2.77775C29.894 2.77775 29.5674 2.64142 29.2947 2.36781C29.0211 2.09515 28.8848 1.76851 28.8848 1.38887C28.8848 1.00922 29.0202 0.676915 29.2909 0.406146C29.5617 0.135377 29.8893 0 30.2736 0C30.658 0 30.9856 0.135377 31.2564 0.406146C31.5271 0.676915 31.6625 1.00449 31.6625 1.38887C31.6625 1.77325 31.5271 2.10082 31.2564 2.37159C30.9856 2.64236 30.658 2.77775 30.2736 2.77775ZM29.3676 2.29491C29.6194 2.54674 29.9215 2.67266 30.2736 2.67266C30.6258 2.67266 30.9269 2.54674 31.1797 2.29491C31.4315 2.04308 31.5584 1.74011 31.5584 1.38887C31.5584 1.03763 31.4325 0.734672 31.1797 0.482838C30.9269 0.231004 30.6249 0.105087 30.2736 0.105087C29.9224 0.105087 29.6194 0.231004 29.3676 0.482838C29.1148 0.735619 28.9889 1.03763 28.9889 1.38887C28.9889 1.74011 29.1148 2.04308 29.3676 2.29491ZM30.677 2.21538H31.0102L30.5454 1.53467C30.7953 1.48355 30.9203 1.32922 30.9203 1.06982C30.9203 0.731827 30.7186 0.563309 30.3162 0.563309H29.6848V2.21538H29.9906V1.57632H30.2405L30.6779 2.21538H30.677ZM29.982 1.32639V0.812304H30.2878C30.5009 0.812304 30.6069 0.898455 30.6069 1.06982C30.6069 1.25064 30.5009 1.33586 30.2878 1.32639H29.982Z" fill="white"/>
<path d="M9.97026 13.3784V15.5209C9.97026 15.6099 9.91062 15.6846 9.82162 15.6846C8.95914 15.6846 8.19985 15.3722 7.60529 14.7919C7.00979 15.3864 6.07346 15.6846 4.80861 15.6846H1.47606L1.11914 13.2297H4.83796C5.67109 13.2297 6.07251 12.7687 6.07251 12.0842V11.608C6.05736 10.8193 5.40316 10.2844 4.45074 10.2844H3.43961V7.9043H4.9866C7.00979 7.9043 8.40813 9.1237 8.40813 11.4006V12.5613C8.40813 12.6655 8.40813 12.7696 8.39299 12.8738C8.79441 13.0972 9.24127 13.2307 9.82068 13.2307C9.90967 13.2307 9.96932 13.2903 9.96932 13.3793L9.97026 13.3784Z" fill="white"/>
<path d="M15.7273 13.378V15.5204C15.7273 15.6094 15.6676 15.6842 15.5787 15.6842C14.79 15.6842 13.9427 15.2828 13.243 14.569C12.5585 15.3131 11.3836 15.6842 9.82149 15.6842C9.7325 15.6842 9.67285 15.6094 9.67285 15.5204L9.7022 13.378C9.7022 13.289 9.76185 13.2293 9.85084 13.2293C11.0116 13.2293 11.6364 12.7834 11.6364 11.7117L11.6213 9.92613L13.9417 9.6582V12.7522C14.4331 13.0646 14.9983 13.2284 15.5777 13.2284C15.6667 13.2284 15.7263 13.288 15.7263 13.377L15.7273 13.378ZM13.7637 16.4426L15.3259 17.9744L13.794 19.5062L12.7081 18.4497L11.6515 19.5062L10.0894 17.9744L11.6213 16.4426L12.7072 17.4991L13.7637 16.4426Z" fill="white"/>
<path d="M23.2545 11.623C23.2545 14.0921 21.6186 15.6845 18.9999 15.6845H15.5783C15.4742 15.6845 15.4297 15.64 15.4297 15.5208V13.3783C15.4297 13.2893 15.4893 13.2296 15.5783 13.2296H16.5005C16.2174 12.6341 16.0545 12.0689 16.0545 11.4895C16.0545 9.46632 17.5864 8.02348 19.5802 8.02348C21.7076 8.02348 23.2545 9.54111 23.2545 11.6239V11.623ZM18.3457 7.04171L16.7987 5.49472L18.3305 3.96289L19.5054 5.10845L20.6661 3.96289L22.2131 5.49472L20.6955 7.04171L19.5054 5.881L18.3447 7.04171H18.3457ZM20.9341 11.6079C20.9341 10.8192 20.3386 10.2389 19.5509 10.2389C18.7632 10.2389 18.1232 10.8789 18.1232 11.6968C18.1232 12.1731 18.2718 12.6786 18.5397 13.2287H19.016C20.2212 13.2287 20.935 12.5887 20.935 11.6069L20.9341 11.6079Z" fill="white"/>
<path d="M6.50067 31.9931L5.31724 30.1744C5.23393 30.1905 5.14304 30.2038 5.04363 30.2114C4.94422 30.2199 4.8363 30.2237 4.71985 30.2237C3.80624 30.2237 3.0763 30.0703 2.52813 29.7626C1.97996 29.4559 1.58328 28.9806 1.33902 28.3368C1.09381 27.694 0.97168 26.8731 0.97168 25.8771C0.97168 24.8812 1.09381 24.0461 1.33902 23.3986C1.58422 22.751 1.97996 22.2701 2.52813 21.9538C3.0763 21.6386 3.80624 21.4805 4.71985 21.4805C5.63345 21.4805 6.37854 21.6386 6.9305 21.9538C7.48245 22.2691 7.88103 22.751 8.12624 23.3986C8.37144 24.0461 8.49357 24.8727 8.49357 25.8771C8.49357 26.7908 8.39606 27.5519 8.20103 28.1626C8.006 28.7732 7.68032 29.24 7.22304 29.5638L8.24458 31.1325L6.50067 31.9922V31.9931ZM4.71985 28.4069C5.15156 28.4069 5.47724 28.3112 5.69783 28.12C5.91748 27.9288 6.06517 27.6447 6.13996 27.267C6.21476 26.8892 6.25168 26.4263 6.25168 25.8781C6.25168 25.3299 6.21476 24.8651 6.13996 24.4835C6.06517 24.102 5.92032 23.8113 5.70446 23.6116C5.4886 23.4128 5.16103 23.3124 4.72079 23.3124C4.28056 23.3124 3.9757 23.4118 3.75511 23.6116C3.53547 23.8104 3.38304 24.0992 3.30067 24.4769C3.21736 24.8547 3.1757 25.3214 3.1757 25.8781C3.1757 26.4348 3.21547 26.8873 3.29405 27.2603C3.37263 27.6343 3.52411 27.9183 3.74848 28.1134C3.97286 28.3084 4.29665 28.4059 4.71985 28.4059V28.4069Z" fill="white"/>
<path d="M10.9837 30.0743V27.11L8.48047 21.6426H10.8596L12.1046 24.6438L13.3875 21.6426H15.7534L13.2 27.11V30.0743H10.9827H10.9837Z" fill="white"/>
<path d="M16.2763 30.0743V21.6426H19.6392C20.3284 21.6426 20.9135 21.7297 21.3954 21.9039C21.8763 22.0781 22.2654 22.3375 22.5599 22.6821C22.8543 23.0267 23.0683 23.4547 23.2008 23.9649C23.3334 24.4752 23.3997 25.0632 23.3997 25.7268C23.3997 26.3905 23.3372 27.0012 23.2131 27.5323C23.0882 28.0634 22.8846 28.5207 22.6025 28.9022C22.3204 29.2838 21.9426 29.5744 21.4692 29.7742C20.9959 29.973 20.4146 30.0733 19.7253 30.0733H16.2754L16.2763 30.0743ZM18.4927 28.2442H19.5634C19.9118 28.2442 20.1921 28.1818 20.4041 28.0577C20.6162 27.9328 20.7753 27.7586 20.8832 27.5342C20.9911 27.3098 21.0612 27.0447 21.0953 26.737C21.1284 26.4303 21.1454 26.0942 21.1454 25.7287C21.1454 25.3633 21.1246 25.067 21.083 24.7886C21.0413 24.5103 20.9665 24.2717 20.8586 24.0729C20.7507 23.8741 20.5926 23.7245 20.3852 23.6241C20.1779 23.5247 19.9033 23.4745 19.5634 23.4745H18.4927V28.2442Z" fill="white"/>
</svg>
