<svg width="93" height="53" viewBox="0 0 93 53" fill="none" xmlns="http://www.w3.org/2000/svg">
<g clip-path="url(#clip0_4350_8245)">
<path d="M45.109 1.35789L43.835 0.0878906L41.5 2.42089L44.248 5.17089L45.52 3.89889L46.79 5.17089L49.13 2.83489L46.381 0.0878906L45.109 1.35789Z" fill="#141E1E"/>
<path d="M28.3672 30.0536L26.0322 32.3886L24.7622 31.1186L23.4922 32.3906L20.7422 29.6406L23.0772 27.3076L24.3472 28.5776L25.6192 27.3076L28.3672 30.0536Z" fill="#141E1E"/>
<path d="M38.388 11.9927H45.141V20.0647H38.388V11.9927ZM39.434 8.21973L34.389 13.2487L34.394 20.0647H26.555V13.2487H24.311L22.572 14.9827V20.0647H14.734V11.9927H12.49L10.751 13.7267V20.0707L4.565 20.0657L0 24.6337V25.2417L1.409 23.8417H44.109L49.13 18.8227V8.22272L39.434 8.21973Z" fill="#141E1E"/>
<path d="M44.8006 35.3359H34.3906V51.8649H44.8006L49.1236 47.5419V39.6589L44.8006 35.3359ZM45.8406 49.3299H37.6856V37.8779H45.8406V49.3299Z" fill="#141E1E"/>
<path d="M32.6064 35.335L26.3914 41.55L25.8914 42.05L25.8564 42.055V51.865H25.0114L23.2744 50.132V42.055L23.2374 42.05L16.5234 35.335H20.1744L24.5624 39.721L28.9504 35.335H32.6064Z" fill="#141E1E"/>
<path d="M3.283 37.875H11.448V49.326H3.283V37.875ZM0 35.334V47.534L4.323 51.857H18.781L19.915 52.985V52.504L16.941 49.53H14.733V39.66L10.41 35.337L0 35.334Z" fill="#141E1E"/>
<path d="M81.5236 18.5017H87.2616V24.2407H81.5236V18.5017ZM81.5236 12.7667L75.7936 18.5017V19.9897H75.7846V29.9697H87.2516V46.1287H54.8516L60.5836 51.8637H87.2516H87.2576H92.9876V12.7637L81.5236 12.7667Z" fill="#141E1E"/>
<path d="M72.0584 12.7666L66.3264 18.5016H54.8594L60.5914 12.7666H72.0584Z" fill="#282F2F"/>
<path d="M86.9474 3.36508L85.0344 1.45508L81.5234 4.96508L85.6574 9.10008L87.5684 7.18708L89.4794 9.10008L92.9904 5.58808L88.8574 1.45508L86.9474 3.36508Z" fill="#141E1E"/>
<path d="M60.5914 18.502H54.8594V46.129H60.5914V18.502Z" fill="#141E1E"/>
<path d="M73.2791 0.0878906L66.3281 7.03389V12.7679H72.0591V2.23389L74.2061 0.0878906H73.2791Z" fill="#141E1E"/>
<path d="M57.352 5.17071C57.0121 5.17492 56.6749 5.10938 56.3614 4.97814C56.0478 4.84691 55.7645 4.65277 55.529 4.40771C55.284 4.17208 55.0899 3.88876 54.9587 3.57522C54.8275 3.26168 54.7619 2.92458 54.766 2.58471C54.7603 2.24437 54.8245 1.90649 54.9545 1.59191C55.0846 1.27734 55.2777 0.992748 55.522 0.755712C56.0075 0.271158 56.6655 -0.000976562 57.3515 -0.000976562C58.0375 -0.000976563 58.6954 0.271158 59.181 0.755712C59.4253 0.992748 59.6184 1.27734 59.7484 1.59191C59.8784 1.90649 59.9426 2.24437 59.937 2.58471C59.9426 2.92505 59.8784 3.26294 59.7484 3.57751C59.6184 3.89209 59.4253 4.17668 59.181 4.41371C58.9439 4.65796 58.6593 4.85104 58.3447 4.98106C58.0302 5.11109 57.6923 5.17629 57.352 5.17071ZM55.665 4.26971C55.8857 4.49294 56.1485 4.67016 56.4381 4.79111C56.7278 4.91206 57.0386 4.97434 57.3525 4.97434C57.6664 4.97434 57.9772 4.91206 58.2668 4.79111C58.5565 4.67016 58.8193 4.49294 59.04 4.26971C59.2657 4.05122 59.4442 3.78882 59.5646 3.49868C59.685 3.20853 59.7447 2.89681 59.74 2.58271C59.7447 2.26862 59.685 1.95689 59.5646 1.66675C59.4442 1.37661 59.2657 1.1142 59.04 0.895712C58.8193 0.672488 58.5565 0.495268 58.2668 0.374317C57.9772 0.253366 57.6664 0.191087 57.3525 0.191087C57.0386 0.191087 56.7278 0.253366 56.4381 0.374317C56.1485 0.495268 55.8857 0.672488 55.665 0.895712C55.4393 1.1142 55.2607 1.37661 55.1403 1.66675C55.0199 1.95689 54.9603 2.26862 54.965 2.58271C54.9603 2.89681 55.0199 3.20853 55.1403 3.49868C55.2607 3.78882 55.4393 4.05122 55.665 4.26971ZM58.102 4.12071H58.723L57.857 2.85371C58.0639 2.83004 58.2533 2.72599 58.3842 2.56399C58.5152 2.40199 58.5772 2.19503 58.557 1.98771C58.557 1.35838 58.182 1.04371 57.432 1.04371H56.256V4.12371H56.825V2.93471H57.29L58.102 4.12071ZM56.809 2.46571V1.51271H57.378C57.7746 1.51271 57.973 1.67205 57.973 1.99071C57.973 2.32405 57.7746 2.48338 57.378 2.46871L56.809 2.46571Z" fill="#141E1E"/>
</g>
<defs>
<clipPath id="clip0_4350_8245">
<rect width="92.993" height="52.99" fill="white"/>
</clipPath>
</defs>
</svg>
