<svg width="52" height="32" viewBox="0 0 52 32" fill="none" xmlns="http://www.w3.org/2000/svg">
<path d="M46.5097 0L42.594 3.91574V9.32544H48.8103V26.9662H31.9942V9.32544H34.4406L37.5497 6.21632V1.16259L38.7114 0H38.2068L34.4397 3.76521V6.21632H31.9933L28.8842 9.32544V26.9662L31.9933 30.0753H51.9185V0H46.5088H46.5097ZM45.7031 2.93396H48.8122V6.22201H45.7031V2.93396Z" fill="white"/>
<path d="M30.273 2.77775C29.8934 2.77775 29.5668 2.64142 29.2941 2.36781C29.0205 2.09515 28.8842 1.76851 28.8842 1.38887C28.8842 1.00922 29.0195 0.676915 29.2903 0.406146C29.5611 0.135377 29.8887 0 30.273 0C30.6574 0 30.985 0.135377 31.2558 0.406146C31.5265 0.676915 31.6619 1.00449 31.6619 1.38887C31.6619 1.77325 31.5265 2.10082 31.2558 2.37159C30.985 2.64236 30.6574 2.77775 30.273 2.77775ZM29.367 2.29491C29.6188 2.54674 29.9208 2.67266 30.273 2.67266C30.6252 2.67266 30.9263 2.54674 31.1791 2.29491C31.4309 2.04308 31.5578 1.74011 31.5578 1.38887C31.5578 1.03763 31.4318 0.734672 31.1791 0.482838C30.9263 0.231004 30.6243 0.105087 30.273 0.105087C29.9218 0.105087 29.6188 0.231004 29.367 0.482838C29.1142 0.735619 28.9883 1.03763 28.9883 1.38887C28.9883 1.74011 29.1142 2.04308 29.367 2.29491ZM30.6763 2.21538H31.0096L30.5447 1.53467C30.7947 1.48355 30.9197 1.32922 30.9197 1.06982C30.9197 0.731827 30.718 0.563309 30.3156 0.563309H29.6842V2.21538H29.99V1.57632H30.2399L30.6773 2.21538H30.6763ZM29.9814 1.32639V0.812304H30.2872C30.5003 0.812304 30.6063 0.898455 30.6063 1.06982C30.6063 1.25064 30.5003 1.33586 30.2872 1.32639H29.9814Z" fill="white"/>
<path d="M9.97026 13.3784V15.5209C9.97026 15.6099 9.91062 15.6846 9.82162 15.6846C8.95914 15.6846 8.19985 15.3722 7.60529 14.7919C7.00979 15.3864 6.07346 15.6846 4.80861 15.6846H1.47606L1.11914 13.2297H4.83796C5.67109 13.2297 6.07251 12.7687 6.07251 12.0842V11.608C6.05736 10.8193 5.40316 10.2844 4.45074 10.2844H3.43961V7.9043H4.9866C7.00979 7.9043 8.40813 9.1237 8.40813 11.4006V12.5613C8.40813 12.6655 8.40813 12.7696 8.39299 12.8738C8.79441 13.0972 9.24127 13.2307 9.82068 13.2307C9.90967 13.2307 9.96932 13.2903 9.96932 13.3793L9.97026 13.3784Z" fill="white"/>
<path d="M15.7275 13.3784V15.5209C15.7275 15.6099 15.6678 15.6847 15.5788 15.6847C14.7902 15.6847 13.9429 15.2833 13.2432 14.5695C12.5587 15.3136 11.3838 15.6847 9.82167 15.6847C9.73268 15.6847 9.67303 15.6099 9.67303 15.5209L9.70238 13.3784C9.70238 13.2895 9.76203 13.2298 9.85102 13.2298C11.0117 13.2298 11.6366 12.7839 11.6366 11.7122L11.6214 9.92662L13.9419 9.65869V12.7526C14.4333 13.0651 14.9985 13.2289 15.5779 13.2289C15.6669 13.2289 15.7265 13.2885 15.7265 13.3775L15.7275 13.3784ZM13.7639 16.4431L15.3261 17.9749L13.7942 19.5067L12.7083 18.4502L11.6517 19.5067L10.0896 17.9749L11.6214 16.4431L12.7074 17.4996L13.7639 16.4431Z" fill="white"/>
<path d="M23.2549 11.623C23.2549 14.0921 21.6189 15.6845 19.0002 15.6845H15.5787C15.4746 15.6845 15.4301 15.64 15.4301 15.5208V13.3783C15.4301 13.2893 15.4897 13.2296 15.5787 13.2296H16.5008C16.2177 12.6341 16.0549 12.0689 16.0549 11.4895C16.0549 9.46632 17.5867 8.02348 19.5806 8.02348C21.7079 8.02348 23.2549 9.54111 23.2549 11.6239V11.623ZM18.346 7.04171L16.799 5.49472L18.3309 3.96289L19.5058 5.10845L20.6665 3.96289L22.2135 5.49472L20.6959 7.04171L19.5058 5.881L18.3451 7.04171H18.346ZM20.9344 11.6079C20.9344 10.8192 20.3389 10.2389 19.5512 10.2389C18.7635 10.2389 18.1235 10.8789 18.1235 11.6968C18.1235 12.1731 18.2722 12.6786 18.5401 13.2287H19.0163C20.2215 13.2287 20.9354 12.5887 20.9354 11.6069L20.9344 11.6079Z" fill="white"/>
<path d="M6.50031 31.9931L5.31688 30.1744C5.23356 30.1905 5.14267 30.2038 5.04327 30.2114C4.94386 30.2199 4.83593 30.2237 4.71948 30.2237C3.80587 30.2237 3.07593 30.0703 2.52776 29.7626C1.9796 29.4559 1.58291 28.9806 1.33865 28.3368C1.09344 27.694 0.971313 26.8731 0.971313 25.8771C0.971313 24.8812 1.09344 24.0461 1.33865 23.3986C1.58386 22.751 1.9796 22.2701 2.52776 21.9538C3.07593 21.6386 3.80587 21.4805 4.71948 21.4805C5.63309 21.4805 6.37818 21.6386 6.93013 21.9538C7.48208 22.2691 7.88066 22.751 8.12587 23.3986C8.37108 24.0461 8.49321 24.8727 8.49321 25.8771C8.49321 26.7908 8.39569 27.5519 8.20066 28.1626C8.00563 28.7732 7.67995 29.24 7.22267 29.5638L8.24421 31.1325L6.50031 31.9922V31.9931ZM4.71948 28.4069C5.1512 28.4069 5.47688 28.3112 5.69747 28.12C5.91711 27.9288 6.0648 27.6447 6.1396 27.267C6.21439 26.8892 6.25131 26.4263 6.25131 25.8781C6.25131 25.3299 6.21439 24.8651 6.1396 24.4835C6.0648 24.102 5.91995 23.8113 5.70409 23.6116C5.48824 23.4128 5.16066 23.3124 4.72043 23.3124C4.28019 23.3124 3.97534 23.4118 3.75475 23.6116C3.5351 23.8104 3.38267 24.0992 3.30031 24.4769C3.21699 24.8547 3.17534 25.3214 3.17534 25.8781C3.17534 26.4348 3.2151 26.8873 3.29368 27.2603C3.37226 27.6343 3.52374 27.9183 3.74812 28.1134C3.9725 28.3084 4.29628 28.4059 4.71948 28.4059V28.4069Z" fill="white"/>
<path d="M10.9831 30.0753V27.111L8.47992 21.6436H10.8591L12.1041 24.6447L13.3869 21.6436H15.7528L13.1994 27.111V30.0753H10.9822H10.9831Z" fill="white"/>
<path d="M16.2763 30.0753V21.6436H19.6392C20.3284 21.6436 20.9135 21.7307 21.3954 21.9049C21.8763 22.0791 22.2654 22.3385 22.5599 22.6831C22.8543 23.0277 23.0683 23.4556 23.2008 23.9659C23.3334 24.4762 23.3997 25.0641 23.3997 25.7278C23.3997 26.3915 23.3372 27.0021 23.2131 27.5333C23.0882 28.0644 22.8846 28.5217 22.6025 28.9032C22.3204 29.2847 21.9426 29.5754 21.4692 29.7752C20.9959 29.974 20.4146 30.0743 19.7253 30.0743H16.2754L16.2763 30.0753ZM18.4927 28.2452H19.5634C19.9118 28.2452 20.1921 28.1827 20.4041 28.0587C20.6162 27.9337 20.7753 27.7595 20.8832 27.5352C20.9911 27.3108 21.0612 27.0457 21.0953 26.738C21.1284 26.4312 21.1454 26.0952 21.1454 25.7297C21.1454 25.3643 21.1246 25.0679 21.083 24.7896C21.0413 24.5112 20.9665 24.2727 20.8586 24.0738C20.7507 23.875 20.5926 23.7254 20.3852 23.6251C20.1779 23.5257 19.9033 23.4755 19.5634 23.4755H18.4927V28.2452Z" fill="white"/>
</svg>
