<svg width="20" height="20" viewBox="0 0 20 20" fill="none" xmlns="http://www.w3.org/2000/svg">
<path d="M9.00001 5.00002C8.99982 4.42809 8.83616 3.86813 8.5283 3.38613C8.22044 2.90413 7.78122 2.52017 7.26239 2.27951C6.74356 2.03885 6.16675 1.9515 5.59993 2.02777C5.03311 2.10405 4.49991 2.34075 4.06315 2.71C3.62639 3.07925 3.30428 3.56565 3.13478 4.11188C2.96528 4.65812 2.95546 5.24142 3.10646 5.79305C3.25746 6.34469 3.563 6.84166 3.98707 7.22541C4.41115 7.60916 4.93608 7.8637 5.50001 7.95902V12.041C4.75831 12.1664 4.09077 12.5658 3.62968 13.1602C3.1686 13.7545 2.94761 14.5004 3.01051 15.2499C3.07342 15.9995 3.41563 16.6981 3.96932 17.2073C4.52301 17.7165 5.24779 17.9991 6.00001 17.9991C6.75223 17.9991 7.477 17.7165 8.03069 17.2073C8.58438 16.6981 8.92659 15.9995 8.9895 15.2499C9.0524 14.5004 8.83142 13.7545 8.37033 13.1602C7.90924 12.5658 7.2417 12.1664 6.50001 12.041V11H12C12.663 11 13.2989 10.7366 13.7678 10.2678C14.2366 9.79894 14.5 9.16306 14.5 8.50002V7.95902C15.2417 7.83365 15.9092 7.43422 16.3703 6.83988C16.8314 6.24555 17.0524 5.49968 16.9895 4.7501C16.9266 4.00051 16.5844 3.30191 16.0307 2.79274C15.477 2.28357 14.7522 2.00098 14 2.00098C13.2478 2.00098 12.523 2.28357 11.9693 2.79274C11.4156 3.30191 11.0734 4.00051 11.0105 4.7501C10.9476 5.49968 11.1686 6.24555 11.6297 6.83988C12.0908 7.43422 12.7583 7.83365 13.5 7.95902V8.50002C13.5 8.89784 13.342 9.27937 13.0607 9.56068C12.7794 9.84198 12.3978 10 12 10H6.50001V7.95902C7.19921 7.84083 7.83395 7.47878 8.2916 6.9371C8.74926 6.39543 9.00023 5.70914 9.00001 5.00002ZM6.00001 7.00002C5.46957 7.00002 4.96086 6.7893 4.58579 6.41423C4.21072 6.03916 4.00001 5.53045 4.00001 5.00002C4.00001 4.46959 4.21072 3.96088 4.58579 3.5858C4.96086 3.21073 5.46957 3.00002 6.00001 3.00002C6.53044 3.00002 7.03915 3.21073 7.41422 3.5858C7.78929 3.96088 8.00001 4.46959 8.00001 5.00002C8.00001 5.53045 7.78929 6.03916 7.41422 6.41423C7.03915 6.7893 6.53044 7.00002 6.00001 7.00002ZM6.00001 17C5.46957 17 4.96086 16.7893 4.58579 16.4142C4.21072 16.0392 4.00001 15.5305 4.00001 15C4.00001 14.4696 4.21072 13.9609 4.58579 13.5858C4.96086 13.2107 5.46957 13 6.00001 13C6.53044 13 7.03915 13.2107 7.41422 13.5858C7.78929 13.9609 8.00001 14.4696 8.00001 15C8.00001 15.5305 7.78929 16.0392 7.41422 16.4142C7.03915 16.7893 6.53044 17 6.00001 17ZM16 5.00002C16 5.53045 15.7893 6.03916 15.4142 6.41423C15.0391 6.7893 14.5304 7.00002 14 7.00002C13.4696 7.00002 12.9609 6.7893 12.5858 6.41423C12.2107 6.03916 12 5.53045 12 5.00002C12 4.46959 12.2107 3.96088 12.5858 3.5858C12.9609 3.21073 13.4696 3.00002 14 3.00002C14.5304 3.00002 15.0391 3.21073 15.4142 3.5858C15.7893 3.96088 16 4.46959 16 5.00002Z" fill="black"/>
</svg>
