<svg width="128" height="116" viewBox="0 0 128 116" fill="none" xmlns="http://www.w3.org/2000/svg">
<path d="M123.87 56.3506C123.87 70.7395 117.995 83.7099 108.575 93.0323C99.3573 102.253 86.5945 107.827 72.515 107.827C58.5368 107.827 45.774 102.152 36.4552 93.0323C27.0351 83.7099 21.1602 70.7395 21.1602 56.3506C21.1602 27.8766 44.1533 4.87451 72.515 4.87451C100.877 4.87451 123.87 27.9779 123.87 56.3506Z" fill="#F1F3F9" stroke="#DBE9E9" stroke-width="2"/>
<path d="M119.223 22.4641C121.503 22.4641 123.352 20.6067 123.352 18.3253C123.352 16.0338 121.503 14.1865 119.223 14.1865C116.942 14.1865 115.094 16.0338 115.094 18.3253C115.094 20.6067 116.942 22.4641 119.223 22.4641Z" fill="#F1F3F9"/>
<path d="M125.163 6.42617C126.73 6.42617 128.002 5.14574 128.002 3.58076C128.002 2.00562 126.73 0.735352 125.163 0.735352C123.595 0.735352 122.324 2.00562 122.324 3.58076C122.324 5.14574 123.595 6.42617 125.163 6.42617Z" fill="#F1F3F9"/>
<path d="M22.452 22.4643C24.0194 22.4643 25.2907 21.1838 25.2907 19.6188C25.2907 18.0437 24.0194 16.7734 22.452 16.7734C20.8836 16.7734 19.6133 18.0437 19.6133 19.6188C19.6133 21.1838 20.8836 22.4643 22.452 22.4643Z" fill="#F1F3F9"/>
<path d="M5.16129 77.303C8.01191 77.303 10.3226 74.9849 10.3226 72.1295C10.3226 69.2642 8.01191 66.9561 5.16129 66.9561C2.31067 66.9561 0 69.2642 0 72.1295C0 74.9849 2.31067 77.303 5.16129 77.303Z" fill="#F1F3F9"/>
<path d="M118.192 26.6586V82.9273C118.192 85.2736 116.322 87.1323 114.029 87.1323H29.4813C27.1896 87.1323 25.2891 85.2431 25.2891 82.9273V26.6586C25.2891 24.3429 27.1592 22.4639 29.4813 22.4639H114.029C116.322 22.4639 118.192 24.3429 118.192 26.6586Z" fill="white" stroke="#DBE9E9" stroke-width="2" stroke-linejoin="round"/>
<path d="M118.192 27.1182V33.3284H25.2891V27.1182C25.2891 24.8345 27.1592 22.9814 29.4813 22.9814H114.029C116.322 22.9814 118.192 24.8345 118.192 27.1182Z" fill="#DBE9E9"/>
<path d="M30.9664 29.7066C31.8216 29.7066 32.5147 29.0179 32.5147 28.1596C32.5147 27.3012 31.8216 26.6025 30.9664 26.6025C30.1111 26.6025 29.418 27.3012 29.418 28.1596C29.418 29.0179 30.1111 29.7066 30.9664 29.7066Z" fill="#B5D2D2"/>
<path d="M36.1299 29.7066C36.9859 29.7066 37.6788 29.0179 37.6788 28.1596C37.6788 27.3012 36.9859 26.6025 36.1299 26.6025C35.275 26.6025 34.582 27.3012 34.582 28.1596C34.582 29.0179 35.275 29.7066 36.1299 29.7066Z" fill="#B5D2D2"/>
<path d="M41.2906 29.7066C42.1458 29.7066 42.839 29.0179 42.839 28.1596C42.839 27.3012 42.1458 26.6025 41.2906 26.6025C40.4354 26.6025 39.7422 27.3012 39.7422 28.1596C39.7422 29.0179 40.4354 29.7066 41.2906 29.7066Z" fill="#B5D2D2"/>
<path d="M114.1 99.549L93.9336 79.3484L98.5562 74.7163L118.708 94.9271L114.1 99.549Z" fill="#DBE9E9" stroke="#B5D2D2" stroke-width="2"/>
<path d="M121.284 106.849L105.746 91.2764C104.449 89.9727 104.449 87.8543 105.746 86.5507C107.044 85.2572 109.159 85.2572 110.456 86.5507L125.994 102.133C127.291 103.437 127.291 105.555 125.994 106.849C124.697 108.152 122.583 108.152 121.284 106.849Z" fill="#DBE9E9" stroke="#B5D2D2" stroke-width="2"/>
<path d="M119.848 107.994L99.9604 88.0602C99.4976 87.6044 99.4976 86.8448 99.9604 86.3687L105.044 81.2738C105.506 80.8078 106.255 80.8078 106.733 81.2738L126.622 101.208C127.084 101.674 127.084 102.423 126.622 102.899L121.538 107.994C121.06 108.46 120.311 108.46 119.848 107.994Z" fill="#DBE9E9" stroke="#B5D2D2" stroke-width="2"/>
<path d="M71.2334 14.1865C50.1326 14.1865 33.0312 31.3253 33.0312 52.4651C33.0312 73.5949 50.1326 90.7539 71.2172 90.7539C92.318 90.7539 109.418 73.6151 109.418 52.4651C109.418 31.3253 92.318 14.1865 71.2334 14.1865ZM71.2334 83.6634C54.2917 83.6634 40.5702 69.685 40.5702 52.455C40.5702 35.215 54.2917 21.2568 71.2334 21.2568C88.1741 21.2568 101.897 35.2352 101.897 52.4651C101.897 69.7052 88.1579 83.6634 71.2334 83.6634Z" fill="#DBE9E9" stroke="#B5D2D2" stroke-width="2"/>
<path d="M37.9239 106.344C36.7633 107.064 35.4393 107.726 34.2253 108.168C31.1259 109.169 27.8664 109.111 24.7702 108.115C21.6179 107.063 18.6877 105.014 16.7554 101.964C12.1127 94.8715 14.1016 85.3433 21.1771 80.6891C28.2522 76.0344 37.7612 77.9167 42.3505 85.063C44.008 87.6123 44.7807 90.4944 44.8933 93.485C44.8923 98.6939 42.2358 103.573 37.9239 106.344Z" fill="#DBE9E9" stroke="#B5D2D2" stroke-width="2"/>
<path d="M34.4796 95.5L32.526 93.5417L34.4791 91.584C35.2529 90.8084 35.3468 89.5011 34.4786 88.6308C33.7075 87.8578 32.4022 87.7583 31.5323 88.6302L29.5792 90.588L27.6255 88.6297C26.8544 87.8568 25.5438 87.7626 24.6793 88.6292C24.2737 89.0357 24.0442 89.5545 24.0416 90.1082C24.0448 90.657 24.2758 91.1774 24.6798 91.5824L26.6335 93.5406L24.6803 95.4984C23.9066 96.274 23.8132 97.5818 24.6809 98.4516C25.4525 99.2251 26.7573 99.324 27.6271 98.4521L29.5803 96.4944L31.5339 98.4527C32.3056 99.2261 33.6103 99.3251 34.4802 98.4532C35.3447 97.5867 35.2513 96.2735 34.4796 95.5Z" fill="white" stroke="#B5D2D2" stroke-width="2"/>
</svg>
