<svg width="77" height="77" viewBox="0 0 77 77" fill="none" xmlns="http://www.w3.org/2000/svg">
<path fill-rule="evenodd" clip-rule="evenodd" d="M60.9585 68.98H19.2502C16.272 68.98 13.4158 67.797 11.3099 65.6911C9.20407 63.5852 8.021 60.729 8.021 57.7509V15.8597C8.021 12.4364 11.409 10.2643 14.3895 11.2974C14.8162 11.445 15.2333 11.66 15.6312 11.9455L16.1926 12.3466C17.5583 13.3156 19.192 13.8347 20.8665 13.8319C22.541 13.829 24.173 13.3042 25.5353 12.3305C27.4476 10.9696 29.7364 10.2383 32.0835 10.2383C34.4306 10.2383 36.7194 10.9696 38.6317 12.3305C39.994 13.3042 41.626 13.829 43.3005 13.8319C44.975 13.8347 46.6087 13.3156 47.9744 12.3466L48.5358 11.9455C51.7217 9.66759 56.146 11.9455 56.146 15.8597V40.1051H67.3752C68.0133 40.1051 68.6254 40.3586 69.0766 40.8098C69.5279 41.2611 69.7814 41.8731 69.7814 42.5113V60.1571C69.7814 62.4971 68.8519 64.7413 67.1972 66.3959C65.5426 68.0505 63.2985 68.98 60.9585 68.98ZM56.9481 44.9176V60.1571C56.9481 61.2208 57.3706 62.2408 58.1227 62.9929C58.8748 63.745 59.8949 64.1675 60.9585 64.1675C62.0221 64.1675 63.0422 63.745 63.7943 62.9929C64.5464 62.2408 64.9689 61.2208 64.9689 60.1571V44.9176H56.9481ZM43.3127 31.2821C43.3127 30.644 43.0591 30.0319 42.6079 29.5807C42.1566 29.1294 41.5446 28.8759 40.9064 28.8759H21.6564C21.0182 28.8759 20.4062 29.1294 19.9549 29.5807C19.5037 30.0319 19.2502 30.644 19.2502 31.2821C19.2502 31.9203 19.5037 32.5324 19.9549 32.9836C20.4062 33.4349 21.0182 33.6884 21.6564 33.6884H40.9064C41.5446 33.6884 42.1566 33.4349 42.6079 32.9836C43.0591 32.5324 43.3127 31.9203 43.3127 31.2821ZM40.1043 40.9071C40.1043 40.269 39.8508 39.6569 39.3996 39.2057C38.9483 38.7544 38.3363 38.5009 37.6981 38.5009H21.6564C21.0182 38.5009 20.4062 38.7544 19.9549 39.2057C19.5037 39.6569 19.2502 40.269 19.2502 40.9071C19.2502 41.5453 19.5037 42.1574 19.9549 42.6086C20.4062 43.0599 21.0182 43.3134 21.6564 43.3134H37.6981C38.3363 43.3134 38.9483 43.0599 39.3996 42.6086C39.8508 42.1574 40.1043 41.5453 40.1043 40.9071ZM40.9064 48.1259C41.5446 48.1259 42.1566 48.3794 42.6079 48.8307C43.0591 49.2819 43.3127 49.894 43.3127 50.5321C43.3127 51.1703 43.0591 51.7824 42.6079 52.2336C42.1566 52.6849 41.5446 52.9384 40.9064 52.9384H21.6564C21.0182 52.9384 20.4062 52.6849 19.9549 52.2336C19.5037 51.7824 19.2502 51.1703 19.2502 50.5321C19.2502 49.894 19.5037 49.2819 19.9549 48.8307C20.4062 48.3794 21.0182 48.1259 21.6564 48.1259H40.9064Z" fill="#106F6E"/>
</svg>
