<svg width="50" height="53" viewBox="0 0 50 53" fill="none" xmlns="http://www.w3.org/2000/svg">
<g id="Group 1000002766">
<path id="Path 225168" d="M45.109 1.27L43.835 0L41.5 2.333L44.248 5.083L45.52 3.811L46.79 5.083L49.13 2.747L46.381 0L45.109 1.27Z" fill="white"/>
<path id="Path 225169" d="M28.3672 29.9648L26.0322 32.2998L24.7622 31.0298L23.4922 32.3018L20.7422 29.5518L23.0772 27.2188L24.3472 28.4888L25.6192 27.2188L28.3672 29.9648Z" fill="white"/>
<path id="Path 225170" d="M38.388 11.9058H45.141V19.9778H38.388V11.9058ZM39.434 8.13281L34.389 13.1618L34.394 19.9778H26.555V13.1618H24.311L22.572 14.8958V19.9778H14.734V11.9058H12.49L10.751 13.6398V19.9838L4.565 19.9788L0 24.5468V25.1548L1.409 23.7548H44.109L49.13 18.7358V8.13581L39.434 8.13281Z" fill="white"/>
<path id="Path 225171" d="M44.8006 35.248H34.3906V51.777H44.8006L49.1236 47.454V39.571L44.8006 35.248ZM45.8406 49.242H37.6856V37.79H45.8406V49.242Z" fill="white"/>
<path id="Path 225172" d="M32.6064 35.2461L26.3914 41.4611L25.8914 41.9611L25.8564 41.9661V51.7761H25.0114L23.2744 50.0431V41.9661L23.2374 41.9611L16.5234 35.2461H20.1744L24.5624 39.6321L28.9504 35.2461H32.6064Z" fill="white"/>
<path id="Path 225173" d="M3.283 37.7871H11.448V49.2381H3.283V37.7871ZM0 35.2461V47.4461L4.323 51.7691H18.781L19.915 52.8971V52.4161L16.941 49.4421H14.733V39.5721L10.41 35.2491L0 35.2461Z" fill="white"/>
</g>
</svg>
