<svg width="18" height="18" viewBox="0 0 18 18" fill="none" xmlns="http://www.w3.org/2000/svg">
<path d="M13.2502 1.5H4.74975C4.51725 1.5 4.40175 1.5 4.30425 1.509C3.21675 1.60875 2.35425 2.514 2.25825 3.65475C2.25 3.7575 2.25 3.87975 2.25 4.12275V15.195C2.25 15.849 3.04425 16.1273 3.4185 15.603C3.47651 15.519 3.55405 15.4503 3.64445 15.4029C3.73485 15.3555 3.83541 15.3307 3.9375 15.3307C4.03959 15.3307 4.14015 15.3555 4.23055 15.4029C4.32095 15.4503 4.39849 15.519 4.4565 15.603L4.78125 16.0575C4.87554 16.1941 5.00158 16.3058 5.14855 16.3829C5.29552 16.46 5.45902 16.5003 5.625 16.5003C5.79098 16.5003 5.95448 16.46 6.10145 16.3829C6.24841 16.3058 6.37446 16.1941 6.46875 16.0575C6.56304 15.9209 6.68909 15.8092 6.83605 15.7321C6.98302 15.655 7.14652 15.6147 7.3125 15.6147C7.47848 15.6147 7.64198 15.655 7.78895 15.7321C7.93591 15.8092 8.06196 15.9209 8.15625 16.0575C8.25054 16.1941 8.37659 16.3058 8.52355 16.3829C8.67052 16.46 8.83402 16.5003 9 16.5003C9.16598 16.5003 9.32948 16.46 9.47645 16.3829C9.62341 16.3058 9.74946 16.1941 9.84375 16.0575C9.93804 15.9209 10.0641 15.8092 10.2111 15.7321C10.358 15.655 10.5215 15.6147 10.6875 15.6147C10.8535 15.6147 11.017 15.655 11.1639 15.7321C11.3109 15.8092 11.437 15.9209 11.5312 16.0575C11.6255 16.1941 11.7516 16.3058 11.8986 16.3829C12.0455 16.46 12.209 16.5003 12.375 16.5003C12.541 16.5003 12.7045 16.46 12.8514 16.3829C12.9984 16.3058 13.1245 16.1941 13.2188 16.0575L13.5435 15.6038C13.6015 15.5197 13.6791 15.4511 13.7695 15.4037C13.8599 15.3562 13.9604 15.3314 14.0625 15.3314C14.1646 15.3314 14.2651 15.3562 14.3555 15.4037C14.4459 15.4511 14.5235 15.5197 14.5815 15.6038C14.9565 16.1273 15.75 15.849 15.75 15.195V4.12275C15.75 3.87975 15.75 3.7575 15.7418 3.65475C15.6465 2.514 14.784 1.60875 13.6965 1.509C13.5975 1.5 13.482 1.5 13.2502 1.5Z" stroke="#606060"/>
<path d="M5.625 11.625H12.375M10.5 6L7.5 9M7.5 6L10.5 9" stroke="#606060" stroke-linecap="round"/>
</svg>
