<svg width="65" height="65" viewBox="0 0 65 65" fill="none" xmlns="http://www.w3.org/2000/svg">
<path opacity="0.4" d="M32.4993 59.5837C47.4571 59.5837 59.5827 47.458 59.5827 32.5003C59.5827 17.5426 47.4571 5.41699 32.4993 5.41699C17.5416 5.41699 5.41602 17.5426 5.41602 32.5003C5.41602 47.458 17.5416 59.5837 32.4993 59.5837Z" fill="#EEF5F5"/>
<path d="M42.6568 29.0601V27.083C42.6568 24.5643 42.6568 16.9268 32.5005 16.9268C22.3443 16.9268 22.3443 24.5643 22.3443 27.083V29.0601C19.0401 29.7913 17.9297 31.9309 17.9297 36.5622V39.2705C17.9297 45.2288 19.7714 47.0705 25.7297 47.0705H39.2714C45.2297 47.0705 47.0714 45.2288 47.0714 39.2705V36.5622C47.0714 31.9309 45.961 29.7913 42.6568 29.0601ZM32.5005 40.8955C30.8485 40.8955 29.5214 39.5684 29.5214 37.9163C29.5214 36.2643 30.8485 34.9372 32.5005 34.9372C34.1526 34.9372 35.4796 36.2643 35.4796 37.9163C35.4796 39.5684 34.1526 40.8955 32.5005 40.8955ZM38.5943 28.7622H26.4068V27.083C26.4068 23.1288 27.3818 20.9893 32.5005 20.9893C37.6193 20.9893 38.5943 23.1288 38.5943 27.083V28.7622Z" fill="#106F6E"/>
</svg>
