<svg width="14" height="13" viewBox="0 0 14 13" fill="none" xmlns="http://www.w3.org/2000/svg">
<path d="M10.1445 2.61328C9.29688 1.90234 8.20312 1.4375 7 1.4375C4.32031 1.4375 2.1875 3.59766 2.1875 6.25C2.1875 8.92969 4.32031 11.0625 7 11.0625C8.06641 11.0625 9.07812 10.707 9.87109 10.1055C10.1719 9.88672 10.582 9.94141 10.8008 10.2422C11.0195 10.543 10.9648 10.9531 10.6641 11.1719C9.65234 11.9375 8.36719 12.375 7 12.375C3.60938 12.375 0.875 9.64062 0.875 6.25C0.875 2.88672 3.60938 0.125 7 0.125C8.55859 0.125 9.98047 0.726562 11.0742 1.68359L11.8945 0.863281C12.0859 0.671875 12.332 0.589844 12.5781 0.589844C13.125 0.5625 13.5625 1 13.5625 1.54688V4.71875C13.5625 5.10156 13.2617 5.375 12.9062 5.375H9.70703C9.16016 5.375 8.75 4.96484 8.75 4.41797C8.75 4.17188 8.83203 3.92578 9.02344 3.73438L10.1445 2.61328ZM12.25 2.36719L10.5273 4.0625H12.25V2.36719Z" fill="#0C5353"/>
</svg>
