<svg width="63" height="63" viewBox="0 0 63 63" fill="none" xmlns="http://www.w3.org/2000/svg">
<path d="M15.75 34.125C8.505 34.125 2.625 39.9788 2.625 47.25C2.625 54.5212 8.505 60.375 15.75 60.375C22.995 60.375 28.875 54.495 28.875 47.25C28.875 40.005 23.0212 34.125 15.75 34.125ZM10.395 41.895H15.75C16.7475 41.895 17.535 42.7087 17.535 43.68C17.535 44.6512 16.7212 45.465 15.75 45.465H10.395C9.39748 45.465 8.61 44.6512 8.61 43.68C8.61 42.7087 9.39748 41.895 10.395 41.895ZM21.105 52.605H10.3688C9.37128 52.605 8.58372 51.7913 8.58372 50.82C8.58372 49.8488 9.39753 49.035 10.3688 49.035H21.105C22.1025 49.035 22.89 49.8488 22.89 50.82C22.89 51.7913 22.1025 52.605 21.105 52.605Z" fill="#106F6E"/>
<path opacity="0.4" d="M44.625 7.875H18.375C10.5 7.875 5.25 11.8125 5.25 21V29.2425C5.25 31.1587 7.21879 32.3662 8.97754 31.605C11.865 30.345 15.1462 29.8725 18.585 30.4237C25.4625 31.5525 31.08 36.9863 32.4712 43.8113C32.865 45.8063 32.9175 47.7487 32.655 49.6125C32.445 51.1612 33.705 52.5262 35.2537 52.5262H44.625C52.5 52.5262 57.75 48.5887 57.75 39.4012V21.0262C57.75 11.8125 52.5 7.875 44.625 7.875Z" fill="#106F6E" fill-opacity="0.18"/>
<path d="M31.4993 31.1584C29.2943 31.1584 27.0631 30.4759 25.3568 29.0847L17.1405 22.5222C16.3005 21.8397 16.1431 20.6059 16.8256 19.7659C17.5081 18.9259 18.7418 18.7684 19.5818 19.4509L27.798 26.0134C29.793 27.6147 33.1793 27.6147 35.1743 26.0134L43.3905 19.4509C44.2305 18.7684 45.4905 18.8997 46.1468 19.7659C46.8293 20.6059 46.698 21.8659 45.8318 22.5222L37.6155 29.0847C35.9355 30.4759 33.7043 31.1584 31.4993 31.1584Z" fill="#106F6E"/>
</svg>
