<svg width="15" height="15" viewBox="0 0 15 15" fill="none" xmlns="http://www.w3.org/2000/svg">
<path fill-rule="evenodd" clip-rule="evenodd" d="M7.45326 14.5288C11.3019 14.5288 14.4218 11.4089 14.4218 7.56031C14.4218 3.71171 11.3019 0.591797 7.45326 0.591797C3.60465 0.591797 0.484741 3.71171 0.484741 7.56031C0.484741 11.4089 3.60465 14.5288 7.45326 14.5288ZM6.32706 5.20225C5.98689 4.86208 5.43537 4.86208 5.09519 5.20225C4.75502 5.54242 4.75502 6.09395 5.09519 6.43412L6.22139 7.56031L5.09519 8.68651C4.75502 9.02668 4.75502 9.57821 5.09519 9.91838C5.43536 10.2586 5.98689 10.2586 6.32706 9.91838L7.45326 8.79218L8.57945 9.91838C8.91962 10.2586 9.47115 10.2586 9.81132 9.91838C10.1515 9.57821 10.1515 9.02668 9.81132 8.68651L8.68513 7.56031L9.81132 6.43412C10.1515 6.09395 10.1515 5.54242 9.81132 5.20225C9.47115 4.86208 8.91962 4.86208 8.57945 5.20225L7.45326 6.32844L6.32706 5.20225Z" fill="#D4D4D4"/>
</svg>
