  <svg width="37" height="37" viewBox="0 0 37 37" fill="none" xmlns="http://www.w3.org/2000/svg">
          <path d="M18.5 37C8.28273 37 0 28.7173 0 18.5C0 8.28273 8.28273 0 18.5 0C28.7173 0 37 8.28273 37 18.5C37 28.7173 28.7173 37 18.5 37Z" fill="#E6E6E6"/>
          <path d="M18.4375 17.375C20.5176 17.375 22.1875 15.7051 22.1875 13.625C22.1875 11.5742 20.5176 9.875 18.4375 9.875C16.3867 9.875 14.6875 11.5742 14.6875 13.625C14.6875 15.7051 16.3867 17.375 18.4375 17.375ZM15.8301 18.3125C13.6621 18.3125 11.875 20.0996 11.875 22.2676V23.4688C11.875 24.2598 12.5195 24.875 13.2812 24.875H23.5938C24.3848 24.875 25 24.2598 25 23.4688V22.2676C25 20.0996 23.2422 18.3125 21.0742 18.3125H20.5762C19.9316 18.6348 19.1992 18.7812 18.4375 18.7812C17.6758 18.7812 16.9727 18.6348 16.3281 18.3125H15.8301Z" fill="#868E96"/>
          </svg>