<svg width="53" height="53" viewBox="0 0 53 53" fill="none" xmlns="http://www.w3.org/2000/svg">
<rect opacity="0.1" width="53" height="53" rx="12" fill="#25577F"/>
<path d="M27.1109 38.9C29.5156 35.8906 35 28.5969 35 24.5C35 19.5312 30.9688 15.5 26 15.5C21.0312 15.5 17 19.5312 17 24.5C17 28.5969 22.4844 35.8906 24.8891 38.9C25.4656 39.6172 26.5344 39.6172 27.1109 38.9ZM26 21.5C26.7956 21.5 27.5587 21.8161 28.1213 22.3787C28.6839 22.9413 29 23.7044 29 24.5C29 25.2956 28.6839 26.0587 28.1213 26.6213C27.5587 27.1839 26.7956 27.5 26 27.5C25.2044 27.5 24.4413 27.1839 23.8787 26.6213C23.3161 26.0587 23 25.2956 23 24.5C23 23.7044 23.3161 22.9413 23.8787 22.3787C24.4413 21.8161 25.2044 21.5 26 21.5Z" fill="#25577F"/>
</svg>
