<svg width="207" height="98" viewBox="0 0 207 98" fill="none" xmlns="http://www.w3.org/2000/svg">
<path d="M200.826 138.799H34.1649C31.4021 138.799 29.1633 136.56 29.1633 133.797V28.027C29.1633 25.2642 31.4021 23.0254 34.1649 23.0254H200.826C203.589 23.0254 205.828 25.2642 205.828 28.027V133.797C205.828 136.56 203.589 138.799 200.826 138.799Z" fill="#9255EA"/>
<path d="M200.826 23.0254H34.1649C31.4021 23.0254 29.1633 25.2655 29.1633 28.0283V31.7637H205.828V28.0283C205.828 25.2655 203.589 23.0254 200.826 23.0254Z" fill="#A1D1EC"/>
<path d="M36.2965 27.0195C36.6546 27.3776 36.6546 27.9579 36.2965 28.3159C35.9385 28.6747 35.3569 28.6747 34.9988 28.3159C34.6401 27.9579 34.6401 27.3776 34.9988 27.0195C35.3569 26.6615 35.9385 26.6615 36.2965 27.0195Z" fill="#4E2D7E"/>
<path d="M40.3309 27.0195C40.6889 27.3776 40.6889 27.9579 40.3309 28.3159C39.9728 28.6747 39.3925 28.6747 39.0344 28.3159C38.6757 27.9579 38.6757 27.3776 39.0344 27.0195C39.3925 26.6615 39.9728 26.6615 40.3309 27.0195Z" fill="#FFE93C"/>
<path d="M44.0784 27.0195C44.4365 27.3776 44.4365 27.9579 44.0784 28.3159C43.7203 28.6747 43.1401 28.6747 42.782 28.3159C42.4233 27.9579 42.4233 27.3776 42.782 27.0195C43.1401 26.6615 43.7203 26.6615 44.0784 27.0195Z" fill="#B8E986"/>
<path d="M115.706 128.614H41.5464V94.7344H115.706V128.614Z" fill="#D3E4EE" fill-opacity="0.4"/>
<path d="M60.7299 123.87C60.7561 123.864 60.7815 123.857 60.8078 123.851L60.6083 122.907C60.5822 122.913 60.5568 122.92 60.5305 122.926C54.4137 124.217 48.3869 120.291 47.0958 114.175C45.8032 108.058 49.7297 102.031 55.8466 100.74C61.9636 99.4478 67.9903 103.374 69.2815 109.49C69.4115 110.107 69.4863 110.722 69.5138 111.332L70.4712 111.129C70.4365 110.52 70.356 109.906 70.2262 109.291C68.8244 102.654 62.284 98.3936 55.6468 99.7948C49.0094 101.197 44.7498 107.737 46.1511 114.374C47.5527 121.012 54.092 125.271 60.7299 123.87Z" fill="#CCDFEB"/>
<path d="M46.0284 113.705C46.0335 113.731 46.0396 113.757 46.0441 113.783L46.9979 113.637C46.9934 113.61 46.9875 113.584 46.983 113.557C46.0333 107.378 50.2862 101.578 56.465 100.628C62.6443 99.6782 68.445 103.932 69.3947 110.111C70.3452 116.29 66.0922 122.09 59.9121 123.041C59.2898 123.136 58.6718 123.177 58.061 123.17L58.2098 124.137C58.8208 124.137 59.438 124.089 60.0592 123.993C66.7646 122.962 71.3802 116.669 70.3485 109.965C69.3177 103.259 63.0247 98.6424 56.3189 99.6744C49.6141 100.705 44.9977 106.999 46.0284 113.705Z" fill="#483558"/>
<path d="M86.78 105.72C86.7668 105.744 86.7557 105.768 86.7433 105.792L87.5895 106.256C87.6027 106.232 87.614 106.208 87.6264 106.184C90.6312 100.702 97.5352 98.6862 103.018 101.691C108.5 104.696 110.515 111.6 107.511 117.082C104.506 122.565 97.6023 124.58 92.1196 121.576C91.5667 121.273 91.0517 120.929 90.5717 120.552L90.1016 121.411C90.5869 121.781 91.1049 122.12 91.6554 122.422C97.6045 125.682 105.097 123.495 108.358 117.546C111.618 111.597 109.431 104.106 103.481 100.845C97.5336 97.5843 90.0401 99.7716 86.78 105.72Z" fill="#CCDFEB"/>
<path d="M104.071 101.188C104.048 101.173 104.025 101.162 104.002 101.148L103.491 101.968C103.514 101.981 103.538 101.993 103.561 102.007C108.868 105.312 110.497 112.318 107.194 117.626C103.89 122.932 96.8838 124.563 91.5768 121.258C86.2694 117.954 84.64 110.948 87.9438 105.641C88.2771 105.106 88.6492 104.61 89.0515 104.151L88.2208 103.634C87.8239 104.098 87.4574 104.598 87.1245 105.132C83.5393 110.89 85.3077 118.492 91.0664 122.078C96.8261 125.662 104.427 123.894 108.013 118.135C111.598 112.376 109.83 104.773 104.071 101.188Z" fill="#EC446E"/>
<path d="M80.4199 86.3363H10.7116C9.55622 86.3363 8.61792 85.3993 8.61792 84.2439V40.0045C8.61792 38.8484 9.55557 37.9121 10.7116 37.9121H80.4199C81.5753 37.9121 82.5116 38.8484 82.5116 40.0045V84.2439C82.5116 85.3993 81.5753 86.3363 80.4199 86.3363Z" fill="#D2E3EE" fill-opacity="0.4"/>
<path d="M80.4199 37.9121H10.7116C9.55622 37.9121 8.61792 38.8491 8.61792 40.0045V41.5672H82.5116V40.0045C82.5116 38.8491 81.5753 37.9121 80.4199 37.9121Z" fill="#CCDFEB"/>
<path d="M54.0556 52.9472H15.8867C15.6585 52.9472 15.4722 52.7615 15.4722 52.5339V52.4738C15.4722 52.2469 15.6585 52.0605 15.8867 52.0605H54.0556C54.2832 52.0605 54.4689 52.2469 54.4689 52.4738V52.5339C54.4689 52.7615 54.2832 52.9472 54.0556 52.9472Z" fill="#9013FE"/>
<path d="M41.1864 55.6207H15.8451C15.6405 55.6207 15.4724 55.454 15.4724 55.2493V55.1035C15.4724 54.8988 15.6405 54.7314 15.8451 54.7314H41.1864C41.3911 54.7314 41.5592 54.8988 41.5592 55.1035V55.2493C41.5592 55.454 41.3911 55.6207 41.1864 55.6207Z" fill="#9013FE"/>
<path d="M54.0556 58.2909H15.8867C15.6585 58.2909 15.4722 58.1046 15.4722 57.877V57.8169C15.4722 57.59 15.6585 57.4043 15.8867 57.4043H54.0556C54.2832 57.4043 54.4689 57.59 54.4689 57.8169V57.877C54.4689 58.1046 54.2832 58.2909 54.0556 58.2909Z" fill="#9013FE"/>
<path d="M41.1862 60.9625H15.8449C15.6402 60.9625 15.4722 60.7958 15.4722 60.5911V60.4459C15.4722 60.2413 15.6402 60.0732 15.8449 60.0732H41.1862C41.3909 60.0732 41.5589 60.2413 41.5589 60.4459V60.5911C41.5589 60.7958 41.3909 60.9625 41.1862 60.9625Z" fill="#9013FE"/>
<path d="M54.0559 68.082H15.887C15.6588 68.082 15.4724 67.8963 15.4724 67.6687V67.6086C15.4724 67.381 15.6588 67.1953 15.887 67.1953H54.0559C54.2834 67.1953 54.4691 67.381 54.4691 67.6086V67.6687C54.4691 67.8963 54.2834 68.082 54.0559 68.082Z" fill="#9013FE"/>
<path d="M41.1864 63.19H15.8451C15.6405 63.19 15.4724 63.0233 15.4724 62.8186V62.6728C15.4724 62.4682 15.6405 62.3008 15.8445 62.3008H41.1864C41.3911 62.3008 41.5592 62.4682 41.5592 62.6728V62.8186C41.5592 63.0233 41.3911 63.19 41.1864 63.19Z" fill="#9013FE"/>
<path d="M54.0556 73.4238H15.8867C15.6585 73.4238 15.4722 73.2374 15.4722 73.0099V72.9504C15.4722 72.7235 15.6585 72.5371 15.8867 72.5371H54.0556C54.2832 72.5371 54.4689 72.7235 54.4689 72.9504V73.0099C54.4689 73.2374 54.2832 73.4238 54.0556 73.4238Z" fill="#9013FE"/>
<path d="M54.0556 70.7548H15.8867C15.6585 70.7548 15.4722 70.5685 15.4722 70.3409V70.2808C15.4722 70.0539 15.6585 69.8682 15.8867 69.8682H54.0556C54.2832 69.8682 54.4689 70.0539 54.4689 70.2808V70.3409C54.4689 70.5685 54.2832 70.7548 54.0556 70.7548Z" fill="#9013FE"/>
<path d="M41.1864 76.0982H15.8451C15.6405 76.0982 15.4724 75.9315 15.4724 75.7268V75.5817C15.4724 75.377 15.6405 75.209 15.8451 75.209H41.1864C41.3911 75.209 41.5592 75.377 41.5592 75.581V75.7268C41.5592 75.9315 41.3911 76.0982 41.1864 76.0982Z" fill="#9013FE"/>
<path d="M41.1862 79.2145H15.8449C15.6402 79.2145 15.4722 79.0477 15.4722 78.8431V78.6972C15.4722 78.4926 15.6402 78.3252 15.8442 78.3252H41.1862C41.3909 78.3252 41.5589 78.4926 41.5589 78.6972V78.8431C41.5589 79.0477 41.3909 79.2145 41.1862 79.2145Z" fill="#9013FE"/>
<path d="M76.7256 63.6346H62.4805V50.9482H76.7256V63.6346Z" fill="#CCDFEB"/>
<path d="M76.7256 80.7733H62.4805V68.0869H76.7256V80.7733Z" fill="#CCDFEB"/>
<path d="M76.7253 47.3879H15.5193V45.1621H76.7253V47.3879Z" fill="#CCDFEB"/>
<g opacity="0.5">
<path d="M3.54866 98.7708C3.54866 99.7451 2.75896 100.535 1.78468 100.535C0.809449 100.535 0.0187988 99.7451 0.0187988 98.7708C0.0187988 97.7975 0.809449 97.0068 1.78468 97.0068C2.75896 97.0068 3.54866 97.7975 3.54866 98.7708Z" fill="#77ACCE"/>
</g>
<path d="M131.658 3.04821C131.658 4.34189 130.609 5.39036 129.316 5.39036C128.022 5.39036 126.973 4.34189 126.973 3.04821C126.973 1.75453 128.022 0.706055 129.316 0.706055C130.609 0.706055 131.658 1.75453 131.658 3.04821Z" fill="#77ACCE"/>
<path d="M184.262 148.981H133.306V93.1826H184.262V148.981Z" fill="#D3E4EE" fill-opacity="0.4"/>
<path d="M172.892 111.289H144.676V95.9463H172.892V111.289Z" fill="#CCDFEB"/>
<path d="M158.438 107.187L155.919 104.577L156.362 104.149L158.296 106.153L162.745 97.9209L163.288 98.2135L158.438 107.187Z" fill="#483558"/>
<path d="M151.709 48.1825C148.918 45.8752 144.75 46.2709 142.442 49.0635C141.177 50.5932 140.736 52.5345 141.046 54.3581L134.247 56.099C133.758 55.1897 133.105 54.3557 132.262 53.6587C130.713 52.3786 128.827 51.7724 126.958 51.7882L126.141 44.9994C126.599 44.7691 127.021 44.4477 127.365 44.0315C128.707 42.4065 128.476 39.9674 126.851 38.6248C125.227 37.2831 122.789 37.515 121.445 39.1386C120.102 40.7645 120.334 43.2009 121.959 44.5444C122.551 45.0341 123.248 45.3215 123.964 45.4014L124.771 52.0941C123.219 52.5319 121.78 53.4262 120.678 54.759C119.514 56.1674 118.899 57.854 118.808 59.5526L109.588 60.4283C109.362 58.8671 108.59 57.3789 107.284 56.3008C104.493 53.9922 100.325 54.3892 98.0179 57.1805C95.7093 59.9736 96.1072 64.1411 98.8981 66.4497C101.691 68.7573 105.858 68.3595 108.165 65.5673C108.887 64.6946 109.353 63.6901 109.557 62.6475C109.56 62.6425 109.565 62.6376 109.568 62.6349L119.003 61.7377C119.378 63.4816 120.301 65.1231 121.779 66.3446C123.358 67.6483 125.288 68.2563 127.192 68.2154L128.105 77.8204C126.824 78.16 125.634 78.8748 124.73 79.9686C122.423 82.7612 122.818 86.9278 125.61 89.2355C128.403 91.5431 132.571 91.1453 134.878 88.354C137.185 85.5618 136.789 81.3952 133.997 79.0875C132.903 78.1828 131.599 77.7071 130.277 77.6147L129.353 67.8876C130.874 67.4423 132.28 66.552 133.363 65.2421C135.05 63.2 135.575 60.5747 135.028 58.1686L141.768 56.4439C142.154 57.1462 142.669 57.7898 143.322 58.3304C146.115 60.6381 150.283 60.2424 152.59 57.4498C154.897 54.6576 154.501 50.4892 151.709 48.1825Z" fill="#D3E4EE" fill-opacity="0.4"/>
<g opacity="0.4">
<path d="M189.63 57.6691C183.014 67.4689 169.706 70.0491 159.907 63.4334C150.108 56.8172 147.527 43.5101 154.143 33.7111C160.759 23.9114 174.066 21.3307 183.866 27.9462C193.666 34.5623 196.246 47.8702 189.63 57.6691Z" fill="white"/>
</g>
<path d="M208.439 67.7139L192.6 57.0198C198.386 46.4591 195.272 32.9923 185.097 26.1235C174.308 18.8389 159.604 21.6908 152.319 32.4805C145.035 43.2694 147.887 57.9745 158.676 65.2589C168.85 72.128 182.505 69.9818 190.137 60.6675L205.977 71.3616L208.439 67.7139ZM161.139 61.6106C152.361 55.6842 150.041 43.7213 155.967 34.9432C161.894 26.1655 173.856 23.8456 182.634 29.7712C191.413 35.6981 193.732 47.6604 187.806 56.4385C181.88 65.2167 169.917 67.5362 161.139 61.6106Z" fill="#483558"/>
<path d="M245.814 90.7739L206.462 64.2053L202.052 70.7369L241.405 97.3047C243.208 98.5226 245.657 98.0469 246.874 96.2438C248.093 94.4406 247.617 91.991 245.814 90.7739Z" fill="#592785"/>
</svg>
