<svg width="194" height="83" viewBox="0 0 194 83" fill="none" xmlns="http://www.w3.org/2000/svg">
<path d="M214.951 117.989C214.944 124.611 209.573 129.977 202.951 129.977H12.7002C6.07278 129.977 0.700195 124.604 0.700195 117.977V12.5561C0.700195 5.93534 6.06236 0.56553 12.6831 0.556092L203.042 0.284727C209.681 0.275263 215.066 5.65814 215.059 12.2971L214.951 117.989Z" fill="#FAFAFA"/>
<path d="M214.938 129.977C214.938 128.77 214.938 78.1091 214.843 0.357653C214.843 0.318742 214.886 0.293772 214.919 0.313907C214.962 0.34004 214.944 0.406475 214.893 0.406554L1.03343 0.740969H0.907158C0.847336 0.740969 0.824809 0.662684 0.875482 0.630889C0.915173 0.605985 0.966755 0.634722 0.966755 0.68158C0.966755 47.9396 0.966755 92.2573 0.966755 129.884C0.966755 129.924 0.921865 129.948 0.887564 129.927C0.844065 129.899 0.863703 129.832 0.915266 129.832L214.976 129.977L0.738138 130.115H0.645517C0.56515 130.115 0.5 130.05 0.5 129.97C0.5 92.2947 0.5 47.9039 0.5 0.566347C0.5 0.477942 0.571667 0.406275 0.660072 0.406275H1.10011L215.138 0.115234H215.221C215.302 0.115234 215.367 0.180385 215.367 0.260752C215.129 78.0701 214.948 128.769 214.938 129.977Z" fill="#212E51"/>
<path d="M200.535 117.825H199.802H197.64L189.324 117.869L158.747 117.942L57.8527 118.007H14.3497H14.2845C14.168 118.007 14.0735 117.913 14.0735 117.796C14.0735 95.7789 14.1497 76.8468 14.1783 63.3935C14.1783 56.6924 14.2354 51.3518 14.2545 47.6774C14.2545 45.8584 14.2545 44.4542 14.2545 43.4864C14.2545 43.0208 14.2545 42.657 14.2545 42.4023C14.2545 42.3858 14.2556 42.3858 14.2545 42.4023C14.2545 42.657 14.2545 43.0208 14.2545 43.4864C14.2545 44.4542 14.2545 45.8584 14.2545 47.6774C14.2545 51.3518 14.3021 56.6924 14.3307 63.3935C14.3307 76.8179 14.3971 95.6976 14.4352 117.654C14.4353 117.712 14.3691 117.745 14.3231 117.71C14.2701 117.67 14.2987 117.585 14.3655 117.585H57.6622L158.556 117.651L189.133 117.723L197.449 117.767H199.611L200.535 117.825Z" fill="#212E51"/>
<path d="M29.743 84.292C29.6116 84.3366 29.5971 84.2974 29.724 84.2411L30.4574 83.8555L33.3151 82.4003L44.098 76.9797L81.4189 58.3459L81.4975 58.3059C81.6577 58.2243 81.8476 58.3407 81.8476 58.5205C81.8476 60.4978 81.8476 62.6054 81.8476 64.7567C81.8476 64.8502 81.7529 64.914 81.6663 64.8788C81.5618 64.8364 81.5555 64.6909 81.6558 64.6395L96.1073 57.2399L148.012 30.7553L163.776 22.7518L168.082 20.569L169.206 20.0233C169.211 20.0204 169.216 20.0175 169.222 20.0146C169.28 19.983 169.303 20.0297 169.244 20.0596L168.149 20.649L163.9 22.8318L148.25 31.0027L96.4502 57.5964L81.7714 65.1198L81.6916 65.1613C81.524 65.2484 81.3237 65.1268 81.3237 64.9379C81.3237 62.8221 81.3237 60.7063 81.3237 58.6966C81.3237 58.6062 81.4159 58.5451 81.4992 58.5804C81.5985 58.6226 81.6025 58.7619 81.5058 58.8097L44.2885 77.2052L33.4199 82.5312L30.5051 83.9355L29.743 84.292Z" fill="#212E51"/>
<path d="M169.816 24.243C169.833 24.7342 169.388 24.7357 169.412 24.2449C169.413 24.2249 169.415 24.2048 169.416 24.1848C169.36 23.1182 169.332 21.647 169.321 19.9708C169.321 19.909 169.392 19.8737 169.441 19.9112C169.498 19.9545 169.467 20.0448 169.396 20.0448H168.892C166.482 20.0448 164.301 20.0448 162.729 19.9793C162.317 19.9901 162.327 19.7044 162.738 19.7247C164.31 19.681 166.491 19.6592 168.901 19.6592H169.693C169.813 19.6592 169.911 19.7569 169.911 19.8775C169.911 21.5946 169.911 23.1225 169.816 24.243Z" fill="#212E51"/>
<path d="M42.0504 37.8999C36.67 37.6806 31.9851 41.5799 31.794 46.9614C31.7235 48.9456 31.7108 51.0813 31.8095 53.2C32.0577 58.5255 36.8539 61.9399 42.1822 61.7611L50.0837 61.4959C55.4058 61.3172 59.8231 58.5144 58.6205 53.3268C57.3314 47.7657 52.0537 38.3075 46.3499 38.0751L42.0504 37.8999Z" fill="#EBEBEB"/>
<path d="M44.821 37.0049C38.1414 37.0049 32.7231 42.4616 33.0502 49.1332C33.0541 49.2124 33.058 49.2916 33.062 49.3707C33.3524 55.1737 38.237 59.2037 44.0434 58.9934L51.963 58.7066C57.3932 58.51 61.682 55.4718 61.0963 50.0696C60.4713 44.3047 55.1575 37.0049 49.3588 37.0049H44.821Z" fill="#BE3C52"/>
<path d="M56.3764 44.2001C56.3764 44.2728 52.1661 44.5348 46.9557 44.7749C41.7452 45.015 37.5159 45.1459 37.5064 45.0659C37.4968 44.9859 41.7166 44.7239 46.9271 44.4838C52.1375 44.2437 56.3669 44.12 56.3764 44.2001Z" fill="white"/>
<path d="M56.3862 47.8243C56.3862 47.9043 52.1759 48.159 46.9654 48.3991C41.755 48.6392 37.5161 48.7702 37.5161 48.6901C37.5161 48.6101 41.7264 48.3554 46.9368 48.1153C52.1473 47.8752 56.3766 47.7443 56.3862 47.8243Z" fill="white"/>
<path d="M50.0329 51.3889C50.3019 51.3619 50.3127 51.5518 50.0425 51.5562C49.0899 51.629 47.7278 51.709 46.2323 51.7745C44.7368 51.84 43.3746 51.8909 42.4221 51.9055C42.1527 51.9324 42.1419 51.743 42.4125 51.7381C43.3651 51.6654 44.7272 51.5854 46.2227 51.5199C47.7182 51.4544 49.0804 51.4035 50.0329 51.3889Z" fill="white"/>
<path d="M102.889 17.4687C102.889 17.5924 86.4389 17.687 66.1496 17.687C45.8602 17.687 29.3811 17.5924 29.3811 17.4687C29.3811 17.345 45.8221 17.2432 66.1115 17.2432C86.4008 17.2432 102.889 17.345 102.889 17.4687Z" fill="#212E51"/>
<path d="M56.3957 22.584C56.3957 22.7076 50.2232 22.8022 42.6218 22.8022C35.0204 22.8022 28.8384 22.7076 28.8384 22.584C28.8384 22.4603 35.0109 22.3584 42.6218 22.3584C50.2327 22.3584 56.3957 22.4603 56.3957 22.584Z" fill="#212E51"/>
<path d="M71.0269 22.584C71.0269 22.7076 68.6551 22.8022 65.7212 22.8022C62.7874 22.8022 60.4155 22.7076 60.4155 22.584C60.4155 22.4603 62.7874 22.3584 65.7212 22.3584C68.6551 22.3584 71.0269 22.4603 71.0269 22.584Z" fill="#212E51"/>
<path d="M119.602 74.3004C119.601 69.1075 123.811 64.8975 129.003 64.8975C134.195 64.8975 138.404 69.106 138.405 74.2979L138.409 104.073C138.41 109.265 134.2 113.476 129.007 113.476C123.815 113.476 119.606 109.267 119.606 104.075L119.602 74.3004Z" fill="#BE3C52"/>
<path d="M174.317 43.1855C174.316 37.9928 178.526 33.7832 183.718 33.7832C188.911 33.7832 193.12 37.9921 193.12 43.1843L193.124 103.389C193.124 108.582 188.915 112.792 183.722 112.792C178.53 112.792 174.321 108.583 174.321 103.391L174.317 43.1855Z" fill="#BE3C52"/>
<path d="M92.7672 88.0098C92.7679 82.8179 96.977 78.6094 102.169 78.6094C107.362 78.6094 111.571 82.8194 111.571 88.0123L111.568 104.074C111.568 109.266 107.359 113.474 102.167 113.474C96.9739 113.474 92.7645 109.264 92.7651 104.072L92.7672 88.0098Z" fill="#BE3C52"/>
<path d="M147.078 60.2068C147.078 55.015 151.287 50.8066 156.479 50.8066C161.672 50.8066 165.882 55.0169 165.881 60.2099L165.874 104.074C165.873 109.266 161.664 113.474 156.472 113.474C151.279 113.474 147.07 109.264 147.07 104.071L147.078 60.2068Z" fill="#BE3C52"/>
</svg>
