<svg width="194" height="92" viewBox="0 0 194 92" fill="none" xmlns="http://www.w3.org/2000/svg">
<g clip-path="url(#clip0_295_3125)">
<mask id="mask0_295_3125" style="mask-type:luminance" maskUnits="userSpaceOnUse" x="0" y="0" width="194" height="129">
<path d="M193.67 0.177734H0.6698V128.375H193.67V0.177734Z" fill="white"/>
</mask>
<g mask="url(#mask0_295_3125)">
<path d="M193.67 7.22251V121.332C193.67 125.219 190.513 128.376 186.626 128.376H9.12216C5.2347 128.376 2.07837 125.219 2.07837 121.332V7.22251C2.07837 3.33504 5.2347 0.178711 9.12216 0.178711H186.626C190.513 0.178711 193.67 3.33504 193.67 7.22251Z" fill="#8B99A8" fill-opacity="0.2"/>
<path d="M182.399 32.5799V112.879C182.399 116.767 179.243 119.923 175.356 119.923H20.3922C16.5047 119.923 13.3484 116.767 13.3484 112.879V32.5799C13.3484 28.6925 16.5047 25.5361 20.3922 25.5361H175.356C179.243 25.5361 182.399 28.6925 182.399 32.5799Z" fill="white"/>
<path d="M172.538 41.0314V87.5204C172.538 89.0754 171.276 90.338 169.721 90.338H27.4363C25.8813 90.338 24.6188 89.0754 24.6188 87.5204V41.0314C24.6188 39.4764 25.8813 38.2139 27.4363 38.2139H169.721C171.276 38.2139 172.538 39.4764 172.538 41.0314Z" fill="#ABB9CA"/>
<path d="M92.2391 45.2588V52.3026H34.48V45.2588H92.2391Z" fill="white"/>
<path d="M81.9623 60.7545V66.3895C81.9623 67.167 81.6191 67.7983 81.1964 67.7983H35.2457C34.823 67.7983 34.4799 67.167 34.4799 66.3895V60.7545C34.4799 59.977 34.823 59.3457 35.2457 59.3457H81.1964C81.6191 59.3457 81.9623 59.977 81.9623 60.7545Z" fill="#707C85"/>
<path d="M46.1798 76.25V83.2938H34.4802V76.25H46.1798Z" fill="#F5F5F5"/>
<path d="M147.268 53.3747L157.088 57.3219C159.059 58.1141 160.016 60.3575 159.224 62.3284L154.918 73.0417C154.126 75.0126 151.882 75.9697 149.911 75.1775L140.091 71.2303C138.12 70.4381 137.163 68.1947 137.955 66.2238L142.261 55.5105C143.053 53.5396 145.297 52.5825 147.268 53.3747Z" fill="#F5F5F5"/>
<path d="M16.8705 7.2207C18.8143 7.2207 20.3924 8.79887 20.3924 10.7426C20.3924 12.6863 18.8143 14.2645 16.8705 14.2645C14.9268 14.2645 13.3486 12.6863 13.3486 10.7426C13.3486 8.79887 14.9268 7.2207 16.8705 7.2207Z" fill="#F22121"/>
<path d="M28.0579 7.22214C30.0011 7.17659 31.6158 8.71733 31.6614 10.6605C31.7069 12.6037 30.1662 14.2184 28.223 14.264C26.2798 14.3096 24.6651 12.7688 24.6195 10.8256C24.574 8.88242 26.1147 7.2677 28.0579 7.22214Z" fill="#FFAB00"/>
<path d="M39.4104 7.2207C41.3542 7.2207 42.9323 8.79887 42.9323 10.7426C42.9323 12.6863 41.3542 14.2645 39.4104 14.2645C37.4667 14.2645 35.8885 12.6863 35.8885 10.7426C35.8885 8.79887 37.4667 7.2207 39.4104 7.2207Z" fill="#128B1B"/>
</g>
</g>
<defs>
<clipPath id="clip0_295_3125">
<rect width="193" height="99" fill="white" transform="translate(0.6698 0.125)"/>
</clipPath>
</defs>
</svg>
