<svg width="58" height="58" viewBox="0 0 58 58" fill="none" xmlns="http://www.w3.org/2000/svg">
<path d="M29 58C45.0163 58 58 45.0163 58 29C58 12.9837 45.0163 0 29 0C12.9837 0 0 12.9837 0 29C0 45.0163 12.9837 58 29 58Z" fill="url(#paint0_linear_1029_15377)"/>
<path d="M28.9993 15.666C21.6473 15.666 15.666 21.6473 15.666 28.9993V34.5233C15.666 35.8887 16.862 36.9993 18.3327 36.9993H19.666C20.0196 36.9993 20.3588 36.8589 20.6088 36.6088C20.8589 36.3588 20.9993 36.0196 20.9993 35.666V28.8087C20.9993 28.4551 20.8589 28.1159 20.6088 27.8659C20.3588 27.6158 20.0196 27.4753 19.666 27.4753H18.4553C19.1967 22.3153 23.6367 18.3327 28.9993 18.3327C34.362 18.3327 38.802 22.3153 39.5433 27.4753H38.3327C37.9791 27.4753 37.6399 27.6158 37.3899 27.8659C37.1398 28.1159 36.9993 28.4551 36.9993 28.8087V36.9993C36.9993 38.47 35.8033 39.666 34.3327 39.666H31.666V38.3327H26.3327V42.3327H34.3327C37.274 42.3327 39.666 39.9407 39.666 36.9993C41.1367 36.9993 42.3327 35.8887 42.3327 34.5233V28.9993C42.3327 21.6473 36.3513 15.666 28.9993 15.666Z" fill="white"/>
<defs>
<linearGradient id="paint0_linear_1029_15377" x1="37.584" y1="16.82" x2="87.464" y2="88.392" gradientUnits="userSpaceOnUse">
<stop stop-color="#272727"/>
<stop offset="1" stop-color="#326D6D"/>
</linearGradient>
</defs>
</svg>
