<svg width="58" height="58" viewBox="0 0 58 58" fill="none" xmlns="http://www.w3.org/2000/svg">
<g clip-path="url(#clip0_1029_15407)">
<path d="M29 58C45.0163 58 58 45.0163 58 29C58 12.9837 45.0163 0 29 0C12.9837 0 0 12.9837 0 29C0 45.0163 12.9837 58 29 58Z" fill="url(#paint0_linear_1029_15407)"/>
<path d="M28.9979 15.666C24.9873 15.666 22.3873 18.358 19.3126 19.3393C18.0619 19.7393 17.4366 19.938 17.1833 20.2193C16.9299 20.4993 16.8566 20.9113 16.7086 21.7327C15.1219 30.5273 18.5886 38.658 26.8553 41.8233C27.7419 42.1633 28.1859 42.3327 29.0019 42.3327C29.8179 42.3327 30.2633 42.162 31.1513 41.822C39.4166 38.658 42.8793 30.5273 41.2926 21.7327C41.1446 20.9113 41.0699 20.4993 40.8166 20.218C40.5633 19.9367 39.9393 19.738 38.6886 19.3393C35.6126 18.358 33.0086 15.666 28.9979 15.666Z" stroke="white" stroke-width="1.5" stroke-linecap="round" stroke-linejoin="round"/>
<path d="M26.6675 26.2786C26.6675 26.1986 26.6782 25.7373 26.6808 25.1586C26.6808 24.628 26.6355 24.1186 26.8888 23.652C27.8355 21.7666 30.5555 21.9586 31.2275 23.8786C31.3435 24.1946 31.3515 24.6946 31.3475 25.1586C31.3435 25.7493 31.3555 26.2786 31.3555 26.2786M26.7835 26.84C25.3435 26.84 24.6235 27.88 24.4635 28.52C24.3035 29.16 24.3035 31.48 24.3995 32.44C24.7195 33.64 25.5195 34.136 26.3035 34.296C27.0235 34.36 30.0635 34.336 30.9435 34.336C32.2235 34.36 33.1835 33.88 33.5835 32.44C33.6635 31.96 33.7435 29.32 33.5435 28.52C33.1195 27.24 32.0635 26.84 31.2635 26.84H26.7835Z" stroke="white" stroke-width="1.5" stroke-linecap="round" stroke-linejoin="round"/>
</g>
<defs>
<linearGradient id="paint0_linear_1029_15407" x1="37.584" y1="16.82" x2="87.464" y2="88.392" gradientUnits="userSpaceOnUse">
<stop stop-color="#272727"/>
<stop offset="1" stop-color="#326D6D"/>
</linearGradient>
<clipPath id="clip0_1029_15407">
<rect width="58" height="58" fill="white"/>
</clipPath>
</defs>
</svg>
