<svg width="58" height="58" viewBox="0 0 58 58" fill="none" xmlns="http://www.w3.org/2000/svg">
<g clip-path="url(#clip0_1029_15423)">
<path d="M29 58C45.0163 58 58 45.0163 58 29C58 12.9837 45.0163 0 29 0C12.9837 0 0 12.9837 0 29C0 45.0163 12.9837 58 29 58Z" fill="#0D5958" fill-opacity="0.33"/>
<path d="M43.0005 36.2505H41.7505V20.0355L43.158 19.7342C43.3526 19.6924 43.5226 19.5751 43.6307 19.4079C43.7387 19.2408 43.776 19.0376 43.7342 18.843C43.6924 18.6484 43.5751 18.4783 43.4079 18.3703C43.2408 18.2622 43.0376 18.2249 42.843 18.2667L14.843 24.2667C14.6484 24.3085 14.4783 24.4259 14.3703 24.593C14.2622 24.7601 14.2249 24.9634 14.2667 25.158C14.3085 25.3526 14.4259 25.5226 14.593 25.6307C14.7601 25.7387 14.9634 25.776 15.158 25.7342L16.2505 25.5005V36.2505H15.0005C14.8016 36.2505 14.6108 36.3295 14.4701 36.4701C14.3295 36.6108 14.2505 36.8016 14.2505 37.0005C14.2505 37.1994 14.3295 37.3901 14.4701 37.5308C14.6108 37.6714 14.8016 37.7505 15.0005 37.7505H43.0005C43.1994 37.7505 43.3901 37.6714 43.5308 37.5308C43.6714 37.3901 43.7505 37.1994 43.7505 37.0005C43.7505 36.8016 43.6714 36.6108 43.5308 36.4701C43.3901 36.3295 43.1994 36.2505 43.0005 36.2505ZM17.7505 25.178L40.2505 20.3567V36.2505H36.7505V29.0005C36.7505 28.8016 36.6714 28.6108 36.5308 28.4701C36.3901 28.3295 36.1994 28.2505 36.0005 28.2505H22.0005C21.8016 28.2505 21.6108 28.3295 21.4701 28.4701C21.3295 28.6108 21.2505 28.8016 21.2505 29.0005V36.2505H17.7505V25.178ZM35.2505 32.2505H22.7505V29.7505H35.2505V32.2505ZM22.7505 33.7505H35.2505V36.2505H22.7505V33.7505Z" fill="white"/>
</g>
<defs>
<clipPath id="clip0_1029_15423">
<rect width="58" height="58" fill="white"/>
</clipPath>
</defs>
</svg>
