<svg width="1097" height="1368" viewBox="0 0 1097 1368" fill="none" xmlns="http://www.w3.org/2000/svg">
<path opacity="0.09" d="M748.431 619.172L681.906 446.837L450.674 344.193L517.201 516.53L748.431 619.172ZM566.268 395.5L615.311 274.506L534.56 65.7313L515.864 57.4319L540.84 121.842L450.711 344.204L566.268 395.5Z" fill="#25577F"/>
<path opacity="0.15" d="M796.988 461.348L813.369 411.606L869.159 429.978L851.376 483.98L861.522 487.321L867.782 499.183L866.49 503.105L808.392 483.973L796.988 461.348ZM920.049 446.736L932.98 450.994L934.842 454.686L904.39 470.065L890.866 511.133L886.936 509.839L880.799 497.65L891.25 465.913L875.946 435.291L879.481 433.377L892.567 437.686L901.773 455.958L920.049 446.736ZM943.453 454.443L984.512 467.964L996.047 490.811L979.72 540.392L921.467 521.209L943.453 454.443ZM873.739 412.802L885.917 406.645L921.424 418.337L917.169 431.26L872.504 416.551L873.739 412.802ZM960.538 402.559L972.666 365.731L995.28 354.318L1036.52 367.899L1014.58 434.522L826.246 372.501L827.489 368.726L839.292 362.638L873.326 373.846L879.416 355.353L904.8 342.126L909.391 343.638L895.192 350.923L886.245 378.092L916.848 388.17L923.152 369.027L935.325 362.884L939.256 364.179L929.935 392.484L960.538 402.559ZM997.394 336.331L1009.58 330.192L1045.09 341.885L1040.83 354.806L996.155 340.093L997.394 336.331ZM943.547 283.404L808.026 351.797L734.247 575.844L550.824 515.443L240.872 671.87L115.949 1051.23L-0.000853739 1109.74L37.7956 1122.19L413.562 932.815L474.033 748.651L657.621 809.107L967.748 652.737L1075.1 326.727L943.547 283.404Z" fill="white" fill-opacity="0.28"/>
</svg>
