<svg width="6345" height="2019" viewBox="0 0 6345 2019" fill="none" xmlns="http://www.w3.org/2000/svg">
<path opacity="0.15" d="M1145.88 811.686V751.559H1078.46V816.837H1066.2L1055.12 827.525V832.265H1125.33L1145.88 811.686ZM1016.96 751.559H1001.33L997.979 754.916L1025.66 782.623V832.266H1030.41L1041.47 821.178V782.814L1069.15 754.916L1065.99 751.559H1050.17L1033.58 768.178L1016.96 751.559ZM988.679 751.559H939.06L918.282 772.332V832.265H988.679V751.559ZM1079.63 731.183L1068.57 720.095H1025.66V735.715H1079.63V731.183ZM988.679 688.842V644.323L968.121 623.756H918.282V704.289H1145.88V699.725L1135.2 688.848H1094.07V666.494L1071.14 642.953H1065.6L1078.46 655.997V688.839H1041.48V665.699L1030.41 654.629H1025.66V688.844L988.679 688.842ZM972.275 603.381L961.192 592.31H918.282V607.929H972.275V603.381ZM1049.98 565L1173.18 688.253V959.081H1394.84L1676.6 1240.98V1699.55L1782 1805H1736.32L1394.64 1463.54L1394.83 1240.98H1172.97L891 959.081V565H1049.98Z" fill="white" fill-opacity="0.28"/>
<path d="M568.369 305.202L0.205078 613.879L738.504 1212.14L1306.67 903.466L1349.52 618.797L997.428 333.487L568.369 305.202ZM1250.2 780.884L805.145 1022.68L293.595 608.156L738.654 366.36L1250.2 780.884Z" fill="#DEE6EC"/>
<path d="M5465.58 1900.17L4511 1614.83L4993.71 -0.000887317L5948.29 285.344L6218.47 826.206L5988.26 1596.32L5465.58 1900.17ZM5969.62 561.479L5221.87 337.961L4887.41 1456.85L5635.16 1680.37L5969.62 561.479Z" fill="url(#paint0_linear_1213_8350)" fill-opacity="0.9"/>
<defs>
<linearGradient id="paint0_linear_1213_8350" x1="4605.44" y1="119.523" x2="6277.02" y2="1143.73" gradientUnits="userSpaceOnUse">
<stop stop-color="#DBE9E9"/>
<stop offset="1" stop-color="#F8F8F9"/>
</linearGradient>
</defs>
</svg>
