<svg width="136" height="63" viewBox="0 0 136 63" fill="none" xmlns="http://www.w3.org/2000/svg">
<g opacity="0.8">
<path d="M5.46476 61.8418C5.27816 61.8418 5.11424 61.769 4.97882 61.6261C4.84212 61.4833 4.77344 61.3118 4.77344 61.1152C4.77344 60.9179 4.84276 60.7479 4.98077 60.6091C5.11618 60.4717 5.27881 60.4016 5.46476 60.4016C5.65071 60.4016 5.81333 60.4717 5.94551 60.6104C6.07833 60.7499 6.14506 60.92 6.14506 61.1152C6.14506 61.3098 6.07833 61.4812 5.94745 61.6241C5.81398 61.7683 5.65136 61.8418 5.46476 61.8418Z" fill="#48669F"/>
<path d="M7.35148 61.8418C7.16488 61.8418 7.00096 61.769 6.86554 61.6261C6.72883 61.4826 6.66016 61.3105 6.66016 61.1152C6.66016 60.9179 6.72948 60.7479 6.86749 60.6091C7.0029 60.4717 7.16553 60.4016 7.35148 60.4016C7.53872 60.4016 7.7007 60.4717 7.83223 60.6104C7.96505 60.7499 8.03178 60.9193 8.03178 61.1152C8.03178 61.3105 7.96505 61.4812 7.83417 61.6241C7.7007 61.7683 7.53807 61.8418 7.35148 61.8418Z" fill="#48669F"/>
<path d="M53.1113 53.7032C52.7389 53.7032 52.3885 53.7984 52.0705 53.986C51.7518 54.1751 51.4895 54.4383 51.2927 54.7688C51.1023 55.087 50.9883 55.4468 50.9539 55.8371L53.1398 57.9805L55.2822 55.801C55.2342 55.4461 55.1203 55.0863 54.9298 54.7688C54.733 54.4383 54.4707 54.1751 54.1514 53.986C53.834 53.7984 53.4837 53.7032 53.1113 53.7032ZM35.5535 53.7032C34.6177 53.7032 33.9331 53.9153 33.5199 54.3342C33.1087 54.7511 32.8995 55.2774 32.8995 55.8983C32.8995 56.5185 33.108 57.038 33.5193 57.4433C33.9312 57.85 34.6242 58.0567 35.5769 58.0567H36.6176L36.5762 53.6596L35.5535 53.7032ZM53.9571 59.2617C53.7375 59.2617 53.5659 59.2291 53.4318 59.1611C53.3191 59.1046 53.2039 58.9938 53.0776 58.8231C53.0122 59.0013 52.8936 59.1142 52.7822 59.1686C52.6534 59.2318 52.4843 59.2617 52.2661 59.2617H20.3461L20.3047 50.9409L21.4458 50.8974L21.4879 58.1002L32.439 58.0574C32.2356 57.8126 32.0757 57.5344 31.9604 57.2277C31.8063 56.8136 31.7279 56.3702 31.7279 55.9105C31.7279 55.2971 31.86 54.7246 32.1197 54.2091C32.382 53.6882 32.8062 53.2618 33.3813 52.9402C33.9506 52.6219 34.6896 52.4607 35.5769 52.4607H37.7173L37.7594 58.1002L51.5116 58.0574L49.7921 56.3825L49.7785 56.0091C49.7785 55.3699 49.9287 54.7708 50.226 54.2288C50.5226 53.6868 50.93 53.2523 51.4377 52.9374C51.9461 52.6212 52.5096 52.4607 53.1113 52.4607C53.7207 52.4607 54.288 52.6212 54.7971 52.9374C55.3048 53.2537 55.7129 53.6862 56.0088 54.2227C56.3055 54.7599 56.4551 55.3611 56.4551 56.0091V56.3505L54.7122 58.0567H66.5493L66.5078 50.9409L67.649 50.8974L67.6904 59.2617H53.9571Z" fill="#48669F"/>
<path d="M33.8085 51.7051C33.6219 51.7051 33.458 51.6323 33.3226 51.4894C33.1859 51.3466 33.1172 51.1744 33.1172 50.9792C33.1172 50.7819 33.1865 50.6111 33.3245 50.4724C33.4599 50.3349 33.6232 50.2649 33.8085 50.2649C33.9951 50.2649 34.1571 50.3349 34.2893 50.4744C34.4221 50.6132 34.4888 50.7833 34.4888 50.9792C34.4888 51.1738 34.4221 51.3445 34.2912 51.4874C34.159 51.6316 33.9964 51.7051 33.8085 51.7051Z" fill="#48669F"/>
<path d="M35.6913 51.7051C35.5047 51.7051 35.3408 51.6323 35.2054 51.4894C35.0687 51.3459 35 51.1744 35 50.9792C35 50.7819 35.0693 50.6118 35.2073 50.4724C35.3427 50.3349 35.506 50.2649 35.6913 50.2649C35.8779 50.2649 36.0399 50.3349 36.1721 50.4744C36.3049 50.6139 36.3716 50.7833 36.3716 50.9792C36.3716 51.1738 36.3049 51.3445 36.174 51.4874C36.0418 51.6316 35.8792 51.7051 35.6913 51.7051Z" fill="#48669F"/>
<path d="M69.3032 59.2617L69.2617 50.9409L70.4029 50.8967L70.445 59.2617H69.3032Z" fill="#48669F"/>
<path d="M95.774 61.5176C95.5887 61.5176 95.4254 61.4475 95.29 61.3101C95.152 61.1713 95.082 60.9965 95.082 60.791C95.082 60.5937 95.152 60.4236 95.29 60.2849C95.4254 60.1468 95.5887 60.0774 95.774 60.0774C95.9599 60.0774 96.1226 60.1474 96.2547 60.2869C96.3876 60.4257 96.4543 60.5951 96.4543 60.791C96.4543 60.9856 96.3876 61.157 96.2567 61.2999C96.1239 61.4441 95.9612 61.5176 95.774 61.5176Z" fill="#48669F"/>
<path d="M78.4978 62.3027C77.4376 62.3027 76.536 62.0042 75.8172 61.4153C75.0886 60.8169 74.7188 59.839 74.7188 58.5075C74.7188 57.8152 74.8353 57.0182 75.0639 56.1396L75.084 56.0635L76.2336 56.0315L76.2381 56.2185C76.0076 57.0577 75.8903 57.803 75.8903 58.434C75.8903 59.4085 76.1352 60.1035 76.6177 60.5C77.1099 60.9046 77.7426 61.1093 78.4978 61.1093C80.2522 61.1093 81.1052 60.113 81.1052 58.0634V50.9367L82.247 50.8932L82.2884 58.0968L97.5405 58.0525C97.446 57.8961 97.3832 57.5854 97.3119 57.1651C97.3029 57.0685 97.2847 56.9482 97.2543 56.7857C97.139 56.1029 96.9855 55.5562 96.7964 55.159C96.6131 54.7728 96.3638 54.4688 96.0574 54.2539C95.79 54.0669 95.4791 53.9268 95.1326 53.837C94.7816 53.7459 94.4195 53.699 94.0575 53.699C93.6508 53.699 93.2771 53.7514 92.9461 53.854L92.8419 53.886L92.5886 52.7211L92.7078 52.6463C93.1391 52.5287 93.6132 52.4695 94.1158 52.4695C94.5879 52.4695 95.0581 52.5334 95.5134 52.6586C95.9706 52.785 96.3916 52.9829 96.7647 53.2461C97.1973 53.5548 97.5528 53.988 97.8203 54.5334C98.0839 55.0699 98.2853 55.7602 98.4207 56.5844C98.5049 57.0577 98.5761 57.4004 98.6344 57.6024C98.6836 57.7744 98.7516 57.8927 98.8378 57.9553C98.9265 58.0199 99.0716 58.0525 99.2691 58.0525H110.609L110.567 52.883L111.708 52.8394L111.75 58.0968L113.148 58.0525C113.56 58.0525 113.87 57.9043 114.094 57.5983C114.324 57.2848 114.441 56.8033 114.441 56.1655V52.883L115.582 52.8394L115.624 56.1655C115.624 56.7918 115.754 57.2698 116.013 57.5867C116.267 57.8961 116.645 58.0525 117.14 58.0525H118.357L118.314 52.5008L119.456 52.4573L119.498 58.0968L131.601 58.0525L131.56 50.9367L132.701 50.8932L132.743 59.2147L117.14 59.2582C116.639 59.2582 116.203 59.1481 115.843 58.9305C115.53 58.7421 115.277 58.4748 115.091 58.1355C114.959 58.4674 114.701 58.7319 114.394 58.9237C114.037 59.1454 113.618 59.2582 113.148 59.2582H82.1602C82.0313 60.2314 81.6259 61.0018 80.9964 61.5139C80.3513 62.0375 79.5113 62.3027 78.4978 62.3027Z" fill="#48669F"/>
<path d="M134.37 59.2617L134.328 50.9409L135.469 50.8967L135.511 59.2617H134.37Z" fill="#48669F"/>
<path d="M2.1735 59.2617C0.731194 59.2617 0 58.4729 0 56.917V53.7854L1.14245 53.7419L1.18455 56.8483C1.18455 57.2699 1.28299 57.5875 1.47858 57.7908C1.67482 57.9948 1.99216 58.0982 2.4235 58.0982H10.0891L10.0476 57.6058L10.0424 54.9279C10.0424 53.372 10.7743 52.5825 12.2159 52.5825H15.0792L15.1206 58.3661L13.9827 58.4096L13.9413 53.7032L12.4659 53.7467C12.0346 53.7467 11.7166 53.85 11.5223 54.0534C11.3261 54.2567 11.227 54.5743 11.227 54.9959V59.2617H2.1735Z" fill="#48669F"/>
<path d="M17.2891 61.8418H18.4587V53.2972H17.2891V61.8418Z" fill="#48669F"/>
<path d="M24.8281 34.8906V26.6983H32.631V30.2589H28.2192V34.8906H24.8281Z" fill="#48669F"/>
<path d="M30.957 35.9941H33.697V33.1171H30.957V35.9941Z" fill="#48669F"/>
<path d="M29.5898 41.3027H31.5446L31.5439 39.2509L29.5898 39.2503V41.3027Z" fill="#48669F"/>
<path d="M19.5859 43.873H21.5392V40.2839L19.5859 40.2845V43.873Z" fill="#48669F"/>
<path d="M11.7744 39.1279H9.82031V41.1797H11.7744V39.1279Z" fill="#48669F"/>
<path d="M4.49706 31.4873H2.54297V33.5391H4.49706V31.4873Z" fill="#48669F"/>
<path d="M3.12616 21.2529H0V23.3047H3.12616V21.2529Z" fill="#48669F"/>
<path d="M4.63769 10.9944H2.68359V13.0462L4.63769 13.0469V10.9944Z" fill="#48669F"/>
<path d="M11.833 3.4404H9.87891V5.49219H11.833V3.4404Z" fill="#48669F"/>
<path d="M21.6688 0.695958H19.7148L19.7155 4.28516H21.6688V0.695958Z" fill="#48669F"/>
<path d="M31.4306 3.38962H29.4766V5.44141H31.4306V3.38962Z" fill="#48669F"/>
<path d="M36.6641 12.9922H38.6182V10.9404H36.6641V12.9922Z" fill="#48669F"/>
<path d="M37.832 23.3242H41.2503L41.2497 21.2733H37.832V23.3242Z" fill="#48669F"/>
<path d="M36.6719 33.6289H38.626V31.5771H36.6719V33.6289Z" fill="#48669F"/>
<path d="M23.4023 40.959H26.1412V37.4684H23.4023V40.959Z" fill="#48669F"/>
<path d="M35.2344 28.2188H38.5587V25.3429H35.2344V28.2188Z" fill="#48669F"/>
<path d="M35.2344 19.2266H38.5587V16.3507H35.2344V19.2266Z" fill="#48669F"/>
<path d="M15.1289 40.959H17.8678V37.4684H15.1289V40.959Z" fill="#48669F"/>
<path d="M10.3064 33.1269H7.56641V36.0039H10.3064V33.1269Z" fill="#48669F"/>
<path d="M33.6931 8.57416H30.9531V11.4512H33.6931V8.57416Z" fill="#48669F"/>
<path d="M26.4108 3.60121H23.6719V7.0918H26.4108V3.60121Z" fill="#48669F"/>
<path d="M6.15249 25.4835H2.82812V28.3594H6.15249V25.4835Z" fill="#48669F"/>
<path d="M6.15249 16.3507H2.82812V19.2266H6.15249V16.3507Z" fill="#48669F"/>
<path d="M17.8561 3.60121H15.1172V7.0918H17.8561V3.60121Z" fill="#48669F"/>
<path d="M10.3064 8.57612H7.56641V11.4531H10.3064V8.57612Z" fill="#48669F"/>
<path d="M8.61719 17.8672V14.3066H13.029V9.67487H16.42L16.4194 17.8672H8.61719Z" fill="#48669F"/>
<path d="M18.9336 30.7832H22.3247V36.6328H18.9336V30.7832Z" fill="#48669F"/>
<path d="M6.96094 20.5019H12.5301V24.0625H6.96094V20.5019Z" fill="#48669F"/>
<path d="M28.7188 24.0664V20.5058H34.2892L34.2885 24.0664H28.7188Z" fill="#48669F"/>
<path d="M18.9336 7.93495H22.3247V13.7832H18.9336V7.93495Z" fill="#48669F"/>
<path d="M24.8281 17.8672V14.3066L24.8307 14.0454V9.67351H28.2218V14.3066H32.6342V17.8672H24.8281Z" fill="#48669F"/>
<path d="M12.9554 34.9746V30.3416H8.54297V26.7809H16.3465V34.9746H12.9554Z" fill="#48669F"/>
<path d="M59.9356 23.7727H68.4703C69.5104 23.7727 70.4378 23.6421 71.226 23.3851C72.0258 23.1233 72.7072 22.7486 73.2512 22.2712C73.8043 21.7863 74.224 21.1872 74.4979 20.4902C74.7667 19.8061 74.9033 19.0349 74.9033 18.1999C74.9033 16.5426 74.3477 15.239 73.2525 14.325C72.1819 13.4322 70.5732 12.9793 68.4703 12.9793H59.9356V23.7727ZM73.6579 35.6875L68.7183 27.8536L59.9356 27.8352V35.6875H55.3438V8.88072H68.3362C70.3096 8.88072 72.0388 9.09833 73.4779 9.52811C74.9014 9.95245 76.0957 10.572 77.027 11.3703C77.9486 12.1605 78.6448 13.1363 79.0956 14.272C79.5509 15.4199 79.7821 16.7412 79.7821 18.1999C79.7821 19.1845 79.6674 20.1339 79.4414 21.0199C79.218 21.8979 78.8695 22.718 78.4058 23.4572C77.9421 24.1957 77.3501 24.8621 76.6468 25.4388C75.9396 26.0182 75.095 26.5071 74.1365 26.8906L73.7026 27.0647L79.2873 35.6875H73.6579Z" fill="#48669F"/>
<path d="M84.2227 35.6875V8.88141H105.853V13.0153H88.8145V19.2913H103.905V23.1253H88.8145V31.572H106.206V35.6875H84.2227Z" fill="#48669F"/>
<path d="M116.154 23.7727H124.689C125.729 23.7727 126.657 23.6421 127.445 23.3851C128.243 23.1239 128.925 22.7493 129.469 22.2712C130.024 21.7856 130.443 21.1859 130.716 20.4902C130.985 19.8061 131.122 19.0356 131.122 18.1999C131.122 16.5426 130.566 15.239 129.471 14.325C128.401 13.4322 126.792 12.9793 124.689 12.9793H116.154V23.7727ZM129.877 35.6875L124.936 27.8536L116.154 27.8352V35.6875H111.562V8.88072H124.554C126.528 8.88072 128.257 9.09833 129.697 9.52811C131.12 9.95245 132.314 10.572 133.245 11.3703C134.167 12.1612 134.864 13.137 135.314 14.272C135.77 15.4185 136 16.7398 136 18.1999C136 19.1845 135.886 20.1339 135.66 21.0199C135.435 21.8999 135.087 22.7193 134.624 23.4572C134.162 24.1943 133.57 24.8614 132.865 25.4388C132.158 26.0182 131.314 26.5064 130.355 26.8906L129.921 27.0647L135.505 35.6875H129.877Z" fill="#48669F"/>
</g>
</svg>
