<svg width="118" height="154" viewBox="0 0 118 154" fill="none" xmlns="http://www.w3.org/2000/svg">
<path d="M89.7149 0.125L69.8299 20.0099V47.4837H101.398V137.06H16.0028V47.4837H28.4233L44.2096 31.6974V6.03559L50.111 0.129615H47.5522L28.4233 19.2492V31.6974H16.0028L0.216553 47.4837V137.06L16.0028 152.847H117.184V0.125H89.7149ZM85.6208 15.026H101.407V31.7251H85.6208V15.026Z" fill="white"/>
<path d="M7.26597 14.2287C5.3388 14.2287 3.68363 13.5371 2.29588 12.1493C0.908127 10.7616 0.216553 9.10647 0.216553 7.1793C0.216553 5.25213 0.903498 3.56467 2.27742 2.19075C3.65134 0.816828 5.31574 0.129883 7.26597 0.129883C9.2162 0.129883 10.8806 0.816828 12.2545 2.19075C13.6284 3.56467 14.3154 5.22907 14.3154 7.1793C14.3154 9.12953 13.6284 10.7939 12.2545 12.1678C10.8806 13.5417 9.2162 14.2287 7.26597 14.2287ZM2.66935 11.7805C3.95106 13.0622 5.48173 13.7031 7.27059 13.7031C9.05945 13.7031 10.5901 13.0622 11.8718 11.7805C13.1535 10.4988 13.7943 8.96355 13.7943 7.1793C13.7943 5.39505 13.1535 3.85972 11.8718 2.57801C10.5901 1.2963 9.05483 0.655482 7.27059 0.655482C5.48634 0.655482 3.95106 1.2963 2.66935 2.57801C1.38764 3.85972 0.746711 5.39505 0.746711 7.1793C0.746711 8.96355 1.38764 10.4988 2.66935 11.7805ZM9.31299 11.3748H11.005L8.64449 7.91696C9.91237 7.65878 10.5486 6.87039 10.5486 5.55641C10.5486 3.84132 9.52508 2.98373 7.48265 2.98373H4.27378V11.3748H5.82284V8.12903H7.09071L9.31299 11.3748ZM5.78603 6.86115V4.25161H7.33508C8.41854 4.25161 8.95797 4.68503 8.95797 5.55641C8.95797 6.47389 8.41854 6.90725 7.33508 6.86115H5.78603Z" fill="white"/>
</svg>
