<svg width="562" height="868" viewBox="0 0 562 868" fill="none" xmlns="http://www.w3.org/2000/svg">
<g filter="url(#filter0_d_849_22182)">
<g clip-path="url(#clip0_849_22182)">
<rect x="100" y="80" width="366" height="668" rx="30" fill="#048081"/>
<path d="M222.742 563.656L936.472 563.656C996.118 563.656 1044.47 515.303 1044.47 455.656L1044.47 29.4247C1044.47 -30.222 996.118 -78.5753 936.472 -78.5752L122.554 -78.5752C52.9204 -78.5752 1.48603 -13.6488 17.4195 54.1375L117.608 480.369C129.078 529.166 172.616 563.656 222.742 563.656Z" fill="#212E51"/>
<path d="M311.026 122.565C311.026 83.9056 342.366 51.9453 381.026 51.9453H389.678C453.743 51.9453 505.678 103.88 505.678 167.945V195.593C505.678 219.894 485.979 239.593 461.678 239.593H427.026C362.961 239.593 311.026 186.631 311.026 122.565Z" fill="#F9FAFB"/>
<path d="M180.787 621.799H78.1255C23.2062 621.799 -21.3147 666.32 -21.3147 721.239C-21.3147 776.158 23.2061 820.679 78.1254 820.679H180.787C244.899 820.679 292.256 760.903 277.59 698.491C267.031 653.559 226.943 621.799 180.787 621.799Z" fill="#F9FAFB"/>
<mask id="mask0_849_22182" style="mask-type:alpha" maskUnits="userSpaceOnUse" x="100" y="89" width="366" height="668">
<rect x="100" y="89" width="366" height="668" rx="30" fill="#326D6D"/>
</mask>
<g mask="url(#mask0_849_22182)">
<path d="M420.078 261L412.247 268.831V279.651H424.679V314.932H391.047V279.651H395.94L402.158 273.433V263.325L404.482 261H403.472L395.938 268.53V273.433H391.045L384.827 279.651V314.932L391.045 321.151H430.896V261H420.076H420.078ZM418.465 266.868H424.683V273.444H418.465V266.868Z" fill="white"/>
<path d="M387.605 266.555C386.846 266.555 386.192 266.283 385.647 265.736C385.1 265.19 384.827 264.537 384.827 263.778C384.827 263.018 385.098 262.354 385.639 261.812C386.181 261.271 386.836 261 387.605 261C388.374 261 389.029 261.271 389.57 261.812C390.112 262.354 390.383 263.009 390.383 263.778C390.383 264.546 390.112 265.202 389.57 265.743C389.029 266.285 388.374 266.555 387.605 266.555ZM385.793 265.59C386.296 266.093 386.901 266.345 387.605 266.345C388.309 266.345 388.911 266.093 389.417 265.59C389.921 265.086 390.174 264.48 390.174 263.778C390.174 263.075 389.923 262.469 389.417 261.966C388.911 261.462 388.307 261.21 387.605 261.21C386.902 261.21 386.296 261.462 385.793 261.966C385.287 262.471 385.035 263.075 385.035 263.778C385.035 264.48 385.287 265.086 385.793 265.59ZM388.412 265.431H389.078L388.148 264.069C388.648 263.967 388.898 263.658 388.898 263.14C388.898 262.464 388.495 262.127 387.69 262.127H386.427V265.431H387.039V264.153H387.539L388.413 265.431H388.412ZM387.022 263.653V262.625H387.633C388.059 262.625 388.271 262.797 388.271 263.14C388.271 263.501 388.059 263.672 387.633 263.653H387.022Z" fill="white"/>
<path d="M346.999 287.757V292.042C346.999 292.22 346.88 292.369 346.702 292.369C344.977 292.369 343.458 291.744 342.269 290.584C341.078 291.773 339.206 292.369 336.676 292.369H330.011L329.297 287.459H336.735C338.401 287.459 339.204 286.537 339.204 285.168V284.216C339.173 282.639 337.865 281.569 335.96 281.569H333.938V276.809H337.032C341.078 276.809 343.875 279.247 343.875 283.801V286.123C343.875 286.331 343.875 286.539 343.845 286.748C344.647 287.194 345.541 287.461 346.7 287.461C346.878 287.461 346.997 287.581 346.997 287.759L346.999 287.757Z" fill="white"/>
<path d="M358.514 287.756V292.041C358.514 292.219 358.395 292.368 358.217 292.368C356.64 292.368 354.945 291.566 353.546 290.138C352.177 291.626 349.827 292.368 346.703 292.368C346.525 292.368 346.405 292.219 346.405 292.041L346.464 287.756C346.464 287.578 346.583 287.459 346.761 287.459C349.083 287.459 350.332 286.567 350.332 284.423L350.302 280.852L354.943 280.316V286.504C355.926 287.129 357.056 287.457 358.215 287.457C358.393 287.457 358.512 287.576 358.512 287.754L358.514 287.756ZM354.587 293.885L357.711 296.949L354.648 300.012L352.476 297.899L350.363 300.012L347.238 296.949L350.302 293.885L352.474 295.998L354.587 293.885Z" fill="white"/>
<path d="M373.569 284.246C373.569 289.184 370.297 292.369 365.059 292.369H358.216C358.008 292.369 357.919 292.28 357.919 292.042V287.757C357.919 287.579 358.038 287.459 358.216 287.459H360.06C359.494 286.268 359.169 285.138 359.169 283.979C359.169 279.933 362.232 277.047 366.22 277.047C370.475 277.047 373.569 280.082 373.569 284.248V284.246ZM363.751 275.083L360.657 271.989L363.721 268.926L366.07 271.217L368.392 268.926L371.486 271.989L368.451 275.083L366.07 272.762L363.749 275.083H363.751ZM368.928 284.216C368.928 282.638 367.737 281.478 366.161 281.478C364.586 281.478 363.306 282.758 363.306 284.394C363.306 285.346 363.603 286.357 364.139 287.457H365.091C367.502 287.457 368.93 286.177 368.93 284.214L368.928 284.216Z" fill="white"/>
<path d="M340.06 324.986L337.693 321.349C337.526 321.381 337.345 321.408 337.146 321.423C336.947 321.44 336.731 321.447 336.498 321.447C334.671 321.447 333.211 321.141 332.115 320.525C331.019 319.912 330.225 318.961 329.737 317.674C329.246 316.388 329.002 314.746 329.002 312.754C329.002 310.762 329.246 309.092 329.737 307.797C330.227 306.502 331.019 305.54 332.115 304.908C333.211 304.277 334.671 303.961 336.498 303.961C338.326 303.961 339.816 304.277 340.92 304.908C342.023 305.538 342.821 306.502 343.311 307.797C343.801 309.092 344.046 310.745 344.046 312.754C344.046 314.582 343.851 316.104 343.461 317.325C343.071 318.546 342.419 319.48 341.505 320.128L343.548 323.265L340.06 324.984V324.986ZM336.498 317.814C337.362 317.814 338.013 317.622 338.454 317.24C338.894 316.858 339.189 316.289 339.339 315.534C339.488 314.778 339.562 313.853 339.562 312.756C339.562 311.66 339.488 310.73 339.339 309.967C339.189 309.204 338.899 308.623 338.468 308.223C338.036 307.826 337.381 307.625 336.5 307.625C335.62 307.625 335.01 307.824 334.569 308.223C334.13 308.621 333.825 309.198 333.66 309.954C333.493 310.709 333.41 311.643 333.41 312.756C333.41 313.87 333.49 314.775 333.647 315.521C333.804 316.269 334.107 316.837 334.556 317.227C335.004 317.617 335.652 317.812 336.498 317.812V317.814Z" fill="white"/>
<path d="M349.026 321.149V315.22L344.02 304.285H348.778L351.268 310.288L353.833 304.285H358.565L353.459 315.22V321.149H349.024H349.026Z" fill="white"/>
<path d="M359.612 321.149V304.285H366.338C367.716 304.285 368.887 304.459 369.85 304.808C370.812 305.156 371.59 305.675 372.179 306.364C372.768 307.053 373.196 307.909 373.461 308.93C373.726 309.95 373.859 311.126 373.859 312.454C373.859 313.781 373.734 315.002 373.486 316.065C373.236 317.127 372.829 318.041 372.265 318.804C371.7 319.568 370.945 320.149 369.998 320.548C369.051 320.946 367.889 321.147 366.51 321.147H359.61L359.612 321.149ZM364.045 317.488H366.186C366.883 317.488 367.444 317.364 367.868 317.115C368.292 316.866 368.61 316.517 368.826 316.068C369.042 315.62 369.182 315.089 369.25 314.474C369.316 313.861 369.35 313.188 369.35 312.457C369.35 311.727 369.309 311.134 369.225 310.577C369.142 310.021 368.993 309.543 368.777 309.146C368.561 308.748 368.245 308.449 367.83 308.248C367.415 308.049 366.866 307.949 366.186 307.949H364.045V317.488Z" fill="white"/>
<path d="M132.032 365.7C131.632 365.7 131.312 365.58 131.072 365.34C130.832 365.1 130.712 364.773 130.712 364.36C130.712 363.493 131.152 363.06 132.032 363.06C132.432 363.06 132.745 363.18 132.972 363.42C133.212 363.647 133.332 363.96 133.332 364.36C133.332 365.253 132.899 365.7 132.032 365.7ZM135.112 365.7C134.712 365.7 134.392 365.58 134.152 365.34C133.912 365.1 133.792 364.773 133.792 364.36C133.792 363.493 134.232 363.06 135.112 363.06C135.512 363.06 135.825 363.18 136.052 363.42C136.292 363.647 136.412 363.96 136.412 364.36C136.412 365.253 135.979 365.7 135.112 365.7ZM138.492 374.58H140.292V377H138.252C137.012 377 136.052 376.587 135.372 375.76C134.799 376.2 134.099 376.42 133.272 376.42C132.045 376.42 131.065 375.96 130.332 375.04C129.732 374.28 129.432 373.367 129.432 372.3C129.432 370.98 129.859 369.907 130.712 369.08C131.432 368.387 132.265 368.04 133.212 368.04C133.705 368.04 134.159 368.133 134.572 368.32V367.8L137.072 366.48V373.14C137.072 373.66 137.179 374.033 137.392 374.26C137.619 374.473 137.985 374.58 138.492 374.58ZM134.572 370.84C134.225 370.547 133.832 370.4 133.392 370.4C132.952 370.4 132.592 370.58 132.312 370.94C132.045 371.3 131.912 371.773 131.912 372.36C131.912 372.947 132.045 373.413 132.312 373.76C132.579 374.107 132.945 374.28 133.412 374.28C133.919 374.28 134.312 374.107 134.592 373.76C134.579 373.653 134.572 373.487 134.572 373.26V370.84ZM146.211 374.58H148.011V377H145.971C144.998 377 144.191 376.74 143.551 376.22C142.911 376.74 142.105 377 141.131 377H139.091V374.58H140.891C141.398 374.58 141.758 374.473 141.971 374.26C142.185 374.033 142.291 373.66 142.291 373.14V369.44L144.811 368.12V373.14C144.811 373.66 144.918 374.033 145.131 374.26C145.345 374.473 145.705 374.58 146.211 374.58ZM141.031 378.82C141.431 378.82 141.745 378.933 141.971 379.16C142.211 379.4 142.331 379.72 142.331 380.12C142.331 381.013 141.898 381.46 141.031 381.46C140.631 381.46 140.311 381.34 140.071 381.1C139.831 380.86 139.711 380.533 139.711 380.12C139.711 379.253 140.151 378.82 141.031 378.82ZM144.111 378.82C144.511 378.82 144.825 378.933 145.051 379.16C145.291 379.4 145.411 379.72 145.411 380.12C145.411 381.013 144.978 381.46 144.111 381.46C143.711 381.46 143.391 381.34 143.151 381.1C142.911 380.86 142.791 380.533 142.791 380.12C142.791 379.253 143.231 378.82 144.111 378.82ZM151.326 366.1C150.926 366.1 150.606 365.98 150.366 365.74C150.126 365.5 150.006 365.173 150.006 364.76C150.006 364.373 150.126 364.06 150.366 363.82C150.606 363.58 150.926 363.46 151.326 363.46C151.726 363.46 152.04 363.58 152.266 363.82C152.506 364.047 152.626 364.36 152.626 364.76C152.626 365.653 152.193 366.1 151.326 366.1ZM146.806 377V374.58H148.606C149.113 374.58 149.473 374.473 149.686 374.26C149.9 374.033 150.006 373.66 150.006 373.14V369.44L152.526 368.12V373.26C152.526 374.473 152.153 375.42 151.406 376.1C150.753 376.7 149.9 377 148.846 377H146.806ZM165.62 374.58V377H163.16C163.067 378.2 162.534 379.16 161.56 379.88C160.76 380.467 159.827 380.76 158.76 380.76C157.92 380.76 157.1 380.533 156.3 380.08V377.9C157.02 378.313 157.74 378.52 158.46 378.52C159.02 378.52 159.514 378.367 159.94 378.06C160.38 377.753 160.62 377.387 160.66 376.96C160.554 376.947 160.387 376.933 160.16 376.92C159.934 376.893 159.76 376.873 159.64 376.86C158.267 376.713 157.207 376.173 156.46 375.24C155.834 374.453 155.52 373.5 155.52 372.38C155.52 370.913 155.92 369.753 156.72 368.9C157.427 368.153 158.36 367.78 159.52 367.78C160.707 367.78 161.634 368.16 162.3 368.92C162.874 369.573 163.16 370.427 163.16 371.48V374.58H165.62ZM160.66 371.44C160.66 370.56 160.28 370.12 159.52 370.12C158.507 370.12 158 370.847 158 372.3C158 373.593 158.587 374.313 159.76 374.46C159.947 374.5 160.247 374.533 160.66 374.56V371.44ZM168.943 366.1C168.543 366.1 168.223 365.98 167.983 365.74C167.743 365.5 167.623 365.173 167.623 364.76C167.623 364.373 167.743 364.06 167.983 363.82C168.223 363.58 168.543 363.46 168.943 363.46C169.343 363.46 169.657 363.58 169.883 363.82C170.123 364.047 170.243 364.36 170.243 364.76C170.243 365.653 169.81 366.1 168.943 366.1ZM164.423 377V374.58H166.223C166.73 374.58 167.09 374.473 167.303 374.26C167.517 374.033 167.623 373.66 167.623 373.14V369.44L170.143 368.12V373.26C170.143 374.473 169.77 375.42 169.023 376.1C168.37 376.7 167.517 377 166.463 377H164.423ZM177.418 377C176.204 377 175.264 376.613 174.598 375.84C174.024 375.173 173.738 374.313 173.738 373.26V365.42L176.258 364.1V373.14C176.258 373.66 176.364 374.033 176.578 374.26C176.791 374.473 177.151 374.58 177.658 374.58H179.458V377H177.418ZM183.072 366.36C182.672 366.36 182.352 366.24 182.112 366C181.872 365.76 181.752 365.433 181.752 365.02C181.752 364.153 182.192 363.72 183.072 363.72C183.472 363.72 183.785 363.84 184.012 364.08C184.252 364.307 184.372 364.62 184.372 365.02C184.372 365.913 183.938 366.36 183.072 366.36ZM186.152 366.36C185.752 366.36 185.432 366.24 185.192 366C184.952 365.76 184.832 365.433 184.832 365.02C184.832 364.153 185.272 363.72 186.152 363.72C186.552 363.72 186.865 363.84 187.092 364.08C187.332 364.307 187.452 364.62 187.452 365.02C187.452 365.913 187.018 366.36 186.152 366.36ZM187.792 374.58H190.952V377H186.212C185.532 377 184.998 376.953 184.612 376.86C184.198 376.953 183.665 377 183.012 377H178.252V374.58H181.412C180.905 373.767 180.652 372.94 180.652 372.1C180.652 370.767 181.045 369.693 181.832 368.88C182.538 368.147 183.465 367.78 184.612 367.78C185.918 367.78 186.932 368.253 187.652 369.2C188.252 369.973 188.552 370.94 188.552 372.1C188.552 372.94 188.298 373.767 187.792 374.58ZM184.592 374.36C185.045 374.147 185.412 373.82 185.692 373.38C185.985 372.927 186.132 372.453 186.132 371.96C186.132 371.387 185.992 370.94 185.712 370.62C185.445 370.287 185.078 370.12 184.612 370.12C183.598 370.12 183.092 370.727 183.092 371.94C183.092 372.46 183.232 372.947 183.512 373.4C183.792 373.84 184.152 374.16 184.592 374.36ZM189.755 377V374.58H191.015C191.629 374.58 192.062 374.447 192.315 374.18C192.582 373.913 192.715 373.46 192.715 372.82V365.44L195.215 364.1V372.84C195.215 374.133 194.822 375.167 194.035 375.94C193.315 376.647 192.355 377 191.155 377H189.755ZM198.816 377V365.44L201.336 364.1V377H198.816ZM220.614 375.34C220.614 377.047 220.027 378.42 218.854 379.46C217.814 380.367 216.507 380.82 214.934 380.82C213.04 380.82 211.574 380.193 210.534 378.94C209.734 377.98 209.334 376.84 209.334 375.52C209.334 374.48 209.574 373.56 210.054 372.76L212.534 372.2C211.987 373.067 211.714 374.06 211.714 375.18C211.714 376.167 212 376.947 212.574 377.52C213.16 378.107 213.947 378.4 214.934 378.4C215.907 378.4 216.68 378.127 217.254 377.58C217.827 377.033 218.114 376.287 218.114 375.34V365.44L220.614 364.1V375.34ZM227.886 377C226.673 377 225.733 376.613 225.066 375.84C224.493 375.173 224.206 374.313 224.206 373.26V365.42L226.726 364.1V373.14C226.726 373.66 226.833 374.033 227.046 374.26C227.26 374.473 227.62 374.58 228.126 374.58H229.926V377H227.886ZM241.44 374.58H243.22V377H241.18C240.22 377 239.434 376.753 238.82 376.26C238.1 377.02 237.154 377.4 235.98 377.4C234.78 377.4 233.834 377.02 233.14 376.26C232.5 376.753 231.707 377 230.76 377H228.72V374.58H230.52C231.027 374.58 231.387 374.473 231.6 374.26C231.814 374.033 231.92 373.66 231.92 373.14V372.56C231.92 371 232.327 369.787 233.14 368.92C233.847 368.16 234.794 367.78 235.98 367.78C237.327 367.78 238.367 368.273 239.1 369.26C239.714 370.1 240.02 371.2 240.02 372.56V373.14C240.02 373.66 240.127 374.033 240.34 374.26C240.567 374.473 240.934 374.58 241.44 374.58ZM235.98 374.98C236.994 374.98 237.5 374.153 237.5 372.5C237.5 370.913 236.994 370.12 235.98 370.12C234.954 370.12 234.44 370.913 234.44 372.5C234.44 374.153 234.954 374.98 235.98 374.98ZM253.101 374.58V377H242.021V374.58H244.981C244.608 373.847 244.421 373.033 244.421 372.14C244.421 370.727 244.914 369.607 245.901 368.78C246.701 368.113 247.628 367.78 248.681 367.78C250.108 367.78 251.261 368.393 252.141 369.62V371.84C251.168 370.693 250.108 370.12 248.961 370.12C248.348 370.12 247.854 370.313 247.481 370.7C247.121 371.073 246.941 371.58 246.941 372.22C246.941 372.953 247.168 373.533 247.621 373.96C248.088 374.373 248.721 374.58 249.521 374.58H253.101ZM261.885 364.28L261.245 365.44H257.525L258.165 364.28H258.765C258.619 364.013 258.545 363.74 258.545 363.46C258.545 363.033 258.699 362.667 259.005 362.36C259.325 362.053 259.705 361.9 260.145 361.9C260.545 361.9 260.919 362.04 261.265 362.32V363.48C260.945 363.2 260.625 363.06 260.305 363.06C259.865 363.06 259.645 363.26 259.645 363.66C259.645 363.86 259.732 364.067 259.905 364.28H261.885ZM263.605 365.44L266.125 364.1V372.84C266.125 374.133 265.732 375.167 264.945 375.94C264.212 376.647 263.245 377 262.045 377H254.505L255.765 374.58H258.405V368.04L260.925 366.7V374.58H261.905C262.519 374.58 262.952 374.447 263.205 374.18C263.472 373.913 263.605 373.46 263.605 372.82V365.44ZM269.714 377V365.44L272.234 364.1V377H269.714ZM291.112 374.58H292.892V377H290.852C289.945 377 289.172 376.767 288.532 376.3C287.852 376.767 286.985 377 285.932 377H283.152C282.645 377 282.285 377.107 282.072 377.32C281.859 377.547 281.752 377.92 281.752 378.44V381.98L279.232 383.3V378.32C279.232 377.267 279.519 376.407 280.092 375.74C280.679 375.073 281.465 374.693 282.452 374.6C282.185 373.947 282.052 373.207 282.052 372.38C282.052 370.913 282.452 369.753 283.252 368.9C283.959 368.153 284.892 367.78 286.052 367.78C287.239 367.78 288.165 368.16 288.832 368.92C289.405 369.573 289.692 370.427 289.692 371.48V373.14C289.692 373.66 289.799 374.033 290.012 374.26C290.239 374.473 290.605 374.58 291.112 374.58ZM287.172 373.46V371.44C287.172 370.56 286.799 370.12 286.052 370.12C285.572 370.12 285.192 370.313 284.912 370.7C284.645 371.087 284.512 371.62 284.512 372.3C284.512 373.82 285.012 374.58 286.012 374.58C286.785 374.58 287.172 374.207 287.172 373.46ZM298.809 374.58H300.609V377H298.569C297.596 377 296.789 376.74 296.149 376.22C295.509 376.74 294.702 377 293.729 377H291.689V374.58H293.489C293.996 374.58 294.356 374.473 294.569 374.26C294.782 374.033 294.889 373.66 294.889 373.14V369.44L297.409 368.12V373.14C297.409 373.66 297.516 374.033 297.729 374.26C297.942 374.473 298.302 374.58 298.809 374.58ZM293.629 378.82C294.029 378.82 294.342 378.933 294.569 379.16C294.809 379.4 294.929 379.72 294.929 380.12C294.929 381.013 294.496 381.46 293.629 381.46C293.229 381.46 292.909 381.34 292.669 381.1C292.429 380.86 292.309 380.533 292.309 380.12C292.309 379.253 292.749 378.82 293.629 378.82ZM296.709 378.82C297.109 378.82 297.422 378.933 297.649 379.16C297.889 379.4 298.009 379.72 298.009 380.12C298.009 381.013 297.576 381.46 296.709 381.46C296.309 381.46 295.989 381.34 295.749 381.1C295.509 380.86 295.389 380.533 295.389 380.12C295.389 379.253 295.829 378.82 296.709 378.82ZM310.364 366.1C309.964 366.1 309.644 365.98 309.404 365.74C309.164 365.5 309.044 365.173 309.044 364.76C309.044 364.373 309.164 364.06 309.404 363.82C309.644 363.58 309.964 363.46 310.364 363.46C310.764 363.46 311.077 363.58 311.304 363.82C311.544 364.047 311.664 364.36 311.664 364.76C311.664 365.653 311.231 366.1 310.364 366.1ZM316.824 374.58H318.624V377H316.584C315.624 377 314.837 376.753 314.224 376.26C313.611 376.753 312.844 377 311.924 377H299.404V374.58H302.984L303.224 373.9V365.44L305.744 364.1V369.86C307.104 368.473 308.664 367.78 310.424 367.78C312.011 367.78 313.271 368.327 314.204 369.42C315.004 370.34 315.404 371.48 315.404 372.84V373.26C315.404 374.14 315.877 374.58 316.824 374.58ZM311.824 374.58C312.264 374.58 312.551 374.493 312.684 374.32C312.831 374.147 312.904 373.78 312.904 373.22V372.84C312.904 372.04 312.671 371.387 312.204 370.88C311.751 370.373 311.164 370.12 310.444 370.12C309.524 370.12 308.644 370.46 307.804 371.14C306.977 371.82 306.291 372.76 305.744 373.96V374.58H311.824ZM321.351 366.1C320.951 366.1 320.631 365.98 320.391 365.74C320.151 365.5 320.031 365.173 320.031 364.76C320.031 364.373 320.151 364.06 320.391 363.82C320.631 363.58 320.951 363.46 321.351 363.46C321.751 363.46 322.065 363.58 322.291 363.82C322.531 364.047 322.651 364.36 322.651 364.76C322.651 365.653 322.218 366.1 321.351 366.1ZM324.551 374.58H326.351V377H324.311C323.338 377 322.531 376.74 321.891 376.22C321.251 376.74 320.445 377 319.471 377H317.431V374.58H319.231C319.738 374.58 320.098 374.473 320.311 374.26C320.525 374.033 320.631 373.66 320.631 373.14V369.44L323.151 368.12V373.14C323.151 373.66 323.258 374.033 323.471 374.26C323.685 374.473 324.045 374.58 324.551 374.58ZM327.046 366.36C326.646 366.36 326.326 366.24 326.086 366C325.846 365.76 325.726 365.433 325.726 365.02C325.726 364.633 325.846 364.32 326.086 364.08C326.326 363.84 326.646 363.72 327.046 363.72C327.446 363.72 327.759 363.84 327.986 364.08C328.226 364.307 328.346 364.62 328.346 365.02C328.346 365.913 327.913 366.36 327.046 366.36ZM330.106 366.36C329.706 366.36 329.386 366.24 329.146 366C328.906 365.747 328.786 365.42 328.786 365.02C328.786 364.633 328.906 364.32 329.146 364.08C329.399 363.84 329.719 363.72 330.106 363.72C330.506 363.72 330.819 363.84 331.046 364.08C331.286 364.307 331.406 364.62 331.406 365.02C331.406 365.913 330.973 366.36 330.106 366.36ZM332.266 374.58H334.066V377H332.026C331.053 377 330.246 376.74 329.606 376.22C328.966 376.74 328.159 377 327.186 377H325.146V374.58H326.946C327.453 374.58 327.813 374.473 328.026 374.26C328.239 374.033 328.346 373.66 328.346 373.14V369.44L330.866 368.12V373.14C330.866 373.66 330.973 374.033 331.186 374.26C331.399 374.473 331.759 374.58 332.266 374.58ZM332.861 377V374.58H334.121C334.734 374.58 335.168 374.447 335.421 374.18C335.688 373.913 335.821 373.46 335.821 372.82V365.44L338.321 364.1V372.84C338.321 374.133 337.928 375.167 337.141 375.94C336.421 376.647 335.461 377 334.261 377H332.861ZM345.126 377L346.386 374.58H349.546C350.226 374.58 350.566 374.187 350.566 373.4C350.566 371.933 349.859 370.807 348.446 370.02L349.686 367.88C351.766 369.093 352.886 370.74 353.046 372.82C353.099 373.487 353.246 373.947 353.486 374.2C353.739 374.453 354.166 374.58 354.766 374.58H356.286V377H354.626C353.639 377 352.806 376.727 352.126 376.18C351.632 376.727 350.926 377 350.006 377H345.126ZM362.208 374.58H364.008V377H361.968C360.994 377 360.188 376.74 359.548 376.22C358.908 376.74 358.101 377 357.128 377H355.087V374.58H356.888C357.394 374.58 357.754 374.473 357.968 374.26C358.181 374.033 358.288 373.66 358.288 373.14V369.44L360.808 368.12V373.14C360.808 373.66 360.914 374.033 361.128 374.26C361.341 374.473 361.701 374.58 362.208 374.58ZM357.028 378.82C357.428 378.82 357.741 378.933 357.968 379.16C358.208 379.4 358.327 379.72 358.327 380.12C358.327 381.013 357.894 381.46 357.028 381.46C356.628 381.46 356.308 381.34 356.068 381.1C355.828 380.86 355.708 380.533 355.708 380.12C355.708 379.253 356.148 378.82 357.028 378.82ZM360.108 378.82C360.508 378.82 360.821 378.933 361.048 379.16C361.288 379.4 361.408 379.72 361.408 380.12C361.408 381.013 360.974 381.46 360.108 381.46C359.708 381.46 359.388 381.34 359.148 381.1C358.908 380.86 358.788 380.533 358.788 380.12C358.788 379.253 359.228 378.82 360.108 378.82ZM367.902 366.36C367.502 366.36 367.182 366.24 366.942 366C366.702 365.76 366.582 365.433 366.582 365.02C366.582 364.153 367.022 363.72 367.902 363.72C368.302 363.72 368.616 363.84 368.842 364.08C369.082 364.307 369.202 364.62 369.202 365.02C369.202 365.913 368.769 366.36 367.902 366.36ZM370.982 366.36C370.582 366.36 370.262 366.24 370.022 366C369.782 365.76 369.662 365.433 369.662 365.02C369.662 364.153 370.102 363.72 370.982 363.72C371.382 363.72 371.696 363.84 371.922 364.08C372.162 364.307 372.282 364.62 372.282 365.02C372.282 365.913 371.849 366.36 370.982 366.36ZM362.802 377V374.58H366.002C365.602 373.993 365.402 373.26 365.402 372.38C365.402 370.913 365.802 369.753 366.602 368.9C367.322 368.153 368.262 367.78 369.422 367.78C370.609 367.78 371.529 368.16 372.182 368.92C372.769 369.573 373.062 370.427 373.062 371.48V373.28C373.049 374.427 372.709 375.333 372.042 376C371.389 376.667 370.502 377 369.382 377H362.802ZM370.542 371.44C370.542 370.56 370.169 370.12 369.422 370.12C368.396 370.12 367.882 370.847 367.882 372.3C367.882 373.82 368.376 374.58 369.362 374.58C370.149 374.58 370.542 374.153 370.542 373.3V371.44ZM382.677 365.7C382.277 365.7 381.957 365.58 381.717 365.34C381.477 365.1 381.357 364.773 381.357 364.36C381.357 363.493 381.797 363.06 382.677 363.06C383.077 363.06 383.39 363.18 383.617 363.42C383.857 363.647 383.977 363.96 383.977 364.36C383.977 365.253 383.543 365.7 382.677 365.7ZM385.757 365.7C385.357 365.7 385.037 365.58 384.797 365.34C384.557 365.1 384.437 364.773 384.437 364.36C384.437 363.493 384.877 363.06 385.757 363.06C386.157 363.06 386.47 363.18 386.697 363.42C386.937 363.647 387.057 363.96 387.057 364.36C387.057 365.253 386.623 365.7 385.757 365.7ZM389.137 374.58H390.937V377H388.897C387.657 377 386.697 376.587 386.017 375.76C385.443 376.2 384.743 376.42 383.917 376.42C382.69 376.42 381.71 375.96 380.977 375.04C380.377 374.28 380.077 373.367 380.077 372.3C380.077 370.98 380.503 369.907 381.357 369.08C382.077 368.387 382.91 368.04 383.857 368.04C384.35 368.04 384.803 368.133 385.217 368.32V367.8L387.717 366.48V373.14C387.717 373.66 387.823 374.033 388.037 374.26C388.263 374.473 388.63 374.58 389.137 374.58ZM385.217 370.84C384.87 370.547 384.477 370.4 384.037 370.4C383.597 370.4 383.237 370.58 382.957 370.94C382.69 371.3 382.557 371.773 382.557 372.36C382.557 372.947 382.69 373.413 382.957 373.76C383.223 374.107 383.59 374.28 384.057 374.28C384.563 374.28 384.957 374.107 385.237 373.76C385.223 373.653 385.217 373.487 385.217 373.26V370.84ZM410.336 374.58H412.136V377H410.096C409.123 377 408.316 376.74 407.676 376.22C407.036 376.74 406.229 377 405.256 377H396.616C395.643 377 394.836 376.74 394.196 376.22C393.556 376.74 392.749 377 391.776 377H389.736V374.58H391.536C392.043 374.58 392.403 374.473 392.616 374.26C392.829 374.033 392.936 373.66 392.936 373.14V370.5L395.456 369.18V373.14C395.456 373.993 395.796 374.467 396.476 374.56C397.116 372.613 398.049 371.033 399.276 369.82C400.636 368.46 402.196 367.78 403.956 367.78C405.529 367.78 406.789 368.327 407.736 369.42C408.536 370.34 408.936 371.48 408.936 372.84V373.26C408.936 374.14 409.403 374.58 410.336 374.58ZM405.156 374.58C405.636 374.58 405.963 374.48 406.136 374.28C406.323 374.067 406.416 373.68 406.416 373.12V372.84C406.416 372.04 406.189 371.387 405.736 370.88C405.283 370.373 404.696 370.12 403.976 370.12C402.936 370.12 401.963 370.52 401.056 371.32C400.163 372.12 399.456 373.207 398.936 374.58H405.156ZM414.847 366.1C414.447 366.1 414.127 365.98 413.887 365.74C413.647 365.5 413.527 365.173 413.527 364.76C413.527 364.373 413.647 364.06 413.887 363.82C414.127 363.58 414.447 363.46 414.847 363.46C415.247 363.46 415.561 363.58 415.787 363.82C416.027 364.047 416.147 364.36 416.147 364.76C416.147 365.653 415.714 366.1 414.847 366.1ZM418.047 374.58H419.847V377H417.807C416.834 377 416.027 376.74 415.387 376.22C414.747 376.74 413.941 377 412.967 377H410.927V374.58H412.727C413.234 374.58 413.594 374.473 413.807 374.26C414.021 374.033 414.127 373.66 414.127 373.14V369.44L416.647 368.12V373.14C416.647 373.66 416.754 374.033 416.967 374.26C417.181 374.473 417.541 374.58 418.047 374.58ZM421.842 371.48C421.842 370.28 422.216 369.34 422.962 368.66C423.616 368.073 424.456 367.78 425.482 367.78C426.802 367.78 427.829 368.267 428.562 369.24C429.189 370.053 429.502 371.1 429.502 372.38C429.502 373.86 429.109 375.027 428.322 375.88C427.616 376.627 426.716 377 425.622 377C424.556 377 423.682 376.767 423.002 376.3C422.362 376.767 421.589 377 420.682 377H418.642V374.58H420.442C420.949 374.58 421.309 374.473 421.522 374.26C421.736 374.033 421.842 373.66 421.842 373.14V371.48ZM424.362 373.46C424.362 374.207 424.756 374.58 425.542 374.58C426.529 374.58 427.022 373.82 427.022 372.3C427.022 370.847 426.509 370.12 425.482 370.12C424.736 370.12 424.362 370.56 424.362 371.44V373.46Z" fill="#FAFAFA"/>
<path d="M157.586 442C154.796 442 152.634 441.111 151.1 439.332C149.782 437.799 149.122 435.821 149.122 433.398V415.366L154.918 412.33V433.122C154.918 434.318 155.164 435.177 155.654 435.698C156.145 436.189 156.973 436.434 158.138 436.434H162.278V442H157.586ZM163.111 408.524L165.181 404.108L177.325 401.9L175.255 406.316L163.111 408.524ZM162.053 415.01L164.123 410.548L176.221 408.386L174.151 412.802L162.053 415.01ZM175.881 436.434H180.021V442H175.329C173.09 442 171.235 441.402 169.763 440.206C168.291 441.402 166.435 442 164.197 442H159.505V436.434H163.645C164.81 436.434 165.638 436.189 166.129 435.698C166.619 435.177 166.865 434.318 166.865 433.122V424.612L172.661 421.576V433.122C172.661 434.318 172.906 435.177 173.397 435.698C173.887 436.189 174.715 436.434 175.881 436.434ZM170.039 446.186C170.959 446.186 171.679 446.447 172.201 446.968C172.753 447.52 173.029 448.256 173.029 449.176C173.029 451.231 172.032 452.258 170.039 452.258C169.119 452.258 168.383 451.982 167.831 451.43C167.279 450.878 167.003 450.127 167.003 449.176C167.003 448.287 167.279 447.566 167.831 447.014C168.383 446.462 169.119 446.186 170.039 446.186ZM177.249 442V436.434H181.389C182.554 436.434 183.382 436.189 183.873 435.698C184.364 435.177 184.609 434.318 184.609 433.122V424.612L190.405 421.576V433.398C190.405 436.189 189.546 438.366 187.829 439.93C186.326 441.31 184.364 442 181.941 442H177.249ZM179.733 452.258C178.813 452.258 178.077 451.982 177.525 451.43C176.973 450.878 176.697 450.127 176.697 449.176C176.697 447.183 177.709 446.186 179.733 446.186C180.653 446.186 181.374 446.447 181.895 446.968C182.447 447.52 182.723 448.256 182.723 449.176C182.723 451.231 181.726 452.258 179.733 452.258ZM186.817 452.258C185.897 452.258 185.161 451.982 184.609 451.43C184.057 450.878 183.781 450.127 183.781 449.176C183.781 447.183 184.793 446.186 186.817 446.186C187.737 446.186 188.458 446.447 188.979 446.968C189.531 447.52 189.807 448.256 189.807 449.176C189.807 451.231 188.81 452.258 186.817 452.258ZM213.227 436.434H217.367V442H212.675C211.632 442 210.666 441.862 209.777 441.586C209.378 444.53 208.198 446.861 206.235 448.578C204.456 450.111 202.325 450.878 199.841 450.878C197.909 450.878 196.023 450.387 194.183 449.406V444.346C195.778 445.235 197.342 445.68 198.875 445.68C200.562 445.68 201.865 445.128 202.785 444.024C203.736 442.951 204.211 441.448 204.211 439.516V424.612L207.983 422.634L209.961 421.576V421.622L210.007 421.576V433.122C210.007 434.318 210.252 435.177 210.743 435.698C211.234 436.189 212.062 436.434 213.227 436.434ZM226.354 417.528C225.434 417.528 224.698 417.252 224.146 416.7C223.594 416.148 223.318 415.397 223.318 414.446C223.318 412.453 224.33 411.456 226.354 411.456C227.274 411.456 227.995 411.732 228.516 412.284C229.068 412.805 229.344 413.526 229.344 414.446C229.344 416.501 228.347 417.528 226.354 417.528ZM233.438 417.528C232.518 417.528 231.782 417.252 231.23 416.7C230.678 416.148 230.402 415.397 230.402 414.446C230.402 412.453 231.414 411.456 233.438 411.456C234.358 411.456 235.079 411.732 235.6 412.284C236.152 412.805 236.428 413.526 236.428 414.446C236.428 416.501 235.431 417.528 233.438 417.528ZM214.624 442V436.434H221.984C221.064 435.085 220.604 433.398 220.604 431.374C220.604 428.001 221.524 425.333 223.364 423.37C225.02 421.653 227.182 420.794 229.85 420.794C232.579 420.794 234.695 421.668 236.198 423.416C237.547 424.919 238.222 426.881 238.222 429.304V433.444C238.191 436.081 237.409 438.167 235.876 439.7C234.373 441.233 232.334 442 229.758 442H214.624ZM232.426 429.212C232.426 427.188 231.567 426.176 229.85 426.176C227.489 426.176 226.308 427.847 226.308 431.19C226.308 434.686 227.443 436.434 229.712 436.434C231.521 436.434 232.426 435.453 232.426 433.49V429.212ZM272.617 417.528C271.697 417.528 270.961 417.252 270.409 416.7C269.857 416.148 269.581 415.397 269.581 414.446C269.581 412.453 270.593 411.456 272.617 411.456C273.537 411.456 274.257 411.732 274.779 412.284C275.331 412.805 275.607 413.526 275.607 414.446C275.607 416.501 274.61 417.528 272.617 417.528ZM279.701 417.528C278.781 417.528 278.045 417.252 277.493 416.7C276.941 416.148 276.665 415.397 276.665 414.446C276.665 412.453 277.677 411.456 279.701 411.456C280.621 411.456 281.341 411.732 281.863 412.284C282.415 412.805 282.691 413.526 282.691 414.446C282.691 416.501 281.694 417.528 279.701 417.528ZM284.807 442C284.193 444.975 282.568 447.213 279.931 448.716C277.508 450.065 274.38 450.74 270.547 450.74C265.456 450.74 261.623 449.283 259.047 446.37C257.145 444.193 256.195 441.525 256.195 438.366C256.195 435.943 256.762 433.827 257.897 432.018L263.417 430.868C262.19 432.953 261.577 435.146 261.577 437.446C261.577 439.869 262.343 441.755 263.877 443.104C265.41 444.484 267.633 445.174 270.547 445.174C274.993 445.174 277.677 444.039 278.597 441.77L277.769 441.678C274.273 441.31 271.635 440.099 269.857 438.044C268.323 436.296 267.557 434.073 267.557 431.374C267.557 428.001 268.477 425.333 270.317 423.37C271.942 421.653 274.089 420.794 276.757 420.794C279.486 420.794 281.617 421.668 283.151 423.416C284.469 424.919 285.129 426.881 285.129 429.304V436.434H290.741V442H284.807ZM279.333 436.342V429.212C279.333 427.188 278.474 426.176 276.757 426.176C275.653 426.176 274.779 426.621 274.135 427.51C273.521 428.399 273.215 429.626 273.215 431.19C273.215 434.226 274.84 435.882 278.091 436.158L279.333 436.342ZM303.805 436.434H307.945V442H303.253C300.861 442 298.914 441.325 297.411 439.976C295.725 441.325 293.655 442 291.201 442H287.981V436.434H290.879C292.29 436.434 293.287 436.127 293.869 435.514C294.483 434.901 294.789 433.858 294.789 432.386V415.412L300.539 412.33V421.622L300.585 421.576V433.122C300.585 434.318 300.831 435.177 301.321 435.698C301.812 436.189 302.64 436.434 303.805 436.434ZM345.252 436.434H349.392V442H344.7C342.492 442 340.683 441.433 339.272 440.298C337.862 441.433 336.098 442 333.982 442H305.186V436.434H313.42L313.972 434.87V415.412L319.768 412.33V425.578C322.896 422.389 326.484 420.794 330.532 420.794C334.182 420.794 337.08 422.051 339.226 424.566C341.066 426.682 341.986 429.304 341.986 432.432V433.398C341.986 435.422 343.075 436.434 345.252 436.434ZM333.752 436.434C334.764 436.434 335.424 436.235 335.73 435.836C336.068 435.437 336.236 434.594 336.236 433.306V432.432C336.236 430.592 335.7 429.089 334.626 427.924C333.584 426.759 332.234 426.176 330.578 426.176C328.462 426.176 326.438 426.958 324.506 428.522C322.605 430.086 321.026 432.248 319.768 435.008V436.434H333.752ZM355.665 416.93C354.745 416.93 354.009 416.654 353.457 416.102C352.905 415.55 352.629 414.799 352.629 413.848C352.629 412.959 352.905 412.238 353.457 411.686C354.009 411.134 354.745 410.858 355.665 410.858C356.585 410.858 357.306 411.134 357.827 411.686C358.379 412.207 358.655 412.928 358.655 413.848C358.655 415.903 357.659 416.93 355.665 416.93ZM363.025 436.434H367.165V442H362.473C360.235 442 358.379 441.402 356.907 440.206C355.435 441.402 353.58 442 351.341 442H346.649V436.434H350.789C351.955 436.434 352.783 436.189 353.273 435.698C353.764 435.177 354.009 434.318 354.009 433.122V424.612L359.805 421.576V433.122C359.805 434.318 360.051 435.177 360.541 435.698C361.032 436.189 361.86 436.434 363.025 436.434ZM373.409 416.93C372.489 416.93 371.753 416.654 371.201 416.102C370.649 415.55 370.373 414.799 370.373 413.848C370.373 412.959 370.649 412.238 371.201 411.686C371.753 411.134 372.489 410.858 373.409 410.858C374.329 410.858 375.05 411.134 375.571 411.686C376.123 412.207 376.399 412.928 376.399 413.848C376.399 415.903 375.403 416.93 373.409 416.93ZM380.769 436.434H384.909V442H380.217C377.979 442 376.123 441.402 374.651 440.206C373.179 441.402 371.324 442 369.085 442H364.393V436.434H368.533C369.699 436.434 370.527 436.189 371.017 435.698C371.508 435.177 371.753 434.318 371.753 433.122V424.612L377.549 421.576V433.122C377.549 434.318 377.795 435.177 378.285 435.698C378.776 436.189 379.604 436.434 380.769 436.434ZM382.138 442V436.434H387.014C388.179 436.434 389.007 436.189 389.498 435.698C390.019 435.177 390.28 434.318 390.28 433.122V427.05L396.076 424.014V433.122C396.076 434.318 396.321 435.177 396.812 435.698C397.302 436.189 398.13 436.434 399.296 436.434H402.424C403.589 436.434 404.417 436.189 404.908 435.698C405.398 435.177 405.644 434.318 405.644 433.122V425.854L411.44 422.772V433.122C411.44 434.318 411.685 435.177 412.176 435.698C412.697 436.189 413.54 436.434 414.706 436.434H417.834C418.999 436.434 419.827 436.189 420.318 435.698C420.808 435.177 421.054 434.318 421.054 433.122V424.612L426.85 421.576V433.398C426.85 436.127 426.022 438.274 424.366 439.838C422.924 441.218 421.023 441.939 418.662 442H414.108C411.838 442 409.983 441.325 408.542 439.976C407.223 441.295 405.475 441.969 403.298 442H398.744C396.474 442 394.619 441.325 393.178 439.976C391.736 441.325 389.881 442 387.612 442H382.138Z" fill="white"/>
</g>
</g>
</g>
<defs>
<filter id="filter0_d_849_22182" x="0" y="0" width="566" height="868" filterUnits="userSpaceOnUse" color-interpolation-filters="sRGB">
<feFlood flood-opacity="0" result="BackgroundImageFix"/>
<feColorMatrix in="SourceAlpha" type="matrix" values="0 0 0 0 0 0 0 0 0 0 0 0 0 0 0 0 0 0 127 0" result="hardAlpha"/>
<feOffset dy="20"/>
<feGaussianBlur stdDeviation="50"/>
<feComposite in2="hardAlpha" operator="out"/>
<feColorMatrix type="matrix" values="0 0 0 0 0 0 0 0 0 0 0 0 0 0 0 0 0 0 0.1 0"/>
<feBlend mode="normal" in2="BackgroundImageFix" result="effect1_dropShadow_849_22182"/>
<feBlend mode="normal" in="SourceGraphic" in2="effect1_dropShadow_849_22182" result="shape"/>
</filter>
<clipPath id="clip0_849_22182">
<rect x="100" y="80" width="366" height="668" rx="28" fill="white"/>
</clipPath>
</defs>
</svg>
