<svg width="800" height="600" xmlns="http://www.w3.org/2000/svg">
 <defs>
  <filter id="_blur">
   <feGaussianBlur stdDeviation="0.7" in="SourceGraphic"/>
  </filter>
 </defs>
 <g>
  <title>Layer 1</title>
  <g>
   <path fill="white" d="m440.12931,481.34418l-7.8315,7.83148l0,10.81942l12.4327,0l0,35.2814l-33.6322,0l0,-35.2814l4.8927,0l6.2183,-6.2183l0,-10.10741l2.3233,-2.32519l-1.0092,0l-7.5342,7.53042l0,4.90218l-4.8928,0l-6.2183,6.2183l0,35.2814l6.2183,6.2182l39.8506,0l0,-60.1505l-10.8196,0l0.0019,0zm-1.6133,5.86793l6.2182,0l0,6.57607l-6.2182,0l0,-6.57607z"/>
   <path fill="white" d="m407.65591,486.89968c-0.7593,0 -1.4125,-0.27266 -1.9579,-0.81988c-0.5472,-0.54532 -0.8199,-1.19859 -0.8199,-1.95788c0,-0.75929 0.2708,-1.42391 0.8124,-1.96545c0.5415,-0.54154 1.1966,-0.81229 1.9654,-0.81229c0.7688,0 1.4239,0.27075 1.9654,0.81229c0.5416,0.54154 0.8124,1.19669 0.8124,1.96545c0,0.76875 -0.2708,1.4239 -0.8124,1.96544c-0.5415,0.54154 -1.1966,0.81232 -1.9654,0.81232zm-1.8121,-0.96568c0.5037,0.50367 1.1077,0.7555 1.8121,0.7555c0.7044,0 1.3065,-0.25183 1.8121,-0.7555c0.5036,-0.50367 0.7574,-1.1096 0.7574,-1.81208c0,-0.70249 -0.2519,-1.3084 -0.7574,-1.81206c-0.5056,-0.50367 -1.1096,-0.7555 -1.8121,-0.7555c-0.7025,0 -1.3084,0.25183 -1.8121,0.7555c-0.5055,0.50556 -0.7574,1.10957 -0.7574,1.81206c0,0.70248 0.2519,1.30841 0.7574,1.81208zm2.6187,-0.15907l0.6665,0l-0.9297,-1.36141c0.4999,-0.10225 0.7499,-0.41089 0.7499,-0.92971c0,-0.67598 -0.4034,-1.01301 -1.2081,-1.01301l-1.2629,0l0,3.30413l0.6115,0l0,-1.27811l0.4999,0l0.8748,1.27811l-0.0019,0zm-1.3898,-1.77797l0,-1.02817l0.6116,0c0.426,0 0.6381,0.1723 0.6381,0.51502c0,0.36166 -0.2121,0.53209 -0.6381,0.51315l-0.6116,0z"/>
   <path fill="white" d="m367.05011,508.10088l0,4.285c0,0.178 -0.1193,0.3276 -0.2973,0.3276c-1.7249,0 -3.2435,-0.6248 -4.4326,-1.7856c-1.191,1.1892 -3.0637,1.7856 -5.59339,1.7856l-6.66509,0l-0.71384,-4.9098l7.43763,0c1.66627,0 2.46909,-0.9221 2.46909,-2.2911l0,-0.9525c-0.0303,-1.5772 -1.33868,-2.6471 -3.24353,-2.6471l-2.02225,0l0,-4.7602l3.09397,0c4.04641,0 6.84311,2.4388 6.84311,6.9926l0,2.3215c0,0.2082 0,0.4165 -0.0303,0.6248c0.8028,0.4469 1.6965,0.7139 2.8554,0.7139c0.1779,0 0.2972,0.1193 0.2972,0.2972l0.0019,-0.0019z"/>
   <path fill="white" d="m378.56511,508.10008l0,4.285c0,0.178 -0.1192,0.3276 -0.2972,0.3276c-1.5773,0 -3.272,-0.8029 -4.6713,-2.2306c-1.369,1.4883 -3.7188,2.2306 -6.843,2.2306c-0.178,0 -0.2973,-0.1496 -0.2973,-0.3276l0.0587,-4.285c0,-0.178 0.1193,-0.2973 0.2973,-0.2973c2.3214,0 3.5711,-0.8918 3.5711,-3.0352l-0.0303,-3.5711l4.6409,-0.5359l0,6.1879c0.9827,0.6249 2.1132,0.9525 3.272,0.9525c0.178,0 0.2973,0.1192 0.2973,0.2972l0.0018,0.0019zm-3.9271,6.1292l3.1243,3.0637l-3.0637,3.0637l-2.1718,-2.1131l-2.1131,2.1131l-3.1243,-3.0637l3.0637,-3.0637l2.1718,2.1132l2.1131,-2.1132z"/>
   <path fill="white" d="m393.61971,504.59018c0,4.9382 -3.272,8.1231 -8.5094,8.1231l-6.8431,0c-0.2083,0 -0.2973,-0.089 -0.2973,-0.3276l0,-4.285c0,-0.1779 0.1193,-0.2972 0.2973,-0.2972l1.8443,0c-0.5662,-1.191 -0.8918,-2.3214 -0.8918,-3.4803c0,-4.0464 3.0636,-6.932 7.0513,-6.932c4.2547,0 7.3487,3.0352 7.3487,7.2009l0,-0.0019zm-9.8178,-9.1626l-3.094,-3.094l3.0637,-3.06362l2.3498,2.29112l2.3214,-2.29112l3.094,3.06362l-3.0353,3.094l-2.3801,-2.3214l-2.3214,2.3214l0.0019,0zm5.1768,9.1323c0,-1.5773 -1.191,-2.738 -2.7664,-2.738c-1.5754,0 -2.8554,1.28 -2.8554,2.916c0,0.9524 0.2973,1.9636 0.8332,3.0637l0.9524,0c2.4104,0 3.8381,-1.28 3.8381,-3.2436l-0.0019,0.0019z"/>
   <path fill="white" d="m360.11091,545.33038l-2.36682,-3.6373c-0.16663,0.0321 -0.3484,0.0587 -0.54722,0.0738c-0.19882,0.017 -0.41468,0.0246 -0.64758,0.0246c-1.82721,0 -3.2871,-0.3067 -4.38343,-0.9221c-1.09633,-0.6135 -1.8897,-1.564 -2.37822,-2.8516c-0.49042,-1.2857 -0.73468,-2.9273 -0.73468,-4.9193c0,-1.992 0.24426,-3.662 0.73468,-4.9572c0.49041,-1.2951 1.28189,-2.257 2.37822,-2.8894c1.09633,-0.6305 2.55622,-0.9468 4.38343,-0.9468c1.82722,0 3.31742,0.3163 4.42132,0.9468c1.1039,0.6305 1.9011,1.5943 2.3915,2.8894c0.4904,1.2952 0.7346,2.9482 0.7346,4.9572c0,1.8272 -0.195,3.3496 -0.585,4.5709c-0.3901,1.2213 -1.0415,2.1548 -1.956,2.8024l2.0431,3.1375l-3.4879,1.7193l0,0.0018zm-3.56162,-7.1725c0.86344,0 1.5148,-0.1912 1.95598,-0.5737c0.43929,-0.3825 0.73464,-0.9505 0.88424,-1.706c0.1496,-0.7555 0.2235,-1.6815 0.2235,-2.7778c0,-1.0963 -0.0739,-2.026 -0.2235,-2.7891c-0.1496,-0.7631 -0.43927,-1.3444 -0.87098,-1.7439c-0.43172,-0.3977 -1.08687,-0.5984 -1.96734,-0.5984c-0.88047,0 -1.49018,0.1988 -1.93136,0.5984c-0.43929,0.3976 -0.74414,0.9751 -0.90888,1.7306c-0.16663,0.7555 -0.24994,1.689 -0.24994,2.8024c0,1.1134 0.07953,2.0185 0.23669,2.7645c0.15716,0.7479 0.46012,1.316 0.90887,1.706c0.44876,0.3901 1.09633,0.5851 1.94272,0.5851l0,0.0019z"/>
   <path fill="white" d="m369.07691,541.49278l0,-5.9285l-5.0064,-10.9349l4.7584,0l2.4899,6.0023l2.5657,-6.0023l4.7318,0l-5.1067,10.9349l0,5.9285l-4.4346,0l0.0019,0z"/>
   <path fill="white" d="m379.66321,541.49278l0,-16.8634l6.7257,0c1.3785,0 2.5487,0.1742 3.5125,0.5226c0.9618,0.3484 1.7401,0.8672 2.3289,1.5564c0.5889,0.6892 1.0168,1.5451 1.2819,2.5657c0.2651,1.0206 0.3977,2.1964 0.3977,3.5238c0,1.3273 -0.125,2.5486 -0.373,3.6109c-0.25,1.0622 -0.6571,1.9768 -1.2213,2.7398c-0.5643,0.7631 -1.3198,1.3444 -2.2666,1.744c-0.9467,0.3976 -2.1093,0.5983 -3.4878,0.5983l-6.8998,0l0.0018,0.0019zm4.4327,-3.6601l2.1415,0c0.6968,0 1.2573,-0.125 1.6815,-0.373c0.4241,-0.25 0.7422,-0.5984 0.9581,-1.0472c0.2158,-0.4487 0.3559,-0.9789 0.4241,-1.5943c0.0663,-0.6135 0.1004,-1.2856 0.1004,-2.0165c0,-0.7309 -0.0417,-1.3236 -0.125,-1.8803c-0.0833,-0.5567 -0.2329,-1.0338 -0.4488,-1.4315c-0.2158,-0.3976 -0.532,-0.6968 -0.9467,-0.8975c-0.4147,-0.1988 -0.9638,-0.2991 -1.6436,-0.2991l-2.1415,0l0,9.5394z"/>
  </g>
  <g transform="rotate(-3.84876 416.892 454.775)" stroke="null" filter="url(#_blur)">
   <rect stroke="null" x="-45.08304" y="-31.40775" fill="#048081" rx="30" height="972.36518" width="923.95104"/>
  </g>
  <path stroke="null" fill="#212E51" d="m151.34317,372.89354l623.89868,0c52.13885,0 94.40693,-32.69258 94.40693,-73.02129l0,-288.18481c0,-40.32851 -42.26808,-73.02109 -94.40693,-73.02109l-711.47676,0c-60.86948,0 -136.00317,29.06889 -91.90217,89.72998l87.57842,288.18494c10.02637,32.99278 48.08451,56.31226 91.90182,56.31226z"/>
  <g transform="rotate(-42.9721 746.006 64.6623)" stroke="null">
   <path stroke="null" fill="#F9FAFB" d="m797.99559,-79.44526l-104.02284,0c-55.64772,0 -100.75943,64.5192 -100.75943,144.1077c0,79.58807 45.1116,144.10745 100.75932,144.10745l104.02294,0c64.96265,0 112.94777,-86.62678 98.08725,-177.07348c-10.69905,-65.11515 -51.31875,-111.14167 -98.08725,-111.14167z"/>
  </g>
  <g stroke="null">
   <path stroke="null" fill="#F9FAFB" d="m-89.48714,487.26382c0,-46.57796 54.97945,-85.08405 122.80024,-85.08405l15.17758,0c112.38831,0 203.49728,62.5719 203.49728,139.75816l0,33.31027c0,29.27813 -34.55773,53.01172 -77.18869,53.01172l-60.7896,0c-112.38796,0 -203.49681,-63.80924 -203.49681,-140.99611z"/>
  </g>
 </g>
</svg>