<svg width="57" height="57" viewBox="0 0 57 57" fill="none" xmlns="http://www.w3.org/2000/svg">
<g id="Frame" clip-path="url(#clip0_716_6706)">
<g id="Clip path group">
<mask id="mask0_716_6706" style="mask-type:luminance" maskUnits="userSpaceOnUse" x="-15" y="-15" width="87" height="87">
<g id="__lottie_element_2">
<path id="Vector" d="M71.4418 -14.4824H-14.5117V71.4711H71.4418V-14.4824Z" fill="white"/>
</g>
</mask>
<g mask="url(#mask0_716_6706)">
<g id="Group">
<g id="Group_2">
<g id="Group_3">
<path id="Vector_2" d="M32.894 27.9738L34.1333 29.6172C34.4785 30.0749 35.1157 30.187 35.6035 29.8859C37.1251 28.9453 38.4631 27.7793 39.5957 26.4054C39.9589 25.9644 39.9361 25.3211 39.5331 24.9163L38.0641 23.44C37.7216 23.0957 37.6417 22.5648 37.8799 22.1412C38.2862 21.4188 38.6193 20.6597 38.8758 19.8751C39.0116 19.4603 39.3951 19.1764 39.8306 19.1439L42.2058 18.9683C42.7331 18.929 43.1552 18.5203 43.2205 17.9955C43.4454 16.1861 43.3664 14.336 42.9883 12.5577C42.8735 12.018 42.3812 11.6429 41.8308 11.6815L39.6367 11.8353C39.1721 11.8678 38.7317 11.6068 38.554 11.1768C38.3953 10.7927 38.2163 10.4131 38.0158 10.0393C37.8271 9.68832 37.6241 9.34978 37.4077 9.02462C37.1579 8.64901 37.1764 8.1564 37.4402 7.79052L38.7798 5.93192C39.0952 5.49431 39.0454 4.89382 38.6673 4.5091C37.3958 3.2133 35.901 2.12689 34.2721 1.31489C33.7838 1.07148 33.1894 1.21674 32.8739 1.66224L31.5754 3.49501C31.3089 3.87153 30.8351 4.04445 30.3911 3.91833C29.5478 3.67917 28.6793 3.52723 27.8005 3.46767C27.3039 3.43424 26.8939 3.06926 26.8007 2.5803L26.4199 0.580391C26.3117 0.0127224 25.7832 -0.371092 25.2089 -0.309707C23.4089 -0.117341 21.6707 0.371316 20.0154 1.15019C19.5455 1.37142 19.2802 1.87801 19.3884 2.38551L19.9054 4.80783C19.9932 5.2196 19.844 5.65386 19.5054 5.90427C18.8557 6.38503 18.2631 6.92048 17.731 7.50183C17.4007 7.86194 16.8704 7.95341 16.4343 7.73248L14.5839 6.79498C14.0764 6.53788 13.4559 6.70989 13.1517 7.19095C12.1889 8.71162 11.4748 10.3982 11.0524 12.1511C10.9275 12.6698 11.1846 13.2053 11.6711 13.4238L13.8057 14.3828C14.2095 14.5643 14.4724 14.9706 14.452 15.4127C14.4153 16.2202 14.4575 17.0349 14.5797 17.8457C14.6502 18.3131 14.401 18.7701 13.9767 18.9786L12.0397 19.9292C11.5395 20.1747 11.3019 20.7551 11.483 21.2821C11.7711 22.119 12.1282 22.9356 12.5488 23.719C12.9772 24.5164 13.4708 25.278 14.022 25.9921C14.3645 26.4355 14.9848 26.5555 15.4655 26.2674L17.3001 25.1683C17.7104 24.9227 18.2337 24.9695 18.5895 25.2889C19.2529 25.8842 19.9722 26.4018 20.7347 26.8378C21.1535 27.0773 21.3628 27.5638 21.254 28.0336L20.7733 30.105C20.6463 30.6526 20.9529 31.2078 21.4826 31.3959C23.1689 31.9943 24.9563 32.3164 26.742 32.3443C27.3009 32.3532 27.7807 31.9444 27.8567 31.3907L28.1481 29.2638C28.2132 28.7903 28.5757 28.412 29.047 28.3333C29.9149 28.1886 30.7765 27.9507 31.618 27.6143C32.075 27.4319 32.5974 27.5805 32.894 27.9738ZM24.3884 23.9566C14.6666 19.4271 18.6184 6.29842 29.226 7.88716C29.34 7.90448 29.4558 7.93943 29.56 7.98775C39.276 12.5206 35.3254 25.642 24.722 24.0569C24.6081 24.0402 24.4929 24.0053 24.3884 23.9566Z" fill="#5B78AA"/>
</g>
</g>
<g id="Group_4">
<g id="Group_5">
<path id="Vector_3" d="M28.2909 39.4644L29.6156 38.4655C29.9845 38.1871 30.0748 37.6733 29.832 37.2803C29.0741 36.0538 28.1344 34.9762 27.027 34.0633C26.6721 33.7704 26.1537 33.7892 25.8273 34.1138L24.6375 35.2974C24.3598 35.5734 23.9322 35.6381 23.5906 35.446C23.0087 35.1181 22.3966 34.8501 21.7646 34.6435C21.4303 34.5341 21.2011 34.2253 21.1753 33.8743L21.034 31.9601C21.0027 31.535 20.6727 31.1952 20.25 31.1426C18.7919 30.9609 17.301 31.0247 15.8678 31.3292C15.433 31.4219 15.1306 31.8191 15.1616 32.2628L15.2856 34.0302C15.3117 34.4046 15.1017 34.7599 14.755 34.903C14.4456 35.0306 14.1393 35.1747 13.8382 35.3366C13.5552 35.4889 13.2826 35.6521 13.0207 35.8265C12.718 36.0277 12.3211 36.0131 12.0264 35.8004L10.5282 34.721C10.1757 34.4669 9.69155 34.5073 9.38158 34.8118C8.33741 35.8365 7.4619 37.0409 6.80762 38.3534C6.61131 38.7472 6.72831 39.2258 7.0872 39.4802L8.56472 40.5268C8.86801 40.7413 9.00658 41.1236 8.90538 41.4813C8.71241 42.1611 8.59025 42.8607 8.54223 43.5688C8.51519 43.969 8.22102 44.2996 7.82717 44.3744L6.21564 44.6816C5.75859 44.7685 5.44892 45.1943 5.49815 45.6574C5.65344 47.1079 6.04667 48.5088 6.67482 49.8426C6.8529 50.2212 7.26072 50.4352 7.67006 50.348L9.62196 49.9313C9.95381 49.8602 10.3042 49.9803 10.506 50.2532C10.8934 50.7768 11.325 51.2551 11.7933 51.6839C12.0835 51.9498 12.1573 52.3774 11.9792 52.7287L11.2238 54.2195C11.0162 54.6283 11.1551 55.1288 11.5429 55.3737C12.7684 56.1496 14.1274 56.7251 15.5402 57.0658C15.9581 57.1664 16.3896 56.9591 16.5659 56.5671L17.3387 54.8468C17.4848 54.5213 17.8124 54.3092 18.1686 54.3256C18.8192 54.3551 19.4762 54.3217 20.1293 54.2229C20.5058 54.1661 20.8744 54.3669 21.0422 54.7091L21.8083 56.2702C22.0058 56.6732 22.4738 56.8646 22.8984 56.7184C23.573 56.4863 24.2312 56.1988 24.8624 55.86C25.5048 55.5147 26.1184 55.1169 26.694 54.6727C27.0516 54.397 27.148 53.8971 26.9161 53.5097L26.0303 52.0306C25.8321 51.7 25.8698 51.2782 26.1272 50.9916C26.6068 50.4574 27.0243 49.8775 27.3756 49.2631C27.5686 48.9255 27.9606 48.7565 28.3392 48.8446L30.0088 49.2318C30.4504 49.3342 30.8971 49.0874 31.0487 48.6605C31.5307 47.3015 31.7908 45.861 31.8133 44.4218C31.8203 43.9711 31.4909 43.5852 31.0448 43.5238L29.3305 43.2889C28.9488 43.2366 28.644 42.9446 28.5805 42.5644C28.4641 41.8651 28.2724 41.1708 28.0013 40.4925C27.8542 40.1242 27.9743 39.7033 28.2909 39.4644ZM25.0536 46.3187C21.4032 54.1536 10.8232 50.9685 12.1038 42.42C12.1178 42.3283 12.1458 42.2353 12.185 42.1511C15.8381 34.3213 26.412 37.5046 25.1344 46.0494C25.1207 46.1409 25.0928 46.2345 25.0536 46.3187Z" fill="#1B3762"/>
</g>
</g>
<g id="Group_6">
<g id="Group_7">
<path id="Vector_4" d="M44.5225 43.3703L45.1359 44.2771C45.3067 44.5297 45.642 44.6062 45.9092 44.4597C46.7428 44.0016 47.485 43.4191 48.1238 42.7204C48.3287 42.4964 48.3342 42.1539 48.1315 41.9281L47.3918 41.1039C47.2193 40.9116 47.1913 40.6278 47.3291 40.4095C47.5647 40.0373 47.762 39.6431 47.9196 39.2335C48.0028 39.0167 48.2148 38.8766 48.4468 38.8713L49.7128 38.8426C49.9941 38.8363 50.229 38.6308 50.2781 38.3539C50.4473 37.3996 50.4555 36.415 50.3035 35.4603C50.2571 35.1703 50.0059 34.9579 49.7125 34.9634L48.5433 34.9852C48.2958 34.9897 48.0692 34.8395 47.9863 34.6061C47.9125 34.3978 47.8281 34.1917 47.7317 33.9875C47.6412 33.7961 47.5425 33.611 47.4366 33.4322C47.3142 33.2257 47.3371 32.9649 47.4872 32.7777L48.2493 31.8272C48.4286 31.6033 48.4188 31.2833 48.2285 31.0687C47.5887 30.346 46.8244 29.7284 45.9817 29.2528C45.7292 29.1101 45.4094 29.1711 45.2299 29.3991L44.4903 30.3367C44.3385 30.5292 44.0824 30.6083 43.85 30.5292C43.4089 30.379 42.952 30.2749 42.4869 30.2195C42.224 30.1883 42.0162 29.9826 41.98 29.7207L41.8323 28.6487C41.7905 28.3443 41.52 28.1258 41.2135 28.1425C40.2527 28.1958 39.3165 28.4076 38.4163 28.7762C38.1609 28.8807 38.0063 29.1427 38.0497 29.4152L38.2579 30.7151C38.2933 30.9362 38.2026 31.1629 38.016 31.2866C37.658 31.5244 37.3285 31.7921 37.0299 32.0862C36.8446 32.2685 36.5605 32.303 36.3349 32.1737L35.3782 31.6253C35.1159 31.4748 34.7817 31.5494 34.6071 31.7967C34.0542 32.578 33.6291 33.4537 33.3567 34.3731C33.2762 34.6449 33.3984 34.936 33.6508 35.0657L34.7578 35.6331C34.9674 35.7403 35.0959 35.9634 35.0733 36.1978C35.0318 36.6258 35.0314 37.0591 35.0746 37.4929C35.0995 37.7428 34.954 37.9793 34.7233 38.0782L33.669 38.53C33.3966 38.6464 33.2543 38.9485 33.3364 39.2332C33.4668 39.6854 33.6339 40.1286 33.836 40.5561C34.0418 40.9912 34.2831 41.4093 34.5562 41.8034C34.7259 42.0486 35.0518 42.1287 35.3149 41.9888L36.3192 41.4554C36.5435 41.3362 36.8204 41.3751 37.0006 41.5544C37.3363 41.8883 37.7043 42.1836 38.0972 42.4356C38.3128 42.5742 38.4114 42.8383 38.3404 43.0848L38.0284 44.1715C37.9462 44.4589 38.0941 44.7621 38.3701 44.8764C39.2493 45.2401 40.1896 45.4598 41.1369 45.5233C41.4335 45.5429 41.6992 45.3394 41.7546 45.0474L41.9675 43.9257C42.0151 43.6761 42.2179 43.4852 42.4704 43.4562C42.9348 43.403 43.3988 43.3003 43.855 43.1445C44.1026 43.0601 44.3761 43.1534 44.5225 43.3703ZM40.116 41.005C35.0772 38.3345 37.5342 31.4717 43.1233 32.6048C43.1834 32.6171 43.2438 32.6384 43.2979 32.6673C48.3334 35.3392 45.8773 42.1987 40.2906 41.0676C40.2304 41.0556 40.1701 41.0339 40.116 41.005Z" fill="#BED5FB"/>
</g>
</g>
</g>
</g>
</g>
</g>
<defs>
<clipPath id="clip0_716_6706">
<rect width="56" height="56" fill="white" transform="translate(0.465027 0.494141)"/>
</clipPath>
</defs>
</svg>
