<svg width="65" height="67" viewBox="0 0 65 67" fill="none" xmlns="http://www.w3.org/2000/svg">
<g id="Frame" clip-path="url(#clip0_716_6638)">
<g id="Clip path group">
<mask id="mask0_716_6638" style="mask-type:luminance" maskUnits="userSpaceOnUse" x="-17" y="-18" width="100" height="100">
<g id="__lottie_element_2">
<path id="Vector" d="M82.09 -17.1309H-16.91V81.8691H82.09V-17.1309Z" fill="white"/>
</g>
</mask>
<g mask="url(#mask0_716_6638)">
<g id="Group">
<g id="Group_2">
<g id="Group_3">
<path id="Vector_2" d="M32.5901 0.423828C50.2217 0.423828 64.5372 14.7394 64.5372 32.371C64.5372 50.0027 50.2217 64.3182 32.5901 64.3182C14.9584 64.3182 0.642883 50.0027 0.642883 32.371C0.642883 14.7394 14.9584 0.423828 32.5901 0.423828Z" fill="#EFF2FF"/>
</g>
</g>
<g id="Group_4">
<g id="Group_5">
<path id="Vector_3" d="M47.5399 50.1207H18.5804C16.9859 50.1207 15.6812 48.8162 15.6812 47.2217V22.9608C15.6812 20.3752 17.7966 18.2598 20.3822 18.2598H45.7381C48.3237 18.2598 50.4392 20.3752 50.4392 22.9608V47.2217C50.4392 48.8162 49.1344 50.1207 47.5399 50.1207Z" fill="#97ABFB"/>
</g>
<g id="Group_6">
<path id="Vector_4" d="M47.5399 49.254H18.5804C16.9859 49.254 15.6812 47.9492 15.6812 46.3548V22.5858C15.6812 20.0002 17.7966 17.8848 20.3822 17.8848H45.7381C48.3237 17.8848 50.4392 20.0002 50.4392 22.5858V46.3548C50.4392 47.9492 49.1344 49.254 47.5399 49.254Z" fill="#CBD5FF"/>
</g>
<g id="Group_7">
<path id="Vector_5" d="M50.4392 26.0341H15.6812V22.5819C15.6812 19.9963 17.7966 17.8809 20.3822 17.8809H45.7381C48.3237 17.8809 50.4392 19.9963 50.4392 22.5819V26.0341Z" fill="#546FFE"/>
</g>
<g id="Group_8">
<path id="Vector_6" d="M21.5862 27.8425C21.5862 28.2419 21.2756 28.5659 20.8923 28.5659C20.5089 28.5659 20.1983 28.2419 20.1983 27.8425C20.1983 27.4431 20.5089 27.1191 20.8923 27.1191C21.2756 27.1191 21.5862 27.4431 21.5862 27.8425Z" fill="#110F0F"/>
</g>
<g id="Group_9">
<path id="Vector_7" d="M21.5862 22.6823C21.5862 23.0818 21.2755 23.4057 20.8922 23.4057C20.5089 23.4057 20.1982 23.0818 20.1982 22.6823C20.1982 22.2829 20.5089 21.959 20.8922 21.959C21.2755 21.959 21.5862 22.2829 21.5862 22.6823Z" fill="#110F0F"/>
</g>
<g id="Group_10">
<path id="Vector_8" d="M45.8965 27.8425C45.8965 28.2419 45.5859 28.5659 45.2026 28.5659C44.8192 28.5659 44.5086 28.2419 44.5086 27.8425C44.5086 27.4431 44.8192 27.1191 45.2026 27.1191C45.5859 27.1191 45.8965 27.4431 45.8965 27.8425Z" fill="#110F0F"/>
</g>
<g id="Group_11">
<path id="Vector_9" d="M45.8965 22.6823C45.8965 23.0818 45.5859 23.4057 45.2025 23.4057C44.8192 23.4057 44.5086 23.0818 44.5086 22.6823C44.5086 22.2829 44.8192 21.959 45.2025 21.959C45.5859 21.959 45.8965 22.2829 45.8965 22.6823Z" fill="#110F0F"/>
</g>
<g id="Group_12">
<path id="Vector_10" d="M20.9088 28.2553H20.8726C20.5461 28.2553 20.2787 27.9881 20.2787 27.6616V22.8495C20.2787 22.523 20.5461 22.2559 20.8726 22.2559H20.9088C21.2353 22.2559 21.5026 22.523 21.5026 22.8495V27.6616C21.5026 27.9881 21.2353 28.2553 20.9088 28.2553Z" fill="#A5B5FF"/>
</g>
<g id="Group_13">
<path id="Vector_11" d="M45.2207 28.2553H45.1846C44.858 28.2553 44.5907 27.9881 44.5907 27.6616V22.8495C44.5907 22.523 44.858 22.2559 45.1846 22.2559H45.2207C45.5472 22.2559 45.8146 22.523 45.8146 22.8495V27.6616C45.8146 27.9881 45.5472 28.2553 45.2207 28.2553Z" fill="#A5B5FF"/>
</g>
<g id="Group_14">
<g id="Group_15">
<path id="Vector_12" d="M47.5067 40.5176L39.2851 49.1626C39.2851 49.1626 39.5961 47.6406 39.5985 46.684C39.6001 46.0765 39.4758 45.5466 39.4341 44.674C39.3169 42.2265 40.7342 41.6032 41.4033 41.2409C42.4296 40.6852 44.1123 41.0965 45.1268 41.0306C45.5554 41.0028 47.1869 40.9313 47.5067 40.5176Z" fill="#B4C2FE"/>
</g>
<g id="Group_16">
<path id="Vector_13" d="M50.2301 39.9751L39.2851 49.1639C39.2851 49.1639 39.8291 47.4167 39.9364 46.2967C40.0045 45.5852 39.9111 44.9503 39.9554 43.9236C40.0796 41.0435 41.8717 40.475 42.7253 40.1268C44.0344 39.593 46.0371 40.2663 47.2788 40.3048C47.8034 40.3211 49.7959 40.4234 50.2301 39.9751Z" fill="#E6ECFF"/>
</g>
</g>
</g>
<g id="Group_17">
<g id="Group_18">
<path id="Vector_14" d="M38.6608 41.2988V44.3047H34.0245V41.2988H38.6608Z" fill="white"/>
</g>
<g id="Group_19">
<path id="Vector_15" d="M31.2826 41.2988V44.3047H26.6462V41.2988H31.2826Z" fill="white"/>
</g>
<g id="Group_20">
<path id="Vector_16" d="M23.9043 41.2988V44.3047H19.268V41.2988H23.9043Z" fill="white"/>
</g>
<g id="Group_21">
<path id="Vector_17" d="M45.8966 35.9512V38.957H41.2603V35.9512H45.8966Z" fill="white"/>
</g>
<g id="Group_22">
<path id="Vector_18" d="M38.6608 35.9512V38.957H34.0245V35.9512H38.6608Z" fill="white"/>
</g>
<g id="Group_23">
<path id="Vector_19" d="M31.2826 35.9512V38.957H26.6462V35.9512H31.2826Z" fill="#668BFF"/>
</g>
<g id="Group_24">
<path id="Vector_20" d="M23.9043 35.9512V38.957H19.268V35.9512H23.9043Z" fill="white"/>
</g>
<g id="Group_25">
<path id="Vector_21" d="M46.0388 30.5996V33.6055H41.4025V30.5996H46.0388Z" fill="white"/>
</g>
<g id="Group_26">
<path id="Vector_22" d="M38.6608 30.5996V33.6055H34.0245V30.5996H38.6608Z" fill="white"/>
</g>
<g id="Group_27">
<path id="Vector_23" d="M31.2826 30.5996V33.6055H26.6462V30.5996H31.2826Z" fill="white"/>
</g>
<g id="Group_28">
<path id="Vector_24" d="M23.9043 30.5996V33.6055H19.268V30.5996H23.9043Z" fill="white"/>
</g>
</g>
<g id="Group_29">
<g id="Group_30">
<path id="Vector_25" d="M55.7879 10.2938L56.4552 10.1565C56.501 10.1471 56.5297 10.2043 56.4949 10.2354L55.9867 10.6892C55.9745 10.7 55.969 10.7167 55.9723 10.7326L56.1097 11.4C56.119 11.4457 56.0619 11.4745 56.0307 11.4396L55.5769 10.9314C55.5661 10.9193 55.5495 10.9138 55.5336 10.9171L54.8662 11.0544C54.8205 11.0638 54.7917 11.0066 54.8265 10.9755L55.3348 10.5217C55.3469 10.5108 55.3524 10.4942 55.3491 10.4783L55.2118 9.81093C55.2024 9.76518 55.2596 9.73643 55.2907 9.77125L55.7445 10.2795C55.7553 10.2916 55.7719 10.2971 55.7879 10.2938Z" fill="#6D86FE"/>
</g>
</g>
<g id="Group_31">
<g id="Group_32">
<path id="Vector_26" d="M7.99291 30.7989L8.24593 29.5771C8.26334 29.4933 8.38016 29.4865 8.40726 29.5676L8.80189 30.7513C8.81133 30.7795 8.83521 30.8007 8.86436 30.8068L10.0862 31.0598C10.1699 31.0772 10.1768 31.194 10.0957 31.2211L8.91198 31.6158C8.88374 31.6252 8.86252 31.6491 8.85645 31.6782L8.60343 32.9001C8.58603 32.9838 8.46921 32.9907 8.44211 32.9096L8.04748 31.7259C8.03803 31.6976 8.01416 31.6764 7.98501 31.6703L6.76318 31.4173C6.67945 31.3999 6.67257 31.2831 6.75368 31.256L7.93739 30.8614C7.96563 30.8519 7.98684 30.828 7.99291 30.7989Z" fill="#6D86FE"/>
</g>
</g>
<g id="Group_33">
<g id="Group_34">
<path id="Vector_27" d="M22.9926 11.4492L21.3561 12.0676C21.2439 12.1099 21.1478 11.9766 21.2235 11.8836L22.3284 10.5272C22.3548 10.4948 22.362 10.4504 22.3472 10.4114L21.7287 8.77485C21.6864 8.66265 21.8197 8.56662 21.9127 8.64228L23.2692 9.74716C23.3015 9.77358 23.3459 9.78079 23.385 9.76597L25.0215 9.1475C25.1337 9.10519 25.2297 9.23849 25.1541 9.33152L24.0492 10.688C24.0228 10.7203 24.0156 10.7647 24.0304 10.8037L24.6488 12.4403C24.6912 12.5525 24.5578 12.6485 24.4648 12.5728L23.1084 11.468C23.076 11.4416 23.0316 11.4343 22.9926 11.4492Z" fill="#6D86FE"/>
</g>
</g>
</g>
</g>
</g>
</g>
<defs>
<clipPath id="clip0_716_6638">
<rect width="63.75" height="66" fill="white" transform="translate(0.715027 0.494141)"/>
</clipPath>
</defs>
</svg>
