<svg width="93" height="83" viewBox="0 0 93 83" fill="none" xmlns="http://www.w3.org/2000/svg">
<g id="Frame" clip-path="url(#clip0_650_39465)">
<g id="Clip path group">
<mask id="mask0_650_39465" style="mask-type:luminance" maskUnits="userSpaceOnUse" x="0" y="0" width="93" height="83">
<g id="__lottie_element_2">
<path id="Vector" d="M92.9647 0H0.0352783V82.4318H92.9647V0Z" fill="white"/>
</g>
</mask>
<g mask="url(#mask0_650_39465)">
<g id="Group">
<g id="Clip path group_2">
<mask id="mask1_650_39465" style="mask-type:luminance" maskUnits="userSpaceOnUse" x="-24" y="-26" width="128" height="128">
<g id="__lottie_element_4">
<path id="Vector_2" d="M-23.1351 -25.3184H103.744V101.561H-23.1351V-25.3184Z" fill="white"/>
</g>
</mask>
<g mask="url(#mask1_650_39465)">
<g id="Group_2">
<g id="Group_3">
<g id="Group_4">
<path id="Vector_3" d="M41.3319 59.9174C40.414 60.0786 38.7729 59.1487 37.6294 58.8028C36.4861 58.45 35.835 58.3558 34.8396 58.5339C33.8442 58.7119 32.4976 59.155 30.4907 59.8619C28.4838 60.5688 25.8097 61.5396 24.4478 62.0245C23.086 62.5093 23.037 62.5081 22.3893 60.9244C21.7416 59.3407 20.4953 56.1813 19.6171 54.2684C18.7462 52.3556 18.2503 51.6894 16.7279 50.7786C15.1986 49.8608 12.6431 48.6913 10.071 47.6129C7.49181 46.5343 4.90366 45.5328 3.51839 45.0263C2.14005 44.5199 1.97196 44.5014 1.75958 44.5661C1.5472 44.6307 1.29745 44.7792 1.19166 45.0645C1.07874 45.3568 1.11654 45.7934 1.72815 47.4113C2.34694 49.0295 3.54632 51.8359 5.04647 55.2337C6.5468 58.6242 8.34816 62.6062 9.34684 64.747C10.3455 66.8879 10.5415 67.1882 11.1265 67.6599C11.7046 68.1318 12.6857 68.7754 13.5996 69.305C14.5137 69.8276 15.3745 70.2363 15.8106 70.4935C16.2395 70.7505 16.258 70.8494 16.2949 71.0541C16.3386 71.259 16.4082 71.57 16.5062 71.8536C16.6042 72.1373 16.731 72.4006 16.692 72.5471C16.6463 72.6864 16.4348 72.7159 16.1946 72.766C15.9543 72.8161 15.6855 72.8864 15.4834 73.0919C15.2812 73.2974 15.139 73.6383 15.1803 73.9416C15.2213 74.2517 15.4392 74.5313 15.8851 74.6764C16.3241 74.8214 16.9982 74.8388 17.5036 74.8589C18.016 74.879 18.3599 74.8951 18.7419 75.0666C19.1309 75.2383 19.5445 75.5581 19.9088 75.8697C20.2731 76.1813 20.5744 76.4841 20.9143 76.6546C21.2614 76.8182 21.6399 76.856 21.9348 76.8706C22.2364 76.8925 22.4541 76.8981 22.6763 77.0023C22.8984 77.1065 23.1252 77.302 23.4319 77.3942C23.746 77.4796 24.1399 77.4618 24.4656 77.3649C24.7914 77.2679 25.0417 77.0984 25.2937 77.1401C25.5527 77.182 25.8062 77.4345 26.1556 77.5067C26.498 77.5788 26.9366 77.4637 27.2779 77.3109C27.6191 77.1651 27.8627 76.9748 28.1006 77.0161C28.3313 77.0573 28.5632 77.33 29.1496 78.0269C29.7358 78.7307 30.6761 79.8582 31.265 80.4567C31.8469 81.0478 32.0707 81.096 32.4448 81.0284C32.8191 80.9537 33.3443 80.7566 34.2426 80.2598C35.1336 79.7699 36.405 78.9736 37.6774 78.1421C38.9496 77.3178 40.0677 75.8377 41.1577 75.885C66.3732 76.98 43.5226 59.5326 41.3319 59.9174Z" fill="url(#paint0_radial_650_39465)"/>
</g>
</g>
<g id="Group_5">
<g id="Group_6">
<path id="Vector_4" d="M79.2564 82.7682C78.7575 81.2791 78.4837 79.9934 78.329 78.6446C78.1533 77.0921 78.1253 75.4486 78.2027 74.6407C78.28 73.8259 78.4624 73.84 79.0313 73.9312C79.5934 74.0296 80.2888 73.8717 81.2864 73.6179C82.0079 73.474 82.6001 73.7021 83.3797 73.1332C84.1593 72.5572 85.1711 71.4121 86.1123 70.0073C87.0607 68.6094 87.9384 67.6162 88.7604 65.7195C89.5824 63.8227 90.341 61.6804 90.9241 58.8915C91.5072 56.1098 91.9074 52.668 92.1252 49.7738C92.343 46.8796 92.371 44.5192 92.2447 42.7701C92.1252 41.0211 91.8444 39.8759 91.444 39.2227C91.0366 38.5764 90.5095 38.422 89.1468 37.8741C87.7841 37.3331 85.5855 36.4058 83.6959 35.5558C81.8063 34.6989 80.2255 33.9262 79.0033 32.9357C77.7811 31.9452 76.9173 30.7371 76.4184 30.0346C75.9196 29.3251 75.7932 29.1286 75.6105 29.0161C75.4279 28.9036 60.634 31.0038 60.4093 31.2005C60.1845 31.3901 59.6155 31.7556 57.8524 32.4721C56.0892 33.1957 53.1179 34.2702 51.2422 34.8885C49.3668 35.4996 48.5728 35.6612 47.8564 36.1037C47.14 36.5533 46.5006 37.2979 46.0369 38.1901C45.5664 39.0822 45.2853 40.122 45.0675 42.0537C44.8569 43.9926 44.7164 46.8233 44.4916 49.3451C44.2668 51.8599 43.9578 54.0587 43.5925 55.7376C43.2342 57.4165 42.8127 58.5825 42.5106 59.292C42.2085 60.0084 43.712 75.0342 43.6136 75.6312C43.5083 76.2282 43.1638 77.3381 42.8407 78.5886C42.5175 79.839 42.2226 81.2298 42.04 82.0024C41.9627 82.3256 41.8995 82.5365 41.9347 82.7682H79.2564Z" fill="url(#paint1_radial_650_39465)"/>
</g>
</g>
<g id="Group_7">
<g id="Group_8">
<path id="Vector_5" d="M74.7775 28.1023C74.7144 28.2148 75.1243 29.46 75.0543 29.5654C74.4929 30.3878 73.5958 31.2019 72.2969 31.9967C70.998 32.7985 69.8448 32.9711 68.6369 33.4499C67.429 33.9287 65.1723 33.5522 64.5822 33.4052C63.999 33.2582 63.0144 33.6137 62.6419 33.2346C62.2694 32.8485 61.4581 32.8668 61.0785 32.6845C60.699 32.4952 61.0768 31.8186 60.6553 31.819C60.3743 31.8192 60.9916 30.9878 60.1485 30.8621C59.7972 30.7501 59.2137 30.5397 58.8623 30.1958C58.5108 29.845 58.384 29.3462 58.3484 28.7914C58.3127 28.2366 58.3685 27.6252 58.305 27.2669C58.2415 26.9086 58.0657 26.7965 57.9743 26.5577C57.8757 26.3119 57.8682 25.9325 57.7979 25.722C57.7204 25.5114 57.5799 25.4763 57.4886 25.3711C57.3973 25.2728 57.3479 25.1112 57.2986 24.8444C57.2421 24.5775 57.1784 24.2054 57.0097 23.9666C56.8479 23.735 56.5737 23.6297 56.3419 23.4542C56.1029 23.2787 55.8992 23.0192 55.941 22.5696C55.9758 22.1128 56.256 21.4663 56.368 20.8199C56.4869 20.1805 56.437 19.5414 56.3524 19.1061C56.2678 18.6707 56.141 18.432 56.0496 18.1931C55.951 17.9615 55.8807 17.7366 55.74 17.5119C55.5993 17.2803 55.3954 17.0485 55.3389 16.7676C55.2824 16.4866 55.3808 16.1495 55.4507 15.8193C55.5136 15.4892 55.5482 15.1517 55.6041 14.6389C55.6668 14.1261 55.7577 13.4235 55.8695 12.6227C55.9742 11.8217 56.0996 10.9156 56.029 10.3115C55.9511 9.7074 55.6771 9.40579 55.5503 8.9633C55.4164 8.52801 55.4228 7.94466 55.8016 7.20685C56.1732 6.46187 56.9174 5.5622 58.1951 4.68314C59.4729 3.80409 61.2844 2.94541 63.2439 2.37482C65.2103 1.80422 67.3244 1.52145 69.1086 1.51998C70.8998 1.51156 72.3611 1.78443 73.1554 2.35969C73.9496 2.93495 74.0769 3.81978 74.4148 4.54311C74.7527 5.27338 75.3008 5.84215 75.8002 6.49497C76.2924 7.1478 76.7356 7.87104 77.0878 9.17028C77.44 10.4695 77.7087 12.3309 77.7379 13.7567C77.7601 15.1826 77.5572 16.1661 77.0736 17.4802C76.5969 18.8011 75.8469 20.4527 75.3422 21.7105C74.8374 22.9683 74.5713 23.8396 74.4384 24.7038C74.3055 25.5609 74.2574 26.6709 74.3772 27.1555C74.4971 27.6401 74.4408 27.6468 74.5536 27.9208L74.7775 28.1023Z" fill="#FACAA2"/>
</g>
</g>
<g id="Group_9">
<g id="Group_10">
<path id="Vector_6" d="M73.1893 26.1787C73.2463 27.0145 73.1765 27.7099 72.7766 28.4338C72.3698 29.1578 71.6401 29.91 70.6571 30.5571C69.6812 31.2112 68.4523 31.7601 67.5252 31.9926C66.5981 32.225 65.9589 32.1413 65.3334 31.7696C64.9116 31.5172 64.49 31.1381 64.033 30.8012C63.5415 30.928 63.0568 30.9847 62.4809 31.0483C62.6073 31.0693 62.7268 31.1044 62.8322 31.1606C63.2117 31.3429 63.4438 31.729 63.8163 32.1151C64.1888 32.4942 64.7021 32.859 65.2853 33.006C65.8755 33.1529 66.5425 33.0753 67.7505 32.5965C68.9584 32.1178 70.7067 31.2311 72.0056 30.4294C73.3044 29.6346 74.3102 29.1899 74.8715 28.3674C74.9416 28.2621 74.5197 28.1219 74.5828 28.0093C74.5828 28.0024 74.5846 27.8396 74.5777 27.8396C74.465 27.5656 74.497 27.6387 74.3772 27.1541C74.2784 26.7537 74.2919 25.9317 74.3755 25.1731C74.0379 24.787 73.8341 24.3307 73.7353 23.8461C73.6224 23.3052 73.6501 22.729 73.8601 21.9281C74.0701 21.1342 74.4556 20.1082 74.5673 19.0896C74.2656 19.6378 73.9642 20.1859 73.5642 20.6779C73.1713 21.163 72.6798 21.5918 72.5396 22.0346C72.3925 22.4842 72.5825 22.948 72.7727 23.6642C72.9559 24.3805 73.1324 25.3498 73.1893 26.1787Z" fill="#EBBC95"/>
</g>
</g>
<g id="Group_11">
<g id="Group_12">
<path id="Vector_7" d="M60.4708 32.6417C60.2589 33.3484 60.0259 34.3162 59.729 34.9874C59.4322 35.6517 59.0787 36.0261 58.5842 36.9799C58.0967 37.9266 57.4751 39.4527 56.592 41.756C55.7089 44.0524 54.5783 47.1186 54.0202 49.4362C53.4691 51.7464 53.4973 53.3077 53.3914 54.3606C53.2854 55.4204 53.0309 55.9857 52.8119 56.7628C52.6 57.54 52.4093 58.5362 52.6635 58.628C52.925 58.7127 53.6247 57.8862 53.8577 57.8438C54.0907 57.8084 53.8577 58.5572 53.6104 59.2002C53.3632 59.8503 53.0948 60.3944 53.1229 60.6628C53.1583 60.9385 53.4831 60.9382 53.681 60.8535C53.8717 60.7688 53.9355 60.592 54.1615 60.5285C54.3876 60.4579 54.7762 60.4864 55.0588 60.4933C55.3415 60.5003 55.5107 60.4861 55.6451 59.9774C55.7722 59.4757 55.8711 58.4797 56.1326 56.6993C56.3941 54.9259 56.8322 52.3681 57.5316 49.6974C58.231 47.0197 59.1847 44.2219 60.0538 42.1516C60.9229 40.0886 61.7001 38.7461 62.0181 38.0325C62.3431 37.3189 62.2018 37.2342 61.792 37.4533C61.3893 37.6723 60.718 38.195 60.5274 38.1033C60.3367 38.0185 60.6261 37.3119 61.1066 36.5629C61.5872 35.8212 62.2584 35.0226 62.873 34.4645C63.4877 33.8992 64.0458 33.5742 64.3354 33.5884C64.625 33.5954 64.6392 33.9488 64.8371 34.0266C65.035 34.1043 65.4164 33.9134 65.7768 33.9346C66.1372 33.9558 66.4692 34.1961 66.8366 34.6906C67.211 35.1851 67.614 35.9343 67.5998 36.2028C67.5856 36.4642 67.1474 36.2451 66.7095 36.1038C66.2716 35.9695 65.8406 35.9059 65.4802 35.9837C65.1198 36.0614 64.8441 36.2803 64.5899 36.7608C64.3426 37.2414 64.1235 37.9901 64.0318 39.3326C63.9401 40.6678 63.968 42.604 63.8409 44.5045C63.7207 46.405 63.4381 48.2704 62.8658 50.5029C62.2866 52.7285 61.4104 55.3144 61.2268 56.0492C61.0431 56.777 61.5376 55.6606 62.3783 53.7883C63.219 51.9159 64.4062 49.3018 66.6036 45.3734C68.8009 41.4522 72.0085 36.217 74.2483 32.7549C75.0608 31.5114 75.6315 30.655 76.1756 29.8213C75.8364 29.3407 75.7593 29.2139 75.6038 29.1222C75.4201 29.009 75.1869 28.9056 75.081 28.6865C74.982 28.4746 74.8601 28.2151 74.7542 27.9395C74.6906 28.0526 74.752 28.0154 74.6815 28.1214C74.1162 28.9481 73.358 29.5543 72.0509 30.3526C70.7438 31.158 68.9846 32.048 67.7693 32.5286C66.554 33.0091 65.8827 33.0869 65.2893 32.9386C64.7028 32.7903 64.1871 32.4229 63.8127 32.0413C63.4383 31.6527 63.3765 30.89 62.9949 30.7063C62.9172 30.6709 62.7925 30.8539 62.7008 30.8327C62.5241 30.8469 62.4755 30.7666 62.3367 30.6358C61.725 30.0593 60.992 30.4504 60.5468 30.3372C60.66 30.966 60.6615 32.0129 60.4708 32.6417Z" fill="url(#paint2_linear_650_39465)"/>
</g>
</g>
<g id="Group_13">
<g id="Group_14">
<path id="Vector_8" d="M43.1992 75.0584C43.5645 74.9459 43.712 75.0304 43.6136 75.6274C43.5082 76.2244 43.164 77.3343 42.8409 78.5848C42.5177 79.8352 42.2229 81.226 42.0402 81.9986C41.9629 82.3218 41.8995 82.5327 41.9346 82.7644H55.2112C55.197 81.5632 55.2322 80.3408 55.3517 79.0623C55.5623 76.8565 56.0401 74.4684 55.8996 73.3163C55.7591 72.1642 55.0005 72.2415 54.4385 72.2696C53.8695 72.2976 53.5042 72.2837 53.4269 71.8341C53.3427 71.3846 53.5602 70.5066 53.469 70.1624C53.3778 69.8251 52.9774 70.0219 52.6332 70.0219C52.2959 70.0219 52.0151 69.8251 50.4978 70.352C48.9804 70.8788 42.834 75.1709 43.1992 75.0584Z" fill="black"/>
</g>
</g>
<g id="Group_15">
<g id="Group_16">
<path id="Vector_9" d="M42.9922 73.4075C39.8445 74.7597 36.3339 76.2782 34.345 77.1051C32.3561 77.9319 31.8891 78.0535 31.5311 77.77C31.1732 77.4797 30.9313 76.7778 30.5661 76.5014C30.2007 76.2319 29.7187 76.388 29.2152 76.5646C28.9174 76.6623 28.6123 76.7739 28.17 77.0366C28.3857 77.1195 28.6244 77.3996 29.1494 78.0245C29.7356 78.7283 30.6759 79.856 31.2648 80.4545C31.8467 81.0457 32.0705 81.0936 32.4446 81.026C32.8189 80.9514 33.3441 80.7542 34.2424 80.2574C35.1334 79.7675 36.4046 78.9712 37.677 78.1397C38.9492 77.3154 40.2292 76.456 41.1575 75.8829C42.0929 75.3027 51.9932 69.902 50.4627 70.3894C48.9323 70.8769 46.14 72.0553 42.9922 73.4075Z" fill="black"/>
</g>
</g>
<g id="Group_17">
<g id="Group_18">
<path id="Vector_10" d="M85.3898 42.2356C85.3477 42.4604 84.034 44.2377 83.1208 45.9657C82.2076 47.6937 81.6949 49.3654 82.0812 50.0258C82.4676 50.679 83.7532 50.3281 85.2986 49.8293C86.837 49.3376 88.6351 48.6983 89.4641 48.5578C90.293 48.4242 90.1525 48.7754 88.6282 49.4568C87.1039 50.1383 84.1886 51.1496 82.3553 52.2175C80.5148 53.2853 79.756 54.4163 79.2012 55.3857C78.6463 56.348 78.288 57.1558 78.6181 57.198C78.9553 57.2332 79.9739 56.5026 79.8333 56.917C79.6998 57.3244 78.3936 58.8767 77.8526 59.7829C77.3116 60.6891 77.5294 60.9491 78.3794 61.1107C79.2294 61.2792 80.7185 61.3357 81.997 62.1364C83.2755 62.937 84.343 64.4685 84.3993 64.7565C84.4555 65.0375 83.4933 64.0819 82.2849 63.3655C81.0766 62.656 79.6227 62.1924 78.6253 61.9255C77.6348 61.6655 77.1079 61.6026 75.4852 61.6727C73.8556 61.7428 71.13 61.9396 69.4582 62.0308C67.7865 62.1151 67.1682 62.0801 68.1446 61.8412C69.1209 61.6023 71.692 61.1531 73.6589 59.8042C75.6258 58.4554 76.9885 56.2144 78.4354 53.538C79.8824 50.8686 81.4139 47.771 82.8049 45.5583C84.1886 43.3386 85.425 42.0108 85.3898 42.2356Z" fill="black"/>
</g>
</g>
<g id="Group_19">
<g id="Group_20">
<path id="Vector_11" d="M71.3041 46.2927C70.6437 47.1358 68.5997 49.9668 66.8366 52.4464C65.0734 54.926 63.584 57.0475 62.6077 58.375C61.6313 59.7097 61.1676 60.2507 61.3151 60.616C61.4625 60.9812 62.2213 61.1639 62.8887 61.5081C63.5491 61.8454 64.125 62.344 64.8977 63.0604C65.6773 63.784 64.0279 62.1845 65.2642 63.2945C66.4936 64.4044 67.9827 65.6688 68.2779 65.7813C68.5658 65.8866 67.6737 64.8329 66.4936 63.6246C65.3135 62.4162 66.4782 63.5944 65.5018 62.5407C64.5255 61.487 64.0338 60.7493 64.2444 59.4428C64.4482 58.1433 65.3611 56.2887 66.5273 54.2517C67.6863 52.2147 69.0983 49.9948 70.1662 48.3089C71.234 46.623 71.9645 45.4568 71.3041 46.2927Z" fill="black"/>
</g>
</g>
<g id="Group_21">
<g id="Group_22">
<path id="Vector_12" d="M63.7954 40.1012C63.3528 41.3517 62.3205 45.3905 61.4142 48.7273C60.508 52.0569 59.7281 54.6773 59.0186 56.349C58.3161 58.0208 57.6842 58.7516 57.0448 59.2643C56.4054 59.7842 55.7592 60.0932 55.5906 60.2548C55.4291 60.4094 55.7453 60.4164 56.3073 60.4515C56.8763 60.4795 57.6983 60.5358 58.2531 60.5638C58.8152 60.5849 59.1101 60.5851 59.4473 60.2057C59.7846 59.8263 60.1638 59.0675 60.4517 58.3722C60.7397 57.6768 60.9434 57.0444 61.1612 56.328C61.1753 56.2717 61.1894 56.2226 61.2105 56.1664C61.2105 56.1312 61.2244 56.068 61.2455 55.9837C61.4281 55.2532 62.2994 52.6822 62.8753 50.4694C63.4443 48.2498 63.7251 46.3952 63.8445 44.5056C63.9639 42.7424 63.9431 40.9582 64.0133 39.6445C63.9711 39.6725 63.8938 39.8061 63.7954 40.1012Z" fill="#2D2D2D"/>
</g>
</g>
<g id="Group_23">
<g id="Group_24">
<path id="Vector_13" d="M22.943 62.062C23.1209 62.5163 23.3462 63.0422 23.6181 63.6675C24.7119 66.2045 26.522 70.3971 27.5764 72.8274C28.5377 75.0516 28.8631 75.7841 29.2579 76.5462C29.747 76.3831 30.2145 76.2407 30.5661 76.5027C30.9313 76.7791 31.1732 77.481 31.5311 77.7713C31.8892 78.0547 32.3561 77.9332 34.3451 77.1063C36.334 76.2795 39.8448 74.7612 42.9925 73.409C46.1403 72.0568 48.9323 70.8782 50.4628 70.3907C51.1927 70.1567 51.6301 70.0838 51.9327 70.0705C52.0562 69.9121 51.9888 69.7978 51.9443 69.6209C51.8299 69.1541 51.861 68.2206 50.6131 66.7548C49.3582 65.2818 46.8105 63.2623 45.0504 62.0363C43.6909 61.0807 42.7967 60.6007 41.5205 59.9494C41.4645 59.9411 41.4013 59.9322 41.3315 59.9163C40.4155 59.7451 38.7725 59.1476 37.629 58.8017C36.4857 58.4489 35.8349 58.3547 34.8395 58.5327C33.844 58.7108 32.4974 59.1539 30.4905 59.8608C28.4836 60.5677 25.8095 61.5387 24.4477 62.0236C23.5753 62.3312 23.2423 62.4421 22.943 62.062Z" fill="#CCCCCC"/>
</g>
</g>
<g id="Group_25">
<g id="Group_26">
<path id="Vector_14" d="M32.1464 75.4431C31.1307 75.8596 30.6613 76.0861 30.085 76.3593C30.1618 76.3824 30.3524 76.3451 30.5661 76.5054C30.7799 76.6656 31.1732 77.4836 31.5311 77.774C31.8892 78.0574 32.3561 77.9359 34.3451 77.109C36.334 76.2822 39.8445 74.7639 42.9923 73.4117C46.1401 72.0595 48.9323 70.8808 50.4628 70.3934C51.1927 70.1594 51.6301 70.0864 51.9327 70.0732C52.0563 69.9148 51.9888 69.8005 51.9443 69.6236C51.8739 69.3548 51.8567 68.9257 51.6191 68.3363C51.4283 68.3804 51.23 68.4388 51.0247 68.4967C47.9387 69.3584 42.6388 71.3297 38.998 72.7182C35.3643 74.1138 33.1623 75.0197 32.1464 75.4431Z" fill="#B3B3B3"/>
</g>
</g>
<g id="Group_27">
<g id="Group_28">
<path id="Vector_15" d="M27.8681 77.0396L27.8478 77.0108C27.673 76.7041 27.3651 76.387 27.0263 76.1744C26.6805 75.9617 26.2897 75.8532 25.7786 75.7837C25.2675 75.7142 24.6213 75.6908 24.0507 75.4793C23.4801 75.2677 22.9773 74.8682 22.4426 74.0814C21.9077 73.3016 21.3337 72.1274 20.8722 71.49C20.4108 70.8526 20.0625 70.7383 19.773 70.794C19.4835 70.8497 19.246 71.0684 19.0757 70.8602C18.9051 70.659 18.802 70.024 18.7298 69.5583C18.6577 69.0857 18.6095 68.7753 18.4665 68.603C18.3162 68.4306 18.071 68.4029 17.8383 68.439C17.5984 68.475 17.3708 68.5816 17.199 68.4297C17.0272 68.2778 16.9185 67.8672 16.6623 67.72C16.4134 67.566 16.0245 67.6613 15.8748 68.0159C15.7249 68.3774 15.8213 68.9915 15.9205 69.507C16.0197 70.0224 16.1352 70.4471 16.2308 70.8219L16.2434 70.8713C16.27 70.9282 16.2826 70.9848 16.2949 71.0553C16.3387 71.2602 16.4083 71.5714 16.5063 71.855C16.6043 72.1387 16.7311 72.4018 16.6921 72.5482C16.6464 72.6876 16.4347 72.7173 16.1944 72.7674C15.9541 72.8175 15.6856 72.8879 15.4834 73.0933C15.2813 73.2988 15.1391 73.6395 15.1804 73.9427C15.2214 74.2529 15.4393 74.5325 15.8852 74.6776C16.3242 74.8226 16.9983 74.84 17.5037 74.86C18.0161 74.8802 18.36 74.8963 18.742 75.0678C19.131 75.2395 19.5446 75.5593 19.9089 75.8709C20.2732 76.1825 20.5745 76.4856 20.9144 76.656C21.2614 76.8196 21.64 76.8574 21.9349 76.872C22.2365 76.8939 22.454 76.8996 22.6761 77.0037C22.8983 77.1079 23.1252 77.3034 23.432 77.3956C23.7461 77.4811 24.14 77.463 24.4657 77.3661C24.7915 77.2691 25.042 77.0998 25.2938 77.1416C25.5528 77.1835 25.8063 77.4359 26.1557 77.5082C26.4981 77.5802 26.9367 77.4652 27.278 77.3123C27.5123 77.2131 27.6982 77.0914 27.8681 77.0396Z" fill="#FACAA2"/>
</g>
</g>
<g id="Group_29">
<g id="Group_30">
<path id="Vector_16" d="M16.5058 71.8509C16.5906 72.099 16.7043 72.3338 16.7003 72.4883C16.6997 72.5094 16.6991 72.5235 16.6916 72.5444C16.6459 72.6838 16.4344 72.7132 16.1942 72.7633C15.9539 72.8134 15.6851 72.8838 15.483 73.0892C15.2808 73.2947 15.1386 73.6354 15.1799 73.9386C15.2209 74.2488 15.4388 74.5286 15.8847 74.6738C16.3237 74.8187 16.9978 74.8362 17.5032 74.8562C17.9455 74.8745 18.2614 74.8897 18.5887 75.0035C18.6373 75.0189 18.6933 75.0414 18.7418 75.0637C19.1308 75.2354 19.5442 75.5552 19.9084 75.8668C20.2727 76.1784 20.5742 76.4815 20.9142 76.6519C21.2612 76.8155 21.6395 76.8533 21.9344 76.8679C22.0536 76.8779 22.1519 76.8807 22.2501 76.8902C22.1831 76.769 22.109 76.6334 22.028 76.5049C21.7243 76.0191 21.3723 75.5113 20.8995 74.7752C20.4195 74.0389 19.8192 73.0678 19.5488 72.3862C19.2853 71.7049 19.3516 71.306 19.4699 71.0842C19.5513 70.9247 19.6656 70.8575 19.8291 70.7844C19.8081 70.7839 19.7938 70.7904 19.7727 70.7899C19.5255 70.8398 19.3175 71.003 19.158 70.9215C19.0678 70.884 19.04 70.8552 18.9664 70.9869C18.8707 71.1602 18.8622 71.4902 18.8009 71.6854C18.6016 72.3268 18.4826 72.8436 18.2341 72.6755C17.9927 72.5007 17.6073 71.6474 17.3886 70.8619C17.1699 70.0763 17.1116 69.3507 17.2692 68.9614C17.3671 68.7039 17.5599 68.5896 17.6969 68.4596C17.513 68.5039 17.3361 68.5486 17.1988 68.4256C17.0269 68.2737 16.9183 67.8633 16.6621 67.7161C16.4132 67.5622 16.024 67.6572 15.8743 68.0118C15.7244 68.3733 15.8208 68.9874 15.92 69.5029C16.0192 70.0183 16.1347 70.443 16.2303 70.8178L16.2432 70.8674C16.2697 70.9244 16.2824 70.981 16.2947 71.0515C16.3385 71.2564 16.4078 71.5673 16.5058 71.8509Z" fill="#EBBC95"/>
</g>
</g>
<g id="Group_31">
<g id="Group_32">
<path id="Vector_17" d="M29.6862 61.3447L44.5473 69.2618L34.5974 73.0519L25.8591 68.8559C25.0566 67.0081 24.2278 65.0824 23.6179 63.6682L29.6862 61.3447Z" fill="#ACABAB"/>
</g>
</g>
<g id="Group_33">
<g id="Group_34">
<path id="Vector_18" d="M53.4919 60.9967C53.541 61.5657 53.4706 62.6756 53.4005 63.5536C53.3232 64.4316 53.2461 65.0848 52.972 65.5837C52.6979 66.0895 52.2276 66.4478 51.3845 66.792C50.5487 67.1432 49.3403 67.4804 48.0267 67.642C46.7202 67.8105 45.3082 67.7895 44.1982 67.7543C43.0883 67.7121 42.2737 67.6559 41.508 67.8527C40.7422 68.0494 40.0186 68.5059 39.3302 69.0047C38.6349 69.5105 37.9675 70.0584 37.5249 70.2691C37.0823 70.4797 36.8576 70.3464 36.8224 70.0163C36.7944 69.679 36.9559 69.145 37.4476 68.527C37.9464 67.9017 38.7754 67.1853 39.6112 66.6795C40.4471 66.1737 41.2902 65.8719 41.817 65.6751C42.3439 65.4856 42.5545 65.4013 42.0839 65.4714C41.6202 65.5488 40.4682 65.7805 39.6814 65.9842C38.8946 66.1879 38.4592 66.3702 37.9112 66.827C37.3633 67.2837 36.7101 68.0142 36.2395 68.4568C35.7759 68.8922 35.5087 69.0327 35.3191 68.9064C35.1365 68.7728 35.0312 68.3795 35.0101 68.0142C34.9821 67.6559 35.0242 67.3189 35.0664 67.073C35.1016 66.8272 35.1365 66.6587 34.8134 66.8693C34.4833 67.073 33.802 67.642 33.3384 67.8247C32.8678 68.0004 32.6078 67.7825 32.6569 67.2837C32.699 66.7848 33.0363 66.0052 33.5069 65.352C33.9705 64.6916 34.5678 64.165 35.3263 63.7083C36.0779 63.2446 36.9911 62.8513 37.6585 62.6546C38.3189 62.465 38.7263 62.4717 38.958 62.3664C39.1969 62.261 39.246 62.0432 39.7448 61.8115C40.2436 61.5798 41.1918 61.3337 42.5334 61.109C43.8681 60.8842 45.6033 60.6805 47.2961 60.561C48.982 60.4416 50.6257 60.4067 51.581 60.3856C52.5364 60.3715 52.8104 60.3715 53.0352 60.3856C53.26 60.4067 53.4357 60.4347 53.4919 60.9967Z" fill="#FACAA2"/>
</g>
</g>
<g id="Group_35">
<g id="Group_36">
<path id="Vector_19" d="M53.26 64.726C52.719 64.8244 52.1641 65.0001 51.7357 65.2249C50.9489 65.6534 50.6118 66.2716 49.9725 66.679C49.3403 67.0864 48.4061 67.283 47.0924 67.3603C45.7788 67.4445 44.0718 67.4096 42.8918 67.3955C41.7117 67.3813 41.0513 67.3813 40.3138 67.6765C39.5832 67.9716 38.7684 68.5545 38.2275 69.0112C37.6937 69.4607 37.4268 69.7839 37.0895 70.1422C37.0404 70.1913 36.9909 70.2475 36.9418 70.2966C37.0543 70.395 37.2439 70.4022 37.5249 70.2686C37.9675 70.058 38.6349 69.5098 39.3302 69.004C40.0186 68.5052 40.742 68.049 41.5077 67.8522C42.2735 67.6554 43.0883 67.7117 44.1982 67.7538C45.3082 67.789 46.7202 67.8098 48.0267 67.6413C49.3403 67.4797 50.5487 67.1425 51.3845 66.7913C52.2276 66.4471 52.6979 66.089 52.972 65.5832C53.1125 65.3374 53.1968 65.0561 53.26 64.726ZM41.7328 65.7096C41.789 65.6955 41.8453 65.6747 41.8943 65.6605C42.667 65.4427 43.1235 65.3513 43.0323 65.246C42.9411 65.1334 42.3087 65.0001 41.5429 65.0071C40.7844 65.014 39.892 65.1476 39.0913 65.4145C38.2906 65.6814 37.574 66.0821 36.9839 66.5737C36.4008 67.0654 35.9305 67.6554 35.4879 68.0698C35.3404 68.2103 35.1999 68.3297 35.0664 68.414C35.1226 68.6318 35.2066 68.8216 35.3191 68.9059C35.5087 69.0323 35.7759 68.8915 36.2395 68.4561C36.7101 68.0135 37.3633 67.2832 37.9112 66.8265C38.4592 66.3698 38.8946 66.1874 39.6814 65.9837C40.4682 65.78 41.6202 65.548 42.0839 65.4707C42.5545 65.4006 42.3439 65.4848 41.817 65.6744L41.7328 65.7096ZM35.0664 67.0795C35.1016 67.0233 35.1365 66.967 35.1717 66.9038C35.565 66.2927 36.0638 65.7939 36.4992 65.3654C36.9346 64.9369 37.3073 64.5786 37.6795 64.2906C38.0518 64.0027 38.4312 63.7849 38.1571 63.8974C37.8761 64.0099 36.9418 64.4522 36.0918 65.0281C35.2418 65.5971 34.4833 66.3066 33.9916 66.7281C33.4999 67.1496 33.2752 67.2902 33.0995 67.3323C32.959 67.3675 32.8465 67.3464 32.6569 67.2621V67.2832C32.6078 67.7821 32.8678 67.9996 33.3384 67.8239C33.802 67.6413 34.4833 67.0723 34.8134 66.8686C35.1365 66.658 35.1016 66.8265 35.0664 67.0723V67.0795Z" fill="#EBBC95"/>
</g>
</g>
<g id="Group_37">
<g id="Group_38">
<path id="Vector_20" d="M12.0095 48.4499C9.99199 54.1878 9.70005 60.5888 11.1263 67.6597C10.5413 67.1877 10.3451 66.8877 9.34636 64.7468C8.34768 62.606 6.54632 58.624 5.04598 55.2335C3.54584 51.8357 2.34646 49.0293 1.72766 47.4111C1.11605 45.7932 1.07826 45.3566 1.19117 45.0643C1.29697 44.779 1.54671 44.6308 1.75909 44.5661C1.97147 44.5014 2.13982 44.5197 3.51816 45.0261C4.90343 45.5326 7.49133 46.5341 10.0705 47.6127C10.724 47.8897 11.3703 48.1664 12.0095 48.4499Z" fill="#1F1F1F"/>
</g>
</g>
<g id="Group_39">
<g id="Group_40">
<path id="Vector_21" d="M56.0293 10.3205C56.3387 10.7346 56.5147 11.1139 56.6485 11.3596C56.8525 11.7316 56.944 11.795 57.2949 11.4926C57.6458 11.1902 58.2491 10.5224 59.2322 9.86834C60.2152 9.20711 61.5774 8.55276 62.7714 8.37607C63.9724 8.19938 65.0122 8.49391 65.7011 9.04819C66.39 9.60248 66.7349 10.4239 66.3634 11.3374C65.992 12.2509 64.9111 13.2636 64.7992 13.9801C64.6945 14.7038 65.5587 15.1316 66.1422 15.6017C66.7257 16.0649 67.0212 16.5563 67.2748 17.5045C67.5283 18.4454 67.7473 19.8432 68.0153 21.2409C68.2764 22.6455 68.5866 24.0503 68.4119 25.1743C68.2371 26.2983 67.5707 27.1349 66.9179 27.6413C66.265 28.1406 65.6328 28.3166 64.8808 27.8746C64.1288 27.4327 63.2641 26.3797 62.5399 25.6849C61.8229 24.9902 61.2467 24.6464 60.7898 24.422C60.3329 24.1976 59.9955 24.0926 59.5459 24.0367C59.0964 23.9808 58.5343 23.9813 57.558 24.0594C57.4106 24.0737 57.256 24.0877 57.0875 24.1019C57.2002 24.3336 57.2495 24.6215 57.2987 24.8462C57.3268 25.0008 57.3552 25.1202 57.3974 25.2186C58.2825 25.0632 59.0762 25.0135 59.7294 25.0551C60.4109 25.0966 60.9379 25.2367 61.4792 25.6367C62.0205 26.0437 62.5829 26.7034 62.6607 27.3566C62.7386 28.0097 62.3314 28.6425 61.7627 28.9872C61.1871 29.3249 60.4425 29.3746 59.9297 29.2977C59.4097 29.2208 59.1144 29.0174 58.7209 28.7297C58.6014 28.6456 58.468 28.5473 58.3343 28.4631C58.3414 28.5756 58.3417 28.6879 58.3487 28.7932C58.3844 29.348 58.5112 29.8468 58.8626 30.1976C59.2212 30.5485 59.8115 30.7589 60.1627 30.8711C61.1604 31.2004 61.0763 31.1092 62.0386 31.0943C63.324 31.0791 64.1599 30.8886 65.2833 30.3539C66.4067 29.8192 67.8179 28.8206 68.7793 27.8013C69.7338 26.7748 70.2459 25.7276 70.5331 24.8563C70.8204 23.992 70.883 23.3107 70.5945 22.6577C70.306 22.0047 69.6733 21.3869 69.3565 20.6356C69.0468 19.8842 69.0672 19.0062 69.3828 18.2613C69.6984 17.5163 70.3159 16.9119 70.7792 16.5252C71.2426 16.1385 71.5584 15.9625 71.9025 15.8007C72.2535 15.6388 72.6399 15.4838 73.0543 15.5256C73.4759 15.5605 73.9256 15.792 74.2282 16.424C74.5308 17.0489 74.686 18.0671 74.5674 19.0929C74.4558 20.1115 74.0703 21.1375 73.8603 21.9314C73.6503 22.7322 73.6225 23.3084 73.7355 23.8493C73.8343 24.3339 74.0384 24.7902 74.3759 25.1763C74.3969 25.0147 74.4178 24.8531 74.4387 24.7057C74.5716 23.8414 74.8375 22.9704 75.3423 21.7126C75.847 20.4548 76.5973 18.8032 77.074 17.4822C77.5576 16.1682 77.7605 15.1845 77.7382 13.7586C77.7091 12.3327 77.4404 10.4713 77.0882 9.17211C76.7359 7.87288 76.2927 7.14963 75.8005 6.49681C75.3012 5.84399 74.7528 5.27546 74.4149 4.54519C74.077 3.82186 73.9499 2.93678 73.1557 2.36153C72.3615 1.78627 70.9002 1.51364 69.109 1.52206C67.3247 1.52353 65.2106 1.80605 63.2442 2.37665C61.2848 2.94725 59.473 3.80593 58.1952 4.68498C56.9175 5.56403 56.1736 6.46371 55.802 7.20869C55.4232 7.94649 55.4167 8.52984 55.5507 8.96514C55.6774 9.40762 55.9515 9.70948 56.0293 10.3136L56.0293 10.3205Z" fill="#785741"/>
</g>
</g>
</g>
</g>
</g>
</g>
</g>
</g>
</g>
<defs>
<radialGradient id="paint0_radial_650_39465" cx="0" cy="0" r="1" gradientUnits="userSpaceOnUse" gradientTransform="translate(59.9069 79.9718) rotate(1.48128) scale(61.4016 61.4016)">
<stop/>
<stop offset="0.35" stop-color="#151515"/>
<stop offset="1" stop-color="#2A2A2A"/>
</radialGradient>
<radialGradient id="paint1_radial_650_39465" cx="0" cy="0" r="1" gradientUnits="userSpaceOnUse" gradientTransform="translate(60.186 79.6884) scale(61.4016 61.4016)">
<stop/>
<stop offset="0.35" stop-color="#151515"/>
<stop offset="1" stop-color="#2A2A2A"/>
</radialGradient>
<linearGradient id="paint2_linear_650_39465" x1="76.3764" y1="28.0949" x2="49.4575" y2="84.9237" gradientUnits="userSpaceOnUse">
<stop stop-color="white"/>
<stop offset="0.35" stop-color="#F3C3FF"/>
<stop offset="1" stop-color="#E786FF"/>
</linearGradient>
<clipPath id="clip0_650_39465">
<rect width="93" height="82.4318" fill="white"/>
</clipPath>
</defs>
</svg>
