<svg width="142" height="88" viewBox="0 0 142 88" fill="none" xmlns="http://www.w3.org/2000/svg">
<g id="Frame">
<g clip-path="url(#clip0_648_38313)">
<g id="Clip path group">
<mask id="mask0_648_38313" style="mask-type:luminance" maskUnits="userSpaceOnUse" x="-14" y="1" width="184" height="112">
<g id="__lottie_element_2">
<path id="Vector" d="M169.606 1.42383H-13.8867V112.18H169.606V1.42383Z" fill="white"/>
</g>
</mask>
<g mask="url(#mask0_648_38313)">
<g id="Group">
<g id="Clip path group_2">
<mask id="mask1_648_38313" style="mask-type:luminance" maskUnits="userSpaceOnUse" x="-12" y="-2" width="151" height="94">
<g id="__lottie_element_4">
<path id="Vector_2" d="M-11.0345 -1.63672H138.232V91.2017H-11.0345V-1.63672Z" fill="white"/>
</g>
</mask>
<g mask="url(#mask1_648_38313)">
<g id="Group_2">
<g id="Group_3">
<g id="Group_4">
<path id="Vector_3" d="M136.075 41.2968C136.027 40.9614 135.978 40.6273 135.929 40.2941C135.896 40.072 135.862 39.8496 135.83 39.6276L135.136 37.9824C134.058 38.1349 132.98 38.2883 131.902 38.4396C132.068 40.1153 132.247 41.8119 132.441 43.5311C132.681 45.6587 132.945 47.818 133.233 50.0077C133.26 50.2084 133.288 50.4092 133.317 50.6103C133.482 51.747 134.505 52.5011 135.554 52.2686C136.489 52.0617 137.133 51.1364 137.048 50.1163C136.808 47.2043 136.5 44.2601 136.075 41.2968Z" fill="#E88164"/>
</g>
<g id="Group_5">
<path id="Vector_4" d="M115.58 37.1152L114.886 38.7607C114.853 38.9827 114.82 39.2049 114.787 39.4271C114.738 39.7603 114.689 40.0945 114.641 40.4299C113.536 48.1267 113.219 55.6977 112.83 62.9013C112.814 63.0401 112.799 63.1681 112.787 63.2826C112.009 64.1586 112.037 69.0917 112.05 70.0644C112.052 70.1759 112.078 70.2805 112.128 70.3782C112.446 70.9943 113.692 73.3345 114.254 73.3345C114.902 73.3345 114.6 72.5008 114.6 72.5008L113.466 70.3031C113.334 70.0464 113.286 69.7491 113.331 69.4596L113.644 67.4593C113.825 68.1134 114.199 69.7849 114.423 70.0266C114.643 70.263 115.016 70.0637 114.965 69.7341C114.887 69.2217 114.83 67.6861 114.945 66.5716C115.083 65.2351 114.778 64.3182 114.541 63.8319C115.342 59.2378 116.826 54.1139 117.482 49.1408C117.771 46.9511 118.034 44.7919 118.275 42.6642C118.469 40.9449 118.648 39.2484 118.814 37.5727C117.736 37.4214 116.657 37.2677 115.58 37.1152Z" fill="#E88164"/>
</g>
<g id="Group_6">
<path id="Vector_5" d="M119.762 50.8809C119.762 50.8809 117.579 54.1832 116.366 62.6406C115.154 71.0979 116.342 106.086 116.342 106.086H121.338C121.338 106.086 124.311 65.4138 125.321 62.3778C125.321 62.3778 125.523 62.5947 125.726 63.0284C125.763 67.612 128.237 95.8538 128.97 106.086H134.126C134.126 106.086 134.112 64.9251 134.022 62.5318C133.921 59.8096 131.887 53.7 130.27 50.8809C126.431 51.5315 119.762 50.8809 119.762 50.8809Z" fill="#0D2041"/>
</g>
<g id="Group_7">
<path id="Vector_6" d="M130.775 33.4601L128.644 37.5979H121.744L119.714 33.4601L122.861 32.3717L122.936 27.8701L122.944 27.4948L122.962 26.3828H127.121L127.152 26.927L127.193 27.6975L127.251 28.7689L127.28 29.3196L127.323 29.8443L127.527 32.3717L130.775 33.4601Z" fill="#E88164"/>
</g>
<g id="Group_8">
<path id="Vector_7" d="M127.323 29.8437C125.725 29.6893 123.973 28.6847 122.936 27.8696C122.769 27.7388 122.621 27.6119 122.494 27.4941H122.944L127.167 27.4968L127.194 27.6969L127.251 28.7683L127.28 29.3191L127.323 29.8437Z" fill="#333232"/>
</g>
<g id="Group_9">
<path id="Vector_8" d="M136.153 39.2314L132.975 41.1042C132.072 44.3632 131.17 47.6233 130.268 50.8823C128.887 51.1709 127.208 51.4038 125.295 51.4266C123.119 51.4529 121.227 51.1981 119.714 50.8823C118.999 47.8127 118.363 45.7863 117.666 42.6635C117.57 42.2356 117.474 41.7859 117.375 41.3112L114.178 39.4262L114.032 39.3403L114.276 38.76L114.971 37.1146L115.229 36.5015C115.794 35.1612 116.805 34.0962 118.064 33.517C118.359 33.382 118.671 33.2524 119.004 33.1337C120.378 32.6427 121.592 32.5065 122.454 32.4805C122.962 33.3515 123.367 34.0049 125.093 34.2226C126.919 34.1137 127.325 33.2427 127.832 32.4805C128.761 32.5261 130.044 32.6982 131.485 33.2427C131.732 33.3363 131.969 33.4343 132.195 33.5367C133.483 34.1181 134.51 35.2145 135.071 36.5876L136.153 39.2314Z" fill="#863C4F"/>
</g>
<g id="Group_10">
<path id="Vector_9" d="M117.584 41.8674C117.529 41.8674 117.48 41.8284 117.466 41.7695L117.132 40.3802C117.115 40.3104 117.154 40.239 117.219 40.2208C117.285 40.2032 117.351 40.2448 117.368 40.3147L117.702 41.7039C117.719 41.7738 117.679 41.8454 117.614 41.8634C117.604 41.8662 117.594 41.8674 117.584 41.8674Z" fill="black"/>
</g>
<g id="Group_11">
<path id="Vector_10" d="M132.726 41.9744C132.718 41.9744 132.709 41.9736 132.701 41.9717C132.635 41.9574 132.593 41.8883 132.606 41.8176L132.863 40.4565C132.877 40.3858 132.94 40.3395 133.007 40.3543C133.073 40.3687 133.116 40.4377 133.102 40.5086L132.845 41.8695C132.833 41.9316 132.782 41.9744 132.726 41.9744Z" fill="black"/>
</g>
<g id="Group_12">
<path id="Vector_11" d="M124.991 60.7042C124.926 60.7042 124.872 60.6484 124.87 60.5776L124.597 51.649C124.595 51.5767 124.648 51.5163 124.715 51.514C124.777 51.5089 124.839 51.5681 124.841 51.6405L125.113 60.5692C125.115 60.6413 125.063 60.7018 124.995 60.7041C124.994 60.7042 124.993 60.7042 124.991 60.7042Z" fill="#264674"/>
</g>
<g id="Group_13">
<path id="Vector_12" d="M124.938 58.9683C124.886 58.9683 124.838 58.9323 124.822 58.876C124.802 58.8068 124.838 58.7337 124.903 58.7125C125.324 58.574 125.638 58.1034 125.785 57.3873C126.216 55.3048 125.988 51.6899 125.986 51.6537C125.981 51.5815 126.032 51.5191 126.099 51.514C126.164 51.5086 126.224 51.5634 126.229 51.6355C126.239 51.785 126.462 55.3242 126.024 57.444C125.856 58.256 125.483 58.7955 124.974 58.9627C124.962 58.9666 124.95 58.9683 124.938 58.9683Z" fill="#264674"/>
</g>
<g id="Group_14">
<path id="Vector_13" d="M130.572 51.4266C128.836 51.5636 126.971 51.6458 124.992 51.6443C123.05 51.6429 121.219 51.5613 119.512 51.4266C119.546 51.0637 119.58 50.7008 119.613 50.3379C121.284 50.4733 123.082 50.5555 124.992 50.5555C126.667 50.5555 128.465 50.4923 130.369 50.3379C130.437 50.7008 130.505 51.0637 130.572 51.4266Z" fill="black"/>
</g>
</g>
<g id="Group_15">
<g id="Group_16">
<path id="Vector_14" d="M124.841 27.9859C123.613 28.103 122.422 27.7987 121.399 27.1054C120.335 26.3852 119.544 25.2899 119.172 24.0208C119.152 23.9532 119.188 23.8804 119.253 23.8582C119.318 23.836 119.386 23.8728 119.406 23.9404C119.762 25.1529 120.518 26.1997 121.534 26.8879C122.512 27.5505 123.65 27.8414 124.824 27.7295C125.998 27.6175 127.083 27.1147 127.96 26.2753C128.872 25.4032 129.478 24.2265 129.668 22.962C129.731 22.5472 129.748 22.1216 129.72 21.6965L129.684 21.1626C129.679 21.0918 129.73 21.0293 129.798 21.0228C129.865 21.0164 129.924 21.0685 129.928 21.1393L129.964 21.6732C129.994 22.1179 129.976 22.5634 129.91 22.9973C129.711 24.3205 129.077 25.5517 128.123 26.4643C127.205 27.3427 126.07 27.8687 124.841 27.9859Z" fill="black"/>
</g>
<g id="Group_17">
<path id="Vector_15" d="M131.458 26.0302C129.791 26.6491 127.618 27.7253 124.832 27.9522C122.183 28.1678 119.802 27.5075 118.129 27.1941C118.385 24.9122 118.642 22.6303 118.898 20.3484L129.597 19.6504L131.458 26.0302Z" fill="#333232"/>
</g>
<g id="Group_18">
<path id="Vector_16" d="M124.873 28.7616C121.882 29.0479 119.286 26.727 119.076 23.5778L118.877 20.6038C118.717 18.2058 120.433 16.085 122.711 15.867L125.295 15.6196C127.573 15.4016 129.549 17.169 129.71 19.567L129.908 22.5409C130.119 25.6902 127.864 28.4753 124.873 28.7616Z" fill="#E88164"/>
</g>
<g id="Group_19">
<path id="Vector_17" d="M119.818 21.557C119.87 22.3286 119.317 23.0109 118.584 23.0811C117.851 23.1512 117.215 22.5826 117.164 21.8111C117.112 21.0396 117.665 20.3572 118.398 20.287C119.13 20.2169 119.766 20.7855 119.818 21.557Z" fill="#E88164"/>
</g>
<g id="Group_20">
<path id="Vector_18" d="M119.342 21.6958C119.319 21.6979 119.297 21.687 119.285 21.6657C118.776 20.7736 117.769 21.1959 117.759 21.2003C117.727 21.2141 117.692 21.1984 117.68 21.1655C117.667 21.1329 117.683 21.0952 117.714 21.0817C117.725 21.0768 118.829 20.614 119.39 21.598C119.407 21.6282 119.398 21.6678 119.369 21.6865C119.36 21.6919 119.351 21.6949 119.342 21.6958Z" fill="#8E544E"/>
</g>
<g id="Group_21">
<path id="Vector_19" d="M118.3 21.9097C118.294 21.9102 118.288 21.9098 118.282 21.9085C118.249 21.9011 118.228 21.867 118.236 21.8323C118.279 21.6405 118.379 21.4951 118.536 21.4003C118.775 21.2552 119.063 21.278 119.165 21.3118C119.197 21.3225 119.214 21.3587 119.203 21.3927C119.192 21.4266 119.158 21.4452 119.126 21.4347C119.035 21.4043 118.785 21.3962 118.595 21.5114C118.47 21.5872 118.39 21.7043 118.355 21.8591C118.349 21.8874 118.326 21.9072 118.3 21.9097Z" fill="#8E544E"/>
</g>
<g id="Group_22">
<path id="Vector_20" d="M128.991 20.6841C129.042 21.4557 129.678 22.0243 130.411 21.9542C131.144 21.884 131.696 21.2016 131.644 20.4301C131.593 19.6586 130.957 19.0899 130.224 19.1601C129.491 19.2303 128.939 19.9126 128.991 20.6841Z" fill="#E88164"/>
</g>
<g id="Group_23">
<path id="Vector_21" d="M129.475 20.7306C129.466 20.7314 129.456 20.7301 129.447 20.7265C129.416 20.7135 129.401 20.6762 129.414 20.6431C129.836 19.5659 130.988 19.814 131 19.8167C131.032 19.8242 131.053 19.8583 131.045 19.893C131.037 19.9278 131.004 19.9495 130.971 19.9424C130.928 19.9325 129.909 19.715 129.527 20.69C129.518 20.7134 129.497 20.7284 129.475 20.7306Z" fill="#8E544E"/>
</g>
<g id="Group_24">
<path id="Vector_22" d="M130.535 20.7402C130.509 20.7427 130.484 20.7275 130.474 20.7008C130.419 20.5544 130.324 20.4544 130.19 20.4032C129.987 20.3253 129.743 20.3807 129.656 20.4277C129.626 20.444 129.589 20.4324 129.574 20.4008C129.559 20.3693 129.571 20.3303 129.602 20.3136C129.698 20.261 129.979 20.1842 130.235 20.2822C130.401 20.3462 130.52 20.4705 130.588 20.6517C130.6 20.6846 130.585 20.722 130.553 20.7356C130.547 20.7381 130.541 20.7396 130.535 20.7402Z" fill="#8E544E"/>
</g>
<g id="Group_25">
<path id="Vector_23" d="M125.163 14.3774L124.277 14.4617L123.123 14.5715L122.595 14.6217C120.33 14.8371 118.624 16.9366 118.784 19.3109L118.857 20.4026C118.955 20.3741 119.055 20.343 119.157 20.3087C121.789 19.4269 121.889 18.6911 122.388 16.9694C124.095 18.6101 126.243 19.0033 128.959 19.3764C129.196 19.4097 129.412 19.3227 129.623 19.3294L129.553 18.2866C129.393 15.9123 127.428 14.162 125.163 14.3774Z" fill="#333232"/>
</g>
<g id="Group_26">
<path id="Vector_24" d="M124.546 24.4116C124.541 24.412 124.535 24.4123 124.53 24.4121C124.511 24.4114 124.054 24.3927 123.801 24.1695C123.766 24.1378 123.75 24.0873 123.762 24.0392C123.954 23.2543 124.173 20.8314 124.176 20.8071C124.182 20.7353 124.243 20.6804 124.312 20.6865C124.381 20.6919 124.432 20.7546 124.425 20.8265C124.416 20.9235 124.216 23.1372 124.025 24.0126C124.191 24.1151 124.448 24.1473 124.543 24.1509C124.612 24.1535 124.665 24.214 124.662 24.2861C124.658 24.3526 124.608 24.4057 124.546 24.4116Z" fill="#8E544E"/>
</g>
<g id="Group_27">
<path id="Vector_25" d="M124.81 28.9138C122.775 29.1077 120.834 28.1146 119.746 26.3219C119.71 26.2625 119.727 26.1828 119.784 26.1436C119.842 26.1045 119.917 26.1211 119.953 26.1804C120.993 27.8935 122.848 28.8428 124.793 28.6575C127.696 28.3809 129.891 25.677 129.687 22.6299L129.931 22.6066L129.96 23.0333C129.961 23.0594 129.956 23.0843 129.944 23.1058C129.902 26.0852 127.688 28.6396 124.81 28.9138Z" fill="#333232"/>
</g>
</g>
<g id="Group_28">
<g id="Group_29">
<path id="Vector_26" d="M122.522 21.5908C122.54 21.8577 122.349 22.0943 122.096 22.1191C121.842 22.144 121.622 21.9476 121.603 21.6807C121.585 21.4137 121.776 21.1771 122.03 21.1523C122.283 21.1275 122.504 21.3238 122.522 21.5908Z" fill="#333232"/>
</g>
</g>
<g id="Group_30">
<g id="Group_31">
<path id="Vector_27" d="M126.77 21.2158C126.788 21.4827 126.597 21.7193 126.344 21.7441C126.09 21.769 125.869 21.5726 125.851 21.3057C125.833 21.0387 126.024 20.8021 126.277 20.7773C126.531 20.7525 126.752 20.9488 126.77 21.2158Z" fill="#333232"/>
</g>
</g>
<g id="Group_32">
<g id="Group_33">
<path id="Vector_28" d="M122.59 19.2586L121.24 19.7019L120.823 20.3306L121.283 21.2883C121.283 21.2883 122.295 20.7052 122.96 21.2972C123.625 21.8891 123.211 20.1661 123.211 20.1661L122.59 19.2586Z" fill="#E88164"/>
</g>
</g>
<g id="Group_34">
<g id="Group_35">
<path id="Vector_29" d="M126.855 19.2798L125.668 19.5118L125.251 20.1398L125.711 21.0966C125.711 21.0966 126.722 20.5141 127.386 21.1055C128.051 21.6968 127.637 19.9755 127.637 19.9755L126.855 19.2798Z" fill="#E88164"/>
</g>
</g>
<g id="Group_36">
<g id="Group_37">
<path id="Vector_30" d="M122.893 20.3866L121.269 20.9039C121.095 20.9594 120.915 20.8573 120.865 20.6761L120.849 20.6171C120.8 20.4359 120.901 20.244 121.075 20.1888L122.699 19.6712C122.873 19.6159 123.054 19.718 123.103 19.8992L123.119 19.9583C123.168 20.1396 123.067 20.3313 122.893 20.3866Z" fill="#333232"/>
</g>
</g>
<g id="Group_38">
<g id="Group_39">
<path id="Vector_31" d="M125.405 20.2092L127.079 20.4062C127.258 20.4273 127.422 20.2917 127.446 20.1034L127.454 20.0421C127.477 19.8538 127.352 19.684 127.173 19.663L125.499 19.4659C125.32 19.4449 125.156 19.5805 125.132 19.7688L125.124 19.8302C125.1 20.0185 125.226 20.1882 125.405 20.2092Z" fill="#333232"/>
</g>
</g>
<g id="Group_40">
<g id="Group_41">
<path id="Vector_32" d="M124.705 26.2872C124.637 26.2938 124.594 26.2935 124.586 26.2933C124.519 26.292 124.466 26.2333 124.469 26.1621C124.471 26.0911 124.53 26.0353 124.596 26.0356C124.632 26.0362 125.449 26.0368 125.855 25.2204C125.887 25.157 125.961 25.1312 126.021 25.1632C126.08 25.1953 126.103 25.2727 126.071 25.3363C125.685 26.1132 124.984 26.26 124.705 26.2872Z" fill="#8E544E"/>
</g>
</g>
<g id="Group_42">
<g id="Group_43">
<path id="Vector_33" d="M122.213 24.0017C121.239 24.097 120.39 23.3408 120.32 22.3158C120.249 21.2909 120.985 20.3795 121.959 20.2842C122.933 20.1888 123.782 20.9452 123.852 21.9701C123.922 22.9951 123.187 23.9064 122.213 24.0017ZM121.985 20.6714C121.214 20.7469 120.632 21.4683 120.688 22.2798C120.743 23.0913 121.415 23.69 122.186 23.6145C122.957 23.539 123.539 22.8175 123.484 22.0061C123.428 21.1946 122.756 20.5959 121.985 20.6714Z" fill="white"/>
</g>
<g id="Group_44">
<path id="Vector_34" d="M126.515 23.6755C125.541 23.7709 124.692 23.0147 124.622 21.9896C124.552 20.9647 125.287 20.0533 126.261 19.958C127.235 19.8627 128.084 20.619 128.154 21.6439C128.225 22.6689 127.489 23.5802 126.515 23.6755ZM126.288 20.3452C125.517 20.4207 124.935 21.1422 124.99 21.9536C125.046 22.7651 125.718 23.3638 126.489 23.2883C127.26 23.2129 127.842 22.4914 127.786 21.6799C127.731 20.8685 127.059 20.2697 126.288 20.3452Z" fill="white"/>
</g>
<g id="Group_45">
<path id="Vector_35" d="M123.72 22.152L123.479 21.8674C123.592 21.7624 123.833 21.5812 124.18 21.5476C124.329 21.5332 124.623 21.5374 124.916 21.7282L124.718 22.0554C124.514 21.9227 124.31 21.9197 124.207 21.9297C123.966 21.953 123.798 22.079 123.72 22.152Z" fill="white"/>
</g>
</g>
<g id="Group_46">
<g id="Group_47">
<path id="Vector_36" d="M138.341 40.3672C137.848 40.1593 137.287 40.4274 137.103 40.96C136.154 43.7128 134.941 46.6793 133.913 49.5947C133.584 50.5269 133.996 51.5859 134.865 51.9428C135.844 52.3452 136.927 51.7142 137.15 50.6271C137.68 48.0513 138.558 43.3701 138.913 41.4881C139.002 41.0147 138.762 40.5442 138.341 40.3672Z" fill="#E88164"/>
</g>
<g id="Group_48">
<path id="Vector_37" d="M136.699 42.1726L134.257 48.6963" stroke="#BE614B" stroke-width="0.136708" stroke-miterlimit="10" stroke-linecap="round"/>
</g>
</g>
<g id="Group_49">
<g id="Group_50">
<path id="Vector_38" d="M139.695 38.2178L140.747 35.6283C140.808 35.4498 140.731 35.2483 140.557 35.1739C140.389 35.1019 140.194 35.1968 140.112 35.3701L139.26 37.1716L140.222 34.091C140.271 33.9358 140.221 33.7579 140.087 33.6792C139.912 33.5763 139.697 33.668 139.63 33.861L138.673 36.671L139.361 33.1088C139.396 32.9301 139.294 32.7287 139.128 32.6822C138.944 32.6307 138.758 32.7502 138.711 32.942L137.828 36.5699C137.829 36.5523 137.896 35.0788 137.897 35.0612C137.898 35.0362 137.978 33.287 137.979 33.2618C137.984 33.0636 137.838 32.9004 137.659 32.8934C137.485 32.8868 137.333 33.0202 137.306 33.202L136.974 36.5112L136.676 37.6548L136.572 37.64C136.262 37.4458 136.385 36.979 136.211 36.6455C136.095 36.4232 135.809 36.3191 135.594 36.4409C135.375 36.5653 135.287 36.8517 135.399 37.0836L135.671 38.5157L136.464 40.5142C136.471 40.7025 136.489 40.5956 136.492 41.1081C136.46 41.6904 136.845 42.1982 137.389 42.2914C137.941 42.3863 138.43 42.0296 138.621 41.512" fill="#E88164"/>
</g>
<g id="Group_51">
<path id="Vector_39" d="M136.535 37.6621C136.535 37.6621 137.535 38.2277 137.873 38.9314" stroke="#BE614B" stroke-width="0.136708" stroke-miterlimit="10" stroke-linecap="round"/>
</g>
</g>
<g id="Group_52">
<g id="Group_53">
<path id="Vector_40" d="M20.4962 23.4518C20.4962 23.4518 21.3277 29.425 18.1411 33.3836C16.0617 35.9365 13.0905 38.2376 16.9176 41.9869C18.5865 43.6144 29.8722 47.6888 31.9497 45.3327C33.2263 43.885 33.1268 38.3156 31.9702 33.6849C30.8136 29.0543 32.8232 20.489 32.8195 20.4631L20.9402 18.6735L20.4962 23.4518Z" fill="#723F31"/>
</g>
</g>
<g id="Group_54">
<g id="Group_55">
<path id="Vector_41" d="M35.9497 71.4258L40.7043 107.532H37.1687L29.3664 71.4258H35.9497Z" fill="#FEACA2"/>
</g>
<g id="Group_56">
<path id="Vector_42" d="M40.9545 97.9289C40.9545 97.9289 34.7176 100.164 32.7407 99.1334L28.8415 71.2938L37.6644 69.1543L40.9545 97.9289Z" fill="black"/>
</g>
<g id="Group_57">
<path id="Vector_43" d="M19.0886 71.4258L21.4048 107.532H24.9404L25.6717 71.4258H19.0886Z" fill="#FEACA2"/>
</g>
<g id="Group_58">
<path id="Vector_44" d="M23.8433 32.9746H28.9636L34.4496 35.4491L32.8648 40.1586L20.3079 40.6817L18.8449 35.1874L23.8433 32.9746Z" fill="#FEACA2"/>
</g>
<g id="Group_59">
<path id="Vector_45" d="M28.8415 27.6016L28.9633 37.6747H23.8431L23.9649 27.6016H28.8415Z" fill="#FEACA2"/>
</g>
<g id="Group_60">
<path id="Vector_46" d="M21.146 52.1953H31.7019C31.7019 52.1953 34.5712 58.0822 35.7903 65.6697C37.0094 72.2107 36.8875 73.6496 36.8875 73.6496C35.3635 74.0903 32.5206 74.6828 29.6947 74.9578C29.4638 74.3384 27.9211 67.6183 27.5511 65.9079C27.5304 65.8121 27.3913 65.6013 27.3783 65.5388C27.2564 66.3238 27.3783 74.5653 27.3783 75.0886C27.0362 75.1016 26.7259 75.0889 26.4031 75.0886C22.9085 75.0863 20.8421 74.5242 18.7226 73.9112C18.844 59.4281 18.1133 59.7828 21.146 52.1953Z" fill="black"/>
</g>
<g id="Group_61">
<path id="Vector_47" d="M35.2818 36.7813C35.0892 36.3091 36.0611 36.4308 35.7661 36.0344C35.2029 35.2771 34.4701 34.6739 33.6253 34.2933C33.4011 34.1912 33.1632 34.0932 32.917 33.999C32.0112 33.6575 31.1164 33.388 30.3044 33.2022C29.8229 33.0923 29.3717 33.0113 28.9634 32.9629C28.4562 33.7255 27.9882 34.4019 26.5252 35.3176C24.8184 34.4019 24.3502 33.8342 23.843 32.9629C22.9812 32.989 21.8096 33.3985 20.4356 33.8904C20.4313 33.8919 20.4271 33.8936 20.4228 33.8951L18.9838 42.9021C19.0218 43.0775 19.0596 43.2505 19.097 43.4192C19.7943 46.5432 20.4308 49.2237 21.1452 52.2928C22.6581 52.608 24.5502 52.863 26.7264 52.8368C28.0356 52.8212 29.2353 52.7074 30.3044 52.5452C30.7982 52.4693 31.2639 52.383 31.699 52.2928C32.6012 49.034 33.5033 45.1199 34.4055 41.8612L34.6319 40.2681V38.3155L35.2818 36.7813Z" fill="#ECC8CF"/>
</g>
<g id="Group_62">
<path id="Vector_48" d="M36.3217 36.5031L35.0456 40.9947L34.707 56.5367C34.6995 56.8862 34.4331 57.1652 34.1073 57.1652H30.9042C30.573 57.1652 30.3044 56.8772 30.3044 56.5218V33.0723C31.1163 33.258 32.0113 33.5275 32.9171 33.8691C33.1633 33.9632 33.401 34.0612 33.6252 34.1633C34.47 34.544 35.7585 35.7456 36.3217 36.5031Z" fill="#FFB65B"/>
</g>
<g id="Group_63">
<path id="Vector_49" d="M34.8038 52.1574C34.77 52.1574 34.7429 52.128 34.7429 52.0919L34.7542 41.4676C34.7543 41.4315 34.7816 41.4023 34.8151 41.4023H34.8153C34.8489 41.4023 34.8762 41.4316 34.8761 41.4678L34.8648 52.0922C34.8648 52.1282 34.8375 52.1574 34.8038 52.1574Z" fill="black"/>
</g>
<g id="Group_64">
<path id="Vector_50" d="M33.4134 55.0729C33.3911 55.0729 33.3695 55.0598 33.3588 55.0369L31.4082 50.8507C31.3932 50.8183 31.4053 50.7789 31.4355 50.7627C31.4656 50.7467 31.5022 50.7598 31.5172 50.7921L33.4679 54.9783C33.483 55.0107 33.4708 55.0499 33.4406 55.0662C33.4319 55.0708 33.4227 55.0729 33.4134 55.0729Z" fill="black"/>
</g>
<g id="Group_65">
<path id="Vector_51" d="M17.0405 35.9045L17.7609 40.9947L18.0995 56.5367C18.107 56.8862 18.3732 57.1652 18.6991 57.1652H21.9023C22.2334 57.1652 22.502 56.877 22.502 56.5217V33.0723C21.69 33.258 20.7954 33.5275 19.8895 33.8689C19.6433 33.9632 19.4055 34.0612 19.1811 34.1633C18.3363 34.544 17.6036 35.147 17.0405 35.9045Z" fill="#FFB65B"/>
</g>
<g id="Group_66">
<path id="Vector_52" d="M19.3934 55.0729C19.3841 55.0729 19.3749 55.0708 19.3662 55.0662C19.3361 55.0499 19.3238 55.0107 19.3389 54.9783L21.2894 50.7921C21.3046 50.7598 21.3412 50.7467 21.3713 50.7627C21.4015 50.7789 21.4136 50.8183 21.3986 50.8507L19.448 55.0369C19.4373 55.0598 19.4157 55.0729 19.3934 55.0729Z" fill="black"/>
</g>
<g id="Group_67">
<path id="Vector_53" d="M19.0884 99.0287C19.0884 99.0287 25.5497 100.337 27.3784 99.0287V65.8008L18.7175 70.0411L19.0884 99.0287Z" fill="black"/>
</g>
<g id="Group_68">
<path id="Vector_54" d="M26.769 53.7655C26.769 54.0545 26.5506 54.2888 26.2813 54.2888C26.012 54.2888 25.7936 54.0545 25.7936 53.7655C25.7936 53.4765 26.012 53.2422 26.2813 53.2422C26.5506 53.2422 26.769 53.4765 26.769 53.7655Z" fill="#AFABAA"/>
</g>
<g id="Group_69">
<path id="Vector_55" d="M22.5023 41.841C22.4838 41.841 22.4655 41.8321 22.4535 41.8151L21.1734 40.0017C21.1613 39.9845 21.1578 39.9621 21.1642 39.9416L21.76 38.0235L20.0476 36.617C20.0241 36.5978 20.0169 36.5632 20.0306 36.535L21.6162 33.2541C21.6317 33.2219 21.6685 33.2095 21.6983 33.2261C21.7282 33.2427 21.7399 33.2822 21.7244 33.3142L20.1622 36.5465L21.8687 37.948C21.8892 37.965 21.8976 37.9942 21.8893 38.0207L21.29 39.9502L22.5506 41.7362C22.571 41.765 22.5657 41.806 22.5389 41.8278C22.5279 41.8367 22.515 41.841 22.5023 41.841Z" fill="black"/>
</g>
<g id="Group_70">
<path id="Vector_56" d="M32.5521 36.6444L31.189 38.1564L31.7848 40.0744C31.7911 40.0949 31.7878 40.1173 31.7755 40.1345L30.4956 41.9479C30.4835 41.9649 30.4653 41.9738 30.4468 41.9738C30.4341 41.9738 30.4211 41.9695 30.4102 41.9605C30.3833 41.9388 30.3779 41.8978 30.3983 41.8689L31.659 40.083L31.0596 38.1534C31.0513 38.1269 31.0598 38.0978 31.0804 38.0808L32.4222 36.6444L31.2246 33.4472C31.2091 33.4151 31.2208 33.3756 31.2507 33.359C31.2805 33.3423 31.3174 33.3547 31.3328 33.3869" fill="black"/>
</g>
<g id="Group_71">
<path id="Vector_57" d="M18.6177 39.7797L18.7407 34.5684C18.3061 34.7173 17.6449 35.0056 16.9977 35.5865C16.761 35.799 16.3908 36.1721 15.4414 37.7506C15.1205 38.2841 14.6905 39.0268 14.2122 39.9433C13.1942 42.2894 12.1763 44.6356 11.1582 46.9816C10.7132 48.0071 11.0364 49.2276 11.9175 49.8487C12.953 50.5786 14.3483 50.2063 14.945 49.0413L17.5816 43.8936C18.2284 42.6308 18.5836 41.2201 18.6177 39.7797Z" fill="#FFB65B"/>
</g>
<g id="Group_72">
<path id="Vector_58" d="M18.3514 42.4414L14.7551 49.56" stroke="black" stroke-width="0.136708" stroke-linecap="round" stroke-linejoin="round"/>
</g>
<g id="Group_73">
<path id="Vector_59" d="M28.8854 30.9876C28.7501 30.998 28.6134 31.0033 28.4756 31.0033C26.775 31.0033 25.2523 30.1922 24.2245 28.9102H28.8608L28.8854 30.9876Z" fill="#333232"/>
</g>
</g>
<g id="Group_74">
<g id="Group_75">
<path id="Vector_60" d="M35.6076 73.4238C35.3513 73.437 35.1228 73.2374 35.0893 72.9641L34.6457 69.3587C34.6248 69.1892 34.684 69.0211 34.8041 68.9093C35.3341 68.4153 36.2309 67.7842 37.4936 67.5821C39.0113 67.3392 40.2339 67.8587 40.8278 68.1901C40.9718 68.2703 41.0703 68.4197 41.0911 68.5895L41.5347 72.1948C41.5697 72.4792 41.3804 72.7358 41.1117 72.768L35.6391 73.421C35.6285 73.4223 35.618 73.4232 35.6076 73.4238ZM35.653 69.5226L35.9988 72.3329L40.4985 71.7958L40.1528 68.9865C39.6162 68.7288 38.7252 68.4357 37.6569 68.6071C36.7662 68.7496 36.0978 69.1546 35.653 69.5226Z" fill="#340C18"/>
</g>
<g id="Group_76">
<path id="Vector_61" d="M47.9409 83.8933L32.1708 85.7754C31.6234 85.8407 31.1221 85.424 31.0508 84.8447L29.6461 73.4266C29.5747 72.8473 29.9606 72.3248 30.5078 72.2594L46.2781 70.3774C46.8253 70.312 47.3266 70.7287 47.3979 71.308L48.8026 82.7261C48.874 83.3054 48.4881 83.8281 47.9409 83.8933Z" fill="#863C4F"/>
</g>
<g id="Group_77">
<path id="Vector_62" d="M34.5032 79.3182C33.8861 79.3499 33.2827 79.1463 32.7883 78.736C32.25 78.2893 31.9055 77.651 31.8177 76.9388L31.255 72.3704C31.2464 72.2997 31.2935 72.2355 31.3606 72.2276C31.426 72.2199 31.4892 72.2707 31.4978 72.3415L32.0604 76.9098C32.1396 77.5535 32.4512 78.1303 32.9377 78.5339C33.4241 78.9377 34.0268 79.1201 34.6361 79.0473L43.8271 77.9515C45.0837 77.8017 45.9729 76.5989 45.8093 75.2705L45.2501 70.7305C45.2413 70.6596 45.2886 70.5956 45.3556 70.5876C45.422 70.5805 45.4843 70.6307 45.493 70.7016L46.0522 75.2415C46.2331 76.7116 45.249 78.0424 43.8586 78.2082L34.6677 79.3041C34.6128 79.3106 34.5579 79.3153 34.5032 79.3182Z" fill="black"/>
</g>
<g id="Group_78">
<path id="Vector_63" d="M47.0727 83.9531C47.0094 83.9563 46.9517 83.909 46.941 83.842C46.932 83.7857 46.9584 83.7325 47.0032 83.7073C47.7717 83.175 48.1344 82.3958 48.0251 81.5123L46.9089 72.4987C46.8194 71.7752 46.5847 71.3783 46.0124 70.9821C45.8542 70.8719 45.6858 70.7831 45.5119 70.718C45.4467 70.6936 45.412 70.6188 45.4342 70.5508C45.4564 70.4831 45.5273 70.4477 45.5925 70.4723C45.7858 70.5447 45.9727 70.6432 46.1479 70.7652C46.7837 71.2053 47.0571 71.6673 47.1563 72.4694L48.2725 81.483C48.3951 82.4731 47.9909 83.3429 47.1343 83.9321C47.1196 83.9424 47.1028 83.949 47.0852 83.9518C47.081 83.9523 47.0768 83.9528 47.0727 83.9531Z" fill="black"/>
</g>
<g id="Group_79">
<path id="Vector_64" d="M32.9518 85.7831C32.9296 85.7842 32.907 85.7793 32.8871 85.7685C31.9571 85.378 31.3804 84.639 31.2626 83.6866L30.1469 74.6738C30.023 73.6729 30.2058 73.1015 30.8212 72.5651C30.8746 72.5161 30.9299 72.4708 30.9883 72.4287C31.0049 72.4144 31.0252 72.4046 31.0478 72.4011C31.1161 72.3918 31.1799 72.4396 31.1912 72.5108C31.1971 72.5479 31.1875 72.584 31.1673 72.6114C31.1595 72.6223 31.1497 72.6319 31.1385 72.6399C31.0856 72.6777 31.0352 72.7187 30.9846 72.7649C30.4355 73.2438 30.2815 73.7352 30.3942 74.6446L31.5098 83.6571C31.6157 84.5131 32.1401 85.1785 32.9863 85.5305C32.9969 85.5348 33.0066 85.5404 33.0154 85.5473C33.0417 85.5672 33.0608 85.598 33.0663 85.6341C33.0774 85.7054 33.0313 85.7717 32.9633 85.782C32.9596 85.7826 32.9557 85.7828 32.9518 85.7831Z" fill="black"/>
</g>
<g id="Group_80">
<path id="Vector_65" d="M35.8906 80.1566L35.4422 80.2102C35.1619 80.2436 34.905 80.03 34.8683 79.7331L34.7464 78.7416C34.7099 78.4447 34.9076 78.1767 35.1881 78.1433L35.6363 78.0898C35.9168 78.0564 36.1737 78.2699 36.2102 78.5668L36.3321 79.5583C36.3687 79.8552 36.1709 80.1232 35.8906 80.1566Z" fill="black"/>
</g>
<g id="Group_81">
<path id="Vector_66" d="M43.3935 79.1742L42.9452 79.2277C42.6648 79.2612 42.4079 79.0476 42.3713 78.7507L42.2493 77.7592C42.2128 77.4623 42.4105 77.1943 42.691 77.1609L43.1392 77.1074C43.4197 77.0739 43.6766 77.2875 43.7131 77.5844L43.835 78.5759C43.8717 78.8728 43.6739 79.1408 43.3935 79.1742Z" fill="black"/>
</g>
<g id="Group_82">
<path id="Vector_67" d="M39.5473 69.0516L39.2869 67.3109L38.358 64.7883L37.9967 62.8947C38.0089 56.1269 38.0502 49.0557 37.397 41.8201C37.3669 41.4823 37.336 41.1456 37.3037 40.8099C37.2829 40.5861 37.2612 40.3624 37.2403 40.1386L36.6226 38.445C35.5127 38.5103 34.4018 38.5765 33.2918 38.6408C33.3675 40.3224 33.4563 42.0256 33.5585 43.7529C33.6855 45.8903 33.8349 48.0612 34.0073 50.2642C34.3934 55.1769 35.5852 60.297 36.1607 64.871L36.2154 66.4176C36.2137 66.4172 36.2121 66.4161 36.2104 66.4157L35.9108 67.7302C35.8691 67.9237 35.8804 68.1264 35.9436 68.3153L35.9473 68.326C36.0034 68.494 36.1361 68.6182 36.296 68.6624L36.3489 69.3114L36.3997 69.5748C36.4032 69.5931 36.409 69.6104 36.4169 69.6264C36.4169 69.6264 36.4355 69.664 36.4729 69.6954C36.506 69.7232 36.6132 69.7888 36.7674 69.7874C36.8142 69.7869 36.9463 69.7836 37.0751 69.6874C37.1718 69.6151 37.2198 69.5253 37.2407 69.4792L37.2325 69.3775L37.2365 69.3986C37.2605 69.5228 37.3706 69.6089 37.4907 69.597C37.5718 69.592 37.6557 69.5852 37.7418 69.5763C37.811 69.5692 37.8784 69.5611 37.944 69.5523C37.96 69.5507 38.0397 69.5411 38.0984 69.4673C38.1357 69.4205 38.156 69.3586 38.1506 69.2926L38.1492 69.2885C38.1827 69.3178 38.2262 69.3339 38.2722 69.3294C38.3307 69.3493 38.4428 69.3785 38.5792 69.3546C38.6688 69.3389 38.7384 69.3057 38.7838 69.2788C38.7958 69.2776 38.8502 69.2709 38.8912 69.2211C38.9175 69.1891 38.9322 69.147 38.9304 69.1017L38.9434 69.1006L38.9477 69.119C38.9682 69.2066 39.0461 69.2669 39.132 69.2612L39.3821 69.2447C39.48 69.2382 39.5496 69.1499 39.543 69.0519L39.5473 69.0516Z" fill="#FEACA2"/>
</g>
<g id="Group_83">
<path id="Vector_68" d="M36.2081 68.729C36.1747 68.7264 36.1483 68.6975 36.1484 68.6626L36.157 66.3052C36.1571 66.2691 36.1857 66.2404 36.2207 66.2412C36.2574 66.2406 36.2841 66.2716 36.284 66.3077L36.2756 68.665C36.2754 68.7012 36.2467 68.73 36.2117 68.7293C36.2103 68.7293 36.2094 68.7291 36.2081 68.729Z" fill="#E88164"/>
</g>
<g id="Group_84">
<path id="Vector_69" d="M37.1367 69.452C37.1077 69.4497 37.0829 69.4263 37.0788 69.3949L36.991 68.7343C36.9862 68.6985 37.0098 68.666 37.0437 68.6615C37.0781 68.6569 37.1092 68.6826 37.1139 68.7185L37.2019 69.379C37.2067 69.4148 37.1829 69.4473 37.1489 69.4517C37.1448 69.4522 37.1406 69.4523 37.1367 69.452Z" fill="#E88164"/>
</g>
<g id="Group_85">
<path id="Vector_70" d="M37.9965 69.3836C37.9675 69.3813 37.9428 69.3579 37.9387 69.3265L37.8508 68.6659C37.846 68.6301 37.8697 68.5975 37.9035 68.5931C37.9378 68.5887 37.9691 68.6142 37.9737 68.6501L38.0617 69.3105C38.0665 69.3463 38.0428 69.3789 38.0088 69.3833C38.0046 69.3838 38.0005 69.3839 37.9965 69.3836Z" fill="#E88164"/>
</g>
<g id="Group_86">
<path id="Vector_71" d="M38.7426 69.1725C38.7136 69.1703 38.6889 69.147 38.6848 69.1156L38.5969 68.455C38.5921 68.4192 38.6158 68.3866 38.6496 68.3822C38.6839 68.3777 38.7152 68.4031 38.7198 68.439L38.8078 69.0996C38.8126 69.1354 38.7889 69.168 38.7549 69.1724C38.7507 69.1729 38.7466 69.1729 38.7426 69.1725Z" fill="#E88164"/>
</g>
<g id="Group_87">
<path id="Vector_72" d="M34.8509 60.088C34.8775 60.332 35.05 60.5314 35.2784 60.5869C35.6704 60.6823 36.232 60.7534 36.8808 60.6278C37.5067 60.5066 37.9847 60.2467 38.2992 60.0299C38.4548 59.9227 38.5421 59.736 38.5334 59.5394C38.2749 53.776 38.0165 48.0127 37.7581 42.2493C37.6367 41.2069 37.4981 40.3441 37.3874 39.7194C37.0596 37.8707 36.5373 36.9632 36.3902 36.6683C35.9882 35.8623 35.1806 36.4468 34.8237 36.1267L32.463 37.8923L34.8509 60.088Z" fill="#FFB65B"/>
</g>
<g id="Group_88">
<path id="Vector_73" d="M36.7875 37.932C36.8547 36.7126 35.9729 35.6495 34.8179 35.5574C33.6629 35.4653 32.6722 36.379 32.605 37.5984C32.5378 38.8178 33.4196 39.8808 34.5746 39.973C35.7296 40.0651 36.7203 39.1513 36.7875 37.932Z" fill="#FFB65B"/>
</g>
</g>
<g id="Group_89">
<g id="Group_90">
<path id="Vector_74" d="M30.3999 17.0585L27.8334 16.8144L27.9449 15.1445L30.5114 15.3887L30.3999 17.0585Z" fill="#863C4F"/>
</g>
<g id="Group_91">
<path id="Vector_75" d="M26.2936 29.2365C22.9382 28.9165 20.3942 26.0083 20.5835 23.1645L20.9154 18.1794C21.0006 16.9001 22.0548 15.9569 23.2699 16.0728C24.1257 15.6758 25.5206 15.1735 27.2929 15.156C30.2026 15.1273 32.1039 16.3997 32.9757 16.9986C32.8194 19.3464 32.9086 21.7176 32.7523 24.0652C32.5171 27.5983 29.6491 29.5566 26.2936 29.2365Z" fill="#FEACA2"/>
</g>
<g id="Group_92">
<path id="Vector_76" d="M21.4554 22.215C21.3985 23.0707 20.6933 23.7016 19.8805 23.6241C19.0678 23.5466 18.4552 22.7899 18.5121 21.9343C18.5691 21.0786 19.2741 20.4476 20.0868 20.5251C20.8997 20.6027 21.5124 21.3593 21.4554 22.215Z" fill="#FEACA2"/>
</g>
<g id="Group_93">
<path id="Vector_77" d="M20.8347 22.4427C20.8109 22.4404 20.7892 22.4235 20.7811 22.3981C20.7294 22.2372 20.5988 21.9317 20.3047 21.6926C19.9385 21.3949 19.5381 21.3785 19.3826 21.385C19.349 21.3865 19.32 21.3587 19.3179 21.3232C19.3158 21.2876 19.3414 21.2577 19.3752 21.2562C19.544 21.2487 19.9795 21.2668 20.3784 21.5912C20.6986 21.8515 20.8407 22.184 20.897 22.3589C20.908 22.3929 20.8907 22.4292 20.8588 22.4399C20.8507 22.4426 20.8427 22.4435 20.8347 22.4427Z" fill="#8E544E"/>
</g>
<g id="Group_94">
<path id="Vector_78" d="M19.3307 22.0705C19.3112 22.0687 19.2927 22.0572 19.2821 22.038C19.2652 22.0075 19.2752 21.9689 19.3044 21.9519C19.4462 21.8694 19.7402 21.7387 20.1148 21.7906C20.4205 21.8329 20.6452 21.9764 20.7798 22.0893C20.8064 22.1115 20.8108 22.1515 20.7899 22.1786C20.7691 22.2056 20.7307 22.2096 20.7043 22.1874C20.582 22.0848 20.3781 21.9545 20.101 21.9162C19.7619 21.8702 19.4944 21.9879 19.3654 22.0627C19.3546 22.0692 19.3425 22.0716 19.3307 22.0705Z" fill="#8E544E"/>
</g>
<g id="Group_95">
<path id="Vector_79" d="M31.8993 22.8171C31.8424 23.6728 32.4549 24.4294 33.2677 24.5069C34.0804 24.5845 34.7854 23.9535 34.8424 23.0978C34.8994 22.2421 34.2867 21.4855 33.474 21.408C32.6612 21.3304 31.9563 21.9614 31.8993 22.8171Z" fill="#FEACA2"/>
</g>
<g id="Group_96">
<path id="Vector_80" d="M32.4847 23.165C32.4767 23.1642 32.4689 23.1619 32.4613 23.1578C32.4312 23.1411 32.419 23.1021 32.4344 23.0706C32.5131 22.9085 32.6974 22.607 33.0482 22.4106C33.4848 22.1658 33.9174 22.2304 34.083 22.2694C34.1162 22.2772 34.1376 22.3117 34.1308 22.3464C34.124 22.3811 34.0924 22.403 34.0587 22.3952C33.9064 22.3592 33.5083 22.3 33.1074 22.5247C32.7854 22.7051 32.6158 22.9821 32.5435 23.1311C32.5321 23.1547 32.5085 23.1672 32.4847 23.165Z" fill="#8E544E"/>
</g>
<g id="Group_97">
<path id="Vector_81" d="M34.0167 23.0783C34.0049 23.0772 33.9933 23.0726 33.9835 23.0642C33.8664 22.9665 33.6191 22.8014 33.277 22.7836C32.9982 22.7701 32.7792 22.8609 32.6446 22.9395C32.6155 22.9566 32.5781 22.9457 32.5613 22.9151C32.5443 22.8844 32.5541 22.8458 32.5834 22.8287C32.7315 22.7421 32.9729 22.6422 33.2804 22.657C33.6578 22.6752 33.9298 22.8583 34.0587 22.9661C34.0853 22.9882 34.0899 23.0282 34.0691 23.0552C34.0561 23.0722 34.0362 23.0801 34.0167 23.0783Z" fill="#8E544E"/>
</g>
<g id="Group_98">
<path id="Vector_82" d="M26.3564 24.3777C26.3009 24.3725 26.253 24.3283 26.2428 24.268C26.2308 24.1968 26.276 24.13 26.3436 24.119L27.2372 23.9721L26.9383 21.3203C26.9303 21.2487 26.979 21.1849 27.0471 21.1778C27.115 21.1712 27.1772 21.2231 27.1852 21.2948L27.498 24.0692C27.5057 24.138 27.4611 24.2001 27.3961 24.2108L26.3869 24.3767C26.3766 24.3784 26.3664 24.3787 26.3564 24.3777Z" fill="#8E544E"/>
</g>
<g id="Group_99">
<path id="Vector_83" d="M29.4345 13.404C29.4292 13.3961 29.4236 13.3887 29.4177 13.3831C27.8792 13.133 26.6203 13.0812 25.5906 13.1584C23.0481 13.3489 21.0512 15.4587 20.8725 18.1354L20.6985 20.7414C23.8957 16.8654 25.6157 16.8998 27.4212 15.6494C29.4049 17.2603 30.6978 18.159 32.9367 21.4746L33.3605 18.8118C33.5346 16.2043 31.8035 13.891 29.4345 13.404Z" fill="#723F31"/>
</g>
<g id="Group_100">
<path id="Vector_84" d="M26.3235 29.5131C26.1438 29.4961 25.9638 29.4716 25.7837 29.4394C24.8039 29.2641 23.8464 28.8135 23.0145 28.1363C22.9606 28.0924 22.9497 28.0113 22.9904 27.9553C23.0311 27.8993 23.1076 27.8895 23.1618 27.9335C23.9612 28.5842 24.8804 29.017 25.8199 29.1851C27.5652 29.4977 29.3078 29.0669 30.6 28.0037C31.7577 27.0514 32.4529 25.6631 32.5577 24.0944L32.802 24.1176L32.7634 24.6952C32.761 24.7303 32.7457 24.7609 32.7224 24.782C32.4838 26.149 31.7987 27.3482 30.7535 28.2081C29.5417 29.2049 27.9519 29.668 26.3235 29.5131Z" fill="#333232"/>
</g>
</g>
<g id="Group_101">
<g id="Group_102">
<path id="Vector_85" d="M29.8358 21.3712C29.8157 21.6661 29.5723 21.883 29.2921 21.8556C29.0119 21.8283 28.8011 21.5671 28.8212 21.2722C28.8413 20.9773 29.0847 20.7604 29.3649 20.7878C29.6451 20.8151 29.8559 21.0763 29.8358 21.3712Z" fill="#5D8BCC"/>
</g>
</g>
<g id="Group_103">
<g id="Group_104">
<path id="Vector_86" d="M25.0084 20.9493C24.9883 21.2442 24.7449 21.4611 24.4647 21.4338C24.1845 21.4064 23.9737 21.1452 23.9938 20.8503C24.0139 20.5554 24.2573 20.3386 24.5375 20.3659C24.8177 20.3932 25.0285 20.6544 25.0084 20.9493Z" fill="#5D8BCC"/>
</g>
</g>
<g id="Group_105">
<g id="Group_106">
<path id="Vector_87" d="M26.4273 26.9079C25.7239 26.841 25.2451 26.4545 25.2154 26.4299C25.1622 26.3859 25.1527 26.3062 25.1938 26.2517C25.2349 26.1973 25.3116 26.1885 25.3649 26.2324C25.4052 26.2655 26.3652 27.0343 27.5483 26.4372C27.6086 26.4069 27.6821 26.4334 27.7125 26.4966C27.743 26.5596 27.7187 26.6352 27.6586 26.6656C27.2092 26.8923 26.7886 26.9423 26.4273 26.9079Z" fill="#8E544E"/>
</g>
</g>
<g id="Group_107">
<g id="Group_108">
<path id="Vector_88" d="M25.8165 19.2079C25.7759 19.204 25.7354 19.1897 25.6992 19.1636C25.3164 18.8906 24.9345 18.8043 24.6814 18.7801C24.2231 18.7361 23.8536 18.8562 23.6244 18.9648C23.5023 19.0223 23.3567 18.9652 23.2989 18.8371C23.2411 18.7088 23.2932 18.5582 23.4151 18.5003C23.6974 18.3668 24.1523 18.2189 24.7167 18.2729C25.0283 18.3028 25.4985 18.409 25.9696 18.7452C26.082 18.8253 26.1125 18.984 26.0378 19.0996C25.9873 19.1777 25.9015 19.2161 25.8165 19.2079Z" fill="#723F31"/>
</g>
</g>
<g id="Group_109">
<g id="Group_110">
<path id="Vector_89" d="M30.702 19.663C30.6614 19.6591 30.6209 19.6447 30.5846 19.6187C30.2019 19.3457 29.82 19.2594 29.5669 19.2351C29.1086 19.1912 28.7391 19.3113 28.5099 19.4198C28.3878 19.4774 28.2422 19.4203 28.1844 19.2922C28.1266 19.1639 28.1787 19.0132 28.3006 18.9554C28.5829 18.8219 29.0378 18.6739 29.6022 18.728C29.9138 18.7579 30.384 18.864 30.8551 19.2002C30.9675 19.2804 30.998 19.4391 30.9233 19.5547C30.8728 19.6328 30.787 19.6711 30.702 19.663Z" fill="#723F31"/>
</g>
</g>
<g id="Group_111">
<g id="Group_112">
<path id="Vector_90" d="M13.4287 48.5607C14.2961 48.1014 14.6534 46.9984 14.2607 46.1102C13.0327 43.3322 11.6114 40.5256 10.4739 37.9C10.2537 37.392 9.66371 37.1924 9.17121 37.4583C8.75174 37.6848 8.53437 38.1817 8.65413 38.6421C9.13024 40.4726 10.3125 45.0253 11.0101 47.5252C11.3046 48.5801 12.4508 49.0783 13.4287 48.5607Z" fill="#FEACA2"/>
</g>
<g id="Group_113">
<path id="Vector_91" d="M14.9293 47.1188C14.3709 45.7464 13.8127 44.3741 13.2544 43.0018C13.1822 42.8245 13.0263 42.7013 12.8408 42.6804C12.4656 42.638 11.9239 42.6346 11.3037 42.8233C10.6608 43.0189 10.1778 43.3466 9.85919 43.6154C9.67358 43.7721 9.59748 44.0289 9.67269 44.2562L11.1678 48.7721C11.5346 49.8802 12.7247 50.4078 13.7898 49.9347C14.8493 49.4641 15.365 48.1898 14.9293 47.1188Z" fill="#FFB65B"/>
</g>
</g>
<g id="Group_114">
<g id="Group_115">
<path id="Vector_92" d="M29.403 19.7262C29.2727 19.7135 28.7761 19.7857 28.7761 19.7857L28.4131 20.0603L28.6477 20.9437L29.0607 20.6568L29.5213 20.6327L29.7957 20.6938L30.0678 21.0301L30.5008 20.2116L29.9857 19.8345C29.9857 19.8345 29.5333 19.7389 29.403 19.7262Z" fill="#FEACA2"/>
</g>
</g>
<g id="Group_116">
<g id="Group_117">
<path id="Vector_93" d="M24.4965 19.2985C24.3662 19.2858 23.8696 19.358 23.8696 19.358L23.5066 19.6325L23.7412 20.5159L24.1542 20.229L24.6148 20.205L24.8892 20.2661L25.1613 20.6023L25.5943 19.7838L25.0792 19.4067C25.0792 19.4067 24.6268 19.3111 24.4965 19.2985Z" fill="#FEACA2"/>
</g>
</g>
<g id="Group_118">
<g id="Group_119">
<path id="Vector_94" d="M7.54073 34.9187L6.68974 32.3032C6.642 32.1231 6.73674 31.9233 6.91795 31.8526C7.09294 31.7843 7.28091 31.8837 7.34955 32.059L8.06262 33.8813L7.34274 30.7763C7.30539 30.6199 7.37015 30.4429 7.51126 30.367C7.69574 30.2679 7.90528 30.3645 7.95691 30.5592L8.69425 33.3933L8.28859 29.8124C8.26788 29.6327 8.38696 29.4335 8.55771 29.3906C8.7473 29.3431 8.92552 29.4672 8.95707 29.6601L9.55314 33.311C9.55379 33.2933 9.60508 31.8172 9.60573 31.7995C9.60658 31.7745 9.66751 30.0218 9.66831 29.9967C9.67927 29.7981 9.8395 29.638 10.0206 29.6352C10.196 29.6324 10.3388 29.7691 10.351 29.9518L10.4189 33.2713L10.6267 34.4227L10.7327 34.4103C11.0601 34.2229 10.974 33.7528 11.1763 33.4229C11.3112 33.203 11.6071 33.1053 11.8138 33.2321C12.0248 33.3615 12.0899 33.6502 11.9588 33.8798L11.5692 35.3069L10.6098 37.2894C10.5871 37.4778 10.5775 37.3703 10.5334 37.8833C10.5181 38.4667 10.0893 38.9664 9.53474 39.0475C8.97027 39.1301 8.50723 38.7623 8.35579 38.2399" fill="#FEACA2"/>
</g>
<g id="Group_120">
<path id="Vector_95" d="M9.29965 35.723C9.29411 35.706 9.29551 35.6864 9.30536 35.6692C9.70081 34.9769 10.7162 34.4499 10.7591 34.4278C10.7899 34.412 10.8261 34.4247 10.8397 34.4562C10.8535 34.4883 10.8396 34.5259 10.809 34.5418C10.7987 34.547 9.78507 35.0734 9.40934 35.7309C9.39179 35.7616 9.35421 35.7728 9.32542 35.7559C9.31278 35.7483 9.30404 35.7365 9.29965 35.723Z" fill="#E88164"/>
</g>
</g>
<g id="Group_121">
<g id="Group_122">
<path id="Vector_96" d="M101.093 53.4863C101.093 53.4863 101.732 58.9385 102.068 67.3531C102.434 76.5104 101.093 106.861 101.093 106.861C100.311 107.166 100.239 107.412 98.6544 107.384C97.2424 107.358 96.8373 107.281 96.0942 106.991C95.6889 100.463 94.9766 90.7602 94.6312 84.2287C94.0848 73.8922 93.0548 67.6072 93.0632 63.2827C93.0632 63.2827 92.5588 63.6902 92.2932 63.9333C92.2562 68.5168 90.1225 97.4128 89.3891 107.645C89.3891 107.645 87.6823 107.907 86.9508 107.907L84.0249 107.645C84.0249 107.645 83.1757 69.2312 83.2649 66.8379C83.3664 64.1157 83.4154 57.28 84.3907 53.3555C88.2304 54.0061 101.093 53.4863 101.093 53.4863Z" fill="black"/>
</g>
<g id="Group_123">
<path id="Vector_97" d="M101.332 60.9122C101.368 60.9122 101.397 60.881 101.397 60.8425C101.397 60.804 101.368 60.7727 101.332 60.7727C100.288 60.7727 99.4824 60.4351 98.9367 59.7691C97.9201 58.5284 98.1449 56.5478 98.1472 56.528C98.1518 56.4897 98.1267 56.4547 98.0911 56.4498C98.0548 56.4447 98.023 56.4717 98.0183 56.5101C98.0083 56.5938 97.7841 58.5736 98.8391 59.8611C99.4106 60.5586 100.249 60.9122 101.332 60.9122Z" fill="white"/>
</g>
<g id="Group_124">
<path id="Vector_98" d="M90.6085 33.0793H95.485L95.363 24.3407V24.3145H90.7304L90.7036 26.2741L90.6085 33.0793Z" fill="#FEACA2"/>
</g>
<g id="Group_125">
<path id="Vector_99" d="M95.3633 28.2402L99.6301 32.034L98.4109 36.4818L87.4389 36.6126L85.854 31.6415L90.6086 28.2402H95.3633Z" fill="#FEACA2"/>
</g>
<g id="Group_126">
<path id="Vector_100" d="M83.9589 30.4479C84.4059 30.2298 84.8748 30.0161 85.3659 29.81C87.2441 29.0221 89.1095 28.54 90.6081 28.2402C90.6569 29.6508 91.7646 30.7607 93.0464 30.7257C94.2838 30.692 95.3164 29.6012 95.3627 28.2402C96.7175 28.4967 98.1683 28.9009 99.8734 29.5482C100.387 29.7433 100.861 29.9469 101.307 30.1554C102.566 30.7447 103.147 32.3906 102.998 33.8564L101.268 52.2877L101.209 52.8709H101.249L101.504 55.1576C101.546 55.5309 101.288 55.8666 100.939 55.893C98.3747 56.0864 95.658 56.2103 92.8027 56.2354C89.8315 56.2615 87.0078 56.0672 84.3479 55.8888C83.9811 55.8642 83.7166 55.502 83.782 55.114L84.1601 52.8709H84.1936C83.5943 45.8308 85.0854 40.1082 84.5003 33.1591C84.4098 32.0856 83.0445 30.8942 83.9589 30.4479Z" fill="#0D2041"/>
</g>
<g id="Group_127">
<path id="Vector_101" d="M95.4848 28.1073L92.8218 30.6492L93.7471 32.304L98.1265 28.804L95.7286 27.8457L95.4848 28.1073Z" fill="#264674"/>
</g>
<g id="Group_128">
<path id="Vector_102" d="M92.72 30.6277C93.7228 29.6568 94.7259 28.6858 95.7287 27.7148C96.5728 28.0765 97.4168 28.438 98.2609 28.7996L93.7249 32.4247L92.72 30.6277ZM95.7287 27.8455C95.713 28.0962 95.6665 28.3137 95.6068 28.4996C95.0976 30.086 93.2373 30.5906 92.9239 30.6705L93.7695 32.1829L97.9922 28.808C97.2377 28.4872 96.4832 28.1663 95.7287 27.8455Z" fill="#264674"/>
</g>
<g id="Group_129">
<path id="Vector_103" d="M92.6677 30.651L91.7424 32.306L87.6892 28.7844L90.4297 27.9688L92.6677 30.651Z" fill="#264674"/>
</g>
<g id="Group_130">
<path id="Vector_104" d="M87.5607 28.7785L90.4302 27.8672L92.7705 30.6272L91.763 32.4293L87.5607 28.7785ZM90.4291 28.069L87.8179 28.7889L91.722 32.1809L92.5648 30.6736L90.4291 28.069Z" fill="#264674"/>
</g>
<g id="Group_131">
<path id="Vector_105" d="M92.1321 34.6531H93.2294C93.2468 34.6531 93.2634 34.6457 93.2756 34.6326C93.2879 34.6192 93.2946 34.6012 93.2944 34.5827L93.2591 31.4634C93.2587 31.4252 93.2296 31.3945 93.1941 31.3945H93.1934C93.1575 31.3951 93.1288 31.4266 93.1292 31.4651L93.1637 34.5136H92.1321C92.0963 34.5136 92.0671 34.5449 92.0671 34.5834C92.0671 34.6219 92.0963 34.6531 92.1321 34.6531Z" fill="white"/>
</g>
<g id="Group_132">
<path id="Vector_106" d="M92.194 32.453C92.2081 32.6692 92.3829 32.8322 92.5843 32.8172C92.7858 32.8021 92.9377 32.6146 92.9237 32.3983C92.9097 32.1821 92.735 32.0191 92.5334 32.0342C92.3319 32.0492 92.18 32.2368 92.194 32.453Z" fill="white"/>
</g>
<g id="Group_133">
<path id="Vector_107" d="M92.1941 33.8925C92.2081 34.1086 92.3829 34.2717 92.5844 34.2566C92.7858 34.2415 92.9378 34.0541 92.9237 33.8378C92.9097 33.6216 92.735 33.4586 92.5334 33.4736C92.332 33.4887 92.18 33.6763 92.1941 33.8925Z" fill="white"/>
</g>
<g id="Group_134">
<path id="Vector_108" d="M90.7035 26.274C92.4518 26.2348 94.1572 25.5101 95.3628 24.3407V24.3145H90.7301L90.7035 26.274Z" fill="#333232"/>
</g>
</g>
<g id="Group_135">
<g id="Group_136">
<path id="Vector_109" d="M88.1801 14.2933L87.8787 18.823C87.8582 19.1296 87.8614 19.4346 87.8862 19.7325C88.1168 22.494 90.2189 24.7908 92.9217 25.0482C95.6246 25.3057 98.0038 23.4358 98.5955 20.7527C98.6593 20.4632 98.7028 20.1627 98.7232 19.856L99.0246 15.3264C99.027 15.2901 99.0293 15.2552 99.0292 15.2201C99.0406 14.9932 99.0333 14.7713 99.0119 14.5517C98.802 12.4849 97.2157 10.7804 95.1852 10.587L92.5992 10.3407C90.4616 10.1371 88.589 11.6787 88.2306 13.8489C88.2281 13.8683 88.2243 13.8861 88.2218 13.9054C88.2151 13.9503 88.2085 13.9954 88.2041 14.0406C88.1937 14.1242 88.1857 14.208 88.1801 14.2933Z" fill="#FEACA2"/>
</g>
<g id="Group_137">
<path id="Vector_110" d="M93.5191 20.6044C93.8274 20.6335 94.1751 20.5844 94.2791 20.2516C94.445 19.7211 93.8098 17.3823 93.7369 17.1175C93.7176 17.0478 93.6487 17.0069 93.5829 17.0254C93.5169 17.0441 93.4791 17.1157 93.4982 17.1852C93.7655 18.156 94.1499 19.8238 94.0429 20.1659C93.9449 20.4789 93.2887 20.3199 93.0663 20.2398C93.0011 20.2165 92.931 20.2522 92.9097 20.3203C92.8885 20.3883 92.9241 20.4626 92.9894 20.4861C93.0102 20.4937 93.2496 20.5789 93.5191 20.6044Z" fill="#8E544E"/>
</g>
<g id="Group_138">
<path id="Vector_111" d="M98.3128 18.1899C98.2606 18.9743 98.8222 19.6679 99.5673 19.7389C100.312 19.8099 100.958 19.2314 101.011 18.447C101.063 17.6626 100.501 16.9691 99.7562 16.8981C99.0111 16.8271 98.3649 17.4055 98.3128 18.1899Z" fill="#FEACA2"/>
</g>
<g id="Group_139">
<path id="Vector_112" d="M98.8434 18.6266C98.8719 18.6293 98.8986 18.6106 98.9065 18.5806C98.9994 18.2257 99.1662 17.9891 99.4024 17.877C99.8047 17.6859 100.279 17.9165 100.284 17.9189C100.315 17.9341 100.351 17.9206 100.365 17.8882C100.379 17.856 100.365 17.8177 100.334 17.8023C100.313 17.7917 99.8029 17.5444 99.3502 17.7591C99.0801 17.8873 98.891 18.1514 98.7883 18.544C98.7793 18.5782 98.7985 18.6141 98.8312 18.6242C98.8352 18.6254 98.8393 18.6262 98.8434 18.6266Z" fill="#8E544E"/>
</g>
<g id="Group_140">
<path id="Vector_113" d="M100.071 18.6174C100.088 18.619 100.106 18.6129 100.119 18.5991C100.142 18.5743 100.142 18.5342 100.117 18.5092C100.113 18.5042 99.6123 18.0016 98.8955 18.2954C98.8643 18.3081 98.8495 18.3451 98.8623 18.3778C98.8751 18.4105 98.9113 18.4267 98.9422 18.4139C99.5832 18.1512 100.015 18.5806 100.033 18.599C100.043 18.6099 100.057 18.6161 100.071 18.6174Z" fill="#8E544E"/>
</g>
<g id="Group_141">
<path id="Vector_114" d="M88.3724 17.367C88.3202 18.1514 87.6739 18.7298 86.9287 18.6588C86.1838 18.5878 85.6222 17.8942 85.6743 17.1098C85.7265 16.3254 86.3727 15.747 87.1177 15.818C87.8628 15.889 88.4245 16.5826 88.3724 17.367Z" fill="#FEACA2"/>
</g>
<g id="Group_142">
<path id="Vector_115" d="M87.7925 17.6958C87.7966 17.6962 87.8006 17.6962 87.8047 17.6957C87.8383 17.6919 87.8621 17.6601 87.8577 17.6246C87.8083 17.2176 87.6566 16.921 87.4069 16.7434C86.9885 16.4459 86.4523 16.5938 86.4296 16.6002C86.3971 16.6093 86.3785 16.6448 86.388 16.6792C86.3972 16.7136 86.431 16.734 86.4638 16.7247C86.4688 16.7236 86.9695 16.5861 87.3405 16.8504C87.5584 17.0057 87.6915 17.2709 87.7361 17.6385C87.74 17.6696 87.764 17.6931 87.7925 17.6958Z" fill="#8E544E"/>
</g>
<g id="Group_143">
<path id="Vector_116" d="M86.5789 17.4539C86.5925 17.4551 86.6068 17.4517 86.6187 17.4429C86.6389 17.4281 87.123 17.0843 87.7205 17.4627C87.7494 17.481 87.7871 17.4718 87.8043 17.4418C87.8214 17.4119 87.8117 17.3727 87.7827 17.3544C87.1145 16.9313 86.5526 17.3345 86.5473 17.3385C86.5199 17.3587 86.5138 17.3982 86.5336 17.4269C86.5446 17.443 86.5614 17.4522 86.5789 17.4539Z" fill="#8E544E"/>
</g>
<g id="Group_144">
<path id="Vector_117" d="M88.2907 13.9792L88.8074 13.9048L88.8546 13.8976C90.2816 12.7492 91.0562 12.1809 91.6272 11.8306C91.6474 11.8389 91.6701 11.8475 91.6916 11.856C94.323 12.8736 96.5693 12.3157 96.5693 12.3157C96.5693 12.3157 97.9555 13.6008 98.4793 14.933C98.7341 15.0674 98.7671 15.0346 99.0301 15.1376C99.0414 14.9142 99.034 14.6954 99.013 14.4792C98.8051 12.443 97.2321 10.7644 95.2176 10.5746L92.652 10.3328C90.5313 10.1329 88.6731 11.6524 88.3169 13.7906C88.3144 13.8096 88.3108 13.827 88.3083 13.8461C88.3015 13.8903 88.2949 13.9347 88.2907 13.9792Z" fill="#333232"/>
</g>
<g id="Group_145">
<path id="Vector_118" d="M98.429 14.8027L98.0192 20.6657L98.5374 20.7128C98.6038 20.4213 98.6492 20.1186 98.6708 19.8098L99.017 14.8562L98.429 14.8027Z" fill="#333232"/>
</g>
<g id="Group_146">
<path id="Vector_119" d="M97.3642 23.1564C96.787 22.6548 96.2686 22.202 95.7254 21.7284C95.3001 21.3577 94.7686 21.1539 94.2212 21.1442C93.8996 21.1385 93.5599 21.1214 93.2042 21.0893C92.8179 21.0545 92.4521 21.0053 92.1088 20.9472C91.5432 20.8512 90.9681 20.9684 90.4882 21.2836C89.9083 21.6646 89.3285 22.0454 88.7486 22.4264C88.8836 22.6582 90.2495 24.9143 92.9299 25.1823" fill="#333232"/>
</g>
<g id="Group_147">
<path id="Vector_120" d="M88.2547 19.8471L87.8886 19.8125C87.9506 20.7191 88.231 22.0324 89.0763 22.7842C90.0086 23.8992 91.3963 25.1628 92.9237 25.3072C95.4129 25.5427 98.0898 23.3509 98.5053 20.8168L98.0172 20.7706C97.7544 21.3016 96.6974 22.2183 96.2878 22.6067C95.4025 23.4443 94.2258 23.9044 92.9693 23.7855C91.1308 23.6116 88.855 21.6603 88.2547 19.8471Z" fill="#333232"/>
</g>
<g id="Group_148">
<path id="Vector_121" d="M88.2401 14.3257L87.9209 18.8872C87.8992 19.196 87.9021 19.503 87.9273 19.8029L88.4263 20.1105L88.8065 13.9825L88.2841 13.9351C88.2772 13.9803 88.2702 14.0255 88.2656 14.0711C88.2547 14.1552 88.2461 14.2397 88.2401 14.3257Z" fill="#333232"/>
</g>
<g id="Group_149">
<path id="Vector_122" d="M92.692 25.3483C93.5145 25.4454 94.3594 25.3488 95.1606 25.053C95.2235 25.0297 95.2554 24.9577 95.2318 24.8921C95.208 24.8267 95.1378 24.7925 95.0746 24.8156C93.6636 25.3367 92.1106 25.2118 90.8139 24.4722C90.7545 24.4383 90.6804 24.46 90.6486 24.5208C90.6168 24.5815 90.6393 24.6582 90.6987 24.6922C91.3203 25.0467 91.9983 25.2664 92.692 25.3483Z" fill="black"/>
</g>
</g>
<g id="Group_150">
<g id="Group_151">
<path id="Vector_123" d="M110.128 46.2395C111.032 45.5765 111.285 44.286 110.693 43.3571L104.848 34.1798L101.047 36.7781L107.42 45.758C108.011 46.6869 109.224 46.9025 110.128 46.2395Z" fill="#FEACA2"/>
</g>
<g id="Group_152">
<path id="Vector_124" d="M97.5512 31.4655C97.578 31.1596 97.6852 30.8724 97.9212 30.6327C98.1902 30.3596 98.5448 30.2026 98.9005 30.0982C100.255 29.7004 101.629 30.0415 102.77 30.7896C103.385 31.1928 103.943 31.6123 104.399 32.2173C105.042 33.071 105.528 34.0639 106.084 34.9828C106.095 35.0013 106.102 35.0118 106.102 35.0118L106.466 35.5995L107.36 37.8979C107.346 37.8919 107.33 37.8844 107.314 37.8778C107.271 37.8577 107.224 37.8382 107.175 37.8184C107.099 37.7867 107.016 37.7561 106.927 37.7265C106.555 37.6012 106.828 37.8556 106.265 37.8574C106.147 37.8575 106.024 37.8631 105.899 37.8744C104.441 38.0048 103.27 38.9491 102.635 39.587C102.599 39.6229 102.565 39.6563 102.534 39.6884C102.502 39.7223 102.472 39.7551 102.443 39.7859L101.974 38.9979C101.226 38.0217 100.477 37.0456 99.7288 36.0695C99.4654 35.7262 99.2022 35.3828 98.9389 35.0394C98.5708 34.5594 98.203 34.1255 97.9672 33.547C97.77 33.0632 97.6475 32.5022 97.5709 31.9774C97.5457 31.8045 97.5365 31.6322 97.5512 31.4655Z" fill="#0D2041"/>
</g>
<g id="Group_153">
<path id="Vector_125" d="M103.671 40.6069C104.815 39.2423 106.517 38.4766 107.507 38.4009C107.571 37.4691 106.966 35.6335 106.456 35.6962C106.046 35.7465 103.199 37.38 102.046 39.0519C102.587 39.8235 102.778 40.0771 103.671 40.6069Z" fill="#264674"/>
</g>
</g>
<g id="Group_154">
<g id="Group_155">
<path id="Vector_126" d="M107.518 34.0149C108.251 33.8662 108.973 34.383 109.132 35.1702L110.951 44.1995C111.155 45.3061 110.471 46.3538 109.436 46.5207C108.4 46.6875 107.419 45.908 107.262 44.794L106.447 35.5462C106.382 34.8102 106.842 34.1518 107.518 34.0149Z" fill="#FEACA2"/>
</g>
<g id="Group_156">
<path id="Vector_127" d="M107.13 44.141C107.133 44.1716 107.158 44.1947 107.187 44.1927C107.203 44.1914 107.216 44.1826 107.225 44.1697C107.231 44.1595 107.235 44.147 107.234 44.1335L106.945 40.8577C106.942 40.8271 106.917 40.8041 106.889 40.8062C106.86 40.8083 106.839 40.8352 106.842 40.8656" fill="#BE614B"/>
</g>
<g id="Group_157">
<path id="Vector_128" d="M108.639 31.0249L108.46 27.7683C108.436 27.5492 108.257 27.3771 108.04 27.3869C107.831 27.3965 107.677 27.5949 107.677 27.8189L107.759 30.1383L107.299 26.3847C107.192 26.2037 106.983 26.0513 106.806 26.0364C106.574 26.0169 106.373 26.2803 106.399 26.5171L106.823 29.9171L105.791 25.8226C105.74 25.617 105.556 25.4328 105.298 25.4917C105.084 25.5407 104.845 25.747 104.812 26.0153L105.82 30.2826C105.892 30.2208 105.239 28.6375 105.231 28.6185C105.22 28.5918 104.46 26.6208 104.449 26.5939C104.357 26.3829 104.112 26.3766 103.923 26.4604C103.74 26.5415 103.647 26.7589 103.709 26.9637L104.765 29.8806L105.015 32.0082L105.122 32.0027C104.707 31.9557 104.159 31.1878 103.815 30.9255C103.586 30.7507 103.239 30.7861 103.076 31.0233C102.91 31.2655 102.96 31.6111 103.189 31.7983L104.619 33.3805L106.418 35.0795C106.518 35.2739 106.485 35.1521 106.738 35.6897C106.991 36.3178 107.639 36.6562 108.247 36.4785C108.865 36.2976 109.196 35.6748 109.141 35.0332" fill="#FEACA2"/>
</g>
<g id="Group_158">
<path id="Vector_129" d="M107.121 32.7759C107.137 32.752 107.132 32.7185 107.11 32.7002C106.411 32.1292 105.128 32.0397 105.074 32.0362C105.045 32.0344 105.021 32.0576 105.02 32.0876C105.019 32.1181 105.042 32.1441 105.07 32.1461C105.083 32.1468 106.375 32.2372 107.048 32.7872C107.071 32.8058 107.103 32.8015 107.12 32.7776C107.121 32.7769 107.121 32.7765 107.121 32.7759Z" fill="#BE614B"/>
</g>
</g>
<g id="Group_159">
<g id="Group_160">
<path id="Vector_130" d="M80.0325 46.2709C80.0325 46.2671 80.0337 46.2636 80.0337 46.2598L80.1861 45.2593L81.7476 35.0039L86.3472 35.6402L83.9798 47.4962C83.9497 47.6911 83.8975 47.8756 83.8249 48.0472C83.4541 48.926 82.5686 49.4656 81.6376 49.3032C80.7017 49.1396 80.0181 48.3151 79.9355 47.3459L80.0325 46.2709Z" fill="#FEACA2"/>
</g>
<g id="Group_161">
<path id="Vector_131" d="M86.0255 40.4864C85.9467 40.454 85.8603 40.4202 85.7633 40.3861C84.96 40.0961 83.5656 39.7746 82.2218 40.3343C82.1066 40.3822 81.9951 40.4343 81.8902 40.4894C81.3902 40.7497 81.0022 41.0737 80.7189 41.3622C80.6515 41.4306 80.849 40.9398 80.7933 41.0042C80.7575 41.0454 80.7229 41.085 80.6924 41.1233C80.6804 41.137 80.6698 41.1509 80.6591 41.1632L80.9659 37.8003C80.9659 37.8003 80.9673 37.7877 80.9704 37.7654C81.0009 37.5094 81.2005 35.8717 81.4238 34.3586C81.4326 34.3029 81.4413 34.2473 81.4488 34.1916C81.4518 34.1737 81.4547 34.1541 81.4577 34.1346C81.4605 34.1208 81.4634 34.1056 81.4663 34.0903C81.5951 33.4642 81.882 32.8597 82.1655 32.3004C82.3156 32.0043 82.4763 31.7128 82.6576 31.4374C83.0159 30.8929 83.5863 30.5484 84.163 30.3352C84.7957 30.1013 85.4693 29.9675 86.1166 30.2127C86.7195 30.4412 87.2232 30.9127 87.5629 31.4887C87.7341 31.779 87.8651 32.0964 87.9512 32.4272C88.0498 32.8057 88.08 33.2048 88.0406 33.5956C87.9999 33.9995 87.8599 34.343 87.7267 34.7168C87.5914 35.0965 87.4877 35.4882 87.3694 35.8744C87.1057 36.7354 86.8512 37.6 86.6063 38.4675C86.4106 39.1612 86.2207 39.8569 86.0387 40.555" fill="#0D2041"/>
</g>
<g id="Group_162">
<path id="Vector_132" d="M85.0618 42.0838C83.5148 41.3545 81.1936 40.9722 80.7726 41.6654C80.3598 40.8297 80.4074 38.6771 80.8896 38.4948C81.2768 38.3485 84.6895 38.423 86.3615 39.4338C86.2316 40.5496 85.6624 41.1705 85.0618 42.0838Z" fill="#264674"/>
</g>
<g id="Group_163">
<path id="Vector_133" d="M80.6229 46.2149C80.5656 46.255 80.5092 46.2968 80.4536 46.3402C80.1847 46.5505 79.9445 46.8405 79.9465 47.2211C79.9499 47.8188 80.2311 48.4197 80.4074 48.9771C80.7441 50.0407 81.1266 51.1431 81.56 52.2781C82.5542 54.8805 83.6404 57.1798 84.7127 59.1752C84.7289 59.2074 84.7464 59.2394 84.7633 59.27L86.9931 60.136L86.8478 59.5119L84.147 47.9545C84.147 47.9545 83.9451 47.0908 83.9449 47.0905C83.8919 46.866 83.8086 46.6506 83.7054 46.4474C83.5742 46.1894 83.45 45.9543 83.1955 45.8184C83.0518 45.7416 82.894 45.6999 82.7354 45.6732C81.9805 45.5466 81.2497 45.7771 80.6229 46.2149Z" fill="#FEACA2"/>
</g>
<g id="Group_164">
<path id="Vector_134" d="M84.668 58.6217C84.6878 58.7521 84.7062 58.8726 84.723 58.98C84.2347 59.9956 85.4793 64.4603 85.7317 65.3386C85.7607 65.4393 85.8102 65.5269 85.88 65.6009C86.321 66.0691 88.029 67.8362 88.5389 67.6761C89.126 67.4919 88.6463 66.8218 88.6463 66.8218L87.0747 65.1522C86.8912 64.9571 86.7745 64.7009 86.744 64.4255L86.5329 62.523C86.8589 63.0644 87.6108 64.4736 87.8743 64.6288C88.1322 64.7806 88.4209 64.4937 88.2936 64.2092C88.0958 63.7669 87.664 62.391 87.4931 61.3476C87.2882 60.0965 87.0302 59.458 86.6851 58.8698C86.4383 58.2376 86.3877 57.5171 85.4216 57.7038L84.4705 57.7062C84.5365 58.0118 84.6025 58.3174 84.668 58.6217Z" fill="#FEACA2"/>
</g>
</g>
<g id="Group_165">
<g id="Group_166">
<path id="Vector_135" d="M87.2296 56.6562L91.5189 63.425V73.3274L86.19 73.7458L83.8506 60.7002L84.5625 60.7726L85.4196 60.5574L86.0332 60.1724L86.3517 59.8443L87.0669 58.315L87.2296 56.6562Z" fill="black"/>
</g>
<g id="Group_167">
<path id="Vector_136" d="M84.2329 60.7869C85.0567 60.7869 85.7265 60.5182 86.2277 59.9855C87.3448 58.7979 87.2349 56.742 87.2297 56.6551C87.2272 56.6166 87.1924 56.5866 87.1605 56.5901C87.1248 56.5926 87.0976 56.6258 87.1 56.6642C87.1011 56.685 87.2108 58.7444 86.1357 59.8868C85.5986 60.4572 84.8535 60.7094 83.9203 60.6348C83.8846 60.632 83.8534 60.6608 83.8508 60.6992C83.8482 60.7377 83.8749 60.771 83.9107 60.7738C84.0205 60.7826 84.128 60.7869 84.2329 60.7869Z" fill="white"/>
</g>
</g>
<g id="Group_168">
<g id="Group_169">
<path id="Vector_137" d="M95.2869 17.3176C95.2692 17.5846 95.4604 17.8208 95.7141 17.845C95.9678 17.8691 96.1878 17.6722 96.2055 17.4051C96.2233 17.1381 96.0322 16.9019 95.7784 16.8778C95.5248 16.8536 95.3047 17.0505 95.2869 17.3176Z" fill="#333232"/>
</g>
</g>
<g id="Group_170">
<g id="Group_171">
<path id="Vector_138" d="M90.6739 16.9211C90.6561 17.1882 90.8474 17.4243 91.101 17.4485C91.3548 17.4727 91.5747 17.2757 91.5925 17.0086C91.6103 16.7416 91.4191 16.5055 91.1654 16.4813C90.9117 16.4571 90.6917 16.654 90.6739 16.9211Z" fill="#333232"/>
</g>
</g>
<g id="Group_172">
<g id="Group_173">
<path id="Vector_139" d="M93.0357 22.7266C93.4205 22.762 93.8143 22.7089 94.1745 22.5731C94.2059 22.5612 94.2217 22.5252 94.2096 22.4924C94.1975 22.4597 94.162 22.4431 94.1307 22.4548C93.4435 22.714 92.6348 22.6395 91.9918 22.2579C91.9626 22.2407 91.9252 22.2506 91.9088 22.2807C91.8923 22.3108 91.903 22.3493 91.9323 22.3668C92.2694 22.5668 92.6509 22.6912 93.0357 22.7266Z" fill="#ACABAB"/>
</g>
</g>
<g id="Group_174">
<g id="Group_175">
<path id="Vector_140" d="M95.9472 15.0793C95.8494 15.07 94.7605 15.6565 94.7605 15.6565L94.9831 16.7474C94.9831 16.7474 95.9605 16.3573 96.5502 16.862C97.14 17.3667 97.2205 16.6497 97.2205 16.6497C97.2205 16.6497 96.045 15.0886 95.9472 15.0793Z" fill="#FEACA2"/>
</g>
</g>
<g id="Group_176">
<g id="Group_177">
<path id="Vector_141" d="M91.4897 14.6926C91.3919 14.6833 90.3029 15.2698 90.3029 15.2698L90.5255 16.3607C90.5255 16.3607 91.503 15.9706 92.0927 16.4753C92.6825 16.98 92.763 16.263 92.763 16.263C92.763 16.263 91.5875 14.7019 91.4897 14.6926Z" fill="#FEACA2"/>
</g>
</g>
<g id="Group_178">
<g id="Group_179">
<path id="Vector_142" d="M94.8124 15.294C94.8509 15.3074 94.8927 15.3114 94.9345 15.3035C95.9961 15.1015 96.6608 15.875 96.6886 15.9078C96.7786 16.0152 96.9328 16.0308 97.0326 15.9421C97.1323 15.8535 97.1412 15.6948 97.0518 15.5868C97.0164 15.5443 96.175 14.5485 94.8265 14.8049C94.6953 14.8299 94.6129 14.9616 94.6428 15.0993C94.6631 15.193 94.7302 15.2653 94.8124 15.294Z" fill="#333232"/>
</g>
</g>
<g id="Group_180">
<g id="Group_181">
<path id="Vector_143" d="M90.316 15.4324C90.3558 15.4257 90.3949 15.4089 90.4295 15.3814C91.306 14.6808 92.2048 15.0535 92.2427 15.0695C92.3653 15.1224 92.5103 15.0611 92.5656 14.9323C92.6207 14.8037 92.5669 14.6564 92.4445 14.6027C92.3963 14.5816 91.2516 14.0947 90.1382 14.9846C90.0299 15.0712 90.0071 15.2302 90.0876 15.3398C90.1423 15.4144 90.2309 15.4468 90.316 15.4324Z" fill="#333232"/>
</g>
</g>
<g id="Group_182">
<g id="Group_183">
<path id="Vector_144" d="M64.3475 22.5812L62.2164 26.719H55.3162L53.2864 22.5812L56.0672 21.1003L56.1429 16.5989L56.5159 16.6159L56.5341 15.5039H60.6938L60.7243 16.0481L61.1314 16.6877L61.1887 17.7591L61.218 18.3099L61.2607 18.8346L61.4654 21.3619L64.3475 22.5812Z" fill="#FEACA2"/>
</g>
<g id="Group_184">
<path id="Vector_145" d="M61.1658 18.9729L61.0706 16.6875L61.1925 16.6816L61.2876 18.967L61.1658 18.9729Z" fill="#333232"/>
</g>
<g id="Group_185">
<path id="Vector_146" d="M38.5695 42.9077C37.4882 42.0825 37.235 40.4729 38.0042 39.3126L46.0595 27.1602L50.8641 30.7461L41.92 42.3012C41.1509 43.4614 39.6507 43.733 38.5695 42.9077Z" fill="#FEACA2"/>
</g>
<g id="Group_186">
<path id="Vector_147" d="M45.5384 38.3732L40.8548 34.7986L46.7951 25.57C47.7151 24.1822 49.5092 23.8574 50.8026 24.8444C52.096 25.8316 52.7592 28.1801 51.8393 29.568L45.5384 38.3732Z" fill="#ECC8CF"/>
</g>
<g id="Group_187">
<path id="Vector_148" d="M45.5045 38.9108C45.4205 39.0375 45.2612 39.0751 45.1347 38.999C44.3528 38.5281 43.5113 37.9684 42.6382 37.3043C41.735 36.6173 40.9408 35.9274 40.2504 35.2711C40.142 35.1679 40.1227 34.994 40.2068 34.8672L40.8055 33.9638C40.9028 33.8172 41.0964 33.7925 41.2221 33.9115C41.9024 34.5555 42.6821 35.231 43.5666 35.9036C44.421 36.5534 45.2451 37.1032 46.0127 37.5679C46.1587 37.6562 46.2005 37.8607 46.1034 38.0073L45.5045 38.9108Z" fill="#ECC8CF"/>
</g>
<g id="Group_188">
<path id="Vector_149" d="M46.0486 37.6785C46.0391 37.6785 46.0293 37.6762 46.0202 37.671C45.079 37.141 43.8348 36.2117 43.3437 35.8368C42.3837 35.1041 41.7711 34.52 41.2524 33.9979C41.2278 33.9732 41.2265 33.9318 41.2495 33.9055C41.2727 33.8791 41.3111 33.8777 41.3357 33.9025C41.8514 34.4214 42.4602 35.002 43.4144 35.7303C43.9035 36.1036 45.1423 37.0289 46.0769 37.5553C46.1068 37.572 46.1182 37.6116 46.1026 37.6435C46.0917 37.6659 46.0705 37.6785 46.0486 37.6785Z" fill="black"/>
</g>
<g id="Group_189">
<path id="Vector_150" d="M61.2609 18.9667C59.6626 18.8123 57.9107 17.8077 56.8744 16.9926C56.7074 16.8618 56.5585 16.7349 56.4318 16.6172H56.8817L61.1046 16.6198L61.1316 16.82L61.1889 17.8914L61.2182 18.4422L61.2609 18.9667Z" fill="#333232"/>
</g>
<g id="Group_190">
<path id="Vector_151" d="M50.6202 46.4433C50.6202 46.4433 49.981 51.8955 49.6449 60.3101C49.2792 69.4675 49.5481 105.312 49.5481 105.312C50.3301 105.617 51.5958 105.995 53.1803 105.966C54.5924 105.94 55.7289 105.602 56.4721 105.312C56.8773 98.7833 57.2218 92.2515 57.5671 85.7199C58.1136 75.3832 58.6581 63.9655 58.6496 59.6411C58.6496 59.6411 59.1541 60.0485 59.4196 60.2916C59.4567 64.8753 61.1992 95.0793 61.9327 105.312L64.4018 105.604C64.9651 105.671 65.5337 105.666 66.0961 105.591L68.1853 105.312C68.1853 105.312 68.5372 62.1882 68.448 59.7949C68.3465 57.0728 68.2975 50.2371 67.3222 46.3125C63.4825 46.9631 50.6202 46.4433 50.6202 46.4433Z" fill="#0D2041"/>
</g>
<g id="Group_191">
<path id="Vector_152" d="M48.1823 24.4658L50.4984 47.2283C52.9368 48.1441 55.7578 48.6961 58.9105 48.6674C62.0158 48.6389 65.1279 47.7516 67.4443 46.9667C68.0844 39.5319 68.5152 33.4452 69.1246 26.2082C69.215 25.1353 68.6691 24.1113 67.7551 23.6653C67.3078 23.4469 66.8384 23.2329 66.3471 23.0268C64.4688 22.2389 62.7254 21.7568 61.2268 21.457C60.414 21.9803 59.6013 22.5035 58.7886 23.0268L56.3503 21.457C54.9954 21.7135 53.4227 22.1178 51.7176 22.7651C50.3262 23.2934 49.2268 23.8856 48.1823 24.4658Z" fill="#ECC8CF"/>
</g>
<g id="Group_192">
<path id="Vector_153" d="M58.2833 23.0273H59.38L60.367 25.625L58.8316 26.5409L57.3776 25.625L58.2833 23.0273Z" fill="#EB7859"/>
</g>
<g id="Group_193">
<path id="Vector_154" d="M58.8494 22.9623L58.2399 24.5322L54.3627 22.0031L56.0454 21L58.8494 22.9623Z" fill="#ECC8CF"/>
</g>
<g id="Group_194">
<path id="Vector_155" d="M58.2686 24.6279L54.2415 22.0005L56.0479 20.9238L58.925 22.9375L58.2686 24.6279ZM54.484 22.0057L58.2108 24.4368L58.7736 22.9874L56.0428 21.0765L54.484 22.0057Z" fill="black"/>
</g>
<g id="Group_195">
<path id="Vector_156" d="M58.7516 22.9623L59.3611 24.5322L63.2381 22.0031L61.5556 21L58.7516 22.9623Z" fill="#ECC8CF"/>
</g>
<g id="Group_196">
<path id="Vector_157" d="M59.3325 24.6276L58.6761 22.9374L61.5532 20.9238L63.3596 22.0005L59.3325 24.6276ZM58.8276 22.9874L59.3903 24.4368L63.1172 22.0057L61.5583 21.0764L58.8276 22.9874Z" fill="black"/>
</g>
<g id="Group_197">
<path id="Vector_158" d="M50.1224 46.8698L50.0898 48.2513C50.0866 48.3887 50.1661 48.5131 50.2874 48.5572C52.7782 49.4629 55.7536 50.0053 58.9397 49.9762C62.0733 49.9476 65.444 49.0763 67.8387 48.2792C67.9616 48.2382 68.0448 48.1151 68.0438 47.977C68.0379 47.2289 67.969 46.8944 67.9554 46.294C67.9503 46.0727 67.7385 45.9275 67.5483 46.0133C65.6862 46.8529 62.8527 47.871 59.1542 48.0138C55.3152 48.1621 52.4332 47.3071 50.5124 46.5816C50.3246 46.5106 50.1275 46.6562 50.1224 46.8698Z" fill="#ECC8CF"/>
</g>
<g id="Group_198">
<path id="Vector_159" d="M58.0839 48.0636C55.0279 48.0636 52.8194 47.3649 51.0946 46.8191C50.829 46.7352 50.5766 46.6552 50.3361 46.583L50.369 46.4571C50.61 46.5294 50.8629 46.6095 51.1291 46.6937C54.2552 47.6827 58.9793 49.1771 67.4855 46.0547L67.5249 46.1784C63.6733 47.5923 60.5929 48.0636 58.0839 48.0636Z" fill="black"/>
</g>
<g id="Group_199">
<path id="Vector_160" d="M49.4529 36.6959C49.4226 36.6959 49.3963 36.6718 49.3924 36.6387L48.5849 29.761C48.5807 29.7252 48.6044 29.6925 48.6378 29.6879C48.6712 29.6839 48.7017 29.7088 48.7059 29.7447L49.5134 36.6222C49.5176 36.6581 49.4939 36.6909 49.4605 36.6953C49.4579 36.6957 49.4553 36.6959 49.4529 36.6959Z" fill="black"/>
</g>
<g id="Group_200">
<path id="Vector_161" d="M51.2259 46.4777L49.6575 49.4552L38.8784 42.9604C37.7527 42.2534 37.3891 40.6913 38.0731 39.4994C38.757 38.3077 40.2207 37.9527 41.3158 38.7131L51.2259 46.4777Z" fill="#FEACA2"/>
</g>
<g id="Group_201">
<path id="Vector_162" d="M49.6896 47.1857C49.6567 47.3328 49.6264 47.4689 49.5999 47.5903C48.6652 48.4309 48.1381 53.737 48.0425 54.7844C48.0316 54.9045 48.0479 55.0205 48.091 55.132C48.3637 55.8357 49.4386 58.513 50.043 58.5861C50.739 58.6703 50.5088 57.7349 50.5088 57.7349L49.5378 55.2254C49.4243 54.9321 49.407 54.6063 49.4882 54.301L50.0499 52.1914C50.1709 52.918 50.3836 54.7634 50.5981 55.0525C50.8077 55.3352 51.2309 55.1692 51.2139 54.8084C51.1874 54.2475 51.299 52.5892 51.5488 51.4062C51.8484 49.9873 51.8393 49.1906 51.7174 48.4056C51.7174 47.6207 51.9613 46.8359 50.8641 46.5742L49.8585 46.125C49.8023 46.4791 49.746 46.8332 49.6896 47.1857Z" fill="#FEACA2"/>
</g>
<g id="Group_202">
<path id="Vector_163" d="M68.2368 37.8099C68.2352 37.8099 68.2334 37.8099 68.2317 37.8098C68.1981 37.8068 68.1732 37.7753 68.1759 37.7393L68.7855 29.4978C68.7882 29.4618 68.8171 29.4353 68.8511 29.4376C68.8847 29.4406 68.9096 29.4721 68.9069 29.5081L68.2973 37.7496C68.2947 37.784 68.2682 37.8099 68.2368 37.8099Z" fill="black"/>
</g>
</g>
<g id="Group_203">
<g id="Group_204">
<path id="Vector_164" d="M63.6803 7.0798C63.5415 6.43484 63.3635 5.87091 63.1821 5.39167C62.8201 4.06583 62.3638 2.98367 61.1609 2.53229L61.1621 2.52624C61.1621 2.52624 61.1546 2.52613 61.1438 2.52604C60.6111 2.32898 60.3961 2.21032 59.7923 2.26759L57.2173 2.51185C57.2045 2.51307 57.1921 2.51521 57.1793 2.51656C57.1507 2.51859 57.1234 2.52076 57.0989 2.52309C56.391 2.59024 55.4303 1.97324 55.161 1.7534C55.1238 1.72296 55.0694 1.75049 55.0667 1.8006C55.0583 1.96282 55.0432 2.25424 55.0322 2.4656C55.0291 2.52623 54.9501 2.54063 54.9294 2.4846C54.837 2.23596 54.7267 1.92468 54.6521 1.71247C54.6307 1.6518 54.5459 1.66523 54.5391 1.73009L54.4321 2.7512C54.4294 2.77755 54.3937 2.77956 54.3892 2.75375L54.2457 1.92805C54.2374 1.88009 54.1746 1.87459 54.1582 1.92074C53.9767 2.43384 52.6899 4.18096 52.506 6.04191C52.3977 6.67898 52.3144 7.43533 52.3106 8.28785C52.3073 9.01107 52.3615 9.66006 52.4387 10.2186L52.7295 10.191L52.7617 10.6767L63.5628 9.75113L63.524 9.16709L63.9394 9.12769C63.9161 8.54744 63.8464 7.85103 63.6803 7.0798Z" fill="#AA5712"/>
</g>
<g id="Group_205">
<path id="Vector_165" d="M59.1095 17.2111L58.2171 17.2958C55.4703 17.5566 53.0881 15.4239 52.8964 12.5321L52.5843 7.82313C52.4383 5.62117 54.0156 3.67492 56.1071 3.47632L59.3724 3.16627C61.4639 2.96766 63.2778 4.59189 63.4238 6.79385L63.7359 11.5028C63.9276 14.3947 61.8563 16.9502 59.1095 17.2111Z" fill="#FEACA2"/>
</g>
<g id="Group_206">
<path id="Vector_166" d="M58.3297 12.7362C58.3245 12.7367 58.3193 12.7371 58.314 12.7368C58.2947 12.7361 57.838 12.717 57.5857 12.4936C57.5606 12.4714 57.5452 12.4397 57.5428 12.4052C57.4632 11.2271 57.9443 9.1978 57.9648 9.11201C57.9817 9.04191 58.0497 8.9979 58.1168 9.01411C58.184 9.03018 58.2248 9.10035 58.208 9.17072C58.2032 9.19099 57.7321 11.1772 57.7894 12.324C57.954 12.4375 58.2283 12.4721 58.3275 12.4757C58.3966 12.4782 58.4495 12.5387 58.4458 12.6108C58.4424 12.6774 58.3918 12.7304 58.3297 12.7362Z" fill="#8E544E"/>
</g>
<g id="Group_207">
<path id="Vector_167" d="M53.5522 10.8365C53.6034 11.6081 53.0506 12.2901 52.3178 12.3597C51.5848 12.4293 50.9493 11.8602 50.8981 11.0886C50.847 10.317 51.3996 9.63498 52.1326 9.56536C52.8654 9.49576 53.5011 10.0649 53.5522 10.8365Z" fill="#FEACA2"/>
</g>
<g id="Group_208">
<path id="Vector_168" d="M53.0761 10.9567C53.0537 10.9589 53.0311 10.9479 53.019 10.9266C52.5109 10.0339 51.5037 10.4556 51.4935 10.46C51.462 10.4736 51.4267 10.4581 51.4144 10.4252C51.4022 10.3924 51.4177 10.3549 51.4492 10.3413C51.4602 10.3366 52.5639 9.87469 53.1243 10.859C53.1415 10.8892 53.132 10.9288 53.1029 10.9475C53.0945 10.9528 53.0854 10.9559 53.0761 10.9567Z" fill="#8E544E"/>
</g>
<g id="Group_209">
<path id="Vector_169" d="M52.0338 11.1872C52.0279 11.1877 52.0215 11.1874 52.0154 11.186C51.9824 11.1786 51.9621 11.1444 51.9698 11.1096C52.0126 10.9178 52.1136 10.7726 52.2698 10.678C52.509 10.5329 52.7968 10.5561 52.8987 10.5899C52.9307 10.6006 52.948 10.6367 52.9372 10.6706C52.9265 10.7046 52.8916 10.7233 52.8597 10.7128C52.7687 10.6824 52.5196 10.6739 52.3293 10.7892C52.2043 10.8649 52.1237 10.9817 52.0892 11.1365C52.0829 11.1648 52.0599 11.1847 52.0338 11.1872Z" fill="#8E544E"/>
</g>
<g id="Group_210">
<path id="Vector_170" d="M62.9199 9.93039C62.971 10.702 63.6066 11.2711 64.3394 11.2015C65.0723 11.1319 65.6248 10.45 65.5737 9.67833C65.5226 8.9067 64.8871 8.33756 64.1542 8.40717C63.4214 8.47678 62.8687 9.15876 62.9199 9.93039Z" fill="#FEACA2"/>
</g>
<g id="Group_211">
<path id="Vector_171" d="M63.4047 9.96115C63.3955 9.96202 63.386 9.96072 63.377 9.95704C63.3457 9.94407 63.331 9.90674 63.344 9.87366C63.7669 8.7966 64.918 9.04574 64.9296 9.04836C64.9625 9.05582 64.9828 9.09001 64.975 9.12466C64.9672 9.1593 64.934 9.18111 64.9016 9.17401C64.8583 9.16408 63.8396 8.94597 63.457 9.92066C63.4479 9.94404 63.4271 9.95904 63.4047 9.96115Z" fill="#8E544E"/>
</g>
<g id="Group_212">
<path id="Vector_172" d="M64.4648 9.98721C64.4387 9.98967 64.4132 9.97434 64.4033 9.94763C64.3487 9.80122 64.2536 9.701 64.1202 9.64979C63.9171 9.57176 63.6722 9.62696 63.5863 9.674C63.5564 9.69045 63.5193 9.67841 63.5042 9.64682C63.489 9.61539 63.5014 9.57653 63.5316 9.55992C63.6277 9.50738 63.9088 9.43045 64.1642 9.52872C64.3311 9.59286 64.4499 9.71724 64.5176 9.89859C64.5298 9.93154 64.5143 9.96905 64.4827 9.98263C64.4768 9.98511 64.4708 9.98665 64.4648 9.98721Z" fill="#8E544E"/>
</g>
<g id="Group_213">
<path id="Vector_173" d="M52.5045 9.18783L53.1302 11.1993L53.6194 11.1529L53.2212 8.86104C53.2212 8.86104 52.7118 4.89738 57.7685 5.06509C57.7685 5.06509 62.5749 3.31521 63.0131 8.06215L62.9223 10.4002L63.5336 10.3423L63.6416 8.26142L63.5476 6.84668L62.3815 4.11007L60.1914 2.63521L57.1342 2.92505L54.2161 3.46054L52.7459 5.41183L52.4618 8.54477L52.5216 9.44506L52.5045 9.18783Z" fill="#AA5712"/>
</g>
<g id="Group_214">
<path id="Vector_174" d="M55.8482 13.7852C56.2736 13.4146 56.8051 13.211 57.3525 13.2015C57.6741 13.1959 58.0137 13.179 58.3694 13.1469C58.7557 13.1123 59.1215 13.0632 59.4647 13.0052C60.0304 12.9094 60.6054 13.0267 61.0853 13.3421C61.6651 13.7233 62.2448 14.1044 62.8246 14.4854C62.6895 14.7173 61.3231 16.9731 58.6427 17.2403C55.9283 17.511 54.3669 15.4084 54.209 15.2128C54.7863 14.7113 55.3048 14.2584 55.8482 13.7852Z" fill="#AA5712"/>
</g>
<g id="Group_215">
<path id="Vector_175" d="M54.2204 13.2086L53.1681 13.304C53.144 13.2232 53.1299 13.2659 53.1094 13.1836L54.1376 13.0904C54.1665 13.1719 54.188 13.1286 54.2204 13.2086Z" fill="#AA5712"/>
</g>
<g id="Group_216">
<path id="Vector_176" d="M54.3273 13.4474L53.1703 13.5408C53.1553 13.5007 53.1737 13.4494 53.161 13.4079L54.2737 13.3269C54.29 13.3681 54.3086 13.4076 54.3273 13.4474Z" fill="#AA5712"/>
</g>
<g id="Group_217">
<path id="Vector_177" d="M62.4409 12.9194L63.582 12.8122C63.3806 13.7237 62.967 14.5628 62.3977 15.2601C61.4929 16.3685 60.1912 17.1394 58.705 17.2638C55.5257 17.5302 54.0112 16.0197 53.1816 13.7852L54.3906 13.6753C54.6469 14.2053 54.9851 14.6737 55.3842 15.062C56.2465 15.8993 57.3917 16.3613 58.6135 16.2465C60.401 16.0787 61.8601 14.7245 62.4409 12.9194Z" fill="#AA5712"/>
</g>
<g id="Group_218">
<path id="Vector_178" d="M63.597 12.5477C63.5902 12.591 63.5822 12.6331 63.5729 12.6754L62.4487 12.7771C62.4617 12.7344 62.4746 12.6919 62.4862 12.6482L63.597 12.5477Z" fill="#AA5712"/>
</g>
<g id="Group_219">
<path id="Vector_179" d="M63.6581 12.2788C63.6493 12.3636 63.6294 12.3241 63.6157 12.4082L62.5171 12.5076C62.538 12.4228 62.5654 12.4631 62.5826 12.3761L63.6581 12.2788Z" fill="#AA5712"/>
</g>
<g id="Group_220">
<path id="Vector_180" d="M58.7207 17.5758C58.653 17.5823 58.5942 17.5297 58.5895 17.4583C58.5848 17.387 58.6359 17.324 58.7036 17.3176C61.619 17.0407 63.8253 14.318 63.6219 11.2481C63.6172 11.1768 63.6682 11.1138 63.736 11.1073C63.8037 11.1009 63.8624 11.1535 63.8672 11.2248C64.08 14.437 61.7713 17.2861 58.7207 17.5758Z" fill="#333232"/>
</g>
<g id="Group_221">
<path id="Vector_181" d="M60.7551 16.4784C60.4427 16.868 59.6014 17.6687 58.8072 17.7874C57.861 17.9289 56.9227 17.1783 56.7889 17.0715C56.7348 16.2557 56.9426 15.6741 56.8885 14.8583L60.2425 14.3231L60.7551 16.4784Z" fill="#AA5712"/>
</g>
<g id="Group_222">
<path id="Vector_182" d="M58.7872 17.2962L58.7862 17.2963L58.5442 17.3191L58.5432 17.3192L58.055 17.3653L57.4448 17.4228C57.4525 17.4469 58.0769 17.8551 58.0892 17.8768L58.4274 18.2449C58.4429 18.2719 58.483 18.258 58.4809 18.2262L58.4467 17.7144C58.4467 17.7144 58.558 17.9536 58.644 18.165C58.6587 18.2161 58.6735 18.265 58.6876 18.307C58.6951 18.3295 58.7154 18.3364 58.7336 18.3318C58.7521 18.3329 58.7713 18.3223 58.7758 18.2987C58.7841 18.2546 58.7922 18.2035 58.7999 18.1503C58.8567 17.9255 58.9349 17.6684 58.9349 17.6684L58.9691 18.1802C58.9712 18.212 59.0127 18.2182 59.0245 18.1886L59.2047 18.005C59.2717 17.9368 59.3326 17.8625 59.3873 17.7832C59.5358 17.5682 59.8697 17.1079 59.877 17.0648L59.2754 17.2502L58.7872 17.2962Z" fill="#AA5712"/>
</g>
</g>
<g id="Group_223">
<g id="Group_224">
<path id="Vector_183" d="M56.287 9.37294C56.3047 9.64001 56.1134 9.8761 55.8598 9.90019C55.6061 9.92428 55.3861 9.72726 55.3684 9.46019C55.3507 9.19311 55.542 8.95703 55.7957 8.93294C56.0493 8.90885 56.2693 9.10586 56.287 9.37294Z" fill="#333232"/>
</g>
</g>
<g id="Group_225">
<g id="Group_226">
<path id="Vector_184" d="M60.8998 8.97841C60.9175 9.24548 60.7262 9.48157 60.4726 9.50566C60.2189 9.52975 59.9989 9.33273 59.9812 9.06566C59.9635 8.79858 60.1548 8.5625 60.4085 8.53841C60.6621 8.51432 60.8821 8.71133 60.8998 8.97841Z" fill="#333232"/>
</g>
</g>
<g id="Group_227">
<g id="Group_228">
<path id="Vector_185" d="M58.5444 15.0486C58.4839 15.0486 58.4314 15.0002 58.4238 14.9342C58.4153 14.8625 58.4625 14.7971 58.5293 14.7879C58.5383 14.7868 59.4318 14.6565 59.648 13.9606C59.6693 13.8921 59.7382 13.855 59.8023 13.8778C59.8661 13.9007 59.9007 13.9749 59.8793 14.0434C59.6143 14.8967 58.6026 15.0417 58.5597 15.0476C58.5545 15.0483 58.5495 15.0486 58.5444 15.0486Z" fill="black"/>
</g>
</g>
<g id="Group_229">
<g id="Group_230">
<path id="Vector_186" d="M77.8591 42.6187C78.9403 41.7934 79.1934 40.1838 78.4243 39.0235L70.3691 26.8711L65.7624 30.326L74.5086 42.0121C75.2777 43.1724 76.7778 43.4439 77.8591 42.6187Z" fill="#FEACA2"/>
</g>
<g id="Group_231">
<path id="Vector_187" d="M70.8901 37.6915L75.5736 34.1169L69.6333 24.8883C68.7133 23.5006 66.9192 23.1758 65.6258 24.1628C64.3324 25.15 63.6692 27.4985 64.5891 28.8864L70.8901 37.6915Z" fill="#ECC8CF"/>
</g>
<g id="Group_232">
<path id="Vector_188" d="M70.924 38.2291C71.008 38.3559 71.1673 38.3934 71.2938 38.3174C72.0757 37.8464 72.9172 37.2867 73.7903 36.6227C74.6935 35.9357 75.4877 35.2457 76.1781 34.5895C76.2865 34.4863 76.3059 34.3124 76.2218 34.1856L75.623 33.2821C75.5258 33.1355 75.3321 33.1108 75.2064 33.2298C74.5261 33.8739 73.7464 34.5493 72.8619 35.222C72.0075 35.8718 71.1836 36.4216 70.416 36.8863C70.2699 36.9746 70.228 37.179 70.3251 37.3256L70.924 38.2291Z" fill="#ECC8CF"/>
</g>
<g id="Group_233">
<path id="Vector_189" d="M70.3798 36.9987C70.3579 36.9987 70.3367 36.9861 70.3258 36.9638C70.3102 36.9319 70.3216 36.8922 70.3515 36.8755C71.2856 36.3494 72.5248 35.4239 73.0141 35.0504C73.968 34.3224 74.5768 33.7418 75.0927 33.2228C75.1172 33.1981 75.1558 33.1994 75.1787 33.2257C75.2019 33.2521 75.2006 33.2935 75.176 33.3182C74.657 33.8404 74.0444 34.4246 73.0848 35.1571C72.5934 35.5321 71.3489 36.4617 70.4082 36.9913C70.3991 36.9964 70.3893 36.9987 70.3798 36.9987Z" fill="black"/>
</g>
</g>
<g id="Group_234">
<g id="Group_235">
<path id="Vector_190" d="M79.3651 27.3384C80.3119 27.4753 80.9472 28.3904 80.7856 29.3842L78.9315 40.7843C78.6813 42.1732 77.3918 43.1153 76.0747 42.8714C74.7575 42.6273 73.9283 41.2928 74.2376 39.9148L77.3954 28.6849C77.6467 27.7912 78.4935 27.2122 79.3651 27.3384Z" fill="#FEACA2"/>
</g>
<g id="Group_236">
<path id="Vector_191" d="M75.6716 35.0933L74.5505 39.0746" stroke="#BE614B" stroke-width="0.136708" stroke-miterlimit="10" stroke-linecap="round"/>
</g>
</g>
<g id="Group_237">
<g id="Group_238">
<path id="Vector_192" d="M81.6965 24.1948L82.9373 20.2855C83.007 20.0176 82.8689 19.7386 82.6048 19.6581C82.3497 19.5804 82.0755 19.7483 81.9754 20.0118L81.0376 22.7769L82.1637 18.1631C82.1162 17.9046 81.9336 17.6363 81.7278 17.5434C81.459 17.422 81.1 17.6466 81.0247 17.9361L80.0148 22.1188L80.6066 16.8602C80.6367 16.5964 80.4995 16.3016 80.1634 16.2612C79.885 16.2278 79.5063 16.3692 79.3461 16.6707L78.6481 22.1223C78.7615 22.08 78.6869 19.9388 78.686 19.9133C78.6847 19.877 78.6531 17.2336 78.6519 17.1972C78.636 16.9098 78.3453 16.7982 78.0813 16.8165C77.8254 16.8341 77.6173 17.0509 77.5996 17.318L77.5621 21.2002L76.9118 23.8112L77.0426 23.8502C76.5652 23.6182 76.2513 22.4813 75.9563 22.0263C75.7597 21.7232 75.3283 21.6174 75.0271 21.8273C74.7193 22.0418 74.6244 22.4697 74.8156 22.7876L75.8229 25.2578L77.2216 28.0229C77.2545 28.2941 77.2686 28.1366 77.3328 28.8773C77.3551 29.7241 77.9801 30.3978 78.7889 30.4471C79.6117 30.4974 80.2869 29.905 80.5078 29.1264" fill="#FEACA2"/>
</g>
<g id="Group_239">
<path id="Vector_193" d="M77.0131 23.9316C77.0131 23.9316 78.5455 24.5902 79.1225 25.5526" stroke="#BE614B" stroke-width="0.136708" stroke-miterlimit="10" stroke-linecap="round"/>
</g>
</g>
<g id="Group_240">
<g id="Group_241">
<path id="Vector_194" d="M58.1786 25.1406C58.1786 25.1406 57.9563 27.6934 58.1861 30.0634C58.3432 32.1477 57.9184 33.5875 57.7828 34.4778C57.6486 35.2089 57.3894 36.5899 58.0858 40.0441C58.1253 42.1088 57.5544 44.7275 57.5544 44.7275L58.8973 46.473L60.3227 44.6434C60.3227 44.6434 60.4822 41.8519 60.0792 39.8732C59.4605 37.7099 59.557 35.499 59.5685 34.843C59.5314 34.0308 60.5608 32.1728 59.878 29.5554C59.673 27.3547 59.5197 25.1406 59.5197 25.1406H58.1786Z" fill="#EB7859"/>
</g>
</g>
<g id="Group_242">
<g id="Group_243">
<path id="Vector_195" d="M55.4929 8.60555L54.874 8.68789L54.954 10.1416L55.1569 9.98087L55.5394 9.80313L55.9803 9.76127L56.2345 9.87854L56.6629 10.1443L56.6094 8.5938L55.4929 8.60555Z" fill="#FEACA2"/>
</g>
</g>
<g id="Group_244">
<g id="Group_245">
<path id="Vector_196" d="M60.2219 8.1993L59.603 8.28164L59.683 9.7353L59.8859 9.57462L60.2685 9.39688L60.7093 9.35502L60.9635 9.47229L61.3919 9.738L61.3384 8.18755L60.2219 8.1993Z" fill="#FEACA2"/>
</g>
</g>
<g id="Group_246">
<g id="Group_247">
<path id="Vector_197" d="M56.5902 7.61559L54.7566 8.16936C54.5767 8.2237 54.3943 8.11851 54.3494 7.93436L54.3348 7.87444C54.2899 7.6903 54.3995 7.49693 54.5794 7.44259L56.413 6.88882C56.5929 6.83448 56.7751 6.93972 56.82 7.12386L56.8346 7.18378C56.8795 7.36793 56.7701 7.56126 56.5902 7.61559Z" fill="#775023"/>
</g>
</g>
<g id="Group_248">
<g id="Group_249">
<path id="Vector_198" d="M59.2076 7.47273L61.0807 7.81628C61.2645 7.84999 61.4352 7.72418 61.4618 7.53525L61.4704 7.47377C61.497 7.28484 61.3695 7.10433 61.1857 7.07062L59.3126 6.72708C59.1288 6.69337 58.9581 6.81917 58.9315 7.00811L58.9228 7.06958C58.8962 7.25851 59.0238 7.43902 59.2076 7.47273Z" fill="#775023"/>
</g>
</g>
</g>
</g>
</g>
</g>
</g>
</g>
</g>
</g>
<defs>
<clipPath id="clip0_648_38313">
<rect x="0.374268" y="0.404297" width="140.709" height="90.798" rx="12" fill="white"/>
</clipPath>
</defs>
</svg>
